<?xml version="1.0" encoding="UTF-8"?>
<!-- ART-LBL-04 foam bay tag: HELMET HM-01 -->
<!-- 60 x 12 mm, white on black. Legend from PKG-EEG-015 section 2.2, cap height 4.89 mm on 1 line(s). -->
<!-- Generated by tools/artwork_gen.py from PKG-EEG-015 Rev B.  Licence: CC BY-SA 4.0. -->
<!-- Trim size is the viewBox in millimetres.  All text is outlined: there is no font to substitute. -->
<svg xmlns="http://www.w3.org/2000/svg" version="1.1" width="60.0mm" height="12.0mm" viewBox="0 0 60.0000 12.0000">
<title>ART-LBL-04 foam bay tag: HELMET HM-01</title>
<desc>60 x 12 mm, white on black. Legend from PKG-EEG-015 section 2.2, cap height 4.89 mm on 1 line(s).</desc>
<g transform="translate(0,12.0000) scale(1,-1)">
<rect x="0" y="0" width="60.0000" height="12.0000" fill="#000000"/>
<path d="M2.0000,8.4466 L3.2616,8.4466 L3.2616,6.5820 L5.1230,6.5820 L5.1230,8.4466 L6.3846,8.4466 L6.3846,3.5534 L5.1230,3.5534 L5.1230,5.6277 L3.2616,5.6277 L3.2616,3.5534 L2.0000,3.5534 L2.0000,8.4466 Z M7.6170,8.4466 L11.0211,8.4466 L11.0211,7.4923 L8.8786,7.4923 L8.8786,6.5820 L10.8942,6.5820 L10.8942,5.6277 L8.8786,5.6277 L8.8786,4.5067 L11.0934,4.5067 L11.0934,3.5534 L7.6170,3.5534 L7.6170,8.4466 Z M12.2018,8.4466 L13.4634,8.4466 L13.4634,4.5067 L15.6782,4.5067 L15.6782,3.5534 L12.2018,3.5534 L12.2018,8.4466 Z M16.4785,8.4466 L18.0840,8.4466 L19.1977,5.8280 L20.3188,8.4466 L21.9212,8.4466 L21.9212,3.5534 L20.7288,3.5534 L20.7288,7.1326 L19.6015,4.4941 L18.8013,4.4941 L17.6740,7.1326 L17.6740,3.5534 L16.4785,3.5534 L16.4785,8.4466 Z M23.1573,8.4466 L26.5613,8.4466 L26.5613,7.4923 L24.4189,7.4923 L24.4189,6.5820 L26.4345,6.5820 L26.4345,5.6277 L24.4189,5.6277 L24.4189,4.5067 L26.6337,4.5067 L26.6337,3.5534 L23.1573,3.5534 L23.1573,8.4466 Z M27.1579,8.4466 L31.6673,8.4466 L31.6673,7.4923 L30.0450,7.4923 L30.0450,3.5534 L28.7834,3.5534 L28.7834,7.4923 L27.1579,7.4923 L27.1579,8.4466 Z M34.6568,8.4466 L35.9184,8.4466 L35.9184,6.5820 L37.7798,6.5820 L37.7798,8.4466 L39.0414,8.4466 L39.0414,3.5534 L37.7798,3.5534 L37.7798,5.6277 L35.9184,5.6277 L35.9184,3.5534 L34.6568,3.5534 L34.6568,8.4466 Z M40.2739,8.4466 L41.8794,8.4466 L42.9931,5.8280 L44.1142,8.4466 L45.7166,8.4466 L45.7166,3.5534 L44.5242,3.5534 L44.5242,7.1326 L43.3969,4.4941 L42.5967,4.4941 L41.4694,7.1326 L41.4694,3.5534 L40.2739,3.5534 L40.2739,8.4466 Z M46.7000,5.9622 L48.7575,5.9622 L48.7575,5.0090 L46.7000,5.0090 L46.7000,5.9622 Z M52.2090,6.0052 Q52.2090,6.9228 52.0370,7.2972 Q51.8650,7.6727 51.4581,7.6727 Q51.0523,7.6727 50.8782,7.2972 Q50.7041,6.9228 50.7041,6.0052 Q50.7041,5.0772 50.8782,4.6965 Q51.0523,4.3169 51.4581,4.3169 Q51.8619,4.3169 52.0349,4.6965 Q52.2090,5.0772 52.2090,6.0052 Z M53.4706,5.9948 Q53.4706,4.7793 52.9462,4.1187 Q52.4219,3.4580 51.4581,3.4580 Q50.4913,3.4580 49.9669,4.1187 Q49.4426,4.7793 49.4426,5.9948 Q49.4426,7.2144 49.9669,7.8740 Q50.4913,8.5347 51.4581,8.5347 Q52.4219,8.5347 52.9462,7.8740 Q53.4706,7.2144 53.4706,5.9948 Z M54.5781,4.4249 L55.6929,4.4249 L55.6929,7.5877 L54.5488,7.3518 L54.5488,8.2106 L55.6855,8.4466 L56.8852,8.4466 L56.8852,4.4249 L58.0000,4.4249 L58.0000,3.5534 L54.5781,3.5534 L54.5781,4.4249 Z" fill="#FFFFFF" stroke="none"/>
</g></svg>
