ISO-10303-21;
HEADER;
FILE_DESCRIPTION(('DECLARED MAXIMUM envelopes of the thirteen module assemblies. No vendor drawing was consulted. ASM-EEG-023 MECH-D6.'),'2;1');
FILE_NAME('EEG-CAR-01_RevC_module_envelopes','2026-09-08T00:00:00',('TI One Voice research programme'),(''),'EEG-CAR-01 step_write.py','','CC BY-SA 4.0');
FILE_SCHEMA(('AUTOMOTIVE_DESIGN { 1 0 10303 214 1 1 1 1 }'));
ENDSEC;
DATA;
#1 = CARTESIAN_POINT('',(0.,0.,0.));
#2 = DIRECTION('',(0.,0.,1.));
#3 = DIRECTION('',(1.,0.,0.));
#4 = AXIS2_PLACEMENT_3D('',#1,#2,#3);
#5 = ( NAMED_UNIT(*) SI_UNIT(.MILLI.,.METRE.) LENGTH_UNIT() );
#6 = ( NAMED_UNIT(*) PLANE_ANGLE_UNIT() SI_UNIT($,.RADIAN.) );
#7 = ( NAMED_UNIT(*) SI_UNIT($,.STERADIAN.) SOLID_ANGLE_UNIT() );
#8 = UNCERTAINTY_MEASURE_WITH_UNIT(LENGTH_MEASURE(1.E-06),#5,'distance_accuracy_value','confusion accuracy');
#9 = ( GEOMETRIC_REPRESENTATION_CONTEXT(3) GLOBAL_UNCERTAINTY_ASSIGNED_CONTEXT((#8)) GLOBAL_UNIT_ASSIGNED_CONTEXT((#5,#6,#7)) REPRESENTATION_CONTEXT('','3D') );
#10 = APPLICATION_CONTEXT('automotive design');
#11 = APPLICATION_PROTOCOL_DEFINITION('international standard','automotive_design',2000,#10);
#12 = PRODUCT_CONTEXT('',#10,'mechanical');
#13 = PRODUCT_DEFINITION_CONTEXT('part definition',#10,'design');
#14 = CARTESIAN_POINT('',(80.680000,66.170000,0.000000));
#15 = CARTESIAN_POINT('',(106.180000,66.170000,0.000000));
#16 = CARTESIAN_POINT('',(106.180000,3.170000,0.000000));
#17 = CARTESIAN_POINT('',(80.680000,3.170000,0.000000));
#18 = POLY_LOOP('',(#14,#15,#16,#17));
#19 = FACE_OUTER_BOUND('',#18,.T.);
#20 = DIRECTION('',(0.000000,0.000000,-1.000000));
#21 = DIRECTION('',(-0.000000,1.000000,0.000000));
#22 = AXIS2_PLACEMENT_3D('',#14,#20,#21);
#23 = PLANE('',#22);
#24 = FACE_SURFACE('',(#19),#23,.T.);
#25 = CARTESIAN_POINT('',(80.680000,3.170000,13.600000));
#26 = CARTESIAN_POINT('',(106.180000,3.170000,13.600000));
#27 = CARTESIAN_POINT('',(106.180000,66.170000,13.600000));
#28 = CARTESIAN_POINT('',(80.680000,66.170000,13.600000));
#29 = POLY_LOOP('',(#25,#26,#27,#28));
#30 = FACE_OUTER_BOUND('',#29,.T.);
#31 = DIRECTION('',(0.000000,0.000000,1.000000));
#32 = DIRECTION('',(0.000000,-1.000000,0.000000));
#33 = AXIS2_PLACEMENT_3D('',#25,#31,#32);
#34 = PLANE('',#33);
#35 = FACE_SURFACE('',(#30),#34,.T.);
#36 = POLY_LOOP('',(#17,#16,#26,#25));
#37 = FACE_OUTER_BOUND('',#36,.T.);
#38 = DIRECTION('',(0.000000,-1.000000,0.000000));
#39 = DIRECTION('',(0.000000,0.000000,-1.000000));
#40 = AXIS2_PLACEMENT_3D('',#17,#38,#39);
#41 = PLANE('',#40);
#42 = FACE_SURFACE('',(#37),#41,.T.);
#43 = POLY_LOOP('',(#16,#15,#27,#26));
#44 = FACE_OUTER_BOUND('',#43,.T.);
#45 = DIRECTION('',(1.000000,-0.000000,0.000000));
#46 = DIRECTION('',(0.000000,0.000000,-1.000000));
#47 = AXIS2_PLACEMENT_3D('',#16,#45,#46);
#48 = PLANE('',#47);
#49 = FACE_SURFACE('',(#44),#48,.T.);
#50 = POLY_LOOP('',(#15,#14,#28,#27));
#51 = FACE_OUTER_BOUND('',#50,.T.);
#52 = DIRECTION('',(0.000000,1.000000,0.000000));
#53 = DIRECTION('',(0.000000,0.000000,1.000000));
#54 = AXIS2_PLACEMENT_3D('',#15,#52,#53);
#55 = PLANE('',#54);
#56 = FACE_SURFACE('',(#51),#55,.T.);
#57 = POLY_LOOP('',(#14,#17,#25,#28));
#58 = FACE_OUTER_BOUND('',#57,.T.);
#59 = DIRECTION('',(-1.000000,-0.000000,0.000000));
#60 = DIRECTION('',(0.000000,-0.000000,1.000000));
#61 = AXIS2_PLACEMENT_3D('',#14,#59,#60);
#62 = PLANE('',#61);
#63 = FACE_SURFACE('',(#58),#62,.T.);
#64 = CLOSED_SHELL('',(#24,#35,#42,#49,#56,#63));
#65 = FACETED_BREP('ESP32-S3-DevKitC-1_body',#64);
#66 = CARTESIAN_POINT('',(34.000000,65.500000,21.000000));
#67 = CARTESIAN_POINT('',(74.000000,65.500000,21.000000));
#68 = CARTESIAN_POINT('',(74.000000,35.500000,21.000000));
#69 = CARTESIAN_POINT('',(34.000000,35.500000,21.000000));
#70 = POLY_LOOP('',(#66,#67,#68,#69));
#71 = FACE_OUTER_BOUND('',#70,.T.);
#72 = DIRECTION('',(0.000000,0.000000,-1.000000));
#73 = DIRECTION('',(-0.000000,1.000000,0.000000));
#74 = AXIS2_PLACEMENT_3D('',#66,#72,#73);
#75 = PLANE('',#74);
#76 = FACE_SURFACE('',(#71),#75,.T.);
#77 = CARTESIAN_POINT('',(34.000000,35.500000,33.000000));
#78 = CARTESIAN_POINT('',(74.000000,35.500000,33.000000));
#79 = CARTESIAN_POINT('',(74.000000,65.500000,33.000000));
#80 = CARTESIAN_POINT('',(34.000000,65.500000,33.000000));
#81 = POLY_LOOP('',(#77,#78,#79,#80));
#82 = FACE_OUTER_BOUND('',#81,.T.);
#83 = DIRECTION('',(0.000000,0.000000,1.000000));
#84 = DIRECTION('',(0.000000,-1.000000,0.000000));
#85 = AXIS2_PLACEMENT_3D('',#77,#83,#84);
#86 = PLANE('',#85);
#87 = FACE_SURFACE('',(#82),#86,.T.);
#88 = POLY_LOOP('',(#69,#68,#78,#77));
#89 = FACE_OUTER_BOUND('',#88,.T.);
#90 = DIRECTION('',(0.000000,-1.000000,0.000000));
#91 = DIRECTION('',(0.000000,0.000000,-1.000000));
#92 = AXIS2_PLACEMENT_3D('',#69,#90,#91);
#93 = PLANE('',#92);
#94 = FACE_SURFACE('',(#89),#93,.T.);
#95 = POLY_LOOP('',(#68,#67,#79,#78));
#96 = FACE_OUTER_BOUND('',#95,.T.);
#97 = DIRECTION('',(1.000000,-0.000000,0.000000));
#98 = DIRECTION('',(0.000000,0.000000,-1.000000));
#99 = AXIS2_PLACEMENT_3D('',#68,#97,#98);
#100 = PLANE('',#99);
#101 = FACE_SURFACE('',(#96),#100,.T.);
#102 = POLY_LOOP('',(#67,#66,#80,#79));
#103 = FACE_OUTER_BOUND('',#102,.T.);
#104 = DIRECTION('',(0.000000,1.000000,0.000000));
#105 = DIRECTION('',(0.000000,0.000000,1.000000));
#106 = AXIS2_PLACEMENT_3D('',#67,#104,#105);
#107 = PLANE('',#106);
#108 = FACE_SURFACE('',(#103),#107,.T.);
#109 = POLY_LOOP('',(#66,#69,#77,#80));
#110 = FACE_OUTER_BOUND('',#109,.T.);
#111 = DIRECTION('',(-1.000000,-0.000000,0.000000));
#112 = DIRECTION('',(0.000000,-0.000000,1.000000));
#113 = AXIS2_PLACEMENT_3D('',#66,#111,#112);
#114 = PLANE('',#113);
#115 = FACE_SURFACE('',(#110),#114,.T.);
#116 = CLOSED_SHELL('',(#76,#87,#94,#101,#108,#115));
#117 = FACETED_BREP('M3_audio_codec',#116);
#118 = CARTESIAN_POINT('',(69.500000,115.000000,21.000000));
#119 = CARTESIAN_POINT('',(134.500000,115.000000,21.000000));
#120 = CARTESIAN_POINT('',(134.500000,70.000000,21.000000));
#121 = CARTESIAN_POINT('',(69.500000,70.000000,21.000000));
#122 = POLY_LOOP('',(#118,#119,#120,#121));
#123 = FACE_OUTER_BOUND('',#122,.T.);
#124 = DIRECTION('',(0.000000,0.000000,-1.000000));
#125 = DIRECTION('',(-0.000000,1.000000,0.000000));
#126 = AXIS2_PLACEMENT_3D('',#118,#124,#125);
#127 = PLANE('',#126);
#128 = FACE_SURFACE('',(#123),#127,.T.);
#129 = CARTESIAN_POINT('',(69.500000,70.000000,36.000000));
#130 = CARTESIAN_POINT('',(134.500000,70.000000,36.000000));
#131 = CARTESIAN_POINT('',(134.500000,115.000000,36.000000));
#132 = CARTESIAN_POINT('',(69.500000,115.000000,36.000000));
#133 = POLY_LOOP('',(#129,#130,#131,#132));
#134 = FACE_OUTER_BOUND('',#133,.T.);
#135 = DIRECTION('',(0.000000,0.000000,1.000000));
#136 = DIRECTION('',(0.000000,-1.000000,0.000000));
#137 = AXIS2_PLACEMENT_3D('',#129,#135,#136);
#138 = PLANE('',#137);
#139 = FACE_SURFACE('',(#134),#138,.T.);
#140 = POLY_LOOP('',(#121,#120,#130,#129));
#141 = FACE_OUTER_BOUND('',#140,.T.);
#142 = DIRECTION('',(0.000000,-1.000000,0.000000));
#143 = DIRECTION('',(0.000000,0.000000,-1.000000));
#144 = AXIS2_PLACEMENT_3D('',#121,#142,#143);
#145 = PLANE('',#144);
#146 = FACE_SURFACE('',(#141),#145,.T.);
#147 = POLY_LOOP('',(#120,#119,#131,#130));
#148 = FACE_OUTER_BOUND('',#147,.T.);
#149 = DIRECTION('',(1.000000,-0.000000,0.000000));
#150 = DIRECTION('',(0.000000,0.000000,-1.000000));
#151 = AXIS2_PLACEMENT_3D('',#120,#149,#150);
#152 = PLANE('',#151);
#153 = FACE_SURFACE('',(#148),#152,.T.);
#154 = POLY_LOOP('',(#119,#118,#132,#131));
#155 = FACE_OUTER_BOUND('',#154,.T.);
#156 = DIRECTION('',(0.000000,1.000000,0.000000));
#157 = DIRECTION('',(0.000000,0.000000,1.000000));
#158 = AXIS2_PLACEMENT_3D('',#119,#156,#157);
#159 = PLANE('',#158);
#160 = FACE_SURFACE('',(#155),#159,.T.);
#161 = POLY_LOOP('',(#118,#121,#129,#132));
#162 = FACE_OUTER_BOUND('',#161,.T.);
#163 = DIRECTION('',(-1.000000,-0.000000,0.000000));
#164 = DIRECTION('',(0.000000,-0.000000,1.000000));
#165 = AXIS2_PLACEMENT_3D('',#118,#163,#164);
#166 = PLANE('',#165);
#167 = FACE_SURFACE('',(#162),#166,.T.);
#168 = CLOSED_SHELL('',(#128,#139,#146,#153,#160,#167));
#169 = FACETED_BREP('M4_USB_isolator',#168);
#170 = CARTESIAN_POINT('',(39.000000,33.500000,21.000000));
#171 = CARTESIAN_POINT('',(69.000000,33.500000,21.000000));
#172 = CARTESIAN_POINT('',(69.000000,11.500000,21.000000));
#173 = CARTESIAN_POINT('',(39.000000,11.500000,21.000000));
#174 = POLY_LOOP('',(#170,#171,#172,#173));
#175 = FACE_OUTER_BOUND('',#174,.T.);
#176 = DIRECTION('',(0.000000,0.000000,-1.000000));
#177 = DIRECTION('',(-0.000000,1.000000,0.000000));
#178 = AXIS2_PLACEMENT_3D('',#170,#176,#177);
#179 = PLANE('',#178);
#180 = FACE_SURFACE('',(#175),#179,.T.);
#181 = CARTESIAN_POINT('',(39.000000,11.500000,29.000000));
#182 = CARTESIAN_POINT('',(69.000000,11.500000,29.000000));
#183 = CARTESIAN_POINT('',(69.000000,33.500000,29.000000));
#184 = CARTESIAN_POINT('',(39.000000,33.500000,29.000000));
#185 = POLY_LOOP('',(#181,#182,#183,#184));
#186 = FACE_OUTER_BOUND('',#185,.T.);
#187 = DIRECTION('',(0.000000,0.000000,1.000000));
#188 = DIRECTION('',(0.000000,-1.000000,0.000000));
#189 = AXIS2_PLACEMENT_3D('',#181,#187,#188);
#190 = PLANE('',#189);
#191 = FACE_SURFACE('',(#186),#190,.T.);
#192 = POLY_LOOP('',(#173,#172,#182,#181));
#193 = FACE_OUTER_BOUND('',#192,.T.);
#194 = DIRECTION('',(0.000000,-1.000000,0.000000));
#195 = DIRECTION('',(0.000000,0.000000,-1.000000));
#196 = AXIS2_PLACEMENT_3D('',#173,#194,#195);
#197 = PLANE('',#196);
#198 = FACE_SURFACE('',(#193),#197,.T.);
#199 = POLY_LOOP('',(#172,#171,#183,#182));
#200 = FACE_OUTER_BOUND('',#199,.T.);
#201 = DIRECTION('',(1.000000,-0.000000,0.000000));
#202 = DIRECTION('',(0.000000,0.000000,-1.000000));
#203 = AXIS2_PLACEMENT_3D('',#172,#201,#202);
#204 = PLANE('',#203);
#205 = FACE_SURFACE('',(#200),#204,.T.);
#206 = POLY_LOOP('',(#171,#170,#184,#183));
#207 = FACE_OUTER_BOUND('',#206,.T.);
#208 = DIRECTION('',(0.000000,1.000000,0.000000));
#209 = DIRECTION('',(0.000000,0.000000,1.000000));
#210 = AXIS2_PLACEMENT_3D('',#171,#208,#209);
#211 = PLANE('',#210);
#212 = FACE_SURFACE('',(#207),#211,.T.);
#213 = POLY_LOOP('',(#170,#173,#181,#184));
#214 = FACE_OUTER_BOUND('',#213,.T.);
#215 = DIRECTION('',(-1.000000,-0.000000,0.000000));
#216 = DIRECTION('',(0.000000,-0.000000,1.000000));
#217 = AXIS2_PLACEMENT_3D('',#170,#215,#216);
#218 = PLANE('',#217);
#219 = FACE_SURFACE('',(#214),#218,.T.);
#220 = CLOSED_SHELL('',(#180,#191,#198,#205,#212,#219));
#221 = FACETED_BREP('M5_secure_element',#220);
#222 = CARTESIAN_POINT('',(18.000000,100.500000,21.000000));
#223 = CARTESIAN_POINT('',(58.000000,100.500000,21.000000));
#224 = CARTESIAN_POINT('',(58.000000,70.500000,21.000000));
#225 = CARTESIAN_POINT('',(18.000000,70.500000,21.000000));
#226 = POLY_LOOP('',(#222,#223,#224,#225));
#227 = FACE_OUTER_BOUND('',#226,.T.);
#228 = DIRECTION('',(0.000000,0.000000,-1.000000));
#229 = DIRECTION('',(-0.000000,1.000000,0.000000));
#230 = AXIS2_PLACEMENT_3D('',#222,#228,#229);
#231 = PLANE('',#230);
#232 = FACE_SURFACE('',(#227),#231,.T.);
#233 = CARTESIAN_POINT('',(18.000000,70.500000,31.000000));
#234 = CARTESIAN_POINT('',(58.000000,70.500000,31.000000));
#235 = CARTESIAN_POINT('',(58.000000,100.500000,31.000000));
#236 = CARTESIAN_POINT('',(18.000000,100.500000,31.000000));
#237 = POLY_LOOP('',(#233,#234,#235,#236));
#238 = FACE_OUTER_BOUND('',#237,.T.);
#239 = DIRECTION('',(0.000000,0.000000,1.000000));
#240 = DIRECTION('',(0.000000,-1.000000,0.000000));
#241 = AXIS2_PLACEMENT_3D('',#233,#239,#240);
#242 = PLANE('',#241);
#243 = FACE_SURFACE('',(#238),#242,.T.);
#244 = POLY_LOOP('',(#225,#224,#234,#233));
#245 = FACE_OUTER_BOUND('',#244,.T.);
#246 = DIRECTION('',(0.000000,-1.000000,0.000000));
#247 = DIRECTION('',(0.000000,0.000000,-1.000000));
#248 = AXIS2_PLACEMENT_3D('',#225,#246,#247);
#249 = PLANE('',#248);
#250 = FACE_SURFACE('',(#245),#249,.T.);
#251 = POLY_LOOP('',(#224,#223,#235,#234));
#252 = FACE_OUTER_BOUND('',#251,.T.);
#253 = DIRECTION('',(1.000000,-0.000000,0.000000));
#254 = DIRECTION('',(0.000000,0.000000,-1.000000));
#255 = AXIS2_PLACEMENT_3D('',#224,#253,#254);
#256 = PLANE('',#255);
#257 = FACE_SURFACE('',(#252),#256,.T.);
#258 = POLY_LOOP('',(#223,#222,#236,#235));
#259 = FACE_OUTER_BOUND('',#258,.T.);
#260 = DIRECTION('',(0.000000,1.000000,0.000000));
#261 = DIRECTION('',(0.000000,0.000000,1.000000));
#262 = AXIS2_PLACEMENT_3D('',#223,#260,#261);
#263 = PLANE('',#262);
#264 = FACE_SURFACE('',(#259),#263,.T.);
#265 = POLY_LOOP('',(#222,#225,#233,#236));
#266 = FACE_OUTER_BOUND('',#265,.T.);
#267 = DIRECTION('',(-1.000000,-0.000000,0.000000));
#268 = DIRECTION('',(0.000000,-0.000000,1.000000));
#269 = AXIS2_PLACEMENT_3D('',#222,#267,#268);
#270 = PLANE('',#269);
#271 = FACE_SURFACE('',(#266),#270,.T.);
#272 = CLOSED_SHELL('',(#232,#243,#250,#257,#264,#271));
#273 = FACETED_BREP('M6_charger',#272);
#274 = CARTESIAN_POINT('',(11.000000,51.500000,21.000000));
#275 = CARTESIAN_POINT('',(33.000000,51.500000,21.000000));
#276 = CARTESIAN_POINT('',(33.000000,21.500000,21.000000));
#277 = CARTESIAN_POINT('',(11.000000,21.500000,21.000000));
#278 = POLY_LOOP('',(#274,#275,#276,#277));
#279 = FACE_OUTER_BOUND('',#278,.T.);
#280 = DIRECTION('',(0.000000,0.000000,-1.000000));
#281 = DIRECTION('',(-0.000000,1.000000,0.000000));
#282 = AXIS2_PLACEMENT_3D('',#274,#280,#281);
#283 = PLANE('',#282);
#284 = FACE_SURFACE('',(#279),#283,.T.);
#285 = CARTESIAN_POINT('',(11.000000,21.500000,29.000000));
#286 = CARTESIAN_POINT('',(33.000000,21.500000,29.000000));
#287 = CARTESIAN_POINT('',(33.000000,51.500000,29.000000));
#288 = CARTESIAN_POINT('',(11.000000,51.500000,29.000000));
#289 = POLY_LOOP('',(#285,#286,#287,#288));
#290 = FACE_OUTER_BOUND('',#289,.T.);
#291 = DIRECTION('',(0.000000,0.000000,1.000000));
#292 = DIRECTION('',(0.000000,-1.000000,0.000000));
#293 = AXIS2_PLACEMENT_3D('',#285,#291,#292);
#294 = PLANE('',#293);
#295 = FACE_SURFACE('',(#290),#294,.T.);
#296 = POLY_LOOP('',(#277,#276,#286,#285));
#297 = FACE_OUTER_BOUND('',#296,.T.);
#298 = DIRECTION('',(0.000000,-1.000000,0.000000));
#299 = DIRECTION('',(0.000000,0.000000,-1.000000));
#300 = AXIS2_PLACEMENT_3D('',#277,#298,#299);
#301 = PLANE('',#300);
#302 = FACE_SURFACE('',(#297),#301,.T.);
#303 = POLY_LOOP('',(#276,#275,#287,#286));
#304 = FACE_OUTER_BOUND('',#303,.T.);
#305 = DIRECTION('',(1.000000,-0.000000,0.000000));
#306 = DIRECTION('',(0.000000,0.000000,-1.000000));
#307 = AXIS2_PLACEMENT_3D('',#276,#305,#306);
#308 = PLANE('',#307);
#309 = FACE_SURFACE('',(#304),#308,.T.);
#310 = POLY_LOOP('',(#275,#274,#288,#287));
#311 = FACE_OUTER_BOUND('',#310,.T.);
#312 = DIRECTION('',(0.000000,1.000000,0.000000));
#313 = DIRECTION('',(0.000000,0.000000,1.000000));
#314 = AXIS2_PLACEMENT_3D('',#275,#312,#313);
#315 = PLANE('',#314);
#316 = FACE_SURFACE('',(#311),#315,.T.);
#317 = POLY_LOOP('',(#274,#277,#285,#288));
#318 = FACE_OUTER_BOUND('',#317,.T.);
#319 = DIRECTION('',(-1.000000,-0.000000,0.000000));
#320 = DIRECTION('',(0.000000,-0.000000,1.000000));
#321 = AXIS2_PLACEMENT_3D('',#274,#319,#320);
#322 = PLANE('',#321);
#323 = FACE_SURFACE('',(#318),#322,.T.);
#324 = CLOSED_SHELL('',(#284,#295,#302,#309,#316,#323));
#325 = FACETED_BREP('M7_fuel_gauge',#324);
#326 = CARTESIAN_POINT('',(43.800000,119.900000,21.000000));
#327 = CARTESIAN_POINT('',(64.200000,119.900000,21.000000));
#328 = CARTESIAN_POINT('',(64.200000,107.100000,21.000000));
#329 = CARTESIAN_POINT('',(43.800000,107.100000,21.000000));
#330 = POLY_LOOP('',(#326,#327,#328,#329));
#331 = FACE_OUTER_BOUND('',#330,.T.);
#332 = DIRECTION('',(0.000000,0.000000,-1.000000));
#333 = DIRECTION('',(-0.000000,1.000000,0.000000));
#334 = AXIS2_PLACEMENT_3D('',#326,#332,#333);
#335 = PLANE('',#334);
#336 = FACE_SURFACE('',(#331),#335,.T.);
#337 = CARTESIAN_POINT('',(43.800000,107.100000,31.000000));
#338 = CARTESIAN_POINT('',(64.200000,107.100000,31.000000));
#339 = CARTESIAN_POINT('',(64.200000,119.900000,31.000000));
#340 = CARTESIAN_POINT('',(43.800000,119.900000,31.000000));
#341 = POLY_LOOP('',(#337,#338,#339,#340));
#342 = FACE_OUTER_BOUND('',#341,.T.);
#343 = DIRECTION('',(0.000000,0.000000,1.000000));
#344 = DIRECTION('',(0.000000,-1.000000,0.000000));
#345 = AXIS2_PLACEMENT_3D('',#337,#343,#344);
#346 = PLANE('',#345);
#347 = FACE_SURFACE('',(#342),#346,.T.);
#348 = POLY_LOOP('',(#329,#328,#338,#337));
#349 = FACE_OUTER_BOUND('',#348,.T.);
#350 = DIRECTION('',(0.000000,-1.000000,0.000000));
#351 = DIRECTION('',(0.000000,0.000000,-1.000000));
#352 = AXIS2_PLACEMENT_3D('',#329,#350,#351);
#353 = PLANE('',#352);
#354 = FACE_SURFACE('',(#349),#353,.T.);
#355 = POLY_LOOP('',(#328,#327,#339,#338));
#356 = FACE_OUTER_BOUND('',#355,.T.);
#357 = DIRECTION('',(1.000000,-0.000000,0.000000));
#358 = DIRECTION('',(0.000000,0.000000,-1.000000));
#359 = AXIS2_PLACEMENT_3D('',#328,#357,#358);
#360 = PLANE('',#359);
#361 = FACE_SURFACE('',(#356),#360,.T.);
#362 = POLY_LOOP('',(#327,#326,#340,#339));
#363 = FACE_OUTER_BOUND('',#362,.T.);
#364 = DIRECTION('',(0.000000,1.000000,0.000000));
#365 = DIRECTION('',(0.000000,0.000000,1.000000));
#366 = AXIS2_PLACEMENT_3D('',#327,#364,#365);
#367 = PLANE('',#366);
#368 = FACE_SURFACE('',(#363),#367,.T.);
#369 = POLY_LOOP('',(#326,#329,#337,#340));
#370 = FACE_OUTER_BOUND('',#369,.T.);
#371 = DIRECTION('',(-1.000000,-0.000000,0.000000));
#372 = DIRECTION('',(0.000000,-0.000000,1.000000));
#373 = AXIS2_PLACEMENT_3D('',#326,#371,#372);
#374 = PLANE('',#373);
#375 = FACE_SURFACE('',(#370),#374,.T.);
#376 = CLOSED_SHELL('',(#336,#347,#354,#361,#368,#375));
#377 = FACETED_BREP('M8_buck-boost',#376);
#378 = PRODUCT('ESP32-S3-DevKitC-1_body','ESP32-S3-DevKitC-1_body','',(#12));
#379 = PRODUCT_DEFINITION_FORMATION('','',#378);
#380 = PRODUCT_DEFINITION('design','',#379,#13);
#381 = PRODUCT_DEFINITION_SHAPE('','',#380);
#382 = ADVANCED_BREP_SHAPE_REPRESENTATION('ESP32-S3-DevKitC-1_body',(#4,#65),#9);
#383 = SHAPE_DEFINITION_REPRESENTATION(#381,#382);
#384 = PRODUCT('M3_audio_codec','M3_audio_codec','',(#12));
#385 = PRODUCT_DEFINITION_FORMATION('','',#384);
#386 = PRODUCT_DEFINITION('design','',#385,#13);
#387 = PRODUCT_DEFINITION_SHAPE('','',#386);
#388 = ADVANCED_BREP_SHAPE_REPRESENTATION('M3_audio_codec',(#4,#117),#9);
#389 = SHAPE_DEFINITION_REPRESENTATION(#387,#388);
#390 = PRODUCT('M4_USB_isolator','M4_USB_isolator','',(#12));
#391 = PRODUCT_DEFINITION_FORMATION('','',#390);
#392 = PRODUCT_DEFINITION('design','',#391,#13);
#393 = PRODUCT_DEFINITION_SHAPE('','',#392);
#394 = ADVANCED_BREP_SHAPE_REPRESENTATION('M4_USB_isolator',(#4,#169),#9);
#395 = SHAPE_DEFINITION_REPRESENTATION(#393,#394);
#396 = PRODUCT('M5_secure_element','M5_secure_element','',(#12));
#397 = PRODUCT_DEFINITION_FORMATION('','',#396);
#398 = PRODUCT_DEFINITION('design','',#397,#13);
#399 = PRODUCT_DEFINITION_SHAPE('','',#398);
#400 = ADVANCED_BREP_SHAPE_REPRESENTATION('M5_secure_element',(#4,#221),#9);
#401 = SHAPE_DEFINITION_REPRESENTATION(#399,#400);
#402 = PRODUCT('M6_charger','M6_charger','',(#12));
#403 = PRODUCT_DEFINITION_FORMATION('','',#402);
#404 = PRODUCT_DEFINITION('design','',#403,#13);
#405 = PRODUCT_DEFINITION_SHAPE('','',#404);
#406 = ADVANCED_BREP_SHAPE_REPRESENTATION('M6_charger',(#4,#273),#9);
#407 = SHAPE_DEFINITION_REPRESENTATION(#405,#406);
#408 = PRODUCT('M7_fuel_gauge','M7_fuel_gauge','',(#12));
#409 = PRODUCT_DEFINITION_FORMATION('','',#408);
#410 = PRODUCT_DEFINITION('design','',#409,#13);
#411 = PRODUCT_DEFINITION_SHAPE('','',#410);
#412 = ADVANCED_BREP_SHAPE_REPRESENTATION('M7_fuel_gauge',(#4,#325),#9);
#413 = SHAPE_DEFINITION_REPRESENTATION(#411,#412);
#414 = PRODUCT('M8_buck-boost','M8_buck-boost','',(#12));
#415 = PRODUCT_DEFINITION_FORMATION('','',#414);
#416 = PRODUCT_DEFINITION('design','',#415,#13);
#417 = PRODUCT_DEFINITION_SHAPE('','',#416);
#418 = ADVANCED_BREP_SHAPE_REPRESENTATION('M8_buck-boost',(#4,#377),#9);
#419 = SHAPE_DEFINITION_REPRESENTATION(#417,#418);
ENDSEC;
END-ISO-10303-21;
