  0
SECTION
  2
HEADER
  9
$INSUNITS
 70
4
  9
$EXTMIN
 10
0.0
 20
0.0
 30
0.0
  9
$EXTMAX
 10
150.0000
 20
130.0000
 30
0.0
  0
ENDSEC
  0
SECTION
  2
TABLES
  0
TABLE
  2
LAYER
 70
8
  0
LAYER
  2
OUTLINE
 70
0
 62
7
  6
CONTINUOUS
  0
LAYER
  2
MOUNTING_HOLES
 70
0
 62
1
  6
CONTINUOUS
  0
LAYER
  2
MOUNTING_KEEPOUT
 70
0
 62
1
  6
CONTINUOUS
  0
LAYER
  2
ISOLATION_KEEPOUT
 70
0
 62
1
  6
CONTINUOUS
  0
LAYER
  2
ZONE_SPLIT
 70
0
 62
3
  6
CONTINUOUS
  0
LAYER
  2
CONNECTORS_FIXED
 70
0
 62
5
  6
CONTINUOUS
  0
LAYER
  2
CONNECTOR_PIN1
 70
0
 62
2
  6
CONTINUOUS
  0
LAYER
  2
TEXT
 70
0
 62
7
  6
CONTINUOUS
  0
ENDTAB
  0
ENDSEC
  0
SECTION
  2
ENTITIES
  0
LINE
  8
OUTLINE
 10
0.0000
 20
0.0000
 30
0.0
 11
150.0000
 21
0.0000
 31
0.0
  0
LINE
  8
OUTLINE
 10
150.0000
 20
0.0000
 30
0.0
 11
150.0000
 21
130.0000
 31
0.0
  0
LINE
  8
OUTLINE
 10
150.0000
 20
130.0000
 30
0.0
 11
0.0000
 21
130.0000
 31
0.0
  0
LINE
  8
OUTLINE
 10
0.0000
 20
130.0000
 30
0.0
 11
0.0000
 21
0.0000
 31
0.0
  0
LINE
  8
ZONE_SPLIT
 10
62.0000
 20
0.0000
 30
0.0
 11
62.0000
 21
130.0000
 31
0.0
  0
CIRCLE
  8
MOUNTING_HOLES
 10
5.0000
 20
5.0000
 30
0.0
 40
1.7000
  0
CIRCLE
  8
MOUNTING_KEEPOUT
 10
5.0000
 20
5.0000
 30
0.0
 40
3.0000
  0
TEXT
  8
TEXT
 10
8.6000
 20
4.0000
 30
0.0
 40
1.6000
  1
MH1
  0
CIRCLE
  8
MOUNTING_HOLES
 10
145.0000
 20
5.0000
 30
0.0
 40
1.7000
  0
CIRCLE
  8
MOUNTING_KEEPOUT
 10
145.0000
 20
5.0000
 30
0.0
 40
3.0000
  0
TEXT
  8
TEXT
 10
148.6000
 20
4.0000
 30
0.0
 40
1.6000
  1
MH2
  0
CIRCLE
  8
MOUNTING_HOLES
 10
5.0000
 20
125.0000
 30
0.0
 40
1.7000
  0
CIRCLE
  8
MOUNTING_KEEPOUT
 10
5.0000
 20
125.0000
 30
0.0
 40
3.0000
  0
TEXT
  8
TEXT
 10
8.6000
 20
124.0000
 30
0.0
 40
1.6000
  1
MH3
  0
CIRCLE
  8
MOUNTING_HOLES
 10
145.0000
 20
125.0000
 30
0.0
 40
1.7000
  0
CIRCLE
  8
MOUNTING_KEEPOUT
 10
145.0000
 20
125.0000
 30
0.0
 40
3.0000
  0
TEXT
  8
TEXT
 10
148.6000
 20
124.0000
 30
0.0
 40
1.6000
  1
MH4
  0
LINE
  8
ISOLATION_KEEPOUT
 10
141.0000
 20
2.0000
 30
0.0
 11
150.0000
 21
2.0000
 31
0.0
  0
LINE
  8
ISOLATION_KEEPOUT
 10
150.0000
 20
2.0000
 30
0.0
 11
150.0000
 21
22.0000
 31
0.0
  0
LINE
  8
ISOLATION_KEEPOUT
 10
150.0000
 20
22.0000
 30
0.0
 11
141.0000
 21
22.0000
 31
0.0
  0
LINE
  8
ISOLATION_KEEPOUT
 10
141.0000
 20
22.0000
 30
0.0
 11
141.0000
 21
2.0000
 31
0.0
  0
TEXT
  8
TEXT
 10
107.0000
 20
5.0000
 30
0.0
 40
1.6000
  1
ISOLATION KEEP-OUT, NO COPPER ANY LAYER
  0
LINE
  8
CONNECTORS_FIXED
 10
64.2000
 20
4.2700
 30
0.0
 11
67.8000
 21
4.2700
 31
0.0
  0
LINE
  8
CONNECTORS_FIXED
 10
67.8000
 20
4.2700
 30
0.0
 11
67.8000
 21
35.6700
 31
0.0
  0
LINE
  8
CONNECTORS_FIXED
 10
67.8000
 20
35.6700
 30
0.0
 11
64.2000
 21
35.6700
 31
0.0
  0
LINE
  8
CONNECTORS_FIXED
 10
64.2000
 20
35.6700
 30
0.0
 11
64.2000
 21
4.2700
 31
0.0
  0
TEXT
  8
TEXT
 10
64.2000
 20
2.8700
 30
0.0
 40
1.6000
  1
J1
  0
CIRCLE
  8
CONNECTOR_PIN1
 10
66.0000
 20
6.0000
 30
0.0
 40
0.9000
  0
LINE
  8
CONNECTOR_PIN1
 10
64.6000
 20
6.0000
 30
0.0
 11
67.4000
 21
6.0000
 31
0.0
  0
LINE
  8
CONNECTOR_PIN1
 10
66.0000
 20
4.6000
 30
0.0
 11
66.0000
 21
7.4000
 31
0.0
  0
LINE
  8
CONNECTORS_FIXED
 10
134.2000
 20
4.2700
 30
0.0
 11
137.8000
 21
4.2700
 31
0.0
  0
LINE
  8
CONNECTORS_FIXED
 10
137.8000
 20
4.2700
 30
0.0
 11
137.8000
 21
15.3500
 31
0.0
  0
LINE
  8
CONNECTORS_FIXED
 10
137.8000
 20
15.3500
 30
0.0
 11
134.2000
 21
15.3500
 31
0.0
  0
LINE
  8
CONNECTORS_FIXED
 10
134.2000
 20
15.3500
 30
0.0
 11
134.2000
 21
4.2700
 31
0.0
  0
TEXT
  8
TEXT
 10
134.2000
 20
2.8700
 30
0.0
 40
1.6000
  1
J10
  0
CIRCLE
  8
CONNECTOR_PIN1
 10
136.0000
 20
6.0000
 30
0.0
 40
0.9000
  0
LINE
  8
CONNECTOR_PIN1
 10
134.6000
 20
6.0000
 30
0.0
 11
137.4000
 21
6.0000
 31
0.0
  0
LINE
  8
CONNECTOR_PIN1
 10
136.0000
 20
4.6000
 30
0.0
 11
136.0000
 21
7.4000
 31
0.0
  0
LINE
  8
CONNECTORS_FIXED
 10
134.2000
 20
18.2700
 30
0.0
 11
137.8000
 21
18.2700
 31
0.0
  0
LINE
  8
CONNECTORS_FIXED
 10
137.8000
 20
18.2700
 30
0.0
 11
137.8000
 21
29.3500
 31
0.0
  0
LINE
  8
CONNECTORS_FIXED
 10
137.8000
 20
29.3500
 30
0.0
 11
134.2000
 21
29.3500
 31
0.0
  0
LINE
  8
CONNECTORS_FIXED
 10
134.2000
 20
29.3500
 30
0.0
 11
134.2000
 21
18.2700
 31
0.0
  0
TEXT
  8
TEXT
 10
134.2000
 20
16.8700
 30
0.0
 40
1.6000
  1
J11
  0
CIRCLE
  8
CONNECTOR_PIN1
 10
136.0000
 20
20.0000
 30
0.0
 40
0.9000
  0
LINE
  8
CONNECTOR_PIN1
 10
134.6000
 20
20.0000
 30
0.0
 11
137.4000
 21
20.0000
 31
0.0
  0
LINE
  8
CONNECTOR_PIN1
 10
136.0000
 20
18.6000
 30
0.0
 11
136.0000
 21
21.4000
 31
0.0
  0
LINE
  8
CONNECTORS_FIXED
 10
134.2000
 20
32.2700
 30
0.0
 11
137.8000
 21
32.2700
 31
0.0
  0
LINE
  8
CONNECTORS_FIXED
 10
137.8000
 20
32.2700
 30
0.0
 11
137.8000
 21
53.5100
 31
0.0
  0
LINE
  8
CONNECTORS_FIXED
 10
137.8000
 20
53.5100
 30
0.0
 11
134.2000
 21
53.5100
 31
0.0
  0
LINE
  8
CONNECTORS_FIXED
 10
134.2000
 20
53.5100
 30
0.0
 11
134.2000
 21
32.2700
 31
0.0
  0
TEXT
  8
TEXT
 10
134.2000
 20
30.8700
 30
0.0
 40
1.6000
  1
J12
  0
CIRCLE
  8
CONNECTOR_PIN1
 10
136.0000
 20
34.0000
 30
0.0
 40
0.9000
  0
LINE
  8
CONNECTOR_PIN1
 10
134.6000
 20
34.0000
 30
0.0
 11
137.4000
 21
34.0000
 31
0.0
  0
LINE
  8
CONNECTOR_PIN1
 10
136.0000
 20
32.6000
 30
0.0
 11
136.0000
 21
35.4000
 31
0.0
  0
LINE
  8
CONNECTORS_FIXED
 10
132.6000
 20
57.8000
 30
0.0
 11
139.4000
 21
57.8000
 31
0.0
  0
LINE
  8
CONNECTORS_FIXED
 10
139.4000
 20
57.8000
 30
0.0
 11
139.4000
 21
63.1000
 31
0.0
  0
LINE
  8
CONNECTORS_FIXED
 10
139.4000
 20
63.1000
 30
0.0
 11
132.6000
 21
63.1000
 31
0.0
  0
LINE
  8
CONNECTORS_FIXED
 10
132.6000
 20
63.1000
 30
0.0
 11
132.6000
 21
57.8000
 31
0.0
  0
TEXT
  8
TEXT
 10
132.6000
 20
56.4000
 30
0.0
 40
1.6000
  1
J13
  0
CIRCLE
  8
CONNECTOR_PIN1
 10
135.0000
 20
60.0000
 30
0.0
 40
0.9000
  0
LINE
  8
CONNECTOR_PIN1
 10
133.6000
 20
60.0000
 30
0.0
 11
136.4000
 21
60.0000
 31
0.0
  0
LINE
  8
CONNECTOR_PIN1
 10
135.0000
 20
58.6000
 30
0.0
 11
135.0000
 21
61.4000
 31
0.0
  0
LINE
  8
CONNECTORS_FIXED
 10
3.2000
 20
10.2700
 30
0.0
 11
6.8000
 21
10.2700
 31
0.0
  0
LINE
  8
CONNECTORS_FIXED
 10
6.8000
 20
10.2700
 30
0.0
 11
6.8000
 21
41.6700
 31
0.0
  0
LINE
  8
CONNECTORS_FIXED
 10
6.8000
 20
41.6700
 30
0.0
 11
3.2000
 21
41.6700
 31
0.0
  0
LINE
  8
CONNECTORS_FIXED
 10
3.2000
 20
41.6700
 30
0.0
 11
3.2000
 21
10.2700
 31
0.0
  0
TEXT
  8
TEXT
 10
3.2000
 20
8.8700
 30
0.0
 40
1.6000
  1
J14
  0
CIRCLE
  8
CONNECTOR_PIN1
 10
5.0000
 20
12.0000
 30
0.0
 40
0.9000
  0
LINE
  8
CONNECTOR_PIN1
 10
3.6000
 20
12.0000
 30
0.0
 11
6.4000
 21
12.0000
 31
0.0
  0
LINE
  8
CONNECTOR_PIN1
 10
5.0000
 20
10.6000
 30
0.0
 11
5.0000
 21
13.4000
 31
0.0
  0
LINE
  8
CONNECTORS_FIXED
 10
2.6000
 20
71.6000
 30
0.0
 11
13.4000
 21
71.6000
 31
0.0
  0
LINE
  8
CONNECTORS_FIXED
 10
13.4000
 20
71.6000
 30
0.0
 11
13.4000
 21
80.4000
 31
0.0
  0
LINE
  8
CONNECTORS_FIXED
 10
13.4000
 20
80.4000
 30
0.0
 11
2.6000
 21
80.4000
 31
0.0
  0
LINE
  8
CONNECTORS_FIXED
 10
2.6000
 20
80.4000
 30
0.0
 11
2.6000
 21
71.6000
 31
0.0
  0
TEXT
  8
TEXT
 10
2.6000
 20
70.2000
 30
0.0
 40
1.6000
  1
J15
  0
CIRCLE
  8
CONNECTOR_PIN1
 10
8.0000
 20
76.0000
 30
0.0
 40
0.9000
  0
LINE
  8
CONNECTOR_PIN1
 10
6.6000
 20
76.0000
 30
0.0
 11
9.4000
 21
76.0000
 31
0.0
  0
LINE
  8
CONNECTOR_PIN1
 10
8.0000
 20
74.6000
 30
0.0
 11
8.0000
 21
77.4000
 31
0.0
  0
LINE
  8
CONNECTORS_FIXED
 10
2.6000
 20
83.6000
 30
0.0
 11
13.4000
 21
83.6000
 31
0.0
  0
LINE
  8
CONNECTORS_FIXED
 10
13.4000
 20
83.6000
 30
0.0
 11
13.4000
 21
92.4000
 31
0.0
  0
LINE
  8
CONNECTORS_FIXED
 10
13.4000
 20
92.4000
 30
0.0
 11
2.6000
 21
92.4000
 31
0.0
  0
LINE
  8
CONNECTORS_FIXED
 10
2.6000
 20
92.4000
 30
0.0
 11
2.6000
 21
83.6000
 31
0.0
  0
TEXT
  8
TEXT
 10
2.6000
 20
82.2000
 30
0.0
 40
1.6000
  1
J16
  0
CIRCLE
  8
CONNECTOR_PIN1
 10
8.0000
 20
88.0000
 30
0.0
 40
0.9000
  0
LINE
  8
CONNECTOR_PIN1
 10
6.6000
 20
88.0000
 30
0.0
 11
9.4000
 21
88.0000
 31
0.0
  0
LINE
  8
CONNECTOR_PIN1
 10
8.0000
 20
86.6000
 30
0.0
 11
8.0000
 21
89.4000
 31
0.0
  0
LINE
  8
CONNECTORS_FIXED
 10
2.6000
 20
95.6000
 30
0.0
 11
13.4000
 21
95.6000
 31
0.0
  0
LINE
  8
CONNECTORS_FIXED
 10
13.4000
 20
95.6000
 30
0.0
 11
13.4000
 21
104.4000
 31
0.0
  0
LINE
  8
CONNECTORS_FIXED
 10
13.4000
 20
104.4000
 30
0.0
 11
2.6000
 21
104.4000
 31
0.0
  0
LINE
  8
CONNECTORS_FIXED
 10
2.6000
 20
104.4000
 30
0.0
 11
2.6000
 21
95.6000
 31
0.0
  0
TEXT
  8
TEXT
 10
2.6000
 20
94.2000
 30
0.0
 40
1.6000
  1
J17
  0
CIRCLE
  8
CONNECTOR_PIN1
 10
8.0000
 20
100.0000
 30
0.0
 40
0.9000
  0
LINE
  8
CONNECTOR_PIN1
 10
6.6000
 20
100.0000
 30
0.0
 11
9.4000
 21
100.0000
 31
0.0
  0
LINE
  8
CONNECTOR_PIN1
 10
8.0000
 20
98.6000
 30
0.0
 11
8.0000
 21
101.4000
 31
0.0
  0
LINE
  8
CONNECTORS_FIXED
 10
120.2000
 20
88.2700
 30
0.0
 11
123.8000
 21
88.2700
 31
0.0
  0
LINE
  8
CONNECTORS_FIXED
 10
123.8000
 20
88.2700
 30
0.0
 11
123.8000
 21
99.3500
 31
0.0
  0
LINE
  8
CONNECTORS_FIXED
 10
123.8000
 20
99.3500
 30
0.0
 11
120.2000
 21
99.3500
 31
0.0
  0
LINE
  8
CONNECTORS_FIXED
 10
120.2000
 20
99.3500
 30
0.0
 11
120.2000
 21
88.2700
 31
0.0
  0
TEXT
  8
TEXT
 10
120.2000
 20
86.8700
 30
0.0
 40
1.6000
  1
J18
  0
CIRCLE
  8
CONNECTOR_PIN1
 10
122.0000
 20
90.0000
 30
0.0
 40
0.9000
  0
LINE
  8
CONNECTOR_PIN1
 10
120.6000
 20
90.0000
 30
0.0
 11
123.4000
 21
90.0000
 31
0.0
  0
LINE
  8
CONNECTOR_PIN1
 10
122.0000
 20
88.6000
 30
0.0
 11
122.0000
 21
91.4000
 31
0.0
  0
LINE
  8
CONNECTORS_FIXED
 10
76.2000
 20
70.2700
 30
0.0
 11
79.8000
 21
70.2700
 31
0.0
  0
LINE
  8
CONNECTORS_FIXED
 10
79.8000
 20
70.2700
 30
0.0
 11
79.8000
 21
111.8300
 31
0.0
  0
LINE
  8
CONNECTORS_FIXED
 10
79.8000
 20
111.8300
 30
0.0
 11
76.2000
 21
111.8300
 31
0.0
  0
LINE
  8
CONNECTORS_FIXED
 10
76.2000
 20
111.8300
 30
0.0
 11
76.2000
 21
70.2700
 31
0.0
  0
TEXT
  8
TEXT
 10
76.2000
 20
68.8700
 30
0.0
 40
1.6000
  1
J19
  0
CIRCLE
  8
CONNECTOR_PIN1
 10
78.0000
 20
72.0000
 30
0.0
 40
0.9000
  0
LINE
  8
CONNECTOR_PIN1
 10
76.6000
 20
72.0000
 30
0.0
 11
79.4000
 21
72.0000
 31
0.0
  0
LINE
  8
CONNECTOR_PIN1
 10
78.0000
 20
70.6000
 30
0.0
 11
78.0000
 21
73.4000
 31
0.0
  0
LINE
  8
CONNECTORS_FIXED
 10
39.2000
 20
3.2700
 30
0.0
 11
42.8000
 21
3.2700
 31
0.0
  0
LINE
  8
CONNECTORS_FIXED
 10
42.8000
 20
3.2700
 30
0.0
 11
42.8000
 21
29.5900
 31
0.0
  0
LINE
  8
CONNECTORS_FIXED
 10
42.8000
 20
29.5900
 30
0.0
 11
39.2000
 21
29.5900
 31
0.0
  0
LINE
  8
CONNECTORS_FIXED
 10
39.2000
 20
29.5900
 30
0.0
 11
39.2000
 21
3.2700
 31
0.0
  0
TEXT
  8
TEXT
 10
39.2000
 20
1.8700
 30
0.0
 40
1.6000
  1
J2
  0
CIRCLE
  8
CONNECTOR_PIN1
 10
41.0000
 20
5.0000
 30
0.0
 40
0.9000
  0
LINE
  8
CONNECTOR_PIN1
 10
39.6000
 20
5.0000
 30
0.0
 11
42.4000
 21
5.0000
 31
0.0
  0
LINE
  8
CONNECTOR_PIN1
 10
41.0000
 20
3.6000
 30
0.0
 11
41.0000
 21
6.4000
 31
0.0
  0
LINE
  8
CONNECTORS_FIXED
 10
134.2000
 20
70.2700
 30
0.0
 11
137.8000
 21
70.2700
 31
0.0
  0
LINE
  8
CONNECTORS_FIXED
 10
137.8000
 20
70.2700
 30
0.0
 11
137.8000
 21
91.5100
 31
0.0
  0
LINE
  8
CONNECTORS_FIXED
 10
137.8000
 20
91.5100
 30
0.0
 11
134.2000
 21
91.5100
 31
0.0
  0
LINE
  8
CONNECTORS_FIXED
 10
134.2000
 20
91.5100
 30
0.0
 11
134.2000
 21
70.2700
 31
0.0
  0
TEXT
  8
TEXT
 10
134.2000
 20
68.8700
 30
0.0
 40
1.6000
  1
J20
  0
CIRCLE
  8
CONNECTOR_PIN1
 10
136.0000
 20
72.0000
 30
0.0
 40
0.9000
  0
LINE
  8
CONNECTOR_PIN1
 10
134.6000
 20
72.0000
 30
0.0
 11
137.4000
 21
72.0000
 31
0.0
  0
LINE
  8
CONNECTOR_PIN1
 10
136.0000
 20
70.6000
 30
0.0
 11
136.0000
 21
73.4000
 31
0.0
  0
LINE
  8
CONNECTORS_FIXED
 10
120.2000
 20
70.2700
 30
0.0
 11
123.8000
 21
70.2700
 31
0.0
  0
LINE
  8
CONNECTORS_FIXED
 10
123.8000
 20
70.2700
 30
0.0
 11
123.8000
 21
86.4300
 31
0.0
  0
LINE
  8
CONNECTORS_FIXED
 10
123.8000
 20
86.4300
 30
0.0
 11
120.2000
 21
86.4300
 31
0.0
  0
LINE
  8
CONNECTORS_FIXED
 10
120.2000
 20
86.4300
 30
0.0
 11
120.2000
 21
70.2700
 31
0.0
  0
TEXT
  8
TEXT
 10
120.2000
 20
68.8700
 30
0.0
 40
1.6000
  1
J21
  0
CIRCLE
  8
CONNECTOR_PIN1
 10
122.0000
 20
72.0000
 30
0.0
 40
0.9000
  0
LINE
  8
CONNECTOR_PIN1
 10
120.6000
 20
72.0000
 30
0.0
 11
123.4000
 21
72.0000
 31
0.0
  0
LINE
  8
CONNECTOR_PIN1
 10
122.0000
 20
70.6000
 30
0.0
 11
122.0000
 21
73.4000
 31
0.0
  0
LINE
  8
CONNECTORS_FIXED
 10
13.9700
 20
71.7000
 30
0.0
 11
22.5100
 21
71.7000
 31
0.0
  0
LINE
  8
CONNECTORS_FIXED
 10
22.5100
 20
71.7000
 30
0.0
 11
22.5100
 21
75.3000
 31
0.0
  0
LINE
  8
CONNECTORS_FIXED
 10
22.5100
 20
75.3000
 30
0.0
 11
13.9700
 21
75.3000
 31
0.0
  0
LINE
  8
CONNECTORS_FIXED
 10
13.9700
 20
75.3000
 30
0.0
 11
13.9700
 21
71.7000
 31
0.0
  0
TEXT
  8
TEXT
 10
13.9700
 20
70.3000
 30
0.0
 40
1.6000
  1
J22
  0
CIRCLE
  8
CONNECTOR_PIN1
 10
15.7000
 20
73.5000
 30
0.0
 40
0.9000
  0
LINE
  8
CONNECTOR_PIN1
 10
14.3000
 20
73.5000
 30
0.0
 11
17.1000
 21
73.5000
 31
0.0
  0
LINE
  8
CONNECTOR_PIN1
 10
15.7000
 20
72.1000
 30
0.0
 11
15.7000
 21
74.9000
 31
0.0
  0
LINE
  8
CONNECTORS_FIXED
 10
45.2000
 20
3.2700
 30
0.0
 11
48.8000
 21
3.2700
 31
0.0
  0
LINE
  8
CONNECTORS_FIXED
 10
48.8000
 20
3.2700
 30
0.0
 11
48.8000
 21
19.4300
 31
0.0
  0
LINE
  8
CONNECTORS_FIXED
 10
48.8000
 20
19.4300
 30
0.0
 11
45.2000
 21
19.4300
 31
0.0
  0
LINE
  8
CONNECTORS_FIXED
 10
45.2000
 20
19.4300
 30
0.0
 11
45.2000
 21
3.2700
 31
0.0
  0
TEXT
  8
TEXT
 10
45.2000
 20
1.8700
 30
0.0
 40
1.6000
  1
J23
  0
CIRCLE
  8
CONNECTOR_PIN1
 10
47.0000
 20
5.0000
 30
0.0
 40
0.9000
  0
LINE
  8
CONNECTOR_PIN1
 10
45.6000
 20
5.0000
 30
0.0
 11
48.4000
 21
5.0000
 31
0.0
  0
LINE
  8
CONNECTOR_PIN1
 10
47.0000
 20
3.6000
 30
0.0
 11
47.0000
 21
6.4000
 31
0.0
  0
LINE
  8
CONNECTORS_FIXED
 10
139.6000
 20
77.8000
 30
0.0
 11
146.4000
 21
77.8000
 31
0.0
  0
LINE
  8
CONNECTORS_FIXED
 10
146.4000
 20
77.8000
 30
0.0
 11
146.4000
 21
83.1000
 31
0.0
  0
LINE
  8
CONNECTORS_FIXED
 10
146.4000
 20
83.1000
 30
0.0
 11
139.6000
 21
83.1000
 31
0.0
  0
LINE
  8
CONNECTORS_FIXED
 10
139.6000
 20
83.1000
 30
0.0
 11
139.6000
 21
77.8000
 31
0.0
  0
TEXT
  8
TEXT
 10
139.6000
 20
76.4000
 30
0.0
 40
1.6000
  1
J24
  0
CIRCLE
  8
CONNECTOR_PIN1
 10
142.0000
 20
80.0000
 30
0.0
 40
0.9000
  0
LINE
  8
CONNECTOR_PIN1
 10
140.6000
 20
80.0000
 30
0.0
 11
143.4000
 21
80.0000
 31
0.0
  0
LINE
  8
CONNECTOR_PIN1
 10
142.0000
 20
78.6000
 30
0.0
 11
142.0000
 21
81.4000
 31
0.0
  0
LINE
  8
CONNECTORS_FIXED
 10
126.2000
 20
84.2700
 30
0.0
 11
129.8000
 21
84.2700
 31
0.0
  0
LINE
  8
CONNECTORS_FIXED
 10
129.8000
 20
84.2700
 30
0.0
 11
129.8000
 21
100.4300
 31
0.0
  0
LINE
  8
CONNECTORS_FIXED
 10
129.8000
 20
100.4300
 30
0.0
 11
126.2000
 21
100.4300
 31
0.0
  0
LINE
  8
CONNECTORS_FIXED
 10
126.2000
 20
100.4300
 30
0.0
 11
126.2000
 21
84.2700
 31
0.0
  0
TEXT
  8
TEXT
 10
126.2000
 20
82.8700
 30
0.0
 40
1.6000
  1
J25
  0
CIRCLE
  8
CONNECTOR_PIN1
 10
128.0000
 20
86.0000
 30
0.0
 40
0.9000
  0
LINE
  8
CONNECTOR_PIN1
 10
126.6000
 20
86.0000
 30
0.0
 11
129.4000
 21
86.0000
 31
0.0
  0
LINE
  8
CONNECTOR_PIN1
 10
128.0000
 20
84.6000
 30
0.0
 11
128.0000
 21
87.4000
 31
0.0
  0
LINE
  8
CONNECTORS_FIXED
 10
115.2000
 20
6.2700
 30
0.0
 11
118.8000
 21
6.2700
 31
0.0
  0
LINE
  8
CONNECTORS_FIXED
 10
118.8000
 20
6.2700
 30
0.0
 11
118.8000
 21
22.4300
 31
0.0
  0
LINE
  8
CONNECTORS_FIXED
 10
118.8000
 20
22.4300
 30
0.0
 11
115.2000
 21
22.4300
 31
0.0
  0
LINE
  8
CONNECTORS_FIXED
 10
115.2000
 20
22.4300
 30
0.0
 11
115.2000
 21
6.2700
 31
0.0
  0
TEXT
  8
TEXT
 10
115.2000
 20
4.8700
 30
0.0
 40
1.6000
  1
J26
  0
CIRCLE
  8
CONNECTOR_PIN1
 10
117.0000
 20
8.0000
 30
0.0
 40
0.9000
  0
LINE
  8
CONNECTOR_PIN1
 10
115.6000
 20
8.0000
 30
0.0
 11
118.4000
 21
8.0000
 31
0.0
  0
LINE
  8
CONNECTOR_PIN1
 10
117.0000
 20
6.6000
 30
0.0
 11
117.0000
 21
9.4000
 31
0.0
  0
LINE
  8
CONNECTORS_FIXED
 10
126.2000
 20
70.2700
 30
0.0
 11
129.8000
 21
70.2700
 31
0.0
  0
LINE
  8
CONNECTORS_FIXED
 10
129.8000
 20
70.2700
 30
0.0
 11
129.8000
 21
81.3500
 31
0.0
  0
LINE
  8
CONNECTORS_FIXED
 10
129.8000
 20
81.3500
 30
0.0
 11
126.2000
 21
81.3500
 31
0.0
  0
LINE
  8
CONNECTORS_FIXED
 10
126.2000
 20
81.3500
 30
0.0
 11
126.2000
 21
70.2700
 31
0.0
  0
TEXT
  8
TEXT
 10
126.2000
 20
68.8700
 30
0.0
 40
1.6000
  1
J27
  0
CIRCLE
  8
CONNECTOR_PIN1
 10
128.0000
 20
72.0000
 30
0.0
 40
0.9000
  0
LINE
  8
CONNECTOR_PIN1
 10
126.6000
 20
72.0000
 30
0.0
 11
129.4000
 21
72.0000
 31
0.0
  0
LINE
  8
CONNECTOR_PIN1
 10
128.0000
 20
70.6000
 30
0.0
 11
128.0000
 21
73.4000
 31
0.0
  0
LINE
  8
CONNECTORS_FIXED
 10
120.2000
 20
100.2700
 30
0.0
 11
123.8000
 21
100.2700
 31
0.0
  0
LINE
  8
CONNECTORS_FIXED
 10
123.8000
 20
100.2700
 30
0.0
 11
123.8000
 21
111.3500
 31
0.0
  0
LINE
  8
CONNECTORS_FIXED
 10
123.8000
 20
111.3500
 30
0.0
 11
120.2000
 21
111.3500
 31
0.0
  0
LINE
  8
CONNECTORS_FIXED
 10
120.2000
 20
111.3500
 30
0.0
 11
120.2000
 21
100.2700
 31
0.0
  0
TEXT
  8
TEXT
 10
120.2000
 20
98.8700
 30
0.0
 40
1.6000
  1
J28
  0
CIRCLE
  8
CONNECTOR_PIN1
 10
122.0000
 20
102.0000
 30
0.0
 40
0.9000
  0
LINE
  8
CONNECTOR_PIN1
 10
120.6000
 20
102.0000
 30
0.0
 11
123.4000
 21
102.0000
 31
0.0
  0
LINE
  8
CONNECTOR_PIN1
 10
122.0000
 20
100.6000
 30
0.0
 11
122.0000
 21
103.4000
 31
0.0
  0
LINE
  8
CONNECTORS_FIXED
 10
45.2000
 20
22.2700
 30
0.0
 11
48.8000
 21
22.2700
 31
0.0
  0
LINE
  8
CONNECTORS_FIXED
 10
48.8000
 20
22.2700
 30
0.0
 11
48.8000
 21
38.4300
 31
0.0
  0
LINE
  8
CONNECTORS_FIXED
 10
48.8000
 20
38.4300
 30
0.0
 11
45.2000
 21
38.4300
 31
0.0
  0
LINE
  8
CONNECTORS_FIXED
 10
45.2000
 20
38.4300
 30
0.0
 11
45.2000
 21
22.2700
 31
0.0
  0
TEXT
  8
TEXT
 10
45.2000
 20
20.8700
 30
0.0
 40
1.6000
  1
J29
  0
CIRCLE
  8
CONNECTOR_PIN1
 10
47.0000
 20
24.0000
 30
0.0
 40
0.9000
  0
LINE
  8
CONNECTOR_PIN1
 10
45.6000
 20
24.0000
 30
0.0
 11
48.4000
 21
24.0000
 31
0.0
  0
LINE
  8
CONNECTOR_PIN1
 10
47.0000
 20
22.6000
 30
0.0
 11
47.0000
 21
25.4000
 31
0.0
  0
LINE
  8
CONNECTORS_FIXED
 10
64.2000
 20
40.2700
 30
0.0
 11
67.8000
 21
40.2700
 31
0.0
  0
LINE
  8
CONNECTORS_FIXED
 10
67.8000
 20
40.2700
 30
0.0
 11
67.8000
 21
71.6700
 31
0.0
  0
LINE
  8
CONNECTORS_FIXED
 10
67.8000
 20
71.6700
 30
0.0
 11
64.2000
 21
71.6700
 31
0.0
  0
LINE
  8
CONNECTORS_FIXED
 10
64.2000
 20
71.6700
 30
0.0
 11
64.2000
 21
40.2700
 31
0.0
  0
TEXT
  8
TEXT
 10
64.2000
 20
38.8700
 30
0.0
 40
1.6000
  1
J3
  0
CIRCLE
  8
CONNECTOR_PIN1
 10
66.0000
 20
42.0000
 30
0.0
 40
0.9000
  0
LINE
  8
CONNECTOR_PIN1
 10
64.6000
 20
42.0000
 30
0.0
 11
67.4000
 21
42.0000
 31
0.0
  0
LINE
  8
CONNECTOR_PIN1
 10
66.0000
 20
40.6000
 30
0.0
 11
66.0000
 21
43.4000
 31
0.0
  0
LINE
  8
CONNECTORS_FIXED
 10
64.2000
 20
88.2700
 30
0.0
 11
67.8000
 21
88.2700
 31
0.0
  0
LINE
  8
CONNECTORS_FIXED
 10
67.8000
 20
88.2700
 30
0.0
 11
67.8000
 21
114.5900
 31
0.0
  0
LINE
  8
CONNECTORS_FIXED
 10
67.8000
 20
114.5900
 30
0.0
 11
64.2000
 21
114.5900
 31
0.0
  0
LINE
  8
CONNECTORS_FIXED
 10
64.2000
 20
114.5900
 30
0.0
 11
64.2000
 21
88.2700
 31
0.0
  0
TEXT
  8
TEXT
 10
64.2000
 20
86.8700
 30
0.0
 40
1.6000
  1
J30
  0
CIRCLE
  8
CONNECTOR_PIN1
 10
66.0000
 20
90.0000
 30
0.0
 40
0.9000
  0
LINE
  8
CONNECTOR_PIN1
 10
64.6000
 20
90.0000
 30
0.0
 11
67.4000
 21
90.0000
 31
0.0
  0
LINE
  8
CONNECTOR_PIN1
 10
66.0000
 20
88.6000
 30
0.0
 11
66.0000
 21
91.4000
 31
0.0
  0
LINE
  8
CONNECTORS_FIXED
 10
39.2000
 20
48.2700
 30
0.0
 11
42.8000
 21
48.2700
 31
0.0
  0
LINE
  8
CONNECTORS_FIXED
 10
42.8000
 20
48.2700
 30
0.0
 11
42.8000
 21
74.5900
 31
0.0
  0
LINE
  8
CONNECTORS_FIXED
 10
42.8000
 20
74.5900
 30
0.0
 11
39.2000
 21
74.5900
 31
0.0
  0
LINE
  8
CONNECTORS_FIXED
 10
39.2000
 20
74.5900
 30
0.0
 11
39.2000
 21
48.2700
 31
0.0
  0
TEXT
  8
TEXT
 10
39.2000
 20
46.8700
 30
0.0
 40
1.6000
  1
J4
  0
CIRCLE
  8
CONNECTOR_PIN1
 10
41.0000
 20
50.0000
 30
0.0
 40
0.9000
  0
LINE
  8
CONNECTOR_PIN1
 10
39.6000
 20
50.0000
 30
0.0
 11
42.4000
 21
50.0000
 31
0.0
  0
LINE
  8
CONNECTOR_PIN1
 10
41.0000
 20
48.6000
 30
0.0
 11
41.0000
 21
51.4000
 31
0.0
  0
LINE
  8
CONNECTORS_FIXED
 10
70.2000
 20
4.2700
 30
0.0
 11
73.8000
 21
4.2700
 31
0.0
  0
LINE
  8
CONNECTORS_FIXED
 10
73.8000
 20
4.2700
 30
0.0
 11
73.8000
 21
15.3500
 31
0.0
  0
LINE
  8
CONNECTORS_FIXED
 10
73.8000
 20
15.3500
 30
0.0
 11
70.2000
 21
15.3500
 31
0.0
  0
LINE
  8
CONNECTORS_FIXED
 10
70.2000
 20
15.3500
 30
0.0
 11
70.2000
 21
4.2700
 31
0.0
  0
TEXT
  8
TEXT
 10
70.2000
 20
2.8700
 30
0.0
 40
1.6000
  1
J5
  0
CIRCLE
  8
CONNECTOR_PIN1
 10
72.0000
 20
6.0000
 30
0.0
 40
0.9000
  0
LINE
  8
CONNECTOR_PIN1
 10
70.6000
 20
6.0000
 30
0.0
 11
73.4000
 21
6.0000
 31
0.0
  0
LINE
  8
CONNECTOR_PIN1
 10
72.0000
 20
4.6000
 30
0.0
 11
72.0000
 21
7.4000
 31
0.0
  0
LINE
  8
CONNECTORS_FIXED
 10
80.2000
 20
6.2700
 30
0.0
 11
83.8000
 21
6.2700
 31
0.0
  0
LINE
  8
CONNECTORS_FIXED
 10
83.8000
 20
6.2700
 30
0.0
 11
83.8000
 21
63.0700
 31
0.0
  0
LINE
  8
CONNECTORS_FIXED
 10
83.8000
 20
63.0700
 30
0.0
 11
80.2000
 21
63.0700
 31
0.0
  0
LINE
  8
CONNECTORS_FIXED
 10
80.2000
 20
63.0700
 30
0.0
 11
80.2000
 21
6.2700
 31
0.0
  0
TEXT
  8
TEXT
 10
80.2000
 20
4.8700
 30
0.0
 40
1.6000
  1
J6
  0
CIRCLE
  8
CONNECTOR_PIN1
 10
82.0000
 20
8.0000
 30
0.0
 40
0.9000
  0
LINE
  8
CONNECTOR_PIN1
 10
80.6000
 20
8.0000
 30
0.0
 11
83.4000
 21
8.0000
 31
0.0
  0
LINE
  8
CONNECTOR_PIN1
 10
82.0000
 20
6.6000
 30
0.0
 11
82.0000
 21
9.4000
 31
0.0
  0
LINE
  8
CONNECTORS_FIXED
 10
103.0600
 20
6.2700
 30
0.0
 11
106.6600
 21
6.2700
 31
0.0
  0
LINE
  8
CONNECTORS_FIXED
 10
106.6600
 20
6.2700
 30
0.0
 11
106.6600
 21
63.0700
 31
0.0
  0
LINE
  8
CONNECTORS_FIXED
 10
106.6600
 20
63.0700
 30
0.0
 11
103.0600
 21
63.0700
 31
0.0
  0
LINE
  8
CONNECTORS_FIXED
 10
103.0600
 20
63.0700
 30
0.0
 11
103.0600
 21
6.2700
 31
0.0
  0
TEXT
  8
TEXT
 10
103.0600
 20
4.8700
 30
0.0
 40
1.6000
  1
J7
  0
CIRCLE
  8
CONNECTOR_PIN1
 10
104.8600
 20
8.0000
 30
0.0
 40
0.9000
  0
LINE
  8
CONNECTOR_PIN1
 10
103.4600
 20
8.0000
 30
0.0
 11
106.2600
 21
8.0000
 31
0.0
  0
LINE
  8
CONNECTOR_PIN1
 10
104.8600
 20
6.6000
 30
0.0
 11
104.8600
 21
9.4000
 31
0.0
  0
LINE
  8
CONNECTORS_FIXED
 10
88.2000
 20
70.2700
 30
0.0
 11
91.8000
 21
70.2700
 31
0.0
  0
LINE
  8
CONNECTORS_FIXED
 10
91.8000
 20
70.2700
 30
0.0
 11
91.8000
 21
106.7500
 31
0.0
  0
LINE
  8
CONNECTORS_FIXED
 10
91.8000
 20
106.7500
 30
0.0
 11
88.2000
 21
106.7500
 31
0.0
  0
LINE
  8
CONNECTORS_FIXED
 10
88.2000
 20
106.7500
 30
0.0
 11
88.2000
 21
70.2700
 31
0.0
  0
TEXT
  8
TEXT
 10
88.2000
 20
68.8700
 30
0.0
 40
1.6000
  1
J8
  0
CIRCLE
  8
CONNECTOR_PIN1
 10
90.0000
 20
72.0000
 30
0.0
 40
0.9000
  0
LINE
  8
CONNECTOR_PIN1
 10
88.6000
 20
72.0000
 30
0.0
 11
91.4000
 21
72.0000
 31
0.0
  0
LINE
  8
CONNECTOR_PIN1
 10
90.0000
 20
70.6000
 30
0.0
 11
90.0000
 21
73.4000
 31
0.0
  0
LINE
  8
CONNECTORS_FIXED
 10
112.2000
 20
60.2700
 30
0.0
 11
115.8000
 21
60.2700
 31
0.0
  0
LINE
  8
CONNECTORS_FIXED
 10
115.8000
 20
60.2700
 30
0.0
 11
115.8000
 21
71.3500
 31
0.0
  0
LINE
  8
CONNECTORS_FIXED
 10
115.8000
 20
71.3500
 30
0.0
 11
112.2000
 21
71.3500
 31
0.0
  0
LINE
  8
CONNECTORS_FIXED
 10
112.2000
 20
71.3500
 30
0.0
 11
112.2000
 21
60.2700
 31
0.0
  0
TEXT
  8
TEXT
 10
112.2000
 20
58.8700
 30
0.0
 40
1.6000
  1
J9
  0
CIRCLE
  8
CONNECTOR_PIN1
 10
114.0000
 20
62.0000
 30
0.0
 40
0.9000
  0
LINE
  8
CONNECTOR_PIN1
 10
112.6000
 20
62.0000
 30
0.0
 11
115.4000
 21
62.0000
 31
0.0
  0
LINE
  8
CONNECTOR_PIN1
 10
114.0000
 20
60.6000
 30
0.0
 11
114.0000
 21
63.4000
 31
0.0
  0
TEXT
  8
TEXT
 10
2.0000
 20
136.0000
 30
0.0
 40
3.0000
  1
EEG-CAR-01 Rev C -- outline and FIXED connector positions. 30 connectors, LOCKED.
  0
TEXT
  8
TEXT
 10
2.0000
 20
141.0000
 30
0.0
 40
2.2000
  1
COORDINATES: top-left origin, X right, Y DOWN -- design.py and the .kicad_pcb convention.
  0
TEXT
  8
TEXT
 10
2.0000
 20
145.0000
 30
0.0
 40
2.2000
  1
Gerber, drill and both CPL files use a BOTTOM-LEFT origin with Y UP: y_cam = 130.0 - y_here.  Do not mix them.
  0
TEXT
  8
TEXT
 10
2.0000
 20
149.0000
 30
0.0
 40
2.2000
  1
Board 150.0 x 130.0 mm, four layers, through vias only. Zone split x = 62.0 mm, analogue left.
  0
ENDSEC
  0
EOF
