%TF.GenerationSoftware,TI One Voice,package_v2.4/tools/fixture_gen.py,1.0*%
%TF.CreationDate,2026-09-02T00:00:00+01:00*%
%TF.ProjectId,FIX-01,4d60469b18fec15c7d171b06020710f2,A*%
%TF.FileFunction,Other,Zoning*%
%TF.FilePolarity,Positive*%
%TF.SameCoordinates,Original*%
%FSLAX46Y46*%
%MOMM*%
G04 Zoning, keep-outs and the screening can -- not a copper layer*
G04 FIX-01 Rev A -- TI One Voice research programme*
G04 NOT A FABRICATION SET -- no copper layer exists for this board*
G04 Licence CC BY-SA 4.0*
G01*
G75*
%LPD*%
%ADD10C,0.200000*%
%ADD11C,0.100000*%
D10*
X0Y0D02*
X40000000Y0D01*
X40000000Y100000000D01*
X0Y100000000D01*
X0Y0D01*
X40000000Y0D02*
X150000000Y0D01*
X150000000Y100000000D01*
X40000000Y100000000D01*
X40000000Y0D01*
X150000000Y0D02*
X160000000Y0D01*
X160000000Y100000000D01*
X150000000Y100000000D01*
X150000000Y0D01*
X1000000Y20000000D02*
X41000000Y20000000D01*
X41000000Y80000000D01*
X1000000Y80000000D01*
X1000000Y20000000D01*
D11*
X8000000Y5000000D02*
X7985554Y5294051D01*
X7942356Y5585271D01*
X7870821Y5870854D01*
X7771639Y6148050D01*
X7645764Y6414190D01*
X7494409Y6666711D01*
X7319031Y6903180D01*
X7121320Y7121320D01*
X6903180Y7319031D01*
X6666711Y7494409D01*
X6414190Y7645764D01*
X6148050Y7771639D01*
X5870854Y7870821D01*
X5585271Y7942356D01*
X5294051Y7985554D01*
X5000000Y8000000D01*
X4705949Y7985554D01*
X4414729Y7942356D01*
X4129146Y7870821D01*
X3851950Y7771639D01*
X3585810Y7645764D01*
X3333289Y7494409D01*
X3096820Y7319031D01*
X2878680Y7121320D01*
X2680969Y6903180D01*
X2505591Y6666711D01*
X2354236Y6414190D01*
X2228361Y6148050D01*
X2129179Y5870854D01*
X2057644Y5585271D01*
X2014446Y5294051D01*
X2000000Y5000000D01*
X2014446Y4705949D01*
X2057644Y4414729D01*
X2129179Y4129146D01*
X2228361Y3851950D01*
X2354236Y3585810D01*
X2505591Y3333289D01*
X2680969Y3096820D01*
X2878680Y2878680D01*
X3096820Y2680969D01*
X3333289Y2505591D01*
X3585810Y2354236D01*
X3851950Y2228361D01*
X4129146Y2129179D01*
X4414729Y2057644D01*
X4705949Y2014446D01*
X5000000Y2000000D01*
X5294051Y2014446D01*
X5585271Y2057644D01*
X5870854Y2129179D01*
X6148050Y2228361D01*
X6414190Y2354236D01*
X6666711Y2505591D01*
X6903180Y2680969D01*
X7121320Y2878680D01*
X7319031Y3096820D01*
X7494409Y3333289D01*
X7645764Y3585810D01*
X7771639Y3851950D01*
X7870821Y4129146D01*
X7942356Y4414729D01*
X7985554Y4705949D01*
X8000000Y5000000D01*
X158000000Y5000000D02*
X157985554Y5294051D01*
X157942356Y5585271D01*
X157870821Y5870854D01*
X157771639Y6148050D01*
X157645764Y6414190D01*
X157494409Y6666711D01*
X157319031Y6903180D01*
X157121320Y7121320D01*
X156903180Y7319031D01*
X156666711Y7494409D01*
X156414190Y7645764D01*
X156148050Y7771639D01*
X155870854Y7870821D01*
X155585271Y7942356D01*
X155294051Y7985554D01*
X155000000Y8000000D01*
X154705949Y7985554D01*
X154414729Y7942356D01*
X154129146Y7870821D01*
X153851950Y7771639D01*
X153585810Y7645764D01*
X153333289Y7494409D01*
X153096820Y7319031D01*
X152878680Y7121320D01*
X152680969Y6903180D01*
X152505591Y6666711D01*
X152354236Y6414190D01*
X152228361Y6148050D01*
X152129179Y5870854D01*
X152057644Y5585271D01*
X152014446Y5294051D01*
X152000000Y5000000D01*
X152014446Y4705949D01*
X152057644Y4414729D01*
X152129179Y4129146D01*
X152228361Y3851950D01*
X152354236Y3585810D01*
X152505591Y3333289D01*
X152680969Y3096820D01*
X152878680Y2878680D01*
X153096820Y2680969D01*
X153333289Y2505591D01*
X153585810Y2354236D01*
X153851950Y2228361D01*
X154129146Y2129179D01*
X154414729Y2057644D01*
X154705949Y2014446D01*
X155000000Y2000000D01*
X155294051Y2014446D01*
X155585271Y2057644D01*
X155870854Y2129179D01*
X156148050Y2228361D01*
X156414190Y2354236D01*
X156666711Y2505591D01*
X156903180Y2680969D01*
X157121320Y2878680D01*
X157319031Y3096820D01*
X157494409Y3333289D01*
X157645764Y3585810D01*
X157771639Y3851950D01*
X157870821Y4129146D01*
X157942356Y4414729D01*
X157985554Y4705949D01*
X158000000Y5000000D01*
X8000000Y95000000D02*
X7985554Y95294051D01*
X7942356Y95585271D01*
X7870821Y95870854D01*
X7771639Y96148050D01*
X7645764Y96414190D01*
X7494409Y96666711D01*
X7319031Y96903180D01*
X7121320Y97121320D01*
X6903180Y97319031D01*
X6666711Y97494409D01*
X6414190Y97645764D01*
X6148050Y97771639D01*
X5870854Y97870821D01*
X5585271Y97942356D01*
X5294051Y97985554D01*
X5000000Y98000000D01*
X4705949Y97985554D01*
X4414729Y97942356D01*
X4129146Y97870821D01*
X3851950Y97771639D01*
X3585810Y97645764D01*
X3333289Y97494409D01*
X3096820Y97319031D01*
X2878680Y97121320D01*
X2680969Y96903180D01*
X2505591Y96666711D01*
X2354236Y96414190D01*
X2228361Y96148050D01*
X2129179Y95870854D01*
X2057644Y95585271D01*
X2014446Y95294051D01*
X2000000Y95000000D01*
X2014446Y94705949D01*
X2057644Y94414729D01*
X2129179Y94129146D01*
X2228361Y93851950D01*
X2354236Y93585810D01*
X2505591Y93333289D01*
X2680969Y93096820D01*
X2878680Y92878680D01*
X3096820Y92680969D01*
X3333289Y92505591D01*
X3585810Y92354236D01*
X3851950Y92228361D01*
X4129146Y92129179D01*
X4414729Y92057644D01*
X4705949Y92014446D01*
X5000000Y92000000D01*
X5294051Y92014446D01*
X5585271Y92057644D01*
X5870854Y92129179D01*
X6148050Y92228361D01*
X6414190Y92354236D01*
X6666711Y92505591D01*
X6903180Y92680969D01*
X7121320Y92878680D01*
X7319031Y93096820D01*
X7494409Y93333289D01*
X7645764Y93585810D01*
X7771639Y93851950D01*
X7870821Y94129146D01*
X7942356Y94414729D01*
X7985554Y94705949D01*
X8000000Y95000000D01*
X158000000Y95000000D02*
X157985554Y95294051D01*
X157942356Y95585271D01*
X157870821Y95870854D01*
X157771639Y96148050D01*
X157645764Y96414190D01*
X157494409Y96666711D01*
X157319031Y96903180D01*
X157121320Y97121320D01*
X156903180Y97319031D01*
X156666711Y97494409D01*
X156414190Y97645764D01*
X156148050Y97771639D01*
X155870854Y97870821D01*
X155585271Y97942356D01*
X155294051Y97985554D01*
X155000000Y98000000D01*
X154705949Y97985554D01*
X154414729Y97942356D01*
X154129146Y97870821D01*
X153851950Y97771639D01*
X153585810Y97645764D01*
X153333289Y97494409D01*
X153096820Y97319031D01*
X152878680Y97121320D01*
X152680969Y96903180D01*
X152505591Y96666711D01*
X152354236Y96414190D01*
X152228361Y96148050D01*
X152129179Y95870854D01*
X152057644Y95585271D01*
X152014446Y95294051D01*
X152000000Y95000000D01*
X152014446Y94705949D01*
X152057644Y94414729D01*
X152129179Y94129146D01*
X152228361Y93851950D01*
X152354236Y93585810D01*
X152505591Y93333289D01*
X152680969Y93096820D01*
X152878680Y92878680D01*
X153096820Y92680969D01*
X153333289Y92505591D01*
X153585810Y92354236D01*
X153851950Y92228361D01*
X154129146Y92129179D01*
X154414729Y92057644D01*
X154705949Y92014446D01*
X155000000Y92000000D01*
X155294051Y92014446D01*
X155585271Y92057644D01*
X155870854Y92129179D01*
X156148050Y92228361D01*
X156414190Y92354236D01*
X156666711Y92505591D01*
X156903180Y92680969D01*
X157121320Y92878680D01*
X157319031Y93096820D01*
X157494409Y93333289D01*
X157645764Y93585810D01*
X157771639Y93851950D01*
X157870821Y94129146D01*
X157942356Y94414729D01*
X157985554Y94705949D01*
X158000000Y95000000D01*
X44400000Y4400000D02*
X75540000Y4400000D01*
X75540000Y7600000D01*
X44400000Y7600000D01*
X44400000Y4400000D01*
X78400000Y4400000D02*
X104460000Y4400000D01*
X104460000Y7600000D01*
X78400000Y7600000D01*
X78400000Y4400000D01*
X108400000Y4400000D02*
X116680000Y4400000D01*
X116680000Y7600000D01*
X108400000Y7600000D01*
X108400000Y4400000D01*
X122400000Y4400000D02*
X133220000Y4400000D01*
X133220000Y7600000D01*
X122400000Y7600000D01*
X122400000Y4400000D01*
X18400000Y82400000D02*
X24140000Y82400000D01*
X24140000Y85600000D01*
X18400000Y85600000D01*
X18400000Y82400000D01*
X18400000Y14400000D02*
X24140000Y14400000D01*
X24140000Y17600000D01*
X18400000Y17600000D01*
X18400000Y14400000D01*
X150400000Y88400000D02*
X156140000Y88400000D01*
X156140000Y91600000D01*
X150400000Y91600000D01*
X150400000Y88400000D01*
M02*
