%TF.GenerationSoftware,TI One Voice,package_v2.4/tools/fixture_gen.py,1.0*%
%TF.CreationDate,2026-09-02T00:00:00+01:00*%
%TF.ProjectId,FIX-01,4d60469b18fec15c7d171b06020710f2,A*%
%TF.FileFunction,Legend,Top*%
%TF.FilePolarity,Positive*%
%TF.SameCoordinates,Original*%
%FSLAX46Y46*%
%MOMM*%
G04 Silkscreen Top -- panel legend and zone captions*
G04 FIX-01 Rev A -- TI One Voice research programme*
G04 NOT A FABRICATION SET -- no copper layer exists for this board*
G04 Licence CC BY-SA 4.0*
G01*
G75*
%LPD*%
%TA.AperFunction,Material*%
%ADD10C,0.150000*%
%TD*%
D10*
X5885714Y95000000D02*
X4342857Y95000000D01*
X4342857Y92000000D01*
X4342857Y93585714D02*
X5542857Y93585714D01*
X7085714Y95000000D02*
X8200000Y95000000D01*
X7642857Y95000000D02*
X7642857Y92000000D01*
X7085714Y92000000D02*
X8200000Y92000000D01*
X9400000Y95000000D02*
X11028571Y92000000D01*
X11028571Y95000000D02*
X9400000Y92000000D01*
X11928571Y93500000D02*
X13642857Y93500000D01*
X14542857Y92600000D02*
X14542857Y94400000D01*
X14971429Y95000000D01*
X15742857Y95000000D01*
X16171429Y94400000D01*
X16171429Y92600000D01*
X15742857Y92000000D01*
X14971429Y92000000D01*
X14542857Y92600000D01*
X14800000Y92514286D02*
X15914286Y94485714D01*
X17457143Y94400000D02*
X17928571Y95000000D01*
X17928571Y92000000D01*
X17371429Y92000000D02*
X18485714Y92000000D01*
X22342857Y92000000D02*
X22342857Y95000000D01*
X23457143Y95000000D01*
X23885714Y94571429D01*
X23885714Y93971429D01*
X23457143Y93542857D01*
X22342857Y93542857D01*
X23114286Y93542857D02*
X23928571Y92000000D01*
X26457143Y95000000D02*
X24914286Y95000000D01*
X24914286Y92000000D01*
X26457143Y92000000D01*
X24914286Y93585714D02*
X26114286Y93585714D01*
X27357143Y95000000D02*
X28214286Y92000000D01*
X29071429Y95000000D01*
X32500000Y92000000D02*
X33357143Y95000000D01*
X34214286Y92000000D01*
X32842857Y93114286D02*
X33871429Y93114286D01*
D10*
X5257143Y89000000D02*
X4228571Y89000000D01*
X4228571Y87000000D01*
X4228571Y88057143D02*
X5028571Y88057143D01*
X5942857Y87000000D02*
X5942857Y89000000D01*
X6685714Y89000000D01*
X6971429Y88714286D01*
X6971429Y88314286D01*
X6685714Y88028571D01*
X5942857Y88028571D01*
X6457143Y88028571D02*
X7000000Y87000000D01*
X7600000Y87400000D02*
X7600000Y88600000D01*
X7914286Y89000000D01*
X8400000Y89000000D01*
X8685714Y88600000D01*
X8685714Y87400000D01*
X8400000Y87000000D01*
X7914286Y87000000D01*
X7600000Y87400000D01*
X9371429Y87000000D02*
X9371429Y89000000D01*
X10400000Y87000000D01*
X10400000Y89000000D01*
X11000000Y89000000D02*
X12142857Y89000000D01*
X11571429Y89000000D02*
X11571429Y87000000D01*
X12714286Y88000000D02*
X13857143Y88000000D01*
X15542857Y89000000D02*
X14514286Y89000000D01*
X14514286Y87000000D01*
X15542857Y87000000D01*
X14514286Y88057143D02*
X15314286Y88057143D01*
X16228571Y87000000D02*
X16228571Y89000000D01*
X17257143Y87000000D01*
X17257143Y89000000D01*
X17942857Y87000000D02*
X17942857Y89000000D01*
X18628571Y89000000D01*
X18971429Y88600000D01*
X18971429Y87400000D01*
X18628571Y87000000D01*
X17942857Y87000000D01*
X21485714Y89000000D02*
X22228571Y89000000D01*
X21857143Y89000000D02*
X21857143Y87000000D01*
X21485714Y87000000D02*
X22228571Y87000000D01*
X23085714Y87000000D02*
X23085714Y89000000D01*
X24114286Y87000000D01*
X24114286Y89000000D01*
X25714286Y89000000D02*
X25714286Y87400000D01*
X25428571Y87000000D01*
X25028571Y87000000D01*
X24742857Y87314286D01*
X27542857Y89000000D02*
X26514286Y89000000D01*
X26514286Y87000000D01*
X27542857Y87000000D01*
X26514286Y88057143D02*
X27314286Y88057143D01*
X29257143Y88714286D02*
X28971429Y89000000D01*
X28485714Y89000000D01*
X28171429Y88628571D01*
X28171429Y87371429D01*
X28485714Y87000000D01*
X28971429Y87000000D01*
X29257143Y87285714D01*
X29857143Y89000000D02*
X31000000Y89000000D01*
X30428571Y89000000D02*
X30428571Y87000000D01*
X31771429Y89000000D02*
X32514286Y89000000D01*
X32142857Y89000000D02*
X32142857Y87000000D01*
X31771429Y87000000D02*
X32514286Y87000000D01*
X33314286Y87400000D02*
X33314286Y88600000D01*
X33628571Y89000000D01*
X34114286Y89000000D01*
X34400000Y88600000D01*
X34400000Y87400000D01*
X34114286Y87000000D01*
X33628571Y87000000D01*
X33314286Y87400000D01*
X35085714Y87000000D02*
X35085714Y89000000D01*
X36114286Y87000000D01*
X36114286Y89000000D01*
X37257143Y87171429D02*
X37085714Y86771429D01*
X40228571Y89000000D02*
X40228571Y87000000D01*
X41257143Y87000000D01*
X42971429Y89000000D02*
X41942857Y89000000D01*
X41942857Y87000000D01*
X42971429Y87000000D01*
X41942857Y88057143D02*
X42742857Y88057143D01*
X43571429Y87000000D02*
X44142857Y89000000D01*
X44714286Y87000000D01*
X43800000Y87742857D02*
X44485714Y87742857D01*
X45371429Y87000000D02*
X45371429Y89000000D01*
X46057143Y89000000D01*
X46400000Y88600000D01*
X46400000Y87400000D01*
X46057143Y87000000D01*
X45371429Y87000000D01*
X47000000Y88000000D02*
X48142857Y88000000D01*
X48742857Y87400000D02*
X48742857Y88600000D01*
X49057143Y89000000D01*
X49542857Y89000000D01*
X49828571Y88600000D01*
X49828571Y87400000D01*
X49542857Y87000000D01*
X49057143Y87000000D01*
X48742857Y87400000D01*
X51542857Y89000000D02*
X50514286Y89000000D01*
X50514286Y87000000D01*
X50514286Y88057143D02*
X51314286Y88057143D01*
X53257143Y89000000D02*
X52228571Y89000000D01*
X52228571Y87000000D01*
X52228571Y88057143D02*
X53028571Y88057143D01*
X55571429Y87000000D02*
X56142857Y89000000D01*
X56714286Y87000000D01*
X55800000Y87742857D02*
X56485714Y87742857D01*
X57371429Y87000000D02*
X57371429Y89000000D01*
X58400000Y87000000D01*
X58400000Y89000000D01*
X59085714Y87000000D02*
X59085714Y89000000D01*
X59771429Y89000000D01*
X60114286Y88600000D01*
X60114286Y87400000D01*
X59771429Y87000000D01*
X59085714Y87000000D01*
X63542857Y88714286D02*
X63257143Y89000000D01*
X62771429Y89000000D01*
X62457143Y88628571D01*
X62457143Y87371429D01*
X62771429Y87000000D01*
X63257143Y87000000D01*
X63542857Y87285714D01*
X64171429Y87400000D02*
X64171429Y88600000D01*
X64485714Y89000000D01*
X64971429Y89000000D01*
X65257143Y88600000D01*
X65257143Y87400000D01*
X64971429Y87000000D01*
X64485714Y87000000D01*
X64171429Y87400000D01*
X65942857Y87000000D02*
X65942857Y89000000D01*
X66971429Y87000000D01*
X66971429Y89000000D01*
X67571429Y89000000D02*
X68714286Y89000000D01*
X68142857Y89000000D02*
X68142857Y87000000D01*
X69285714Y87000000D02*
X69857143Y89000000D01*
X70428571Y87000000D01*
X69514286Y87742857D02*
X70200000Y87742857D01*
X72114286Y88714286D02*
X71828571Y89000000D01*
X71342857Y89000000D01*
X71028571Y88628571D01*
X71028571Y87371429D01*
X71342857Y87000000D01*
X71828571Y87000000D01*
X72114286Y87285714D01*
X72714286Y89000000D02*
X73857143Y89000000D01*
X73285714Y89000000D02*
X73285714Y87000000D01*
X74428571Y88000000D02*
X75571429Y88000000D01*
X76228571Y89000000D02*
X76228571Y87000000D01*
X77257143Y87000000D01*
X78057143Y89000000D02*
X78800000Y89000000D01*
X78428571Y89000000D02*
X78428571Y87000000D01*
X78057143Y87000000D02*
X78800000Y87000000D01*
X80685714Y88714286D02*
X80400000Y89000000D01*
X79914286Y89000000D01*
X79600000Y88628571D01*
X79600000Y87371429D01*
X79914286Y87000000D01*
X80400000Y87000000D01*
X80685714Y87342857D01*
X80685714Y87914286D01*
X80200000Y87914286D01*
X81371429Y89000000D02*
X81371429Y87000000D01*
X82400000Y89000000D02*
X82400000Y87000000D01*
X81371429Y88057143D02*
X82400000Y88057143D01*
X83000000Y89000000D02*
X84142857Y89000000D01*
X83571429Y89000000D02*
X83571429Y87000000D01*
X87542857Y89000000D02*
X86514286Y89000000D01*
X86514286Y87000000D01*
X86514286Y88057143D02*
X87314286Y88057143D01*
X88342857Y89000000D02*
X89085714Y89000000D01*
X88714286Y89000000D02*
X88714286Y87000000D01*
X88342857Y87000000D02*
X89085714Y87000000D01*
X89885714Y89000000D02*
X90971429Y87000000D01*
X90971429Y89000000D02*
X89885714Y87000000D01*
X91571429Y89000000D02*
X92714286Y89000000D01*
X92142857Y89000000D02*
X92142857Y87000000D01*
X93371429Y89000000D02*
X93371429Y87400000D01*
X93657143Y87000000D01*
X94114286Y87000000D01*
X94400000Y87400000D01*
X94400000Y89000000D01*
X95085714Y87000000D02*
X95085714Y89000000D01*
X95828571Y89000000D01*
X96114286Y88714286D01*
X96114286Y88314286D01*
X95828571Y88028571D01*
X95085714Y88028571D01*
X95600000Y88028571D02*
X96142857Y87000000D01*
X97828571Y89000000D02*
X96800000Y89000000D01*
X96800000Y87000000D01*
X97828571Y87000000D01*
X96800000Y88057143D02*
X97600000Y88057143D01*
D10*
X4114286Y84600000D02*
X5028571Y84600000D01*
X4571429Y84600000D02*
X4571429Y83000000D01*
X5645714Y84600000D02*
X6240000Y84600000D01*
X5942857Y84600000D02*
X5942857Y83000000D01*
X5645714Y83000000D02*
X6240000Y83000000D01*
X8251429Y83320000D02*
X8251429Y84280000D01*
X8502857Y84600000D01*
X8891429Y84600000D01*
X9120000Y84280000D01*
X9120000Y83320000D01*
X8891429Y83000000D01*
X8502857Y83000000D01*
X8251429Y83320000D01*
X9668571Y83000000D02*
X9668571Y84600000D01*
X10491429Y83000000D01*
X10491429Y84600000D01*
X11862857Y84600000D02*
X11040000Y84600000D01*
X11040000Y83000000D01*
X11862857Y83000000D01*
X11040000Y83845714D02*
X11680000Y83845714D01*
X13714286Y84600000D02*
X14171429Y83000000D01*
X14628571Y84600000D01*
X15108571Y83320000D02*
X15108571Y84280000D01*
X15360000Y84600000D01*
X15748571Y84600000D01*
X15977143Y84280000D01*
X15977143Y83320000D01*
X15748571Y83000000D01*
X15360000Y83000000D01*
X15108571Y83320000D01*
X16617143Y84600000D02*
X17211429Y84600000D01*
X16914286Y84600000D02*
X16914286Y83000000D01*
X16617143Y83000000D02*
X17211429Y83000000D01*
X18720000Y84371429D02*
X18491429Y84600000D01*
X18102857Y84600000D01*
X17851429Y84302857D01*
X17851429Y83297143D01*
X18102857Y83000000D01*
X18491429Y83000000D01*
X18720000Y83228571D01*
X20091429Y84600000D02*
X19268571Y84600000D01*
X19268571Y83000000D01*
X20091429Y83000000D01*
X19268571Y83845714D02*
X19908571Y83845714D01*
X24205714Y84371429D02*
X23977143Y84600000D01*
X23588571Y84600000D01*
X23337143Y84302857D01*
X23337143Y83297143D01*
X23588571Y83000000D01*
X23977143Y83000000D01*
X24205714Y83228571D01*
X25577143Y84371429D02*
X25348571Y84600000D01*
X24960000Y84600000D01*
X24708571Y84302857D01*
X24708571Y83297143D01*
X24960000Y83000000D01*
X25348571Y83000000D01*
X25577143Y83228571D01*
X27497143Y83000000D02*
X27497143Y84600000D01*
X28091429Y84600000D01*
X28320000Y84371429D01*
X28320000Y84097143D01*
X28091429Y83868571D01*
X27497143Y83868571D01*
X28091429Y83868571D02*
X28342857Y83617143D01*
X28342857Y83251429D01*
X28091429Y83000000D01*
X27497143Y83000000D01*
X28822857Y84600000D02*
X29257143Y83777143D01*
X29691429Y84600000D01*
X29257143Y83777143D02*
X29257143Y83000000D01*
X30171429Y83800000D02*
X31085714Y83800000D01*
X32411429Y84417143D02*
X32160000Y84600000D01*
X31794286Y84600000D01*
X31565714Y84371429D01*
X31565714Y84051429D01*
X31794286Y83868571D01*
X32205714Y83822857D01*
X32434286Y83594286D01*
X32434286Y83228571D01*
X32205714Y83000000D01*
X31794286Y83000000D01*
X31565714Y83182857D01*
X32914286Y83000000D02*
X33371429Y84600000D01*
X33828571Y83000000D01*
X33097143Y83594286D02*
X33645714Y83594286D01*
X36365714Y83000000D02*
X36365714Y84600000D01*
X35657143Y83502857D01*
X36594286Y83502857D01*
X37371429Y83000000D02*
X37508571Y83000000D01*
X38422857Y83320000D02*
X38422857Y84280000D01*
X38651429Y84600000D01*
X39062857Y84600000D01*
X39291429Y84280000D01*
X39291429Y83320000D01*
X39062857Y83000000D01*
X38651429Y83000000D01*
X38422857Y83320000D01*
X38560000Y83274286D02*
X39154286Y84325714D01*
X43314286Y84600000D02*
X43314286Y83320000D01*
X43085714Y83000000D01*
X42765714Y83000000D01*
X42537143Y83251429D01*
X44045714Y84600000D02*
X44640000Y84600000D01*
X44342857Y84600000D02*
X44342857Y83000000D01*
X44045714Y83000000D02*
X44640000Y83000000D01*
X46148571Y84371429D02*
X45920000Y84600000D01*
X45531429Y84600000D01*
X45280000Y84302857D01*
X45280000Y83297143D01*
X45531429Y83000000D01*
X45920000Y83000000D01*
X46148571Y83274286D01*
X46148571Y83731429D01*
X45760000Y83731429D01*
X46628571Y83800000D02*
X47542857Y83800000D01*
X48891429Y84600000D02*
X48068571Y84600000D01*
X48068571Y83000000D01*
X48891429Y83000000D01*
X48068571Y83845714D02*
X48708571Y83845714D01*
X50262857Y84600000D02*
X49440000Y84600000D01*
X49440000Y83000000D01*
X50262857Y83000000D01*
X49440000Y83845714D02*
X50080000Y83845714D01*
X51634286Y84371429D02*
X51405714Y84600000D01*
X51017143Y84600000D01*
X50765714Y84302857D01*
X50765714Y83297143D01*
X51017143Y83000000D01*
X51405714Y83000000D01*
X51634286Y83274286D01*
X51634286Y83731429D01*
X51245714Y83731429D01*
X52114286Y83800000D02*
X53028571Y83800000D01*
X53508571Y83320000D02*
X53508571Y84280000D01*
X53737143Y84600000D01*
X54148571Y84600000D01*
X54377143Y84280000D01*
X54377143Y83320000D01*
X54148571Y83000000D01*
X53737143Y83000000D01*
X53508571Y83320000D01*
X53645714Y83274286D02*
X54240000Y84325714D01*
X54880000Y83320000D02*
X54880000Y84280000D01*
X55108571Y84600000D01*
X55520000Y84600000D01*
X55748571Y84280000D01*
X55748571Y83320000D01*
X55520000Y83000000D01*
X55108571Y83000000D01*
X54880000Y83320000D01*
X55017143Y83274286D02*
X55611429Y84325714D01*
X56297143Y83137143D02*
X56525714Y83000000D01*
X56891429Y83000000D01*
X57120000Y83320000D01*
X57120000Y84280000D01*
X56891429Y84600000D01*
X56480000Y84600000D01*
X56251429Y84302857D01*
X56251429Y83982857D01*
X56480000Y83708571D01*
X56891429Y83708571D01*
X57120000Y83937143D01*
X59840000Y84417143D02*
X59588571Y84600000D01*
X59222857Y84600000D01*
X58994286Y84371429D01*
X58994286Y84051429D01*
X59222857Y83868571D01*
X59634286Y83822857D01*
X59862857Y83594286D01*
X59862857Y83228571D01*
X59634286Y83000000D01*
X59222857Y83000000D01*
X58994286Y83182857D01*
X61234286Y84600000D02*
X60411429Y84600000D01*
X60411429Y83000000D01*
X61234286Y83000000D01*
X60411429Y83845714D02*
X61051429Y83845714D01*
X62605714Y84371429D02*
X62377143Y84600000D01*
X61988571Y84600000D01*
X61737143Y84302857D01*
X61737143Y83297143D01*
X61988571Y83000000D01*
X62377143Y83000000D01*
X62605714Y83228571D01*
X63085714Y84600000D02*
X64000000Y84600000D01*
X63542857Y84600000D02*
X63542857Y83000000D01*
X64617143Y84600000D02*
X65211429Y84600000D01*
X64914286Y84600000D02*
X64914286Y83000000D01*
X64617143Y83000000D02*
X65211429Y83000000D01*
X65851429Y83320000D02*
X65851429Y84280000D01*
X66102857Y84600000D01*
X66491429Y84600000D01*
X66720000Y84280000D01*
X66720000Y83320000D01*
X66491429Y83000000D01*
X66102857Y83000000D01*
X65851429Y83320000D01*
X67268571Y83000000D02*
X67268571Y84600000D01*
X68091429Y83000000D01*
X68091429Y84600000D01*
X70217143Y83868571D02*
X69988571Y84097143D01*
X69988571Y84371429D01*
X70217143Y84600000D01*
X70582857Y84600000D01*
X70811429Y84371429D01*
X70811429Y84097143D01*
X70582857Y83868571D01*
X70217143Y83868571D01*
X69965714Y83617143D01*
X69965714Y83274286D01*
X70217143Y83000000D01*
X70582857Y83000000D01*
X70834286Y83274286D01*
X70834286Y83617143D01*
X70582857Y83868571D01*
D10*
X3382857Y51885714D02*
X3068571Y52200000D01*
X2534286Y52200000D01*
X2188571Y51791429D01*
X2188571Y50408571D01*
X2534286Y50000000D01*
X3068571Y50000000D01*
X3382857Y50377143D01*
X3382857Y51005714D01*
X2848571Y51005714D01*
X4137143Y52200000D02*
X4137143Y50440000D01*
X4451429Y50000000D01*
X4954286Y50000000D01*
X5268571Y50440000D01*
X5268571Y52200000D01*
X5928571Y50000000D02*
X6557143Y52200000D01*
X7185714Y50000000D01*
X6180000Y50817143D02*
X6934286Y50817143D01*
X7908571Y50000000D02*
X7908571Y52200000D01*
X8725714Y52200000D01*
X9040000Y51885714D01*
X9040000Y51445714D01*
X8725714Y51131429D01*
X7908571Y51131429D01*
X8474286Y51131429D02*
X9071429Y50000000D01*
X9794286Y50000000D02*
X9794286Y52200000D01*
X10548571Y52200000D01*
X10925714Y51760000D01*
X10925714Y50440000D01*
X10548571Y50000000D01*
X9794286Y50000000D01*
X12811429Y52200000D02*
X11680000Y52200000D01*
X11680000Y50000000D01*
X12811429Y50000000D01*
X11680000Y51162857D02*
X12560000Y51162857D01*
X13565714Y50000000D02*
X13565714Y52200000D01*
X14320000Y52200000D01*
X14697143Y51760000D01*
X14697143Y50440000D01*
X14320000Y50000000D01*
X13565714Y50000000D01*
X18468571Y51885714D02*
X18154286Y52200000D01*
X17620000Y52200000D01*
X17274286Y51791429D01*
X17274286Y50408571D01*
X17620000Y50000000D01*
X18154286Y50000000D01*
X18468571Y50314286D01*
X19160000Y50440000D02*
X19160000Y51760000D01*
X19505714Y52200000D01*
X20040000Y52200000D01*
X20354286Y51760000D01*
X20354286Y50440000D01*
X20040000Y50000000D01*
X19505714Y50000000D01*
X19160000Y50440000D01*
X21045714Y50000000D02*
X21045714Y52200000D01*
X21642857Y51068571D01*
X22240000Y52200000D01*
X22240000Y50000000D01*
X22994286Y50000000D02*
X22994286Y52200000D01*
X23811429Y52200000D01*
X24125714Y51885714D01*
X24125714Y51382857D01*
X23811429Y51068571D01*
X22994286Y51068571D01*
X24785714Y50000000D02*
X25414286Y52200000D01*
X26042857Y50000000D01*
X25037143Y50817143D02*
X25791429Y50817143D01*
X26765714Y50000000D02*
X26765714Y52200000D01*
X27582857Y52200000D01*
X27897143Y51885714D01*
X27897143Y51445714D01*
X27582857Y51131429D01*
X26765714Y51131429D01*
X27331429Y51131429D02*
X27928571Y50000000D01*
X28557143Y52200000D02*
X29814286Y52200000D01*
X29185714Y52200000D02*
X29185714Y50000000D01*
X30474286Y50000000D02*
X30474286Y52200000D01*
X31071429Y51068571D01*
X31668571Y52200000D01*
X31668571Y50000000D01*
X33554286Y52200000D02*
X32422857Y52200000D01*
X32422857Y50000000D01*
X33554286Y50000000D01*
X32422857Y51162857D02*
X33302857Y51162857D01*
X34308571Y50000000D02*
X34308571Y52200000D01*
X35440000Y50000000D01*
X35440000Y52200000D01*
X36100000Y52200000D02*
X37357143Y52200000D01*
X36728571Y52200000D02*
X36728571Y50000000D01*
D10*
X42251429Y50000000D02*
X42251429Y52200000D01*
X43068571Y52200000D01*
X43382857Y51885714D01*
X43382857Y51445714D01*
X43068571Y51131429D01*
X42251429Y51131429D01*
X42817143Y51131429D02*
X43414286Y50000000D01*
X45268571Y52200000D02*
X44137143Y52200000D01*
X44137143Y50000000D01*
X45268571Y50000000D01*
X44137143Y51162857D02*
X45017143Y51162857D01*
X46022857Y52200000D02*
X46022857Y50000000D01*
X47154286Y50000000D01*
X47814286Y50000000D02*
X48442857Y52200000D01*
X49071429Y50000000D01*
X48065714Y50817143D02*
X48820000Y50817143D01*
X49731429Y52200000D02*
X50328571Y51068571D01*
X50925714Y52200000D01*
X50328571Y51068571D02*
X50328571Y50000000D01*
X53502857Y50000000D02*
X53502857Y52200000D01*
X54100000Y51068571D01*
X54697143Y52200000D01*
X54697143Y50000000D01*
X55357143Y50000000D02*
X55985714Y52200000D01*
X56614286Y50000000D01*
X55608571Y50817143D02*
X56362857Y50817143D01*
X57242857Y52200000D02*
X58500000Y52200000D01*
X57871429Y52200000D02*
X57871429Y50000000D01*
X59222857Y50000000D02*
X59222857Y52200000D01*
X60040000Y52200000D01*
X60354286Y51885714D01*
X60354286Y51445714D01*
X60040000Y51131429D01*
X59222857Y51131429D01*
X59788571Y51131429D02*
X60385714Y50000000D01*
X61234286Y52200000D02*
X62051429Y52200000D01*
X61642857Y52200000D02*
X61642857Y50000000D01*
X61234286Y50000000D02*
X62051429Y50000000D01*
X62931429Y52200000D02*
X64125714Y50000000D01*
X64125714Y52200000D02*
X62931429Y50000000D01*
X67300000Y50471429D02*
X67300000Y51728571D01*
X66702857Y51100000D02*
X67897143Y51100000D01*
X70537143Y50000000D02*
X70537143Y52200000D01*
X71354286Y52200000D01*
X71668571Y51885714D01*
X71668571Y51445714D01*
X71354286Y51131429D01*
X70537143Y51131429D01*
X71102857Y51131429D02*
X71700000Y50000000D01*
X73554286Y52200000D02*
X72422857Y52200000D01*
X72422857Y50000000D01*
X73554286Y50000000D01*
X72422857Y51162857D02*
X73302857Y51162857D01*
X75440000Y52200000D02*
X74308571Y52200000D01*
X74308571Y50000000D01*
X74308571Y51162857D02*
X75188571Y51162857D01*
X77325714Y52200000D02*
X76194286Y52200000D01*
X76194286Y50000000D01*
X77325714Y50000000D01*
X76194286Y51162857D02*
X77074286Y51162857D01*
X78080000Y50000000D02*
X78080000Y52200000D01*
X78897143Y52200000D01*
X79211429Y51885714D01*
X79211429Y51445714D01*
X78897143Y51131429D01*
X78080000Y51131429D01*
X78645714Y51131429D02*
X79242857Y50000000D01*
X81097143Y52200000D02*
X79965714Y52200000D01*
X79965714Y50000000D01*
X81097143Y50000000D01*
X79965714Y51162857D02*
X80845714Y51162857D01*
X81851429Y50000000D02*
X81851429Y52200000D01*
X82982857Y50000000D01*
X82982857Y52200000D01*
X84868571Y51885714D02*
X84554286Y52200000D01*
X84020000Y52200000D01*
X83674286Y51791429D01*
X83674286Y50408571D01*
X84020000Y50000000D01*
X84554286Y50000000D01*
X84868571Y50314286D01*
X86754286Y52200000D02*
X85622857Y52200000D01*
X85622857Y50000000D01*
X86754286Y50000000D01*
X85622857Y51162857D02*
X86502857Y51162857D01*
X90525714Y52200000D02*
X89394286Y52200000D01*
X89394286Y50000000D01*
X89394286Y51162857D02*
X90274286Y51162857D01*
X91405714Y52200000D02*
X92222857Y52200000D01*
X91814286Y52200000D02*
X91814286Y50000000D01*
X91405714Y50000000D02*
X92222857Y50000000D01*
X94297143Y52200000D02*
X93165714Y52200000D01*
X93165714Y50000000D01*
X94297143Y50000000D01*
X93165714Y51162857D02*
X94045714Y51162857D01*
X95051429Y52200000D02*
X95051429Y50000000D01*
X96182857Y50000000D01*
X96937143Y50000000D02*
X96937143Y52200000D01*
X97691429Y52200000D01*
X98068571Y51760000D01*
X98068571Y50440000D01*
X97691429Y50000000D01*
X96937143Y50000000D01*
D10*
X152251429Y52200000D02*
X152251429Y50000000D01*
X153382857Y50000000D01*
X154074286Y50440000D02*
X154074286Y51760000D01*
X154420000Y52200000D01*
X154954286Y52200000D01*
X155268571Y51760000D01*
X155268571Y50440000D01*
X154954286Y50000000D01*
X154420000Y50000000D01*
X154074286Y50440000D01*
X157154286Y51885714D02*
X156840000Y52200000D01*
X156305714Y52200000D01*
X155960000Y51791429D01*
X155960000Y50408571D01*
X156305714Y50000000D01*
X156840000Y50000000D01*
X157154286Y50377143D01*
X157154286Y51005714D01*
X156620000Y51005714D01*
D10*
X47142857Y11200000D02*
X47142857Y9600000D01*
X46857143Y9200000D01*
X46457143Y9200000D01*
X46171429Y9514286D01*
X48114286Y10800000D02*
X48428571Y11200000D01*
X48428571Y9200000D01*
X48057143Y9200000D02*
X48800000Y9200000D01*
X49600000Y9600000D02*
X49600000Y10800000D01*
X49885714Y11200000D01*
X50400000Y11200000D01*
X50685714Y10800000D01*
X50685714Y9600000D01*
X50400000Y9200000D01*
X49885714Y9200000D01*
X49600000Y9600000D01*
X49771429Y9542857D02*
X50514286Y10857143D01*
X51314286Y11028571D02*
X51600000Y11200000D01*
X52114286Y11200000D01*
X52400000Y10857143D01*
X52400000Y10514286D01*
X52114286Y10285714D01*
X51714286Y10285714D01*
X52114286Y10285714D02*
X52400000Y10028571D01*
X52400000Y9542857D01*
X52114286Y9200000D01*
X51600000Y9200000D01*
X51314286Y9400000D01*
D10*
X43920000Y6380000D02*
X44171429Y6700000D01*
X44171429Y5100000D01*
X43874286Y5100000D02*
X44468571Y5100000D01*
D10*
X46240000Y2360000D02*
X46428571Y2600000D01*
X46428571Y1400000D01*
X46205714Y1400000D02*
X46651429Y1400000D01*
X47131429Y2600000D02*
X47782857Y1400000D01*
X47782857Y2600000D02*
X47131429Y1400000D01*
X48297143Y2360000D02*
X48485714Y2600000D01*
X48485714Y1400000D01*
X48262857Y1400000D02*
X48708571Y1400000D01*
X49188571Y2360000D02*
X49360000Y2600000D01*
X49668571Y2600000D01*
X49840000Y2360000D01*
X49840000Y2154286D01*
X49188571Y1400000D01*
X49840000Y1400000D01*
X51348571Y2600000D02*
X51794286Y2600000D01*
X51571429Y2600000D02*
X51571429Y1400000D01*
X51348571Y1400000D02*
X51794286Y1400000D01*
X52308571Y1400000D02*
X52308571Y2600000D01*
X52925714Y1400000D01*
X52925714Y2600000D01*
X53285714Y2600000D02*
X53971429Y2600000D01*
X53628571Y2600000D02*
X53628571Y1400000D01*
X54331429Y1640000D02*
X54331429Y2360000D01*
X54520000Y2600000D01*
X54811429Y2600000D01*
X54982857Y2360000D01*
X54982857Y1640000D01*
X54811429Y1400000D01*
X54520000Y1400000D01*
X54331429Y1640000D01*
X56971429Y2600000D02*
X56971429Y1640000D01*
X56800000Y1400000D01*
X56560000Y1400000D01*
X56388571Y1588571D01*
X57554286Y2360000D02*
X57742857Y2600000D01*
X57742857Y1400000D01*
X57520000Y1400000D02*
X57965714Y1400000D01*
X58960000Y1400000D02*
X58960000Y2600000D01*
X58428571Y1777143D01*
X59131429Y1777143D01*
X63211429Y2600000D02*
X62594286Y2600000D01*
X62594286Y1400000D01*
X62594286Y2034286D02*
X63074286Y2034286D01*
X63691429Y2600000D02*
X64137143Y2600000D01*
X63914286Y2600000D02*
X63914286Y1400000D01*
X63691429Y1400000D02*
X64137143Y1400000D01*
X64617143Y2600000D02*
X65268571Y1400000D01*
X65268571Y2600000D02*
X64617143Y1400000D01*
X65628571Y2000000D02*
X66314286Y2000000D01*
X66674286Y1640000D02*
X66674286Y2360000D01*
X66845714Y2600000D01*
X67154286Y2600000D01*
X67325714Y2360000D01*
X67325714Y1640000D01*
X67154286Y1400000D01*
X66845714Y1400000D01*
X66674286Y1640000D01*
X66777143Y1605714D02*
X67222857Y2394286D01*
X67840000Y2360000D02*
X68028571Y2600000D01*
X68028571Y1400000D01*
X67805714Y1400000D02*
X68251429Y1400000D01*
X68714286Y1400000D02*
X69400000Y2600000D01*
X69742857Y1400000D02*
X70085714Y2600000D01*
X70428571Y1400000D01*
X69880000Y1845714D02*
X70291429Y1845714D01*
X73840000Y2600000D02*
X74011429Y1400000D01*
X74200000Y2120000D01*
X74388571Y1400000D01*
X74560000Y2600000D01*
X74937143Y2600000D02*
X74937143Y1400000D01*
X75554286Y2600000D02*
X75554286Y1400000D01*
X74937143Y2034286D02*
X75554286Y2034286D01*
X75914286Y2000000D02*
X76600000Y2000000D01*
X76994286Y2600000D02*
X76994286Y1400000D01*
X77611429Y2600000D02*
X76994286Y1948571D01*
X77200000Y2154286D02*
X77628571Y1400000D01*
D10*
X81142857Y11200000D02*
X81142857Y9600000D01*
X80857143Y9200000D01*
X80457143Y9200000D01*
X80171429Y9514286D01*
X82114286Y10800000D02*
X82428571Y11200000D01*
X82428571Y9200000D01*
X82057143Y9200000D02*
X82800000Y9200000D01*
X83600000Y9600000D02*
X83600000Y10800000D01*
X83885714Y11200000D01*
X84400000Y11200000D01*
X84685714Y10800000D01*
X84685714Y9600000D01*
X84400000Y9200000D01*
X83885714Y9200000D01*
X83600000Y9600000D01*
X83771429Y9542857D02*
X84514286Y10857143D01*
X86171429Y9200000D02*
X86171429Y11200000D01*
X85285714Y9828571D01*
X86457143Y9828571D01*
D10*
X77920000Y6380000D02*
X78171429Y6700000D01*
X78171429Y5100000D01*
X77874286Y5100000D02*
X78468571Y5100000D01*
D10*
X80240000Y2360000D02*
X80428571Y2600000D01*
X80428571Y1400000D01*
X80205714Y1400000D02*
X80651429Y1400000D01*
X81131429Y2600000D02*
X81782857Y1400000D01*
X81782857Y2600000D02*
X81131429Y1400000D01*
X82297143Y2360000D02*
X82485714Y2600000D01*
X82485714Y1400000D01*
X82262857Y1400000D02*
X82708571Y1400000D01*
X83188571Y1640000D02*
X83188571Y2360000D01*
X83360000Y2600000D01*
X83668571Y2600000D01*
X83840000Y2360000D01*
X83840000Y1640000D01*
X83668571Y1400000D01*
X83360000Y1400000D01*
X83188571Y1640000D01*
X83291429Y1605714D02*
X83737143Y2394286D01*
X85348571Y2600000D02*
X85794286Y2600000D01*
X85571429Y2600000D02*
X85571429Y1400000D01*
X85348571Y1400000D02*
X85794286Y1400000D01*
X86308571Y1400000D02*
X86308571Y2600000D01*
X86925714Y1400000D01*
X86925714Y2600000D01*
X87285714Y2600000D02*
X87971429Y2600000D01*
X87628571Y2600000D02*
X87628571Y1400000D01*
X88331429Y1640000D02*
X88331429Y2360000D01*
X88520000Y2600000D01*
X88811429Y2600000D01*
X88982857Y2360000D01*
X88982857Y1640000D01*
X88811429Y1400000D01*
X88520000Y1400000D01*
X88331429Y1640000D01*
X90971429Y2600000D02*
X90971429Y1640000D01*
X90800000Y1400000D01*
X90560000Y1400000D01*
X90388571Y1588571D01*
X91417143Y2497143D02*
X91588571Y2600000D01*
X91897143Y2600000D01*
X92068571Y2394286D01*
X92068571Y2188571D01*
X91897143Y2051429D01*
X91657143Y2051429D01*
X91897143Y2051429D02*
X92068571Y1897143D01*
X92068571Y1605714D01*
X91897143Y1400000D01*
X91588571Y1400000D01*
X91417143Y1520000D01*
X92445714Y1640000D02*
X92445714Y2360000D01*
X92617143Y2600000D01*
X92925714Y2600000D01*
X93097143Y2360000D01*
X93097143Y1640000D01*
X92925714Y1400000D01*
X92617143Y1400000D01*
X92445714Y1640000D01*
X92548571Y1605714D02*
X92994286Y2394286D01*
X97211429Y2600000D02*
X96594286Y2600000D01*
X96594286Y1400000D01*
X96594286Y2034286D02*
X97074286Y2034286D01*
X97691429Y2600000D02*
X98137143Y2600000D01*
X97914286Y2600000D02*
X97914286Y1400000D01*
X97691429Y1400000D02*
X98137143Y1400000D01*
X98617143Y2600000D02*
X99268571Y1400000D01*
X99268571Y2600000D02*
X98617143Y1400000D01*
X99628571Y2000000D02*
X100314286Y2000000D01*
X100674286Y1640000D02*
X100674286Y2360000D01*
X100845714Y2600000D01*
X101154286Y2600000D01*
X101325714Y2360000D01*
X101325714Y1640000D01*
X101154286Y1400000D01*
X100845714Y1400000D01*
X100674286Y1640000D01*
X100777143Y1605714D02*
X101222857Y2394286D01*
X101840000Y2360000D02*
X102028571Y2600000D01*
X102028571Y1400000D01*
X101805714Y1400000D02*
X102251429Y1400000D01*
X102714286Y1400000D02*
X103400000Y2600000D01*
X104411429Y2600000D02*
X103794286Y2600000D01*
X103794286Y1400000D01*
X104411429Y1400000D01*
X103794286Y2034286D02*
X104274286Y2034286D01*
D10*
X111142857Y11200000D02*
X111142857Y9600000D01*
X110857143Y9200000D01*
X110457143Y9200000D01*
X110171429Y9514286D01*
X112114286Y10800000D02*
X112428571Y11200000D01*
X112428571Y9200000D01*
X112057143Y9200000D02*
X112800000Y9200000D01*
X113600000Y9600000D02*
X113600000Y10800000D01*
X113885714Y11200000D01*
X114400000Y11200000D01*
X114685714Y10800000D01*
X114685714Y9600000D01*
X114400000Y9200000D01*
X113885714Y9200000D01*
X113600000Y9600000D01*
X113771429Y9542857D02*
X114514286Y10857143D01*
X116342857Y11028571D02*
X116057143Y11200000D01*
X115600000Y11200000D01*
X115314286Y10800000D01*
X115314286Y9600000D01*
X115600000Y9200000D01*
X116114286Y9200000D01*
X116400000Y9571429D01*
X116400000Y9971429D01*
X116114286Y10314286D01*
X115600000Y10314286D01*
X115314286Y10028571D01*
D10*
X107920000Y6380000D02*
X108171429Y6700000D01*
X108171429Y5100000D01*
X107874286Y5100000D02*
X108468571Y5100000D01*
D10*
X110240000Y2360000D02*
X110428571Y2600000D01*
X110428571Y1400000D01*
X110205714Y1400000D02*
X110651429Y1400000D01*
X111131429Y2600000D02*
X111782857Y1400000D01*
X111782857Y2600000D02*
X111131429Y1400000D01*
X112160000Y2497143D02*
X112331429Y2600000D01*
X112640000Y2600000D01*
X112811429Y2394286D01*
X112811429Y2188571D01*
X112640000Y2051429D01*
X112400000Y2051429D01*
X112640000Y2051429D02*
X112811429Y1897143D01*
X112811429Y1605714D01*
X112640000Y1400000D01*
X112331429Y1400000D01*
X112160000Y1520000D01*
X114320000Y2600000D02*
X114765714Y2600000D01*
X114542857Y2600000D02*
X114542857Y1400000D01*
X114320000Y1400000D02*
X114765714Y1400000D01*
X115280000Y1400000D02*
X115280000Y2600000D01*
X115897143Y1400000D01*
X115897143Y2600000D01*
X116257143Y2600000D02*
X116942857Y2600000D01*
X116600000Y2600000D02*
X116600000Y1400000D01*
X117302857Y1640000D02*
X117302857Y2360000D01*
X117491429Y2600000D01*
X117782857Y2600000D01*
X117954286Y2360000D01*
X117954286Y1640000D01*
X117782857Y1400000D01*
X117491429Y1400000D01*
X117302857Y1640000D01*
X119942857Y2600000D02*
X119942857Y1640000D01*
X119771429Y1400000D01*
X119531429Y1400000D01*
X119360000Y1588571D01*
X120388571Y2360000D02*
X120560000Y2600000D01*
X120868571Y2600000D01*
X121040000Y2360000D01*
X121040000Y2154286D01*
X120388571Y1400000D01*
X121040000Y1400000D01*
D10*
X125142857Y11200000D02*
X125142857Y9600000D01*
X124857143Y9200000D01*
X124457143Y9200000D01*
X124171429Y9514286D01*
X126114286Y10800000D02*
X126428571Y11200000D01*
X126428571Y9200000D01*
X126057143Y9200000D02*
X126800000Y9200000D01*
X127600000Y9600000D02*
X127600000Y10800000D01*
X127885714Y11200000D01*
X128400000Y11200000D01*
X128685714Y10800000D01*
X128685714Y9600000D01*
X128400000Y9200000D01*
X127885714Y9200000D01*
X127600000Y9600000D01*
X127771429Y9542857D02*
X128514286Y10857143D01*
X130371429Y11200000D02*
X129371429Y11200000D01*
X129314286Y10314286D01*
X130057143Y10400000D01*
X130400000Y10114286D01*
X130400000Y9571429D01*
X130057143Y9200000D01*
X129542857Y9200000D01*
X129314286Y9400000D01*
D10*
X121920000Y6380000D02*
X122171429Y6700000D01*
X122171429Y5100000D01*
X121874286Y5100000D02*
X122468571Y5100000D01*
D10*
X124085714Y2600000D02*
X124771429Y2600000D01*
X124428571Y2600000D02*
X124428571Y1400000D01*
X125131429Y1640000D02*
X125131429Y2360000D01*
X125320000Y2600000D01*
X125611429Y2600000D01*
X125782857Y2360000D01*
X125782857Y1640000D01*
X125611429Y1400000D01*
X125320000Y1400000D01*
X125131429Y1640000D01*
X127171429Y2600000D02*
X127857143Y2600000D01*
X127514286Y2600000D02*
X127514286Y1400000D01*
X128251429Y2600000D02*
X128251429Y1400000D01*
X128868571Y2600000D02*
X128868571Y1400000D01*
X128251429Y2034286D02*
X128868571Y2034286D01*
X129897143Y2600000D02*
X129280000Y2600000D01*
X129280000Y1400000D01*
X129897143Y1400000D01*
X129280000Y2034286D02*
X129760000Y2034286D01*
X131337143Y1400000D02*
X131337143Y2600000D01*
X131748571Y2600000D01*
X131954286Y2360000D01*
X131954286Y1640000D01*
X131748571Y1400000D01*
X131337143Y1400000D01*
X132434286Y2600000D02*
X132880000Y2600000D01*
X132657143Y2600000D02*
X132657143Y1400000D01*
X132434286Y1400000D02*
X132880000Y1400000D01*
X133394286Y1400000D02*
X133394286Y2600000D01*
X134011429Y1400000D01*
X134011429Y2600000D01*
X135931429Y1400000D02*
X135931429Y2600000D01*
X135400000Y1777143D01*
X136102857Y1777143D01*
X136445714Y2360000D02*
X136617143Y2600000D01*
X136925714Y2600000D01*
X137097143Y2360000D01*
X137097143Y2154286D01*
X136445714Y1400000D01*
X137097143Y1400000D01*
X137662857Y2051429D02*
X137491429Y2222857D01*
X137491429Y2428571D01*
X137662857Y2600000D01*
X137937143Y2600000D01*
X138108571Y2428571D01*
X138108571Y2222857D01*
X137937143Y2051429D01*
X137662857Y2051429D01*
X137474286Y1862857D01*
X137474286Y1605714D01*
X137662857Y1400000D01*
X137937143Y1400000D01*
X138125714Y1605714D01*
X138125714Y1862857D01*
X137937143Y2051429D01*
X138502857Y1640000D02*
X138502857Y2360000D01*
X138674286Y2600000D01*
X138982857Y2600000D01*
X139154286Y2360000D01*
X139154286Y1640000D01*
X138982857Y1400000D01*
X138674286Y1400000D01*
X138502857Y1640000D01*
X138605714Y1605714D02*
X139051429Y2394286D01*
X139531429Y2360000D02*
X139702857Y2600000D01*
X140011429Y2600000D01*
X140182857Y2360000D01*
X140182857Y2154286D01*
X139531429Y1400000D01*
X140182857Y1400000D01*
X141622857Y1400000D02*
X141622857Y2600000D01*
X142068571Y2600000D01*
X142240000Y2428571D01*
X142240000Y2222857D01*
X142068571Y2051429D01*
X141622857Y2051429D01*
X142068571Y2051429D02*
X142257143Y1862857D01*
X142257143Y1588571D01*
X142068571Y1400000D01*
X141622857Y1400000D01*
X142600000Y1400000D02*
X142942857Y2600000D01*
X143285714Y1400000D01*
X142737143Y1845714D02*
X143148571Y1845714D01*
X143680000Y1400000D02*
X143680000Y2600000D01*
X144125714Y2600000D01*
X144297143Y2428571D01*
X144297143Y2188571D01*
X144125714Y2017143D01*
X143680000Y2017143D01*
X143988571Y2017143D02*
X144314286Y1400000D01*
X148411429Y2600000D02*
X147794286Y2600000D01*
X147794286Y1400000D01*
X147794286Y2034286D02*
X148274286Y2034286D01*
X148891429Y2600000D02*
X149337143Y2600000D01*
X149114286Y2600000D02*
X149114286Y1400000D01*
X148891429Y1400000D02*
X149337143Y1400000D01*
D10*
X21142857Y89200000D02*
X21142857Y87600000D01*
X20857143Y87200000D01*
X20457143Y87200000D01*
X20171429Y87514286D01*
X22114286Y88800000D02*
X22428571Y89200000D01*
X22428571Y87200000D01*
X22057143Y87200000D02*
X22800000Y87200000D01*
X23600000Y87600000D02*
X23600000Y88800000D01*
X23885714Y89200000D01*
X24400000Y89200000D01*
X24685714Y88800000D01*
X24685714Y87600000D01*
X24400000Y87200000D01*
X23885714Y87200000D01*
X23600000Y87600000D01*
X23771429Y87542857D02*
X24514286Y88857143D01*
X25542857Y88800000D02*
X25857143Y89200000D01*
X25857143Y87200000D01*
X25485714Y87200000D02*
X26228571Y87200000D01*
X27085714Y89200000D02*
X27085714Y87200000D01*
X28114286Y89200000D02*
X28114286Y87200000D01*
X27085714Y88257143D02*
X28114286Y88257143D01*
D10*
X17920000Y84380000D02*
X18171429Y84700000D01*
X18171429Y83100000D01*
X17874286Y83100000D02*
X18468571Y83100000D01*
D10*
X20137143Y79400000D02*
X20137143Y80600000D01*
X20582857Y80600000D01*
X20754286Y80428571D01*
X20754286Y80222857D01*
X20582857Y80051429D01*
X20137143Y80051429D01*
X20582857Y80051429D02*
X20771429Y79862857D01*
X20771429Y79588571D01*
X20582857Y79400000D01*
X20137143Y79400000D01*
X21165714Y79400000D02*
X21165714Y80600000D01*
X21782857Y79400000D01*
X21782857Y80600000D01*
X22811429Y80428571D02*
X22640000Y80600000D01*
X22348571Y80600000D01*
X22160000Y80377143D01*
X22160000Y79622857D01*
X22348571Y79400000D01*
X22640000Y79400000D01*
X22811429Y79571429D01*
X24868571Y80428571D02*
X24697143Y80600000D01*
X24405714Y80600000D01*
X24217143Y80377143D01*
X24217143Y79622857D01*
X24405714Y79400000D01*
X24697143Y79400000D01*
X24868571Y79605714D01*
X24868571Y79948571D01*
X24577143Y79948571D01*
X25897143Y80600000D02*
X25280000Y80600000D01*
X25280000Y79400000D01*
X25897143Y79400000D01*
X25280000Y80034286D02*
X25760000Y80034286D01*
X26308571Y79400000D02*
X26308571Y80600000D01*
X26925714Y79400000D01*
X26925714Y80600000D01*
X27954286Y80600000D02*
X27337143Y80600000D01*
X27337143Y79400000D01*
X27954286Y79400000D01*
X27337143Y80034286D02*
X27817143Y80034286D01*
X28365714Y79400000D02*
X28365714Y80600000D01*
X28811429Y80600000D01*
X28982857Y80428571D01*
X28982857Y80188571D01*
X28811429Y80017143D01*
X28365714Y80017143D01*
X28674286Y80017143D02*
X29000000Y79400000D01*
X29342857Y79400000D02*
X29685714Y80600000D01*
X30028571Y79400000D01*
X29480000Y79845714D02*
X29891429Y79845714D01*
X30371429Y80600000D02*
X31057143Y80600000D01*
X30714286Y80600000D02*
X30714286Y79400000D01*
X31417143Y79640000D02*
X31417143Y80360000D01*
X31605714Y80600000D01*
X31897143Y80600000D01*
X32068571Y80360000D01*
X32068571Y79640000D01*
X31897143Y79400000D01*
X31605714Y79400000D01*
X31417143Y79640000D01*
X32480000Y79400000D02*
X32480000Y80600000D01*
X32925714Y80600000D01*
X33097143Y80428571D01*
X33097143Y80188571D01*
X32925714Y80017143D01*
X32480000Y80017143D01*
X32788571Y80017143D02*
X33114286Y79400000D01*
X34605714Y80600000D02*
X35051429Y80600000D01*
X34828571Y80600000D02*
X34828571Y79400000D01*
X34605714Y79400000D02*
X35051429Y79400000D01*
X35565714Y79400000D02*
X35565714Y80600000D01*
X36182857Y79400000D01*
X36182857Y80600000D01*
X36594286Y79400000D02*
X36594286Y80600000D01*
X37040000Y80600000D01*
X37211429Y80428571D01*
X37211429Y80154286D01*
X37040000Y79982857D01*
X36594286Y79982857D01*
X37622857Y80600000D02*
X37622857Y79640000D01*
X37794286Y79400000D01*
X38068571Y79400000D01*
X38240000Y79640000D01*
X38240000Y80600000D01*
X38600000Y80600000D02*
X39285714Y80600000D01*
X38942857Y80600000D02*
X38942857Y79400000D01*
X39954286Y79502857D02*
X39851429Y79262857D01*
X41737143Y80600000D02*
X41737143Y79400000D01*
X42354286Y79400000D01*
X43382857Y80600000D02*
X42765714Y80600000D01*
X42765714Y79400000D01*
X43382857Y79400000D01*
X42765714Y80034286D02*
X43245714Y80034286D01*
D10*
X21142857Y21200000D02*
X21142857Y19600000D01*
X20857143Y19200000D01*
X20457143Y19200000D01*
X20171429Y19514286D01*
X22114286Y20800000D02*
X22428571Y21200000D01*
X22428571Y19200000D01*
X22057143Y19200000D02*
X22800000Y19200000D01*
X23600000Y19600000D02*
X23600000Y20800000D01*
X23885714Y21200000D01*
X24400000Y21200000D01*
X24685714Y20800000D01*
X24685714Y19600000D01*
X24400000Y19200000D01*
X23885714Y19200000D01*
X23600000Y19600000D01*
X23771429Y19542857D02*
X24514286Y20857143D01*
X25314286Y20800000D02*
X25600000Y21200000D01*
X26114286Y21200000D01*
X26400000Y20800000D01*
X26400000Y20457143D01*
X25314286Y19200000D01*
X26400000Y19200000D01*
X27085714Y21200000D02*
X27085714Y19200000D01*
X28114286Y21200000D02*
X28114286Y19200000D01*
X27085714Y20257143D02*
X28114286Y20257143D01*
D10*
X17920000Y16380000D02*
X18171429Y16700000D01*
X18171429Y15100000D01*
X17874286Y15100000D02*
X18468571Y15100000D01*
D10*
X20137143Y11400000D02*
X20137143Y12600000D01*
X20582857Y12600000D01*
X20754286Y12428571D01*
X20754286Y12222857D01*
X20582857Y12051429D01*
X20137143Y12051429D01*
X20582857Y12051429D02*
X20771429Y11862857D01*
X20771429Y11588571D01*
X20582857Y11400000D01*
X20137143Y11400000D01*
X21165714Y11400000D02*
X21165714Y12600000D01*
X21782857Y11400000D01*
X21782857Y12600000D01*
X22811429Y12428571D02*
X22640000Y12600000D01*
X22348571Y12600000D01*
X22160000Y12377143D01*
X22160000Y11622857D01*
X22348571Y11400000D01*
X22640000Y11400000D01*
X22811429Y11571429D01*
X24251429Y11400000D02*
X24251429Y12600000D01*
X24662857Y12600000D01*
X24868571Y12360000D01*
X24868571Y11640000D01*
X24662857Y11400000D01*
X24251429Y11400000D01*
X25245714Y11400000D02*
X25245714Y12600000D01*
X25571429Y11982857D01*
X25897143Y12600000D01*
X25897143Y11400000D01*
X26274286Y11400000D02*
X26274286Y12600000D01*
X26600000Y11982857D01*
X26925714Y12600000D01*
X26925714Y11400000D01*
X28331429Y11400000D02*
X28331429Y12600000D01*
X28657143Y11982857D01*
X28982857Y12600000D01*
X28982857Y11400000D01*
X29360000Y11640000D02*
X29360000Y12360000D01*
X29548571Y12600000D01*
X29840000Y12600000D01*
X30011429Y12360000D01*
X30011429Y11640000D01*
X29840000Y11400000D01*
X29548571Y11400000D01*
X29360000Y11640000D01*
X30422857Y11400000D02*
X30422857Y12600000D01*
X31040000Y11400000D01*
X31040000Y12600000D01*
X31520000Y12600000D02*
X31965714Y12600000D01*
X31742857Y12600000D02*
X31742857Y11400000D01*
X31520000Y11400000D02*
X31965714Y11400000D01*
X32428571Y12600000D02*
X33114286Y12600000D01*
X32771429Y12600000D02*
X32771429Y11400000D01*
X33474286Y11640000D02*
X33474286Y12360000D01*
X33662857Y12600000D01*
X33954286Y12600000D01*
X34125714Y12360000D01*
X34125714Y11640000D01*
X33954286Y11400000D01*
X33662857Y11400000D01*
X33474286Y11640000D01*
X34537143Y11400000D02*
X34537143Y12600000D01*
X34982857Y12600000D01*
X35154286Y12428571D01*
X35154286Y12188571D01*
X34982857Y12017143D01*
X34537143Y12017143D01*
X34845714Y12017143D02*
X35171429Y11400000D01*
X35840000Y11502857D02*
X35737143Y11262857D01*
X37622857Y12600000D02*
X37622857Y11400000D01*
X38240000Y11400000D01*
X39268571Y12600000D02*
X38651429Y12600000D01*
X38651429Y11400000D01*
X39268571Y11400000D01*
X38651429Y12034286D02*
X39131429Y12034286D01*
X40297143Y12600000D02*
X39680000Y12600000D01*
X39680000Y11400000D01*
X39680000Y12034286D02*
X40160000Y12034286D01*
X40657143Y12600000D02*
X41342857Y12600000D01*
X41000000Y12600000D02*
X41000000Y11400000D01*
X43382857Y12600000D02*
X42765714Y12600000D01*
X42765714Y11400000D01*
X43382857Y11400000D01*
X42765714Y12034286D02*
X43245714Y12034286D01*
D10*
X153142857Y95200000D02*
X153142857Y93600000D01*
X152857143Y93200000D01*
X152457143Y93200000D01*
X152171429Y93514286D01*
X154114286Y94800000D02*
X154428571Y95200000D01*
X154428571Y93200000D01*
X154057143Y93200000D02*
X154800000Y93200000D01*
X155600000Y93600000D02*
X155600000Y94800000D01*
X155885714Y95200000D01*
X156400000Y95200000D01*
X156685714Y94800000D01*
X156685714Y93600000D01*
X156400000Y93200000D01*
X155885714Y93200000D01*
X155600000Y93600000D01*
X155771429Y93542857D02*
X156514286Y94857143D01*
D10*
X149920000Y90380000D02*
X150171429Y90700000D01*
X150171429Y89100000D01*
X149874286Y89100000D02*
X150468571Y89100000D01*
D10*
X152737143Y86600000D02*
X152137143Y86600000D01*
X152102857Y86068571D01*
X152548571Y86120000D01*
X152754286Y85948571D01*
X152754286Y85622857D01*
X152548571Y85400000D01*
X152240000Y85400000D01*
X152102857Y85520000D01*
X154142857Y86600000D02*
X154485714Y85400000D01*
X154828571Y86600000D01*
X156217143Y86360000D02*
X156388571Y86600000D01*
X156697143Y86600000D01*
X156868571Y86360000D01*
X156868571Y86154286D01*
X156217143Y85400000D01*
X156868571Y85400000D01*
D10*
X45382857Y94200000D02*
X44251429Y94200000D01*
X44251429Y92000000D01*
X44251429Y93162857D02*
X45131429Y93162857D01*
X46262857Y94200000D02*
X47080000Y94200000D01*
X46671429Y94200000D02*
X46671429Y92000000D01*
X46262857Y92000000D02*
X47080000Y92000000D01*
X47960000Y94200000D02*
X49154286Y92000000D01*
X49154286Y94200000D02*
X47960000Y92000000D01*
X49814286Y92000000D02*
X51071429Y92000000D01*
X52925714Y93885714D02*
X52611429Y94200000D01*
X52077143Y94200000D01*
X51731429Y93791429D01*
X51731429Y92408571D01*
X52077143Y92000000D01*
X52611429Y92000000D01*
X52925714Y92314286D01*
X53617143Y92440000D02*
X53617143Y93760000D01*
X53962857Y94200000D01*
X54497143Y94200000D01*
X54811429Y93760000D01*
X54811429Y92440000D01*
X54497143Y92000000D01*
X53962857Y92000000D01*
X53617143Y92440000D01*
X55502857Y92000000D02*
X55502857Y94200000D01*
X56100000Y93068571D01*
X56697143Y94200000D01*
X56697143Y92000000D01*
X59462857Y94200000D02*
X60280000Y94200000D01*
X59871429Y94200000D02*
X59871429Y92000000D01*
X59462857Y92000000D02*
X60280000Y92000000D01*
X62322857Y93948571D02*
X61977143Y94200000D01*
X61474286Y94200000D01*
X61160000Y93885714D01*
X61160000Y93445714D01*
X61474286Y93194286D01*
X62040000Y93131429D01*
X62354286Y92817143D01*
X62354286Y92314286D01*
X62040000Y92000000D01*
X61474286Y92000000D01*
X61160000Y92251429D01*
X64900000Y92000000D02*
X65528571Y94200000D01*
X66157143Y92000000D01*
X65151429Y92817143D02*
X65905714Y92817143D01*
X66880000Y92000000D02*
X66880000Y94200000D01*
X68011429Y92000000D01*
X68011429Y94200000D01*
X68671429Y92000000D02*
X69300000Y94200000D01*
X69928571Y92000000D01*
X68922857Y92817143D02*
X69677143Y92817143D01*
X70651429Y94200000D02*
X70651429Y92000000D01*
X71782857Y92000000D01*
X72474286Y92440000D02*
X72474286Y93760000D01*
X72820000Y94200000D01*
X73354286Y94200000D01*
X73668571Y93760000D01*
X73668571Y92440000D01*
X73354286Y92000000D01*
X72820000Y92000000D01*
X72474286Y92440000D01*
X75554286Y93885714D02*
X75240000Y94200000D01*
X74705714Y94200000D01*
X74360000Y93791429D01*
X74360000Y92408571D01*
X74705714Y92000000D01*
X75240000Y92000000D01*
X75554286Y92377143D01*
X75554286Y93005714D01*
X75020000Y93005714D01*
X76308571Y94200000D02*
X76308571Y92440000D01*
X76622857Y92000000D01*
X77125714Y92000000D01*
X77440000Y92440000D01*
X77440000Y94200000D01*
X79325714Y94200000D02*
X78194286Y94200000D01*
X78194286Y92000000D01*
X79325714Y92000000D01*
X78194286Y93162857D02*
X79074286Y93162857D01*
X81965714Y92000000D02*
X81965714Y94200000D01*
X82782857Y94200000D01*
X83097143Y93885714D01*
X83097143Y93445714D01*
X82782857Y93131429D01*
X81965714Y93131429D01*
X82531429Y93131429D02*
X83128571Y92000000D01*
X84982857Y94200000D02*
X83851429Y94200000D01*
X83851429Y92000000D01*
X84982857Y92000000D01*
X83851429Y93162857D02*
X84731429Y93162857D01*
X86868571Y94200000D02*
X85737143Y94200000D01*
X85737143Y92000000D01*
X85737143Y93162857D02*
X86617143Y93162857D01*
X88754286Y94200000D02*
X87622857Y94200000D01*
X87622857Y92000000D01*
X88754286Y92000000D01*
X87622857Y93162857D02*
X88502857Y93162857D01*
X89508571Y92000000D02*
X89508571Y94200000D01*
X90325714Y94200000D01*
X90640000Y93885714D01*
X90640000Y93445714D01*
X90325714Y93131429D01*
X89508571Y93131429D01*
X90074286Y93131429D02*
X90671429Y92000000D01*
X92525714Y94200000D02*
X91394286Y94200000D01*
X91394286Y92000000D01*
X92525714Y92000000D01*
X91394286Y93162857D02*
X92274286Y93162857D01*
X93280000Y92000000D02*
X93280000Y94200000D01*
X94411429Y92000000D01*
X94411429Y94200000D01*
X96297143Y93885714D02*
X95982857Y94200000D01*
X95448571Y94200000D01*
X95102857Y93791429D01*
X95102857Y92408571D01*
X95448571Y92000000D01*
X95982857Y92000000D01*
X96297143Y92314286D01*
X98182857Y94200000D02*
X97051429Y94200000D01*
X97051429Y92000000D01*
X98182857Y92000000D01*
X97051429Y93162857D02*
X97931429Y93162857D01*
X100728571Y93100000D02*
X101985714Y93100000D01*
X104594286Y92000000D02*
X104594286Y94200000D01*
X105725714Y92000000D01*
X105725714Y94200000D01*
X106417143Y92440000D02*
X106417143Y93760000D01*
X106762857Y94200000D01*
X107297143Y94200000D01*
X107611429Y93760000D01*
X107611429Y92440000D01*
X107297143Y92000000D01*
X106762857Y92000000D01*
X106417143Y92440000D01*
X108271429Y94200000D02*
X109528571Y94200000D01*
X108900000Y94200000D02*
X108900000Y92000000D01*
X112137143Y92000000D02*
X112137143Y94200000D01*
X112891429Y94200000D01*
X113268571Y93760000D01*
X113268571Y92440000D01*
X112891429Y92000000D01*
X112137143Y92000000D01*
X115154286Y93885714D02*
X114840000Y94200000D01*
X114305714Y94200000D01*
X113960000Y93791429D01*
X113960000Y92408571D01*
X114305714Y92000000D01*
X114840000Y92000000D01*
X115154286Y92377143D01*
X115154286Y93005714D01*
X114620000Y93005714D01*
X115908571Y92000000D02*
X115908571Y94200000D01*
X117040000Y92000000D01*
X117040000Y94200000D01*
X117794286Y92000000D02*
X117794286Y94200000D01*
X118548571Y94200000D01*
X118925714Y93760000D01*
X118925714Y92440000D01*
X118548571Y92000000D01*
X117794286Y92000000D01*
D10*
X45131429Y89542857D02*
X44874286Y89800000D01*
X44437143Y89800000D01*
X44154286Y89465714D01*
X44154286Y88334286D01*
X44437143Y88000000D01*
X44874286Y88000000D01*
X45131429Y88308571D01*
X45131429Y88822857D01*
X44694286Y88822857D01*
X45748571Y89800000D02*
X45748571Y88360000D01*
X46005714Y88000000D01*
X46417143Y88000000D01*
X46674286Y88360000D01*
X46674286Y89800000D01*
X47214286Y88000000D02*
X47728571Y89800000D01*
X48242857Y88000000D01*
X47420000Y88668571D02*
X48037143Y88668571D01*
X48834286Y88000000D02*
X48834286Y89800000D01*
X49502857Y89800000D01*
X49760000Y89542857D01*
X49760000Y89182857D01*
X49502857Y88925714D01*
X48834286Y88925714D01*
X49297143Y88925714D02*
X49785714Y88000000D01*
X50377143Y88000000D02*
X50377143Y89800000D01*
X50994286Y89800000D01*
X51302857Y89440000D01*
X51302857Y88360000D01*
X50994286Y88000000D01*
X50377143Y88000000D01*
X53565714Y89800000D02*
X54234286Y89800000D01*
X53900000Y89800000D02*
X53900000Y88000000D01*
X53565714Y88000000D02*
X54234286Y88000000D01*
X55905714Y89594286D02*
X55622857Y89800000D01*
X55211429Y89800000D01*
X54954286Y89542857D01*
X54954286Y89182857D01*
X55211429Y88977143D01*
X55674286Y88925714D01*
X55931429Y88668571D01*
X55931429Y88257143D01*
X55674286Y88000000D01*
X55211429Y88000000D01*
X54954286Y88205714D01*
X58091429Y88000000D02*
X58091429Y89800000D01*
X58708571Y89800000D01*
X59017143Y89440000D01*
X59017143Y88360000D01*
X58708571Y88000000D01*
X58091429Y88000000D01*
X59634286Y88000000D02*
X59634286Y89800000D01*
X60302857Y89800000D01*
X60560000Y89542857D01*
X60560000Y89182857D01*
X60302857Y88925714D01*
X59634286Y88925714D01*
X60097143Y88925714D02*
X60585714Y88000000D01*
X61280000Y89800000D02*
X61948571Y89800000D01*
X61614286Y89800000D02*
X61614286Y88000000D01*
X61280000Y88000000D02*
X61948571Y88000000D01*
X62642857Y89800000D02*
X63157143Y88000000D01*
X63671429Y89800000D01*
X65188571Y89800000D02*
X64262857Y89800000D01*
X64262857Y88000000D01*
X65188571Y88000000D01*
X64262857Y88951429D02*
X64982857Y88951429D01*
X65805714Y88000000D02*
X65805714Y89800000D01*
X66731429Y88000000D01*
X66731429Y89800000D01*
X68814286Y88900000D02*
X69842857Y88900000D01*
X71977143Y88000000D02*
X71977143Y89800000D01*
X72902857Y88000000D01*
X72902857Y89800000D01*
X73468571Y88360000D02*
X73468571Y89440000D01*
X73751429Y89800000D01*
X74188571Y89800000D01*
X74445714Y89440000D01*
X74445714Y88360000D01*
X74188571Y88000000D01*
X73751429Y88000000D01*
X73468571Y88360000D01*
X74985714Y89800000D02*
X76014286Y89800000D01*
X75500000Y89800000D02*
X75500000Y88000000D01*
X78071429Y88000000D02*
X78585714Y89800000D01*
X79100000Y88000000D01*
X78277143Y88668571D02*
X78894286Y88668571D01*
X82134286Y89594286D02*
X81851429Y89800000D01*
X81440000Y89800000D01*
X81182857Y89542857D01*
X81182857Y89182857D01*
X81440000Y88977143D01*
X81902857Y88925714D01*
X82160000Y88668571D01*
X82160000Y88257143D01*
X81902857Y88000000D01*
X81440000Y88000000D01*
X81182857Y88205714D01*
X83702857Y89542857D02*
X83445714Y89800000D01*
X83008571Y89800000D01*
X82725714Y89465714D01*
X82725714Y88334286D01*
X83008571Y88000000D01*
X83445714Y88000000D01*
X83702857Y88257143D01*
X84320000Y88000000D02*
X84320000Y89800000D01*
X84988571Y89800000D01*
X85245714Y89542857D01*
X85245714Y89182857D01*
X84988571Y88925714D01*
X84320000Y88925714D01*
X84782857Y88925714D02*
X85271429Y88000000D01*
X86788571Y89800000D02*
X85862857Y89800000D01*
X85862857Y88000000D01*
X86788571Y88000000D01*
X85862857Y88951429D02*
X86582857Y88951429D01*
X88331429Y89800000D02*
X87405714Y89800000D01*
X87405714Y88000000D01*
X88331429Y88000000D01*
X87405714Y88951429D02*
X88125714Y88951429D01*
X88948571Y88000000D02*
X88948571Y89800000D01*
X89874286Y88000000D01*
X89874286Y89800000D01*
D10*
X45005714Y85871429D02*
X44777143Y86100000D01*
X44388571Y86100000D01*
X44137143Y85802857D01*
X44137143Y84797143D01*
X44388571Y84500000D01*
X44777143Y84500000D01*
X45005714Y84774286D01*
X45005714Y85231429D01*
X44617143Y85231429D01*
X45554286Y86100000D02*
X45554286Y84820000D01*
X45782857Y84500000D01*
X46148571Y84500000D01*
X46377143Y84820000D01*
X46377143Y86100000D01*
X46857143Y84500000D02*
X47314286Y86100000D01*
X47771429Y84500000D01*
X47040000Y85094286D02*
X47588571Y85094286D01*
X48297143Y84500000D02*
X48297143Y86100000D01*
X48891429Y86100000D01*
X49120000Y85871429D01*
X49120000Y85551429D01*
X48891429Y85322857D01*
X48297143Y85322857D01*
X48708571Y85322857D02*
X49142857Y84500000D01*
X49668571Y84500000D02*
X49668571Y86100000D01*
X50217143Y86100000D01*
X50491429Y85780000D01*
X50491429Y84820000D01*
X50217143Y84500000D01*
X49668571Y84500000D01*
X53211429Y85917143D02*
X52960000Y86100000D01*
X52594286Y86100000D01*
X52365714Y85871429D01*
X52365714Y85551429D01*
X52594286Y85368571D01*
X53005714Y85322857D01*
X53234286Y85094286D01*
X53234286Y84728571D01*
X53005714Y84500000D01*
X52594286Y84500000D01*
X52365714Y84682857D01*
X53714286Y86100000D02*
X54628571Y86100000D01*
X54171429Y86100000D02*
X54171429Y84500000D01*
X55108571Y84820000D02*
X55108571Y85780000D01*
X55360000Y86100000D01*
X55748571Y86100000D01*
X55977143Y85780000D01*
X55977143Y84820000D01*
X55748571Y84500000D01*
X55360000Y84500000D01*
X55108571Y84820000D01*
X56525714Y84500000D02*
X56525714Y86100000D01*
X57120000Y86100000D01*
X57348571Y85871429D01*
X57348571Y85505714D01*
X57120000Y85277143D01*
X56525714Y85277143D01*
X58697143Y85917143D02*
X58445714Y86100000D01*
X58080000Y86100000D01*
X57851429Y85871429D01*
X57851429Y85551429D01*
X58080000Y85368571D01*
X58491429Y85322857D01*
X58720000Y85094286D01*
X58720000Y84728571D01*
X58491429Y84500000D01*
X58080000Y84500000D01*
X57851429Y84682857D01*
X60594286Y85780000D02*
X60822857Y86100000D01*
X61234286Y86100000D01*
X61462857Y85780000D01*
X61462857Y85505714D01*
X60594286Y84500000D01*
X61462857Y84500000D01*
X61965714Y84500000D02*
X61965714Y86100000D01*
X62400000Y85277143D01*
X62834286Y86100000D01*
X62834286Y84500000D01*
X63337143Y84500000D02*
X63337143Y86100000D01*
X63771429Y85277143D01*
X64205714Y86100000D01*
X64205714Y84500000D01*
X66925714Y85917143D02*
X66674286Y86100000D01*
X66308571Y86100000D01*
X66080000Y85871429D01*
X66080000Y85551429D01*
X66308571Y85368571D01*
X66720000Y85322857D01*
X66948571Y85094286D01*
X66948571Y84728571D01*
X66720000Y84500000D01*
X66308571Y84500000D01*
X66080000Y84682857D01*
X67497143Y86100000D02*
X67497143Y84500000D01*
X68320000Y86100000D02*
X68320000Y84500000D01*
X67497143Y85345714D02*
X68320000Y85345714D01*
X68822857Y84820000D02*
X68822857Y85780000D01*
X69074286Y86100000D01*
X69462857Y86100000D01*
X69691429Y85780000D01*
X69691429Y84820000D01*
X69462857Y84500000D01*
X69074286Y84500000D01*
X68822857Y84820000D01*
X70240000Y84500000D02*
X70240000Y86100000D01*
X70834286Y86100000D01*
X71062857Y85871429D01*
X71062857Y85551429D01*
X70834286Y85322857D01*
X70240000Y85322857D01*
X70651429Y85322857D02*
X71085714Y84500000D01*
X71542857Y86100000D02*
X72457143Y86100000D01*
X72000000Y86100000D02*
X72000000Y84500000D01*
X74308571Y84820000D02*
X74308571Y85780000D01*
X74560000Y86100000D01*
X74948571Y86100000D01*
X75177143Y85780000D01*
X75177143Y84820000D01*
X74948571Y84500000D01*
X74560000Y84500000D01*
X74308571Y84820000D01*
X76548571Y86100000D02*
X75725714Y86100000D01*
X75725714Y84500000D01*
X75725714Y85345714D02*
X76365714Y85345714D01*
X79291429Y86100000D02*
X78468571Y86100000D01*
X78468571Y84500000D01*
X79291429Y84500000D01*
X78468571Y85345714D02*
X79108571Y85345714D01*
X79771429Y86100000D02*
X80228571Y84500000D01*
X80685714Y86100000D01*
X82034286Y86100000D02*
X81211429Y86100000D01*
X81211429Y84500000D01*
X82034286Y84500000D01*
X81211429Y85345714D02*
X81851429Y85345714D01*
X82582857Y84500000D02*
X82582857Y86100000D01*
X83177143Y86100000D01*
X83405714Y85871429D01*
X83405714Y85551429D01*
X83177143Y85322857D01*
X82582857Y85322857D01*
X82994286Y85322857D02*
X83428571Y84500000D01*
X83908571Y86100000D02*
X84342857Y85277143D01*
X84777143Y86100000D01*
X84342857Y85277143D02*
X84342857Y84500000D01*
X87497143Y85917143D02*
X87245714Y86100000D01*
X86880000Y86100000D01*
X86651429Y85871429D01*
X86651429Y85551429D01*
X86880000Y85368571D01*
X87291429Y85322857D01*
X87520000Y85094286D01*
X87520000Y84728571D01*
X87291429Y84500000D01*
X86880000Y84500000D01*
X86651429Y84682857D01*
X88068571Y86100000D02*
X88068571Y84500000D01*
X88891429Y86100000D02*
X88891429Y84500000D01*
X88068571Y85345714D02*
X88891429Y85345714D01*
X89440000Y84500000D02*
X89440000Y86100000D01*
X90034286Y86100000D01*
X90262857Y85871429D01*
X90262857Y85551429D01*
X90034286Y85322857D01*
X89440000Y85322857D01*
X89851429Y85322857D02*
X90285714Y84500000D01*
X90765714Y84820000D02*
X90765714Y85780000D01*
X91017143Y86100000D01*
X91405714Y86100000D01*
X91634286Y85780000D01*
X91634286Y84820000D01*
X91405714Y84500000D01*
X91017143Y84500000D01*
X90765714Y84820000D01*
X92182857Y86100000D02*
X92182857Y84820000D01*
X92411429Y84500000D01*
X92777143Y84500000D01*
X93005714Y84820000D01*
X93005714Y86100000D01*
X93554286Y84500000D02*
X93554286Y86100000D01*
X94102857Y86100000D01*
X94377143Y85780000D01*
X94377143Y84820000D01*
X94102857Y84500000D01*
X93554286Y84500000D01*
M02*
