%TF.GenerationSoftware,TI One Voice,package_v2.4/tools/fixture_gen.py,1.0*%
%TF.CreationDate,2026-09-02T00:00:00+01:00*%
%TF.ProjectId,FIX-04,e8c44fd9fd0fbab170c7c103ecde3ca7,A*%
%TF.FileFunction,Other,Zoning*%
%TF.FilePolarity,Positive*%
%TF.SameCoordinates,Original*%
%FSLAX46Y46*%
%MOMM*%
G04 Zoning, keep-outs and the screening can -- not a copper layer*
G04 FIX-04 Rev A -- TI One Voice research programme*
G04 NOT A FABRICATION SET -- no copper layer exists for this board*
G04 Licence CC BY-SA 4.0*
G01*
G75*
%LPD*%
%ADD10C,0.200000*%
%ADD11C,0.100000*%
D10*
X0Y0D02*
X85000000Y0D01*
X85000000Y80000000D01*
X0Y80000000D01*
X0Y0D01*
X85000000Y0D02*
X120000000Y0D01*
X120000000Y80000000D01*
X85000000Y80000000D01*
X85000000Y0D01*
D11*
X8000000Y5000000D02*
X7985554Y5294051D01*
X7942356Y5585271D01*
X7870821Y5870854D01*
X7771639Y6148050D01*
X7645764Y6414190D01*
X7494409Y6666711D01*
X7319031Y6903180D01*
X7121320Y7121320D01*
X6903180Y7319031D01*
X6666711Y7494409D01*
X6414190Y7645764D01*
X6148050Y7771639D01*
X5870854Y7870821D01*
X5585271Y7942356D01*
X5294051Y7985554D01*
X5000000Y8000000D01*
X4705949Y7985554D01*
X4414729Y7942356D01*
X4129146Y7870821D01*
X3851950Y7771639D01*
X3585810Y7645764D01*
X3333289Y7494409D01*
X3096820Y7319031D01*
X2878680Y7121320D01*
X2680969Y6903180D01*
X2505591Y6666711D01*
X2354236Y6414190D01*
X2228361Y6148050D01*
X2129179Y5870854D01*
X2057644Y5585271D01*
X2014446Y5294051D01*
X2000000Y5000000D01*
X2014446Y4705949D01*
X2057644Y4414729D01*
X2129179Y4129146D01*
X2228361Y3851950D01*
X2354236Y3585810D01*
X2505591Y3333289D01*
X2680969Y3096820D01*
X2878680Y2878680D01*
X3096820Y2680969D01*
X3333289Y2505591D01*
X3585810Y2354236D01*
X3851950Y2228361D01*
X4129146Y2129179D01*
X4414729Y2057644D01*
X4705949Y2014446D01*
X5000000Y2000000D01*
X5294051Y2014446D01*
X5585271Y2057644D01*
X5870854Y2129179D01*
X6148050Y2228361D01*
X6414190Y2354236D01*
X6666711Y2505591D01*
X6903180Y2680969D01*
X7121320Y2878680D01*
X7319031Y3096820D01*
X7494409Y3333289D01*
X7645764Y3585810D01*
X7771639Y3851950D01*
X7870821Y4129146D01*
X7942356Y4414729D01*
X7985554Y4705949D01*
X8000000Y5000000D01*
X118000000Y5000000D02*
X117985554Y5294051D01*
X117942356Y5585271D01*
X117870821Y5870854D01*
X117771639Y6148050D01*
X117645764Y6414190D01*
X117494409Y6666711D01*
X117319031Y6903180D01*
X117121320Y7121320D01*
X116903180Y7319031D01*
X116666711Y7494409D01*
X116414190Y7645764D01*
X116148050Y7771639D01*
X115870854Y7870821D01*
X115585271Y7942356D01*
X115294051Y7985554D01*
X115000000Y8000000D01*
X114705949Y7985554D01*
X114414729Y7942356D01*
X114129146Y7870821D01*
X113851950Y7771639D01*
X113585810Y7645764D01*
X113333289Y7494409D01*
X113096820Y7319031D01*
X112878680Y7121320D01*
X112680969Y6903180D01*
X112505591Y6666711D01*
X112354236Y6414190D01*
X112228361Y6148050D01*
X112129179Y5870854D01*
X112057644Y5585271D01*
X112014446Y5294051D01*
X112000000Y5000000D01*
X112014446Y4705949D01*
X112057644Y4414729D01*
X112129179Y4129146D01*
X112228361Y3851950D01*
X112354236Y3585810D01*
X112505591Y3333289D01*
X112680969Y3096820D01*
X112878680Y2878680D01*
X113096820Y2680969D01*
X113333289Y2505591D01*
X113585810Y2354236D01*
X113851950Y2228361D01*
X114129146Y2129179D01*
X114414729Y2057644D01*
X114705949Y2014446D01*
X115000000Y2000000D01*
X115294051Y2014446D01*
X115585271Y2057644D01*
X115870854Y2129179D01*
X116148050Y2228361D01*
X116414190Y2354236D01*
X116666711Y2505591D01*
X116903180Y2680969D01*
X117121320Y2878680D01*
X117319031Y3096820D01*
X117494409Y3333289D01*
X117645764Y3585810D01*
X117771639Y3851950D01*
X117870821Y4129146D01*
X117942356Y4414729D01*
X117985554Y4705949D01*
X118000000Y5000000D01*
X8000000Y75000000D02*
X7985554Y75294051D01*
X7942356Y75585271D01*
X7870821Y75870854D01*
X7771639Y76148050D01*
X7645764Y76414190D01*
X7494409Y76666711D01*
X7319031Y76903180D01*
X7121320Y77121320D01*
X6903180Y77319031D01*
X6666711Y77494409D01*
X6414190Y77645764D01*
X6148050Y77771639D01*
X5870854Y77870821D01*
X5585271Y77942356D01*
X5294051Y77985554D01*
X5000000Y78000000D01*
X4705949Y77985554D01*
X4414729Y77942356D01*
X4129146Y77870821D01*
X3851950Y77771639D01*
X3585810Y77645764D01*
X3333289Y77494409D01*
X3096820Y77319031D01*
X2878680Y77121320D01*
X2680969Y76903180D01*
X2505591Y76666711D01*
X2354236Y76414190D01*
X2228361Y76148050D01*
X2129179Y75870854D01*
X2057644Y75585271D01*
X2014446Y75294051D01*
X2000000Y75000000D01*
X2014446Y74705949D01*
X2057644Y74414729D01*
X2129179Y74129146D01*
X2228361Y73851950D01*
X2354236Y73585810D01*
X2505591Y73333289D01*
X2680969Y73096820D01*
X2878680Y72878680D01*
X3096820Y72680969D01*
X3333289Y72505591D01*
X3585810Y72354236D01*
X3851950Y72228361D01*
X4129146Y72129179D01*
X4414729Y72057644D01*
X4705949Y72014446D01*
X5000000Y72000000D01*
X5294051Y72014446D01*
X5585271Y72057644D01*
X5870854Y72129179D01*
X6148050Y72228361D01*
X6414190Y72354236D01*
X6666711Y72505591D01*
X6903180Y72680969D01*
X7121320Y72878680D01*
X7319031Y73096820D01*
X7494409Y73333289D01*
X7645764Y73585810D01*
X7771639Y73851950D01*
X7870821Y74129146D01*
X7942356Y74414729D01*
X7985554Y74705949D01*
X8000000Y75000000D01*
X118000000Y75000000D02*
X117985554Y75294051D01*
X117942356Y75585271D01*
X117870821Y75870854D01*
X117771639Y76148050D01*
X117645764Y76414190D01*
X117494409Y76666711D01*
X117319031Y76903180D01*
X117121320Y77121320D01*
X116903180Y77319031D01*
X116666711Y77494409D01*
X116414190Y77645764D01*
X116148050Y77771639D01*
X115870854Y77870821D01*
X115585271Y77942356D01*
X115294051Y77985554D01*
X115000000Y78000000D01*
X114705949Y77985554D01*
X114414729Y77942356D01*
X114129146Y77870821D01*
X113851950Y77771639D01*
X113585810Y77645764D01*
X113333289Y77494409D01*
X113096820Y77319031D01*
X112878680Y77121320D01*
X112680969Y76903180D01*
X112505591Y76666711D01*
X112354236Y76414190D01*
X112228361Y76148050D01*
X112129179Y75870854D01*
X112057644Y75585271D01*
X112014446Y75294051D01*
X112000000Y75000000D01*
X112014446Y74705949D01*
X112057644Y74414729D01*
X112129179Y74129146D01*
X112228361Y73851950D01*
X112354236Y73585810D01*
X112505591Y73333289D01*
X112680969Y73096820D01*
X112878680Y72878680D01*
X113096820Y72680969D01*
X113333289Y72505591D01*
X113585810Y72354236D01*
X113851950Y72228361D01*
X114129146Y72129179D01*
X114414729Y72057644D01*
X114705949Y72014446D01*
X115000000Y72000000D01*
X115294051Y72014446D01*
X115585271Y72057644D01*
X115870854Y72129179D01*
X116148050Y72228361D01*
X116414190Y72354236D01*
X116666711Y72505591D01*
X116903180Y72680969D01*
X117121320Y72878680D01*
X117319031Y73096820D01*
X117494409Y73333289D01*
X117645764Y73585810D01*
X117771639Y73851950D01*
X117870821Y74129146D01*
X117942356Y74414729D01*
X117985554Y74705949D01*
X118000000Y75000000D01*
X6400000Y4400000D02*
X37540000Y4400000D01*
X37540000Y7600000D01*
X6400000Y7600000D01*
X6400000Y4400000D01*
X40400000Y4400000D02*
X66460000Y4400000D01*
X66460000Y7600000D01*
X40400000Y7600000D01*
X40400000Y4400000D01*
X68400000Y4400000D02*
X76680000Y4400000D01*
X76680000Y7600000D01*
X68400000Y7600000D01*
X68400000Y4400000D01*
X80400000Y4400000D02*
X86140000Y4400000D01*
X86140000Y7600000D01*
X80400000Y7600000D01*
X80400000Y4400000D01*
X90400000Y4400000D02*
X98680000Y4400000D01*
X98680000Y7600000D01*
X90400000Y7600000D01*
X90400000Y4400000D01*
X94400000Y70400000D02*
X100140000Y70400000D01*
X100140000Y73600000D01*
X94400000Y73600000D01*
X94400000Y70400000D01*
X106400000Y70400000D02*
X112140000Y70400000D01*
X112140000Y73600000D01*
X106400000Y73600000D01*
X106400000Y70400000D01*
M02*
