%TF.GenerationSoftware,TI One Voice,package_v2.4/tools/fixture_gen.py,1.0*%
%TF.CreationDate,2026-09-02T00:00:00+01:00*%
%TF.ProjectId,FIX-04,e8c44fd9fd0fbab170c7c103ecde3ca7,A*%
%TF.FileFunction,Legend,Top*%
%TF.FilePolarity,Positive*%
%TF.SameCoordinates,Original*%
%FSLAX46Y46*%
%MOMM*%
G04 Silkscreen Top -- panel legend and zone captions*
G04 FIX-04 Rev A -- TI One Voice research programme*
G04 NOT A FABRICATION SET -- no copper layer exists for this board*
G04 Licence CC BY-SA 4.0*
G01*
G75*
%LPD*%
%TA.AperFunction,Material*%
%ADD10C,0.150000*%
%TD*%
D10*
X5885714Y75000000D02*
X4342857Y75000000D01*
X4342857Y72000000D01*
X4342857Y73585714D02*
X5542857Y73585714D01*
X7085714Y75000000D02*
X8200000Y75000000D01*
X7642857Y75000000D02*
X7642857Y72000000D01*
X7085714Y72000000D02*
X8200000Y72000000D01*
X9400000Y75000000D02*
X11028571Y72000000D01*
X11028571Y75000000D02*
X9400000Y72000000D01*
X11928571Y73500000D02*
X13642857Y73500000D01*
X14542857Y72600000D02*
X14542857Y74400000D01*
X14971429Y75000000D01*
X15742857Y75000000D01*
X16171429Y74400000D01*
X16171429Y72600000D01*
X15742857Y72000000D01*
X14971429Y72000000D01*
X14542857Y72600000D01*
X14800000Y72514286D02*
X15914286Y74485714D01*
X18400000Y72000000D02*
X18400000Y75000000D01*
X17071429Y72942857D01*
X18828571Y72942857D01*
X22342857Y72000000D02*
X22342857Y75000000D01*
X23457143Y75000000D01*
X23885714Y74571429D01*
X23885714Y73971429D01*
X23457143Y73542857D01*
X22342857Y73542857D01*
X23114286Y73542857D02*
X23928571Y72000000D01*
X26457143Y75000000D02*
X24914286Y75000000D01*
X24914286Y72000000D01*
X26457143Y72000000D01*
X24914286Y73585714D02*
X26114286Y73585714D01*
X27357143Y75000000D02*
X28214286Y72000000D01*
X29071429Y75000000D01*
X32500000Y72000000D02*
X33357143Y75000000D01*
X34214286Y72000000D01*
X32842857Y73114286D02*
X33871429Y73114286D01*
D10*
X4228571Y69000000D02*
X4228571Y67000000D01*
X5257143Y69000000D02*
X5257143Y67000000D01*
X4228571Y68057143D02*
X5257143Y68057143D01*
X5857143Y67000000D02*
X6428571Y69000000D01*
X7000000Y67000000D01*
X6085714Y67742857D02*
X6771429Y67742857D01*
X7657143Y67000000D02*
X7657143Y69000000D01*
X8400000Y69000000D01*
X8685714Y68714286D01*
X8685714Y68314286D01*
X8400000Y68028571D01*
X7657143Y68028571D01*
X8171429Y68028571D02*
X8714286Y67000000D01*
X9371429Y67000000D02*
X9371429Y69000000D01*
X10400000Y67000000D01*
X10400000Y69000000D01*
X12114286Y69000000D02*
X11085714Y69000000D01*
X11085714Y67000000D01*
X12114286Y67000000D01*
X11085714Y68057143D02*
X11885714Y68057143D01*
X13800000Y68771429D02*
X13485714Y69000000D01*
X13028571Y69000000D01*
X12742857Y68714286D01*
X12742857Y68314286D01*
X13028571Y68085714D01*
X13542857Y68028571D01*
X13828571Y67742857D01*
X13828571Y67285714D01*
X13542857Y67000000D01*
X13028571Y67000000D01*
X12742857Y67228571D01*
X15514286Y68771429D02*
X15200000Y69000000D01*
X14742857Y69000000D01*
X14457143Y68714286D01*
X14457143Y68314286D01*
X14742857Y68085714D01*
X15257143Y68028571D01*
X15542857Y67742857D01*
X15542857Y67285714D01*
X15257143Y67000000D01*
X14742857Y67000000D01*
X14457143Y67228571D01*
X18971429Y68714286D02*
X18685714Y69000000D01*
X18200000Y69000000D01*
X17885714Y68628571D01*
X17885714Y67371429D01*
X18200000Y67000000D01*
X18685714Y67000000D01*
X18971429Y67285714D01*
X19600000Y67400000D02*
X19600000Y68600000D01*
X19914286Y69000000D01*
X20400000Y69000000D01*
X20685714Y68600000D01*
X20685714Y67400000D01*
X20400000Y67000000D01*
X19914286Y67000000D01*
X19600000Y67400000D01*
X21371429Y67000000D02*
X21371429Y69000000D01*
X22400000Y67000000D01*
X22400000Y69000000D01*
X23000000Y69000000D02*
X24142857Y69000000D01*
X23571429Y69000000D02*
X23571429Y67000000D01*
X24914286Y69000000D02*
X25657143Y69000000D01*
X25285714Y69000000D02*
X25285714Y67000000D01*
X24914286Y67000000D02*
X25657143Y67000000D01*
X26514286Y67000000D02*
X26514286Y69000000D01*
X27542857Y67000000D01*
X27542857Y69000000D01*
X28228571Y69000000D02*
X28228571Y67400000D01*
X28514286Y67000000D01*
X28971429Y67000000D01*
X29257143Y67400000D01*
X29257143Y69000000D01*
X30057143Y69000000D02*
X30800000Y69000000D01*
X30428571Y69000000D02*
X30428571Y67000000D01*
X30057143Y67000000D02*
X30800000Y67000000D01*
X31571429Y69000000D02*
X32714286Y69000000D01*
X32142857Y69000000D02*
X32142857Y67000000D01*
X33314286Y69000000D02*
X33857143Y67971429D01*
X34400000Y69000000D01*
X33857143Y67971429D02*
X33857143Y67000000D01*
X36714286Y67000000D02*
X37285714Y69000000D01*
X37857143Y67000000D01*
X36942857Y67742857D02*
X37628571Y67742857D01*
X38514286Y67000000D02*
X38514286Y69000000D01*
X39542857Y67000000D01*
X39542857Y69000000D01*
X40228571Y67000000D02*
X40228571Y69000000D01*
X40914286Y69000000D01*
X41257143Y68600000D01*
X41257143Y67400000D01*
X40914286Y67000000D01*
X40228571Y67000000D01*
X43771429Y69000000D02*
X44514286Y69000000D01*
X44142857Y69000000D02*
X44142857Y67000000D01*
X43771429Y67000000D02*
X44514286Y67000000D01*
X46371429Y68771429D02*
X46057143Y69000000D01*
X45600000Y69000000D01*
X45314286Y68714286D01*
X45314286Y68314286D01*
X45600000Y68085714D01*
X46114286Y68028571D01*
X46400000Y67742857D01*
X46400000Y67285714D01*
X46114286Y67000000D01*
X45600000Y67000000D01*
X45314286Y67228571D01*
X47028571Y67400000D02*
X47028571Y68600000D01*
X47342857Y69000000D01*
X47828571Y69000000D01*
X48114286Y68600000D01*
X48114286Y67400000D01*
X47828571Y67000000D01*
X47342857Y67000000D01*
X47028571Y67400000D01*
X48800000Y69000000D02*
X48800000Y67000000D01*
X49828571Y67000000D01*
X50428571Y67000000D02*
X51000000Y69000000D01*
X51571429Y67000000D01*
X50657143Y67742857D02*
X51342857Y67742857D01*
X52142857Y69000000D02*
X53285714Y69000000D01*
X52714286Y69000000D02*
X52714286Y67000000D01*
X54057143Y69000000D02*
X54800000Y69000000D01*
X54428571Y69000000D02*
X54428571Y67000000D01*
X54057143Y67000000D02*
X54800000Y67000000D01*
X55600000Y67400000D02*
X55600000Y68600000D01*
X55914286Y69000000D01*
X56400000Y69000000D01*
X56685714Y68600000D01*
X56685714Y67400000D01*
X56400000Y67000000D01*
X55914286Y67000000D01*
X55600000Y67400000D01*
X57371429Y67000000D02*
X57371429Y69000000D01*
X58400000Y67000000D01*
X58400000Y69000000D01*
X61800000Y68771429D02*
X61485714Y69000000D01*
X61028571Y69000000D01*
X60742857Y68714286D01*
X60742857Y68314286D01*
X61028571Y68085714D01*
X61542857Y68028571D01*
X61828571Y67742857D01*
X61828571Y67285714D01*
X61542857Y67000000D01*
X61028571Y67000000D01*
X60742857Y67228571D01*
X63542857Y68714286D02*
X63257143Y69000000D01*
X62771429Y69000000D01*
X62457143Y68628571D01*
X62457143Y67371429D01*
X62771429Y67000000D01*
X63257143Y67000000D01*
X63542857Y67285714D01*
X64142857Y67000000D02*
X64714286Y69000000D01*
X65285714Y67000000D01*
X64371429Y67742857D02*
X65057143Y67742857D01*
X65942857Y67000000D02*
X65942857Y69000000D01*
X66971429Y67000000D01*
X66971429Y69000000D01*
X67657143Y67000000D02*
X67657143Y69000000D01*
X68685714Y67000000D01*
X68685714Y69000000D01*
X70400000Y69000000D02*
X69371429Y69000000D01*
X69371429Y67000000D01*
X70400000Y67000000D01*
X69371429Y68057143D02*
X70171429Y68057143D01*
X71085714Y67000000D02*
X71085714Y69000000D01*
X71828571Y69000000D01*
X72114286Y68714286D01*
X72114286Y68314286D01*
X71828571Y68028571D01*
X71085714Y68028571D01*
X71600000Y68028571D02*
X72142857Y67000000D01*
X75542857Y68714286D02*
X75257143Y69000000D01*
X74771429Y69000000D01*
X74457143Y68628571D01*
X74457143Y67371429D01*
X74771429Y67000000D01*
X75257143Y67000000D01*
X75542857Y67285714D01*
X76142857Y67000000D02*
X76714286Y69000000D01*
X77285714Y67000000D01*
X76371429Y67742857D02*
X77057143Y67742857D01*
X77942857Y67000000D02*
X77942857Y69000000D01*
X78685714Y69000000D01*
X78971429Y68714286D01*
X78971429Y68314286D01*
X78685714Y68028571D01*
X77942857Y68028571D01*
X78457143Y68028571D02*
X79000000Y67000000D01*
X79657143Y67000000D02*
X79657143Y69000000D01*
X80342857Y69000000D01*
X80685714Y68600000D01*
X80685714Y67400000D01*
X80342857Y67000000D01*
X79657143Y67000000D01*
D10*
X4114286Y64600000D02*
X5028571Y64600000D01*
X4571429Y64600000D02*
X4571429Y63000000D01*
X5645714Y64600000D02*
X6240000Y64600000D01*
X5942857Y64600000D02*
X5942857Y63000000D01*
X5645714Y63000000D02*
X6240000Y63000000D01*
X8251429Y63320000D02*
X8251429Y64280000D01*
X8502857Y64600000D01*
X8891429Y64600000D01*
X9120000Y64280000D01*
X9120000Y63320000D01*
X8891429Y63000000D01*
X8502857Y63000000D01*
X8251429Y63320000D01*
X9668571Y63000000D02*
X9668571Y64600000D01*
X10491429Y63000000D01*
X10491429Y64600000D01*
X11862857Y64600000D02*
X11040000Y64600000D01*
X11040000Y63000000D01*
X11862857Y63000000D01*
X11040000Y63845714D02*
X11680000Y63845714D01*
X13714286Y64600000D02*
X14171429Y63000000D01*
X14628571Y64600000D01*
X15108571Y63320000D02*
X15108571Y64280000D01*
X15360000Y64600000D01*
X15748571Y64600000D01*
X15977143Y64280000D01*
X15977143Y63320000D01*
X15748571Y63000000D01*
X15360000Y63000000D01*
X15108571Y63320000D01*
X16617143Y64600000D02*
X17211429Y64600000D01*
X16914286Y64600000D02*
X16914286Y63000000D01*
X16617143Y63000000D02*
X17211429Y63000000D01*
X18720000Y64371429D02*
X18491429Y64600000D01*
X18102857Y64600000D01*
X17851429Y64302857D01*
X17851429Y63297143D01*
X18102857Y63000000D01*
X18491429Y63000000D01*
X18720000Y63228571D01*
X20091429Y64600000D02*
X19268571Y64600000D01*
X19268571Y63000000D01*
X20091429Y63000000D01*
X19268571Y63845714D02*
X19908571Y63845714D01*
X24205714Y64371429D02*
X23977143Y64600000D01*
X23588571Y64600000D01*
X23337143Y64302857D01*
X23337143Y63297143D01*
X23588571Y63000000D01*
X23977143Y63000000D01*
X24205714Y63228571D01*
X25577143Y64371429D02*
X25348571Y64600000D01*
X24960000Y64600000D01*
X24708571Y64302857D01*
X24708571Y63297143D01*
X24960000Y63000000D01*
X25348571Y63000000D01*
X25577143Y63228571D01*
X27497143Y63000000D02*
X27497143Y64600000D01*
X28091429Y64600000D01*
X28320000Y64371429D01*
X28320000Y64097143D01*
X28091429Y63868571D01*
X27497143Y63868571D01*
X28091429Y63868571D02*
X28342857Y63617143D01*
X28342857Y63251429D01*
X28091429Y63000000D01*
X27497143Y63000000D01*
X28822857Y64600000D02*
X29257143Y63777143D01*
X29691429Y64600000D01*
X29257143Y63777143D02*
X29257143Y63000000D01*
X30171429Y63800000D02*
X31085714Y63800000D01*
X32411429Y64417143D02*
X32160000Y64600000D01*
X31794286Y64600000D01*
X31565714Y64371429D01*
X31565714Y64051429D01*
X31794286Y63868571D01*
X32205714Y63822857D01*
X32434286Y63594286D01*
X32434286Y63228571D01*
X32205714Y63000000D01*
X31794286Y63000000D01*
X31565714Y63182857D01*
X32914286Y63000000D02*
X33371429Y64600000D01*
X33828571Y63000000D01*
X33097143Y63594286D02*
X33645714Y63594286D01*
X36365714Y63000000D02*
X36365714Y64600000D01*
X35657143Y63502857D01*
X36594286Y63502857D01*
X37371429Y63000000D02*
X37508571Y63000000D01*
X38422857Y63320000D02*
X38422857Y64280000D01*
X38651429Y64600000D01*
X39062857Y64600000D01*
X39291429Y64280000D01*
X39291429Y63320000D01*
X39062857Y63000000D01*
X38651429Y63000000D01*
X38422857Y63320000D01*
X38560000Y63274286D02*
X39154286Y64325714D01*
X43314286Y64600000D02*
X43314286Y63320000D01*
X43085714Y63000000D01*
X42765714Y63000000D01*
X42537143Y63251429D01*
X44045714Y64600000D02*
X44640000Y64600000D01*
X44342857Y64600000D02*
X44342857Y63000000D01*
X44045714Y63000000D02*
X44640000Y63000000D01*
X46148571Y64371429D02*
X45920000Y64600000D01*
X45531429Y64600000D01*
X45280000Y64302857D01*
X45280000Y63297143D01*
X45531429Y63000000D01*
X45920000Y63000000D01*
X46148571Y63274286D01*
X46148571Y63731429D01*
X45760000Y63731429D01*
X46628571Y63800000D02*
X47542857Y63800000D01*
X48891429Y64600000D02*
X48068571Y64600000D01*
X48068571Y63000000D01*
X48891429Y63000000D01*
X48068571Y63845714D02*
X48708571Y63845714D01*
X50262857Y64600000D02*
X49440000Y64600000D01*
X49440000Y63000000D01*
X50262857Y63000000D01*
X49440000Y63845714D02*
X50080000Y63845714D01*
X51634286Y64371429D02*
X51405714Y64600000D01*
X51017143Y64600000D01*
X50765714Y64302857D01*
X50765714Y63297143D01*
X51017143Y63000000D01*
X51405714Y63000000D01*
X51634286Y63274286D01*
X51634286Y63731429D01*
X51245714Y63731429D01*
X52114286Y63800000D02*
X53028571Y63800000D01*
X53508571Y63320000D02*
X53508571Y64280000D01*
X53737143Y64600000D01*
X54148571Y64600000D01*
X54377143Y64280000D01*
X54377143Y63320000D01*
X54148571Y63000000D01*
X53737143Y63000000D01*
X53508571Y63320000D01*
X53645714Y63274286D02*
X54240000Y64325714D01*
X54880000Y63320000D02*
X54880000Y64280000D01*
X55108571Y64600000D01*
X55520000Y64600000D01*
X55748571Y64280000D01*
X55748571Y63320000D01*
X55520000Y63000000D01*
X55108571Y63000000D01*
X54880000Y63320000D01*
X55017143Y63274286D02*
X55611429Y64325714D01*
X56297143Y63137143D02*
X56525714Y63000000D01*
X56891429Y63000000D01*
X57120000Y63320000D01*
X57120000Y64280000D01*
X56891429Y64600000D01*
X56480000Y64600000D01*
X56251429Y64302857D01*
X56251429Y63982857D01*
X56480000Y63708571D01*
X56891429Y63708571D01*
X57120000Y63937143D01*
X59840000Y64417143D02*
X59588571Y64600000D01*
X59222857Y64600000D01*
X58994286Y64371429D01*
X58994286Y64051429D01*
X59222857Y63868571D01*
X59634286Y63822857D01*
X59862857Y63594286D01*
X59862857Y63228571D01*
X59634286Y63000000D01*
X59222857Y63000000D01*
X58994286Y63182857D01*
X61234286Y64600000D02*
X60411429Y64600000D01*
X60411429Y63000000D01*
X61234286Y63000000D01*
X60411429Y63845714D02*
X61051429Y63845714D01*
X62605714Y64371429D02*
X62377143Y64600000D01*
X61988571Y64600000D01*
X61737143Y64302857D01*
X61737143Y63297143D01*
X61988571Y63000000D01*
X62377143Y63000000D01*
X62605714Y63228571D01*
X63085714Y64600000D02*
X64000000Y64600000D01*
X63542857Y64600000D02*
X63542857Y63000000D01*
X64617143Y64600000D02*
X65211429Y64600000D01*
X64914286Y64600000D02*
X64914286Y63000000D01*
X64617143Y63000000D02*
X65211429Y63000000D01*
X65851429Y63320000D02*
X65851429Y64280000D01*
X66102857Y64600000D01*
X66491429Y64600000D01*
X66720000Y64280000D01*
X66720000Y63320000D01*
X66491429Y63000000D01*
X66102857Y63000000D01*
X65851429Y63320000D01*
X67268571Y63000000D02*
X67268571Y64600000D01*
X68091429Y63000000D01*
X68091429Y64600000D01*
X70217143Y63868571D02*
X69988571Y64097143D01*
X69988571Y64371429D01*
X70217143Y64600000D01*
X70582857Y64600000D01*
X70811429Y64371429D01*
X70811429Y64097143D01*
X70582857Y63868571D01*
X70217143Y63868571D01*
X69965714Y63617143D01*
X69965714Y63274286D01*
X70217143Y63000000D01*
X70582857Y63000000D01*
X70834286Y63274286D01*
X70834286Y63617143D01*
X70582857Y63868571D01*
D10*
X3351429Y41948571D02*
X3005714Y42200000D01*
X2502857Y42200000D01*
X2188571Y41885714D01*
X2188571Y41445714D01*
X2502857Y41194286D01*
X3068571Y41131429D01*
X3382857Y40817143D01*
X3382857Y40314286D01*
X3068571Y40000000D01*
X2502857Y40000000D01*
X2188571Y40251429D01*
X5268571Y41885714D02*
X4954286Y42200000D01*
X4420000Y42200000D01*
X4074286Y41791429D01*
X4074286Y40408571D01*
X4420000Y40000000D01*
X4954286Y40000000D01*
X5268571Y40314286D01*
X5928571Y40000000D02*
X6557143Y42200000D01*
X7185714Y40000000D01*
X6180000Y40817143D02*
X6934286Y40817143D01*
X7908571Y40000000D02*
X7908571Y42200000D01*
X9040000Y40000000D01*
X9040000Y42200000D01*
X9794286Y40000000D02*
X9794286Y42200000D01*
X10925714Y40000000D01*
X10925714Y42200000D01*
X12811429Y42200000D02*
X11680000Y42200000D01*
X11680000Y40000000D01*
X12811429Y40000000D01*
X11680000Y41162857D02*
X12560000Y41162857D01*
X13565714Y40000000D02*
X13565714Y42200000D01*
X14382857Y42200000D01*
X14697143Y41885714D01*
X14697143Y41445714D01*
X14382857Y41131429D01*
X13565714Y41131429D01*
X14131429Y41131429D02*
X14728571Y40000000D01*
X17274286Y40000000D02*
X17274286Y42200000D01*
X17871429Y41068571D01*
X18468571Y42200000D01*
X18468571Y40000000D01*
X19128571Y40000000D02*
X19757143Y42200000D01*
X20385714Y40000000D01*
X19380000Y40817143D02*
X20134286Y40817143D01*
X21014286Y42200000D02*
X22271429Y42200000D01*
X21642857Y42200000D02*
X21642857Y40000000D01*
X22994286Y40000000D02*
X22994286Y42200000D01*
X23811429Y42200000D01*
X24125714Y41885714D01*
X24125714Y41445714D01*
X23811429Y41131429D01*
X22994286Y41131429D01*
X23560000Y41131429D02*
X24157143Y40000000D01*
X25005714Y42200000D02*
X25822857Y42200000D01*
X25414286Y42200000D02*
X25414286Y40000000D01*
X25005714Y40000000D02*
X25822857Y40000000D01*
X26702857Y42200000D02*
X27897143Y40000000D01*
X27897143Y42200000D02*
X26702857Y40000000D01*
D10*
X87251429Y42200000D02*
X87251429Y40000000D01*
X88382857Y40000000D01*
X89074286Y40440000D02*
X89074286Y41760000D01*
X89420000Y42200000D01*
X89954286Y42200000D01*
X90268571Y41760000D01*
X90268571Y40440000D01*
X89954286Y40000000D01*
X89420000Y40000000D01*
X89074286Y40440000D01*
X92154286Y41885714D02*
X91840000Y42200000D01*
X91305714Y42200000D01*
X90960000Y41791429D01*
X90960000Y40408571D01*
X91305714Y40000000D01*
X91840000Y40000000D01*
X92154286Y40377143D01*
X92154286Y41005714D01*
X91620000Y41005714D01*
X93034286Y42200000D02*
X93851429Y42200000D01*
X93442857Y42200000D02*
X93442857Y40000000D01*
X93034286Y40000000D02*
X93851429Y40000000D01*
X95925714Y41885714D02*
X95611429Y42200000D01*
X95077143Y42200000D01*
X94731429Y41791429D01*
X94731429Y40408571D01*
X95077143Y40000000D01*
X95611429Y40000000D01*
X95925714Y40314286D01*
X98471429Y40000000D02*
X99100000Y42200000D01*
X99728571Y40000000D01*
X98722857Y40817143D02*
X99477143Y40817143D01*
X100451429Y40000000D02*
X100451429Y42200000D01*
X101582857Y40000000D01*
X101582857Y42200000D01*
X102337143Y40000000D02*
X102337143Y42200000D01*
X103091429Y42200000D01*
X103468571Y41760000D01*
X103468571Y40440000D01*
X103091429Y40000000D01*
X102337143Y40000000D01*
X107240000Y42200000D02*
X106108571Y42200000D01*
X106108571Y40000000D01*
X107240000Y40000000D01*
X106108571Y41162857D02*
X106988571Y41162857D01*
X107994286Y40000000D02*
X107994286Y42200000D01*
X109125714Y40000000D01*
X109125714Y42200000D01*
X109785714Y42200000D02*
X111042857Y42200000D01*
X110414286Y42200000D02*
X110414286Y40000000D01*
X111765714Y40000000D02*
X111765714Y42200000D01*
X112582857Y42200000D01*
X112897143Y41885714D01*
X112897143Y41445714D01*
X112582857Y41131429D01*
X111765714Y41131429D01*
X112331429Y41131429D02*
X112928571Y40000000D01*
X113588571Y42200000D02*
X114185714Y41068571D01*
X114782857Y42200000D01*
X114185714Y41068571D02*
X114185714Y40000000D01*
D10*
X9142857Y11200000D02*
X9142857Y9600000D01*
X8857143Y9200000D01*
X8457143Y9200000D01*
X8171429Y9514286D01*
X10742857Y9200000D02*
X10742857Y11200000D01*
X9857143Y9828571D01*
X11028571Y9828571D01*
X11600000Y9600000D02*
X11600000Y10800000D01*
X11885714Y11200000D01*
X12400000Y11200000D01*
X12685714Y10800000D01*
X12685714Y9600000D01*
X12400000Y9200000D01*
X11885714Y9200000D01*
X11600000Y9600000D01*
X11771429Y9542857D02*
X12514286Y10857143D01*
X13542857Y10800000D02*
X13857143Y11200000D01*
X13857143Y9200000D01*
X13485714Y9200000D02*
X14228571Y9200000D01*
D10*
X5920000Y6380000D02*
X6171429Y6700000D01*
X6171429Y5100000D01*
X5874286Y5100000D02*
X6468571Y5100000D01*
D10*
X8240000Y2360000D02*
X8428571Y2600000D01*
X8428571Y1400000D01*
X8205714Y1400000D02*
X8651429Y1400000D01*
X9131429Y2360000D02*
X9302857Y2600000D01*
X9611429Y2600000D01*
X9782857Y2360000D01*
X9782857Y2154286D01*
X9131429Y1400000D01*
X9782857Y1400000D01*
X10142857Y2000000D02*
X10828571Y2000000D01*
X11154286Y2600000D02*
X11325714Y1400000D01*
X11514286Y2120000D01*
X11702857Y1400000D01*
X11874286Y2600000D01*
X12200000Y1400000D02*
X12542857Y2600000D01*
X12885714Y1400000D01*
X12337143Y1845714D02*
X12748571Y1845714D01*
X13245714Y2600000D02*
X13571429Y1982857D01*
X13897143Y2600000D01*
X13571429Y1982857D02*
X13571429Y1400000D01*
X15954286Y2600000D02*
X15337143Y2600000D01*
X15337143Y1400000D01*
X15954286Y1400000D01*
X15337143Y2034286D02*
X15817143Y2034286D01*
X16365714Y2600000D02*
X16365714Y1400000D01*
X16982857Y1400000D01*
X18011429Y2600000D02*
X17394286Y2600000D01*
X17394286Y1400000D01*
X18011429Y1400000D01*
X17394286Y2034286D02*
X17874286Y2034286D01*
X19040000Y2428571D02*
X18868571Y2600000D01*
X18577143Y2600000D01*
X18388571Y2377143D01*
X18388571Y1622857D01*
X18577143Y1400000D01*
X18868571Y1400000D01*
X19040000Y1571429D01*
X19400000Y2600000D02*
X20085714Y2600000D01*
X19742857Y2600000D02*
X19742857Y1400000D01*
X20480000Y1400000D02*
X20480000Y2600000D01*
X20925714Y2600000D01*
X21097143Y2428571D01*
X21097143Y2188571D01*
X20925714Y2017143D01*
X20480000Y2017143D01*
X20788571Y2017143D02*
X21114286Y1400000D01*
X21474286Y1640000D02*
X21474286Y2360000D01*
X21662857Y2600000D01*
X21954286Y2600000D01*
X22125714Y2360000D01*
X22125714Y1640000D01*
X21954286Y1400000D01*
X21662857Y1400000D01*
X21474286Y1640000D01*
X22537143Y1400000D02*
X22537143Y2600000D01*
X22948571Y2600000D01*
X23154286Y2360000D01*
X23154286Y1640000D01*
X22948571Y1400000D01*
X22537143Y1400000D01*
X24182857Y2600000D02*
X23565714Y2600000D01*
X23565714Y1400000D01*
X24182857Y1400000D01*
X23565714Y2034286D02*
X24045714Y2034286D01*
X25622857Y2600000D02*
X25622857Y1400000D01*
X26240000Y2600000D02*
X26240000Y1400000D01*
X25622857Y2034286D02*
X26240000Y2034286D01*
X27268571Y2600000D02*
X26651429Y2600000D01*
X26651429Y1400000D01*
X27268571Y1400000D01*
X26651429Y2034286D02*
X27131429Y2034286D01*
X27628571Y1400000D02*
X27971429Y2600000D01*
X28314286Y1400000D01*
X27765714Y1845714D02*
X28177143Y1845714D01*
X28708571Y1400000D02*
X28708571Y2600000D01*
X29120000Y2600000D01*
X29325714Y2360000D01*
X29325714Y1640000D01*
X29120000Y1400000D01*
X28708571Y1400000D01*
X33440000Y2600000D02*
X32822857Y2600000D01*
X32822857Y1400000D01*
X32822857Y2034286D02*
X33302857Y2034286D01*
X33920000Y2600000D02*
X34365714Y2600000D01*
X34142857Y2600000D02*
X34142857Y1400000D01*
X33920000Y1400000D02*
X34365714Y1400000D01*
X34845714Y2600000D02*
X35497143Y1400000D01*
X35497143Y2600000D02*
X34845714Y1400000D01*
X35857143Y2000000D02*
X36542857Y2000000D01*
X36902857Y1640000D02*
X36902857Y2360000D01*
X37074286Y2600000D01*
X37382857Y2600000D01*
X37554286Y2360000D01*
X37554286Y1640000D01*
X37382857Y1400000D01*
X37074286Y1400000D01*
X36902857Y1640000D01*
X37005714Y1605714D02*
X37451429Y2394286D01*
X38445714Y1400000D02*
X38445714Y2600000D01*
X37914286Y1777143D01*
X38617143Y1777143D01*
X38942857Y1400000D02*
X39628571Y2600000D01*
D10*
X43142857Y11200000D02*
X43142857Y9600000D01*
X42857143Y9200000D01*
X42457143Y9200000D01*
X42171429Y9514286D01*
X44742857Y9200000D02*
X44742857Y11200000D01*
X43857143Y9828571D01*
X45028571Y9828571D01*
X45600000Y9600000D02*
X45600000Y10800000D01*
X45885714Y11200000D01*
X46400000Y11200000D01*
X46685714Y10800000D01*
X46685714Y9600000D01*
X46400000Y9200000D01*
X45885714Y9200000D01*
X45600000Y9600000D01*
X45771429Y9542857D02*
X46514286Y10857143D01*
X47314286Y10800000D02*
X47600000Y11200000D01*
X48114286Y11200000D01*
X48400000Y10800000D01*
X48400000Y10457143D01*
X47314286Y9200000D01*
X48400000Y9200000D01*
D10*
X39920000Y6380000D02*
X40171429Y6700000D01*
X40171429Y5100000D01*
X39874286Y5100000D02*
X40468571Y5100000D01*
D10*
X42240000Y2360000D02*
X42428571Y2600000D01*
X42428571Y1400000D01*
X42205714Y1400000D02*
X42651429Y1400000D01*
X43131429Y1640000D02*
X43131429Y2360000D01*
X43302857Y2600000D01*
X43611429Y2600000D01*
X43782857Y2360000D01*
X43782857Y1640000D01*
X43611429Y1400000D01*
X43302857Y1400000D01*
X43131429Y1640000D01*
X43234286Y1605714D02*
X43680000Y2394286D01*
X44142857Y2000000D02*
X44828571Y2000000D01*
X45154286Y2600000D02*
X45325714Y1400000D01*
X45514286Y2120000D01*
X45702857Y1400000D01*
X45874286Y2600000D01*
X46200000Y1400000D02*
X46542857Y2600000D01*
X46885714Y1400000D01*
X46337143Y1845714D02*
X46748571Y1845714D01*
X47245714Y2600000D02*
X47571429Y1982857D01*
X47897143Y2600000D01*
X47571429Y1982857D02*
X47571429Y1400000D01*
X49337143Y2600000D02*
X49337143Y1400000D01*
X49954286Y1400000D01*
X50434286Y2600000D02*
X50880000Y2600000D01*
X50657143Y2600000D02*
X50657143Y1400000D01*
X50434286Y1400000D02*
X50880000Y1400000D01*
X52011429Y2428571D02*
X51840000Y2600000D01*
X51548571Y2600000D01*
X51360000Y2377143D01*
X51360000Y1622857D01*
X51548571Y1400000D01*
X51840000Y1400000D01*
X52011429Y1605714D01*
X52011429Y1948571D01*
X51720000Y1948571D01*
X52422857Y2600000D02*
X52422857Y1400000D01*
X53040000Y2600000D02*
X53040000Y1400000D01*
X52422857Y2034286D02*
X53040000Y2034286D01*
X53400000Y2600000D02*
X54085714Y2600000D01*
X53742857Y2600000D02*
X53742857Y1400000D01*
X55508571Y2600000D02*
X55508571Y1400000D01*
X56125714Y2600000D02*
X56125714Y1400000D01*
X55508571Y2034286D02*
X56125714Y2034286D01*
X57154286Y2600000D02*
X56537143Y2600000D01*
X56537143Y1400000D01*
X57154286Y1400000D01*
X56537143Y2034286D02*
X57017143Y2034286D01*
X57514286Y1400000D02*
X57857143Y2600000D01*
X58200000Y1400000D01*
X57651429Y1845714D02*
X58062857Y1845714D01*
X58594286Y1400000D02*
X58594286Y2600000D01*
X59005714Y2600000D01*
X59211429Y2360000D01*
X59211429Y1640000D01*
X59005714Y1400000D01*
X58594286Y1400000D01*
X67440000Y2600000D02*
X66822857Y2600000D01*
X66822857Y1400000D01*
X66822857Y2034286D02*
X67302857Y2034286D01*
D10*
X71142857Y11200000D02*
X71142857Y9600000D01*
X70857143Y9200000D01*
X70457143Y9200000D01*
X70171429Y9514286D01*
X72742857Y9200000D02*
X72742857Y11200000D01*
X71857143Y9828571D01*
X73028571Y9828571D01*
X73600000Y9600000D02*
X73600000Y10800000D01*
X73885714Y11200000D01*
X74400000Y11200000D01*
X74685714Y10800000D01*
X74685714Y9600000D01*
X74400000Y9200000D01*
X73885714Y9200000D01*
X73600000Y9600000D01*
X73771429Y9542857D02*
X74514286Y10857143D01*
X75314286Y11028571D02*
X75600000Y11200000D01*
X76114286Y11200000D01*
X76400000Y10857143D01*
X76400000Y10514286D01*
X76114286Y10285714D01*
X75714286Y10285714D01*
X76114286Y10285714D02*
X76400000Y10028571D01*
X76400000Y9542857D01*
X76114286Y9200000D01*
X75600000Y9200000D01*
X75314286Y9400000D01*
D10*
X67920000Y6380000D02*
X68171429Y6700000D01*
X68171429Y5100000D01*
X67874286Y5100000D02*
X68468571Y5100000D01*
D10*
X70754286Y2600000D02*
X70137143Y2600000D01*
X70137143Y1400000D01*
X70754286Y1400000D01*
X70137143Y2034286D02*
X70617143Y2034286D01*
X71131429Y1400000D02*
X71131429Y2600000D01*
X71457143Y1982857D01*
X71782857Y2600000D01*
X71782857Y1400000D01*
X72811429Y2428571D02*
X72640000Y2600000D01*
X72348571Y2600000D01*
X72160000Y2377143D01*
X72160000Y1622857D01*
X72348571Y1400000D01*
X72640000Y1400000D01*
X72811429Y1605714D01*
X72811429Y1948571D01*
X72520000Y1948571D01*
X74251429Y2600000D02*
X74251429Y1400000D01*
X74868571Y2600000D02*
X74868571Y1400000D01*
X74251429Y2034286D02*
X74868571Y2034286D01*
X75897143Y2600000D02*
X75280000Y2600000D01*
X75280000Y1400000D01*
X75897143Y1400000D01*
X75280000Y2034286D02*
X75760000Y2034286D01*
X76257143Y1400000D02*
X76600000Y2600000D01*
X76942857Y1400000D01*
X76394286Y1845714D02*
X76805714Y1845714D01*
X77337143Y1400000D02*
X77337143Y2600000D01*
X77748571Y2600000D01*
X77954286Y2360000D01*
X77954286Y1640000D01*
X77748571Y1400000D01*
X77337143Y1400000D01*
D10*
X83142857Y11200000D02*
X83142857Y9600000D01*
X82857143Y9200000D01*
X82457143Y9200000D01*
X82171429Y9514286D01*
X84742857Y9200000D02*
X84742857Y11200000D01*
X83857143Y9828571D01*
X85028571Y9828571D01*
X85600000Y9600000D02*
X85600000Y10800000D01*
X85885714Y11200000D01*
X86400000Y11200000D01*
X86685714Y10800000D01*
X86685714Y9600000D01*
X86400000Y9200000D01*
X85885714Y9200000D01*
X85600000Y9600000D01*
X85771429Y9542857D02*
X86514286Y10857143D01*
X87314286Y11200000D02*
X88400000Y11200000D01*
X87685714Y9200000D01*
D10*
X79920000Y6380000D02*
X80171429Y6700000D01*
X80171429Y5100000D01*
X79874286Y5100000D02*
X80468571Y5100000D01*
D10*
X82754286Y2428571D02*
X82582857Y2600000D01*
X82291429Y2600000D01*
X82102857Y2377143D01*
X82102857Y1622857D01*
X82291429Y1400000D01*
X82582857Y1400000D01*
X82754286Y1571429D01*
X83165714Y2600000D02*
X83165714Y1400000D01*
X83782857Y2600000D02*
X83782857Y1400000D01*
X83165714Y2034286D02*
X83782857Y2034286D01*
X84142857Y1400000D02*
X84485714Y2600000D01*
X84828571Y1400000D01*
X84280000Y1845714D02*
X84691429Y1845714D01*
X85222857Y1400000D02*
X85222857Y2600000D01*
X85840000Y1400000D01*
X85840000Y2600000D01*
X86251429Y1400000D02*
X86251429Y2600000D01*
X86868571Y1400000D01*
X86868571Y2600000D01*
X87897143Y2600000D02*
X87280000Y2600000D01*
X87280000Y1400000D01*
X87897143Y1400000D01*
X87280000Y2034286D02*
X87760000Y2034286D01*
X88308571Y2600000D02*
X88308571Y1400000D01*
X88925714Y1400000D01*
D10*
X93142857Y11200000D02*
X93142857Y9600000D01*
X92857143Y9200000D01*
X92457143Y9200000D01*
X92171429Y9514286D01*
D10*
X89920000Y6380000D02*
X90171429Y6700000D01*
X90171429Y5100000D01*
X89874286Y5100000D02*
X90468571Y5100000D01*
D10*
X92205714Y2600000D02*
X92651429Y2600000D01*
X92428571Y2600000D02*
X92428571Y1400000D01*
X92205714Y1400000D02*
X92651429Y1400000D01*
D10*
X97142857Y77200000D02*
X97142857Y75600000D01*
X96857143Y75200000D01*
X96457143Y75200000D01*
X96171429Y75514286D01*
X98742857Y75200000D02*
X98742857Y77200000D01*
X97857143Y75828571D01*
X99028571Y75828571D01*
X99600000Y75600000D02*
X99600000Y76800000D01*
X99885714Y77200000D01*
X100400000Y77200000D01*
X100685714Y76800000D01*
X100685714Y75600000D01*
X100400000Y75200000D01*
X99885714Y75200000D01*
X99600000Y75600000D01*
X99771429Y75542857D02*
X100514286Y76857143D01*
X102371429Y77200000D02*
X101371429Y77200000D01*
X101314286Y76314286D01*
X102057143Y76400000D01*
X102400000Y76114286D01*
X102400000Y75571429D01*
X102057143Y75200000D01*
X101542857Y75200000D01*
X101314286Y75400000D01*
D10*
X93920000Y72380000D02*
X94171429Y72700000D01*
X94171429Y71100000D01*
X93874286Y71100000D02*
X94468571Y71100000D01*
D10*
X96137143Y68600000D02*
X96137143Y67400000D01*
X96754286Y67400000D01*
X97234286Y68600000D02*
X97680000Y68600000D01*
X97457143Y68600000D02*
X97457143Y67400000D01*
X97234286Y67400000D02*
X97680000Y67400000D01*
X98194286Y67400000D02*
X98194286Y68600000D01*
X98605714Y68600000D01*
X98811429Y68360000D01*
X98811429Y67640000D01*
X98605714Y67400000D01*
X98194286Y67400000D01*
X100320000Y68600000D02*
X100765714Y68600000D01*
X100542857Y68600000D02*
X100542857Y67400000D01*
X100320000Y67400000D02*
X100765714Y67400000D01*
X101280000Y67400000D02*
X101280000Y68600000D01*
X101897143Y67400000D01*
X101897143Y68600000D01*
X102257143Y68600000D02*
X102942857Y68600000D01*
X102600000Y68600000D02*
X102600000Y67400000D01*
X103954286Y68600000D02*
X103337143Y68600000D01*
X103337143Y67400000D01*
X103954286Y67400000D01*
X103337143Y68034286D02*
X103817143Y68034286D01*
X104365714Y67400000D02*
X104365714Y68600000D01*
X104811429Y68600000D01*
X104982857Y68428571D01*
X104982857Y68188571D01*
X104811429Y68017143D01*
X104365714Y68017143D01*
X104674286Y68017143D02*
X105000000Y67400000D01*
D10*
X109142857Y77200000D02*
X109142857Y75600000D01*
X108857143Y75200000D01*
X108457143Y75200000D01*
X108171429Y75514286D01*
X110742857Y75200000D02*
X110742857Y77200000D01*
X109857143Y75828571D01*
X111028571Y75828571D01*
X111600000Y75600000D02*
X111600000Y76800000D01*
X111885714Y77200000D01*
X112400000Y77200000D01*
X112685714Y76800000D01*
X112685714Y75600000D01*
X112400000Y75200000D01*
X111885714Y75200000D01*
X111600000Y75600000D01*
X111771429Y75542857D02*
X112514286Y76857143D01*
X114342857Y77028571D02*
X114057143Y77200000D01*
X113600000Y77200000D01*
X113314286Y76800000D01*
X113314286Y75600000D01*
X113600000Y75200000D01*
X114114286Y75200000D01*
X114400000Y75571429D01*
X114400000Y75971429D01*
X114114286Y76314286D01*
X113600000Y76314286D01*
X113314286Y76028571D01*
D10*
X105920000Y72380000D02*
X106171429Y72700000D01*
X106171429Y71100000D01*
X105874286Y71100000D02*
X106468571Y71100000D01*
D10*
X108737143Y68600000D02*
X108137143Y68600000D01*
X108102857Y68068571D01*
X108548571Y68120000D01*
X108754286Y67948571D01*
X108754286Y67622857D01*
X108548571Y67400000D01*
X108240000Y67400000D01*
X108102857Y67520000D01*
X110142857Y68600000D02*
X110485714Y67400000D01*
X110828571Y68600000D01*
X112320000Y68600000D02*
X112765714Y68600000D01*
X112542857Y68600000D02*
X112542857Y67400000D01*
X112320000Y67400000D02*
X112765714Y67400000D01*
X113280000Y67400000D02*
X113280000Y68600000D01*
X113897143Y67400000D01*
X113897143Y68600000D01*
X114308571Y67400000D02*
X114308571Y68600000D01*
X114754286Y68600000D01*
X114925714Y68428571D01*
X114925714Y68154286D01*
X114754286Y67982857D01*
X114308571Y67982857D01*
X115337143Y68600000D02*
X115337143Y67640000D01*
X115508571Y67400000D01*
X115782857Y67400000D01*
X115954286Y67640000D01*
X115954286Y68600000D01*
X116314286Y68600000D02*
X117000000Y68600000D01*
X116657143Y68600000D02*
X116657143Y67400000D01*
D10*
X5351429Y64200000D02*
X4251429Y64200000D01*
X4188571Y63225714D01*
X5005714Y63320000D01*
X5382857Y63005714D01*
X5382857Y62408571D01*
X5005714Y62000000D01*
X4440000Y62000000D01*
X4188571Y62220000D01*
X6074286Y62440000D02*
X6074286Y63760000D01*
X6388571Y64200000D01*
X6954286Y64200000D01*
X7268571Y63760000D01*
X7268571Y62440000D01*
X6954286Y62000000D01*
X6388571Y62000000D01*
X6074286Y62440000D01*
X6262857Y62377143D02*
X7080000Y63822857D01*
X7960000Y62440000D02*
X7960000Y63760000D01*
X8274286Y64200000D01*
X8840000Y64200000D01*
X9154286Y63760000D01*
X9154286Y62440000D01*
X8840000Y62000000D01*
X8274286Y62000000D01*
X7960000Y62440000D01*
X8148571Y62377143D02*
X8965714Y63822857D01*
X11700000Y64200000D02*
X12328571Y62000000D01*
X12957143Y64200000D01*
X15565714Y62000000D02*
X15565714Y64200000D01*
X16320000Y64200000D01*
X16697143Y63760000D01*
X16697143Y62440000D01*
X16320000Y62000000D01*
X15565714Y62000000D01*
X18582857Y63885714D02*
X18268571Y64200000D01*
X17734286Y64200000D01*
X17388571Y63791429D01*
X17388571Y62408571D01*
X17734286Y62000000D01*
X18268571Y62000000D01*
X18582857Y62314286D01*
X21128571Y63100000D02*
X22385714Y63100000D01*
X24994286Y62000000D02*
X24994286Y64200000D01*
X25748571Y64200000D01*
X26125714Y63760000D01*
X26125714Y62440000D01*
X25748571Y62000000D01*
X24994286Y62000000D01*
X26817143Y62440000D02*
X26817143Y63760000D01*
X27162857Y64200000D01*
X27697143Y64200000D01*
X28011429Y63760000D01*
X28011429Y62440000D01*
X27697143Y62000000D01*
X27162857Y62000000D01*
X26817143Y62440000D01*
X30651429Y62000000D02*
X30651429Y64200000D01*
X31782857Y62000000D01*
X31782857Y64200000D01*
X32474286Y62440000D02*
X32474286Y63760000D01*
X32820000Y64200000D01*
X33354286Y64200000D01*
X33668571Y63760000D01*
X33668571Y62440000D01*
X33354286Y62000000D01*
X32820000Y62000000D01*
X32474286Y62440000D01*
X34328571Y64200000D02*
X35585714Y64200000D01*
X34957143Y64200000D02*
X34957143Y62000000D01*
X39294286Y63948571D02*
X38948571Y64200000D01*
X38445714Y64200000D01*
X38131429Y63885714D01*
X38131429Y63445714D01*
X38445714Y63194286D01*
X39011429Y63131429D01*
X39325714Y62817143D01*
X39325714Y62314286D01*
X39011429Y62000000D01*
X38445714Y62000000D01*
X38131429Y62251429D01*
X39954286Y64200000D02*
X40268571Y62000000D01*
X40614286Y63320000D01*
X40960000Y62000000D01*
X41274286Y64200000D01*
X42091429Y64200000D02*
X42908571Y64200000D01*
X42500000Y64200000D02*
X42500000Y62000000D01*
X42091429Y62000000D02*
X42908571Y62000000D01*
X43757143Y64200000D02*
X45014286Y64200000D01*
X44385714Y64200000D02*
X44385714Y62000000D01*
X46868571Y63885714D02*
X46554286Y64200000D01*
X46020000Y64200000D01*
X45674286Y63791429D01*
X45674286Y62408571D01*
X46020000Y62000000D01*
X46554286Y62000000D01*
X46868571Y62314286D01*
X47622857Y64200000D02*
X47622857Y62000000D01*
X48754286Y64200000D02*
X48754286Y62000000D01*
X47622857Y63162857D02*
X48754286Y63162857D01*
X51268571Y64200000D02*
X51582857Y62000000D01*
X51928571Y63320000D01*
X52274286Y62000000D01*
X52588571Y64200000D01*
X53280000Y64200000D02*
X53280000Y62000000D01*
X54411429Y64200000D02*
X54411429Y62000000D01*
X53280000Y63162857D02*
X54411429Y63162857D01*
X55291429Y64200000D02*
X56108571Y64200000D01*
X55700000Y64200000D02*
X55700000Y62000000D01*
X55291429Y62000000D02*
X56108571Y62000000D01*
X57051429Y64200000D02*
X57051429Y62000000D01*
X58182857Y62000000D01*
X60068571Y64200000D02*
X58937143Y64200000D01*
X58937143Y62000000D01*
X60068571Y62000000D01*
X58937143Y63162857D02*
X59817143Y63162857D01*
X63840000Y64200000D02*
X62708571Y64200000D01*
X62708571Y62000000D01*
X63840000Y62000000D01*
X62708571Y63162857D02*
X63588571Y63162857D01*
X64594286Y62000000D02*
X64594286Y64200000D01*
X65725714Y62000000D01*
X65725714Y64200000D01*
X67611429Y64200000D02*
X66480000Y64200000D01*
X66480000Y62000000D01*
X67611429Y62000000D01*
X66480000Y63162857D02*
X67360000Y63162857D01*
X68365714Y62000000D02*
X68365714Y64200000D01*
X69182857Y64200000D01*
X69497143Y63885714D01*
X69497143Y63445714D01*
X69182857Y63131429D01*
X68365714Y63131429D01*
X68931429Y63131429D02*
X69528571Y62000000D01*
X71382857Y63885714D02*
X71068571Y64200000D01*
X70534286Y64200000D01*
X70188571Y63791429D01*
X70188571Y62408571D01*
X70534286Y62000000D01*
X71068571Y62000000D01*
X71382857Y62377143D01*
X71382857Y63005714D01*
X70848571Y63005714D01*
X72262857Y64200000D02*
X73080000Y64200000D01*
X72671429Y64200000D02*
X72671429Y62000000D01*
X72262857Y62000000D02*
X73080000Y62000000D01*
X75122857Y63948571D02*
X74777143Y64200000D01*
X74274286Y64200000D01*
X73960000Y63885714D01*
X73960000Y63445714D01*
X74274286Y63194286D01*
X74840000Y63131429D01*
X75154286Y62817143D01*
X75154286Y62314286D01*
X74840000Y62000000D01*
X74274286Y62000000D01*
X73960000Y62251429D01*
X77040000Y64200000D02*
X75908571Y64200000D01*
X75908571Y62000000D01*
X77040000Y62000000D01*
X75908571Y63162857D02*
X76788571Y63162857D01*
X77794286Y62000000D02*
X77794286Y64200000D01*
X78548571Y64200000D01*
X78925714Y63760000D01*
X78925714Y62440000D01*
X78548571Y62000000D01*
X77794286Y62000000D01*
D10*
X4205714Y59800000D02*
X4205714Y58000000D01*
X5131429Y58000000D01*
X5851429Y59800000D02*
X6520000Y59800000D01*
X6185714Y59800000D02*
X6185714Y58000000D01*
X5851429Y58000000D02*
X6520000Y58000000D01*
X7291429Y58000000D02*
X7291429Y59800000D01*
X7908571Y59800000D01*
X8217143Y59440000D01*
X8217143Y58360000D01*
X7908571Y58000000D01*
X7291429Y58000000D01*
X10480000Y59800000D02*
X11148571Y59800000D01*
X10814286Y59800000D02*
X10814286Y58000000D01*
X10480000Y58000000D02*
X11148571Y58000000D01*
X11920000Y58000000D02*
X11920000Y59800000D01*
X12845714Y58000000D01*
X12845714Y59800000D01*
X13385714Y59800000D02*
X14414286Y59800000D01*
X13900000Y59800000D02*
X13900000Y58000000D01*
X15931429Y59800000D02*
X15005714Y59800000D01*
X15005714Y58000000D01*
X15931429Y58000000D01*
X15005714Y58951429D02*
X15725714Y58951429D01*
X16548571Y58000000D02*
X16548571Y59800000D01*
X17217143Y59800000D01*
X17474286Y59542857D01*
X17474286Y59182857D01*
X17217143Y58925714D01*
X16548571Y58925714D01*
X17011429Y58925714D02*
X17500000Y58000000D01*
X18091429Y59800000D02*
X18091429Y58000000D01*
X19017143Y58000000D01*
X19582857Y58360000D02*
X19582857Y59440000D01*
X19865714Y59800000D01*
X20302857Y59800000D01*
X20560000Y59440000D01*
X20560000Y58360000D01*
X20302857Y58000000D01*
X19865714Y58000000D01*
X19582857Y58360000D01*
X22102857Y59542857D02*
X21845714Y59800000D01*
X21408571Y59800000D01*
X21125714Y59465714D01*
X21125714Y58334286D01*
X21408571Y58000000D01*
X21845714Y58000000D01*
X22102857Y58257143D01*
X22720000Y59800000D02*
X22720000Y58000000D01*
X23645714Y59800000D02*
X22720000Y58822857D01*
X23028571Y59131429D02*
X23671429Y58000000D01*
X25754286Y58000000D02*
X25754286Y59800000D01*
X26242857Y58874286D01*
X26731429Y59800000D01*
X26731429Y58000000D01*
X27348571Y59800000D02*
X27348571Y58360000D01*
X27605714Y58000000D01*
X28017143Y58000000D01*
X28274286Y58360000D01*
X28274286Y59800000D01*
X29791429Y59594286D02*
X29508571Y59800000D01*
X29097143Y59800000D01*
X28840000Y59542857D01*
X28840000Y59182857D01*
X29097143Y58977143D01*
X29560000Y58925714D01*
X29817143Y58668571D01*
X29817143Y58257143D01*
X29560000Y58000000D01*
X29097143Y58000000D01*
X28840000Y58205714D01*
X30357143Y59800000D02*
X31385714Y59800000D01*
X30871429Y59800000D02*
X30871429Y58000000D01*
X33520000Y58000000D02*
X33520000Y59800000D01*
X34188571Y59800000D01*
X34445714Y59542857D01*
X34445714Y59234286D01*
X34188571Y58977143D01*
X33520000Y58977143D01*
X34188571Y58977143D02*
X34471429Y58694286D01*
X34471429Y58282857D01*
X34188571Y58000000D01*
X33520000Y58000000D01*
X35988571Y59800000D02*
X35062857Y59800000D01*
X35062857Y58000000D01*
X35988571Y58000000D01*
X35062857Y58951429D02*
X35782857Y58951429D01*
X39074286Y59542857D02*
X38817143Y59800000D01*
X38380000Y59800000D01*
X38097143Y59465714D01*
X38097143Y58334286D01*
X38380000Y58000000D01*
X38817143Y58000000D01*
X39074286Y58257143D01*
X39691429Y59800000D02*
X39691429Y58000000D01*
X40617143Y58000000D01*
X41182857Y58360000D02*
X41182857Y59440000D01*
X41465714Y59800000D01*
X41902857Y59800000D01*
X42160000Y59440000D01*
X42160000Y58360000D01*
X41902857Y58000000D01*
X41465714Y58000000D01*
X41182857Y58360000D01*
X43677143Y59594286D02*
X43394286Y59800000D01*
X42982857Y59800000D01*
X42725714Y59542857D01*
X42725714Y59182857D01*
X42982857Y58977143D01*
X43445714Y58925714D01*
X43702857Y58668571D01*
X43702857Y58257143D01*
X43445714Y58000000D01*
X42982857Y58000000D01*
X42725714Y58205714D01*
X45245714Y59800000D02*
X44320000Y59800000D01*
X44320000Y58000000D01*
X45245714Y58000000D01*
X44320000Y58951429D02*
X45040000Y58951429D01*
X45862857Y58000000D02*
X45862857Y59800000D01*
X46480000Y59800000D01*
X46788571Y59440000D01*
X46788571Y58360000D01*
X46480000Y58000000D01*
X45862857Y58000000D01*
X48871429Y59800000D02*
X49900000Y59800000D01*
X49385714Y59800000D02*
X49385714Y58000000D01*
X50440000Y58360000D02*
X50440000Y59440000D01*
X50722857Y59800000D01*
X51160000Y59800000D01*
X51417143Y59440000D01*
X51417143Y58360000D01*
X51160000Y58000000D01*
X50722857Y58000000D01*
X50440000Y58360000D01*
X53500000Y58000000D02*
X54014286Y59800000D01*
X54528571Y58000000D01*
X53705714Y58668571D02*
X54322857Y58668571D01*
X55120000Y58000000D02*
X55120000Y59800000D01*
X55788571Y59800000D01*
X56045714Y59542857D01*
X56045714Y59182857D01*
X55788571Y58925714D01*
X55120000Y58925714D01*
X55582857Y58925714D02*
X56071429Y58000000D01*
X56611429Y58000000D02*
X56611429Y59800000D01*
X57100000Y58874286D01*
X57588571Y59800000D01*
X57588571Y58000000D01*
D10*
X5028571Y56300000D02*
X5028571Y54860000D01*
X4771429Y54500000D01*
X4411429Y54500000D01*
X4154286Y54782857D01*
X6468571Y54500000D02*
X6468571Y56300000D01*
X5671429Y55065714D01*
X6725714Y55065714D01*
X7240000Y54860000D02*
X7240000Y55940000D01*
X7497143Y56300000D01*
X7960000Y56300000D01*
X8217143Y55940000D01*
X8217143Y54860000D01*
X7960000Y54500000D01*
X7497143Y54500000D01*
X7240000Y54860000D01*
X7394286Y54808571D02*
X8062857Y55991429D01*
X8782857Y56145714D02*
X9040000Y56300000D01*
X9502857Y56300000D01*
X9760000Y55991429D01*
X9760000Y55682857D01*
X9502857Y55477143D01*
X9142857Y55477143D01*
X9502857Y55477143D02*
X9760000Y55245714D01*
X9760000Y54808571D01*
X9502857Y54500000D01*
X9040000Y54500000D01*
X8782857Y54680000D01*
X12845714Y56300000D02*
X11920000Y56300000D01*
X11920000Y54500000D01*
X12845714Y54500000D01*
X11920000Y55451429D02*
X12640000Y55451429D01*
X13411429Y54500000D02*
X13411429Y56300000D01*
X13900000Y55374286D01*
X14388571Y56300000D01*
X14388571Y54500000D01*
X15931429Y56042857D02*
X15674286Y56300000D01*
X15237143Y56300000D01*
X14954286Y55965714D01*
X14954286Y54834286D01*
X15237143Y54500000D01*
X15674286Y54500000D01*
X15931429Y54808571D01*
X15931429Y55322857D01*
X15494286Y55322857D01*
X18091429Y56300000D02*
X18091429Y54500000D01*
X19017143Y56300000D02*
X19017143Y54500000D01*
X18091429Y55451429D02*
X19017143Y55451429D01*
X20560000Y56300000D02*
X19634286Y56300000D01*
X19634286Y54500000D01*
X20560000Y54500000D01*
X19634286Y55451429D02*
X20354286Y55451429D01*
X21100000Y54500000D02*
X21614286Y56300000D01*
X22128571Y54500000D01*
X21305714Y55168571D02*
X21922857Y55168571D01*
X22720000Y54500000D02*
X22720000Y56300000D01*
X23337143Y56300000D01*
X23645714Y55940000D01*
X23645714Y54860000D01*
X23337143Y54500000D01*
X22720000Y54500000D01*
X25908571Y56300000D02*
X26577143Y56300000D01*
X26242857Y56300000D02*
X26242857Y54500000D01*
X25908571Y54500000D02*
X26577143Y54500000D01*
X28248571Y56094286D02*
X27965714Y56300000D01*
X27554286Y56300000D01*
X27297143Y56042857D01*
X27297143Y55682857D01*
X27554286Y55477143D01*
X28017143Y55425714D01*
X28274286Y55168571D01*
X28274286Y54757143D01*
X28017143Y54500000D01*
X27554286Y54500000D01*
X27297143Y54705714D01*
X30434286Y54500000D02*
X30434286Y56300000D01*
X31360000Y54500000D01*
X31360000Y56300000D01*
X32902857Y56300000D02*
X31977143Y56300000D01*
X31977143Y54500000D01*
X32902857Y54500000D01*
X31977143Y55451429D02*
X32697143Y55451429D01*
X33442857Y56300000D02*
X33957143Y54500000D01*
X34471429Y56300000D01*
X35988571Y56300000D02*
X35062857Y56300000D01*
X35062857Y54500000D01*
X35988571Y54500000D01*
X35062857Y55451429D02*
X35782857Y55451429D01*
X36605714Y54500000D02*
X36605714Y56300000D01*
X37274286Y56300000D01*
X37531429Y56042857D01*
X37531429Y55682857D01*
X37274286Y55425714D01*
X36605714Y55425714D01*
X37068571Y55425714D02*
X37557143Y54500000D01*
X39640000Y54500000D02*
X39640000Y56300000D01*
X40128571Y55374286D01*
X40617143Y56300000D01*
X40617143Y54500000D01*
X41157143Y54500000D02*
X41671429Y56300000D01*
X42185714Y54500000D01*
X41362857Y55168571D02*
X41980000Y55168571D01*
X42700000Y56300000D02*
X43728571Y56300000D01*
X43214286Y56300000D02*
X43214286Y54500000D01*
X45245714Y56300000D02*
X44320000Y56300000D01*
X44320000Y54500000D01*
X45245714Y54500000D01*
X44320000Y55451429D02*
X45040000Y55451429D01*
X45862857Y54500000D02*
X45862857Y56300000D01*
X46480000Y56300000D01*
X46788571Y55940000D01*
X46788571Y54860000D01*
X46480000Y54500000D01*
X45862857Y54500000D01*
X48845714Y56300000D02*
X49102857Y54500000D01*
X49385714Y55580000D01*
X49668571Y54500000D01*
X49925714Y56300000D01*
X50594286Y56300000D02*
X51262857Y56300000D01*
X50928571Y56300000D02*
X50928571Y54500000D01*
X50594286Y54500000D02*
X51262857Y54500000D01*
X51957143Y56300000D02*
X52985714Y56300000D01*
X52471429Y56300000D02*
X52471429Y54500000D01*
X53577143Y56300000D02*
X53577143Y54500000D01*
X54502857Y56300000D02*
X54502857Y54500000D01*
X53577143Y55451429D02*
X54502857Y55451429D01*
X57485714Y56300000D02*
X57485714Y54860000D01*
X57228571Y54500000D01*
X56868571Y54500000D01*
X56611429Y54782857D01*
X58925714Y54500000D02*
X58925714Y56300000D01*
X58128571Y55065714D01*
X59182857Y55065714D01*
X59697143Y54860000D02*
X59697143Y55940000D01*
X59954286Y56300000D01*
X60417143Y56300000D01*
X60674286Y55940000D01*
X60674286Y54860000D01*
X60417143Y54500000D01*
X59954286Y54500000D01*
X59697143Y54860000D01*
X59851429Y54808571D02*
X60520000Y55991429D01*
X61445714Y55940000D02*
X61728571Y56300000D01*
X61728571Y54500000D01*
X61394286Y54500000D02*
X62062857Y54500000D01*
M02*
