ISO-10303-21;
HEADER;
FILE_DESCRIPTION(('Touch-proof 1.5 mm safety socket to DIN 42802 (Staubli LB-I1,5 class) -- body envelope 10.00 mm tall (ASSUMED: no qualified part exists (AVL-EEG-017 section 1.4.1))'),'2;1');
FILE_NAME('DIN42802_1p5mm_Socket','2026-09-08T00:00:00',('TI One Voice research programme'),(''),'EEG-CAR-01 step_write.py','','CC BY-SA 4.0');
FILE_SCHEMA(('AUTOMOTIVE_DESIGN { 1 0 10303 214 1 1 1 1 }'));
ENDSEC;
DATA;
#1 = CARTESIAN_POINT('',(0.,0.,0.));
#2 = DIRECTION('',(0.,0.,1.));
#3 = DIRECTION('',(1.,0.,0.));
#4 = AXIS2_PLACEMENT_3D('',#1,#2,#3);
#5 = ( NAMED_UNIT(*) SI_UNIT(.MILLI.,.METRE.) LENGTH_UNIT() );
#6 = ( NAMED_UNIT(*) PLANE_ANGLE_UNIT() SI_UNIT($,.RADIAN.) );
#7 = ( NAMED_UNIT(*) SI_UNIT($,.STERADIAN.) SOLID_ANGLE_UNIT() );
#8 = UNCERTAINTY_MEASURE_WITH_UNIT(LENGTH_MEASURE(1.E-06),#5,'distance_accuracy_value','confusion accuracy');
#9 = ( GEOMETRIC_REPRESENTATION_CONTEXT(3) GLOBAL_UNCERTAINTY_ASSIGNED_CONTEXT((#8)) GLOBAL_UNIT_ASSIGNED_CONTEXT((#5,#6,#7)) REPRESENTATION_CONTEXT('','3D') );
#10 = APPLICATION_CONTEXT('automotive design');
#11 = APPLICATION_PROTOCOL_DEFINITION('international standard','automotive_design',2000,#10);
#12 = PRODUCT_CONTEXT('',#10,'mechanical');
#13 = PRODUCT_DEFINITION_CONTEXT('part definition',#10,'design');
#14 = CARTESIAN_POINT('',(-4.900000,3.900000,0.000000));
#15 = CARTESIAN_POINT('',(4.900000,3.900000,0.000000));
#16 = CARTESIAN_POINT('',(4.900000,-3.900000,0.000000));
#17 = CARTESIAN_POINT('',(-4.900000,-3.900000,0.000000));
#18 = POLY_LOOP('',(#14,#15,#16,#17));
#19 = FACE_OUTER_BOUND('',#18,.T.);
#20 = DIRECTION('',(0.000000,0.000000,-1.000000));
#21 = DIRECTION('',(-0.000000,1.000000,0.000000));
#22 = AXIS2_PLACEMENT_3D('',#14,#20,#21);
#23 = PLANE('',#22);
#24 = FACE_SURFACE('',(#19),#23,.T.);
#25 = CARTESIAN_POINT('',(-4.900000,-3.900000,10.000000));
#26 = CARTESIAN_POINT('',(4.900000,-3.900000,10.000000));
#27 = CARTESIAN_POINT('',(4.900000,3.900000,10.000000));
#28 = CARTESIAN_POINT('',(-4.900000,3.900000,10.000000));
#29 = POLY_LOOP('',(#25,#26,#27,#28));
#30 = FACE_OUTER_BOUND('',#29,.T.);
#31 = DIRECTION('',(0.000000,0.000000,1.000000));
#32 = DIRECTION('',(0.000000,-1.000000,0.000000));
#33 = AXIS2_PLACEMENT_3D('',#25,#31,#32);
#34 = PLANE('',#33);
#35 = FACE_SURFACE('',(#30),#34,.T.);
#36 = POLY_LOOP('',(#17,#16,#26,#25));
#37 = FACE_OUTER_BOUND('',#36,.T.);
#38 = DIRECTION('',(0.000000,-1.000000,0.000000));
#39 = DIRECTION('',(0.000000,0.000000,-1.000000));
#40 = AXIS2_PLACEMENT_3D('',#17,#38,#39);
#41 = PLANE('',#40);
#42 = FACE_SURFACE('',(#37),#41,.T.);
#43 = POLY_LOOP('',(#16,#15,#27,#26));
#44 = FACE_OUTER_BOUND('',#43,.T.);
#45 = DIRECTION('',(1.000000,-0.000000,0.000000));
#46 = DIRECTION('',(0.000000,0.000000,-1.000000));
#47 = AXIS2_PLACEMENT_3D('',#16,#45,#46);
#48 = PLANE('',#47);
#49 = FACE_SURFACE('',(#44),#48,.T.);
#50 = POLY_LOOP('',(#15,#14,#28,#27));
#51 = FACE_OUTER_BOUND('',#50,.T.);
#52 = DIRECTION('',(0.000000,1.000000,0.000000));
#53 = DIRECTION('',(0.000000,0.000000,1.000000));
#54 = AXIS2_PLACEMENT_3D('',#15,#52,#53);
#55 = PLANE('',#54);
#56 = FACE_SURFACE('',(#51),#55,.T.);
#57 = POLY_LOOP('',(#14,#17,#25,#28));
#58 = FACE_OUTER_BOUND('',#57,.T.);
#59 = DIRECTION('',(-1.000000,-0.000000,0.000000));
#60 = DIRECTION('',(0.000000,-0.000000,1.000000));
#61 = AXIS2_PLACEMENT_3D('',#14,#59,#60);
#62 = PLANE('',#61);
#63 = FACE_SURFACE('',(#58),#62,.T.);
#64 = CLOSED_SHELL('',(#24,#35,#42,#49,#56,#63));
#65 = FACETED_BREP('DIN42802_1p5mm_Socket',#64);
#66 = PRODUCT('DIN42802_1p5mm_Socket','DIN42802_1p5mm_Socket','',(#12));
#67 = PRODUCT_DEFINITION_FORMATION('','',#66);
#68 = PRODUCT_DEFINITION('design','',#67,#13);
#69 = PRODUCT_DEFINITION_SHAPE('','',#68);
#70 = ADVANCED_BREP_SHAPE_REPRESENTATION('DIN42802_1p5mm_Socket',(#4,#65),#9);
#71 = SHAPE_DEFINITION_REPRESENTATION(#69,#70);
ENDSEC;
END-ISO-10303-21;
