%TF.GenerationSoftware,TI One Voice,package_v2.4/tools/wh_bus.py,1.0*%
%TF.CreationDate,2026-09-01T00:00:00+01:00*%
%TF.ProjectId,WH-BUS-01,c3cf5ea6af784cfb9426ae3736373a09,A*%
%TF.FileFunction,Legend,Top*%
%TF.FilePolarity,Positive*%
%TF.SameCoordinates,Original*%
%FSLAX46Y46*%
%MOMM*%
G04 Silkscreen Top*
G04 WH-BUS-01 Rev A -- TI One Voice research programme*
G04 Licence CC BY-SA 4.0*
G01*
G75*
%LPD*%
%TA.AperFunction,Material*%
%ADD10C,0.150000*%
%TD*%
D10*
X1530000Y8635000D02*
X1665000Y8500000D01*
X1935000Y8500000D01*
X2070000Y8635000D01*
X2070000Y9265000D01*
X1935000Y9400000D01*
X1665000Y9400000D01*
X1530000Y9265000D01*
X1530000Y9085000D01*
X1665000Y8950000D01*
X1935000Y8950000D01*
X2070000Y9085000D01*
X4320000Y9220000D02*
X4500000Y9400000D01*
X4500000Y8500000D01*
X4275000Y8500000D02*
X4725000Y8500000D01*
X6930000Y9265000D02*
X7065000Y9400000D01*
X7335000Y9400000D01*
X7470000Y9265000D01*
X7470000Y9085000D01*
X6930000Y8635000D01*
X6930000Y8500000D01*
X7470000Y8500000D01*
X9630000Y9400000D02*
X10170000Y9400000D01*
X9855000Y8995000D01*
X9855000Y8995000D02*
X10035000Y8995000D01*
X10170000Y8860000D01*
X10170000Y8635000D01*
X10035000Y8500000D01*
X9765000Y8500000D01*
X9630000Y8635000D01*
X12735000Y8500000D02*
X12735000Y9400000D01*
X12330000Y8770000D01*
X12870000Y8770000D01*
X3850000Y6200000D02*
X3985000Y5300000D01*
X4120000Y5840000D01*
X4255000Y5300000D01*
X4390000Y6200000D01*
X4570000Y5300000D02*
X4570000Y6200000D01*
X5110000Y5300000D02*
X5110000Y6200000D01*
X4570000Y5750000D02*
X5110000Y5750000D01*
X5335000Y5750000D02*
X5785000Y5750000D01*
X6010000Y5300000D02*
X6010000Y6200000D01*
X6415000Y6200000D01*
X6550000Y6065000D01*
X6550000Y5885000D01*
X6415000Y5750000D01*
X6010000Y5750000D01*
X6415000Y5750000D02*
X6550000Y5615000D01*
X6550000Y5435000D01*
X6415000Y5300000D01*
X6010000Y5300000D01*
X6730000Y6200000D02*
X6730000Y5435000D01*
X6865000Y5300000D01*
X7135000Y5300000D01*
X7270000Y5435000D01*
X7270000Y6200000D01*
X7990000Y6065000D02*
X7855000Y6200000D01*
X7585000Y6200000D01*
X7450000Y6065000D01*
X7450000Y5840000D01*
X7585000Y5750000D01*
X7855000Y5750000D01*
X7990000Y5660000D01*
X7990000Y5435000D01*
X7855000Y5300000D01*
X7585000Y5300000D01*
X7450000Y5435000D01*
X8215000Y5750000D02*
X8665000Y5750000D01*
X9025000Y5300000D02*
X9295000Y5300000D01*
X9430000Y5435000D01*
X9430000Y6065000D01*
X9295000Y6200000D01*
X9025000Y6200000D01*
X8890000Y6065000D01*
X8890000Y5435000D01*
X9025000Y5300000D01*
X9430000Y6065000D02*
X8890000Y5435000D01*
X9700000Y6020000D02*
X9880000Y6200000D01*
X9880000Y5300000D01*
X9655000Y5300000D02*
X10105000Y5300000D01*
X1320000Y4070000D02*
X1440000Y3950000D01*
X1680000Y3950000D01*
X1800000Y4070000D01*
X1800000Y4630000D01*
X1680000Y4750000D01*
X1440000Y4750000D01*
X1320000Y4630000D01*
X1320000Y4470000D01*
X1440000Y4350000D01*
X1680000Y4350000D01*
X1800000Y4470000D01*
X2000000Y4230000D02*
X2400000Y4230000D01*
X2000000Y4470000D02*
X2400000Y4470000D01*
X2600000Y4750000D02*
X2600000Y3950000D01*
X3080000Y3950000D01*
X3720000Y4750000D02*
X3240000Y4750000D01*
X3240000Y3950000D01*
X3720000Y3950000D01*
X3240000Y4350000D02*
X3600000Y4350000D01*
X3880000Y3950000D02*
X3880000Y4750000D01*
X4200000Y4750000D01*
X4360000Y4590000D01*
X4360000Y4110000D01*
X4200000Y3950000D01*
X3880000Y3950000D01*
X4520000Y3950000D02*
X5000000Y3950000D01*
X5160000Y4750000D02*
X5400000Y3950000D01*
X5640000Y4750000D01*
X6520000Y4590000D02*
X6680000Y4750000D01*
X6680000Y3950000D01*
X6480000Y3950000D02*
X6880000Y3950000D01*
X7200000Y3950000D02*
X7440000Y3950000D01*
X7560000Y4070000D01*
X7560000Y4630000D01*
X7440000Y4750000D01*
X7200000Y4750000D01*
X7080000Y4630000D01*
X7080000Y4070000D01*
X7200000Y3950000D01*
X7560000Y4630000D02*
X7080000Y4070000D01*
X7760000Y4230000D02*
X8160000Y4230000D01*
X7760000Y4470000D02*
X8160000Y4470000D01*
X8360000Y4750000D02*
X8360000Y3950000D01*
X8840000Y3950000D01*
X9480000Y4750000D02*
X9000000Y4750000D01*
X9000000Y3950000D01*
X9480000Y3950000D01*
X9000000Y4350000D02*
X9360000Y4350000D01*
X9640000Y3950000D02*
X9640000Y4750000D01*
X9960000Y4750000D01*
X10120000Y4590000D01*
X10120000Y4110000D01*
X9960000Y3950000D01*
X9640000Y3950000D01*
X10280000Y3950000D02*
X10760000Y3950000D01*
X11400000Y4630000D02*
X11280000Y4750000D01*
X11040000Y4750000D01*
X10920000Y4630000D01*
X10920000Y4070000D01*
X11040000Y3950000D01*
X11280000Y3950000D01*
X11400000Y4070000D01*
X11400000Y4310000D01*
X11160000Y4310000D01*
X11560000Y3950000D02*
X11560000Y4750000D01*
X12040000Y3950000D01*
X12040000Y4750000D01*
X12200000Y3950000D02*
X12200000Y4750000D01*
X12520000Y4750000D01*
X12680000Y4590000D01*
X12680000Y4110000D01*
X12520000Y3950000D01*
X12200000Y3950000D01*
X1260000Y1120000D02*
X1440000Y1300000D01*
X1440000Y400000D01*
X1215000Y400000D02*
X1665000Y400000D01*
X2025000Y400000D02*
X2295000Y400000D01*
X2430000Y535000D01*
X2430000Y1165000D01*
X2295000Y1300000D01*
X2025000Y1300000D01*
X1890000Y1165000D01*
X1890000Y535000D01*
X2025000Y400000D01*
X2430000Y1165000D02*
X1890000Y535000D01*
X4770000Y1300000D02*
X4230000Y1300000D01*
X4230000Y895000D01*
X4635000Y895000D01*
X4770000Y760000D01*
X4770000Y535000D01*
X4635000Y400000D01*
X4365000Y400000D01*
X4230000Y535000D01*
X7470000Y1165000D02*
X7335000Y1300000D01*
X7065000Y1300000D01*
X6930000Y1165000D01*
X6930000Y535000D01*
X7065000Y400000D01*
X7335000Y400000D01*
X7470000Y535000D01*
X7470000Y715000D01*
X7335000Y850000D01*
X7065000Y850000D01*
X6930000Y715000D01*
X9630000Y1300000D02*
X10170000Y1300000D01*
X9810000Y400000D01*
X12465000Y850000D02*
X12330000Y985000D01*
X12330000Y1165000D01*
X12465000Y1300000D01*
X12735000Y1300000D01*
X12870000Y1165000D01*
X12870000Y985000D01*
X12735000Y850000D01*
X12465000Y850000D01*
X12330000Y715000D01*
X12330000Y535000D01*
X12465000Y400000D01*
X12735000Y400000D01*
X12870000Y535000D01*
X12870000Y715000D01*
X12735000Y850000D01*
M02*
