%TF.GenerationSoftware,TI One Voice,package_v2.4/tools/gerber.py,1.0*%
%TF.CreationDate,2026-09-02T00:00:00+01:00*%
%TF.ProjectId,EEG-CAR-01,862e7331a2a69f3411479984413f8b7b,B*%
%TF.FileFunction,Legend,Bot*%
%TF.FilePolarity,Positive*%
%TF.SameCoordinates,Original*%
%FSLAX46Y46*%
%MOMM*%
G04 Silkscreen Bot*
G04 EEG-CAR-01 Rev B -- TI One Voice research programme*
G04 Licence CC BY-SA 4.0*
G01*
G75*
%LPD*%
%TA.AperFunction,Material*%
%ADD10C,0.240000*%
%TD*%
%TA.AperFunction,Material*%
%ADD11C,0.150000*%
%TD*%
%TA.AperFunction,Material*%
%ADD12C,0.210000*%
%TD*%
D10*
X60994286Y10600000D02*
X61817143Y10600000D01*
X61817143Y9000000D01*
X60994286Y9000000D01*
X61817143Y9845714D02*
X61177143Y9845714D01*
X59622857Y10600000D02*
X60445714Y10600000D01*
X60445714Y9000000D01*
X59622857Y9000000D01*
X60445714Y9845714D02*
X59805714Y9845714D01*
X58251429Y10371429D02*
X58480000Y10600000D01*
X58868571Y10600000D01*
X59120000Y10302857D01*
X59120000Y9297143D01*
X58868571Y9000000D01*
X58480000Y9000000D01*
X58251429Y9274286D01*
X58251429Y9731429D01*
X58640000Y9731429D01*
X57771429Y9800000D02*
X56857143Y9800000D01*
X55508571Y10371429D02*
X55737143Y10600000D01*
X56125714Y10600000D01*
X56377143Y10302857D01*
X56377143Y9297143D01*
X56125714Y9000000D01*
X55737143Y9000000D01*
X55508571Y9228571D01*
X55028571Y9000000D02*
X54571429Y10600000D01*
X54114286Y9000000D01*
X54845714Y9594286D02*
X54297143Y9594286D01*
X53588571Y9000000D02*
X53588571Y10600000D01*
X52994286Y10600000D01*
X52765714Y10371429D01*
X52765714Y10051429D01*
X52994286Y9822857D01*
X53588571Y9822857D01*
X53177143Y9822857D02*
X52742857Y9000000D01*
X52285714Y9800000D02*
X51371429Y9800000D01*
X50891429Y9320000D02*
X50891429Y10280000D01*
X50662857Y10600000D01*
X50251429Y10600000D01*
X50022857Y10280000D01*
X50022857Y9320000D01*
X50251429Y9000000D01*
X50662857Y9000000D01*
X50891429Y9320000D01*
X50754286Y9274286D02*
X50160000Y10325714D01*
X49337143Y10280000D02*
X49085714Y10600000D01*
X49085714Y9000000D01*
X49382857Y9000000D02*
X48788571Y9000000D01*
X46731429Y9000000D02*
X46731429Y10600000D01*
X46137143Y10600000D01*
X45908571Y10371429D01*
X45908571Y10051429D01*
X46137143Y9822857D01*
X46731429Y9822857D01*
X46320000Y9822857D02*
X45885714Y9000000D01*
X44537143Y10600000D02*
X45360000Y10600000D01*
X45360000Y9000000D01*
X44537143Y9000000D01*
X45360000Y9845714D02*
X44720000Y9845714D01*
X44057143Y10600000D02*
X43600000Y9000000D01*
X43142857Y10600000D01*
X41245714Y9000000D02*
X41245714Y10600000D01*
X40651429Y10600000D01*
X40422857Y10371429D01*
X40422857Y10097143D01*
X40651429Y9868571D01*
X41245714Y9868571D01*
X40651429Y9868571D02*
X40400000Y9617143D01*
X40400000Y9251429D01*
X40651429Y9000000D01*
X41245714Y9000000D01*
D11*
X61914286Y7200000D02*
X61914286Y7800000D01*
X61757143Y8000000D01*
X61514286Y8000000D01*
X61371429Y7800000D01*
X61371429Y7200000D01*
X61514286Y7000000D01*
X61757143Y7000000D01*
X61914286Y7200000D01*
X61028571Y7000000D02*
X61028571Y8000000D01*
X60514286Y7000000D01*
X60514286Y8000000D01*
X59657143Y8000000D02*
X60171429Y8000000D01*
X60171429Y7000000D01*
X59657143Y7000000D01*
X60171429Y7528571D02*
X59771429Y7528571D01*
X59142857Y7000000D02*
X59057143Y7000000D01*
X58514286Y8000000D02*
X58371429Y7000000D01*
X58214286Y7600000D01*
X58057143Y7000000D01*
X57914286Y8000000D01*
X57542857Y8000000D02*
X57171429Y8000000D01*
X57357143Y8000000D02*
X57357143Y7000000D01*
X57542857Y7000000D02*
X57171429Y7000000D01*
X56785714Y8000000D02*
X56214286Y8000000D01*
X56500000Y8000000D02*
X56500000Y7000000D01*
X55914286Y8000000D02*
X55642857Y7485714D01*
X55371429Y8000000D01*
X55642857Y7485714D02*
X55642857Y7000000D01*
X54528571Y7885714D02*
X54685714Y8000000D01*
X54914286Y8000000D01*
X55057143Y7857143D01*
X55057143Y7657143D01*
X54914286Y7542857D01*
X54657143Y7514286D01*
X54514286Y7371429D01*
X54514286Y7142857D01*
X54657143Y7000000D01*
X54914286Y7000000D01*
X55057143Y7114286D01*
X54171429Y8000000D02*
X54171429Y7000000D01*
X53657143Y8000000D02*
X54171429Y7457143D01*
X54000000Y7628571D02*
X53642857Y7000000D01*
X53142857Y7000000D02*
X53057143Y7000000D01*
X52485714Y7200000D02*
X52485714Y7800000D01*
X52328571Y8000000D01*
X52085714Y8000000D01*
X51942857Y7800000D01*
X51942857Y7200000D01*
X52085714Y7000000D01*
X52328571Y7000000D01*
X52485714Y7200000D01*
X51600000Y7000000D02*
X51600000Y8000000D01*
X51228571Y8000000D01*
X51085714Y7857143D01*
X51085714Y7657143D01*
X51228571Y7514286D01*
X51600000Y7514286D01*
X51342857Y7514286D02*
X51071429Y7000000D01*
X50228571Y7857143D02*
X50371429Y8000000D01*
X50614286Y8000000D01*
X50771429Y7814286D01*
X50771429Y7185714D01*
X50614286Y7000000D01*
X50371429Y7000000D01*
X50228571Y7171429D01*
X50228571Y7457143D01*
X50471429Y7457143D01*
D12*
X19140000Y10240000D02*
X19360000Y10400000D01*
X19680000Y10400000D01*
X19880000Y10200000D01*
X19880000Y9920000D01*
X19680000Y9760000D01*
X19320000Y9720000D01*
X19120000Y9520000D01*
X19120000Y9200000D01*
X19320000Y9000000D01*
X19680000Y9000000D01*
X19880000Y9160000D01*
X18640000Y9000000D02*
X18640000Y10400000D01*
X17920000Y9000000D01*
X17920000Y10400000D01*
M02*
