%TF.GenerationSoftware,TI One Voice,package_v2.4/tools/gerber.py,1.0*%
%TF.CreationDate,2026-09-02T00:00:00+01:00*%
%TF.ProjectId,EEG-CAR-01,862e7331a2a69f3411479984413f8b7b,B*%
%TF.FileFunction,Copper,L4,Bot,Signal*%
%TF.FilePolarity,Positive*%
%TF.SameCoordinates,Original*%
%FSLAX46Y46*%
%MOMM*%
G04 B.Cu copper*
G04 EEG-CAR-01 Rev B -- TI One Voice research programme*
G04 Licence CC BY-SA 4.0*
G01*
G75*
%LPD*%
%TA.AperFunction,Conductor*%
%ADD10C,0.300000*%
%TD*%
%TA.AperFunction,Conductor*%
%ADD11C,0.250000*%
%TD*%
%TA.AperFunction,Conductor*%
%ADD12C,0.200000*%
%TD*%
%TA.AperFunction,Conductor*%
%ADD13C,0.800000*%
%TD*%
%TA.AperFunction,Conductor*%
%ADD14C,0.560000*%
%TD*%
%TA.AperFunction,Conductor*%
%ADD15C,0.400000*%
%TD*%
%TA.AperFunction,Conductor*%
%ADD16C,0.280000*%
%TD*%
%TA.AperFunction,ComponentPad*%
%ADD17R,1.600000X1.600000*%
%TD*%
%TA.AperFunction,ComponentPad*%
%ADD18C,1.600000*%
%TD*%
%TA.AperFunction,ComponentPad*%
%ADD19R,1.700000X1.700000*%
%TD*%
%TA.AperFunction,ComponentPad*%
%ADD20C,1.700000*%
%TD*%
%TA.AperFunction,ComponentPad*%
%ADD21C,2.600000*%
%TD*%
%TA.AperFunction,ComponentPad*%
%ADD22C,2.000000*%
%TD*%
%TA.AperFunction,ViaPad*%
%ADD23C,0.600000*%
%TD*%
D10*
X20100000Y57200000D02*
X19300000Y58000000D01*
X19300000Y58000000D02*
X17400000Y58000000D01*
X17400000Y58000000D02*
X16100000Y59300000D01*
X19900000Y78500000D02*
X18000000Y78500000D01*
X18000000Y78500000D02*
X17600000Y78100000D01*
X30800000Y79200000D02*
X30900000Y79300000D01*
X30900000Y79300000D02*
X40300000Y79300000D01*
X26900000Y73800000D02*
X24200000Y73800000D01*
X30800000Y76300000D02*
X30900000Y76400000D01*
X30900000Y76400000D02*
X37200000Y76400000D01*
X37200000Y76400000D02*
X37400000Y76600000D01*
X37400000Y76600000D02*
X40100000Y76600000D01*
X40100000Y76600000D02*
X40300000Y76800000D01*
X30800000Y72000000D02*
X30900000Y72100000D01*
X30900000Y72100000D02*
X34800000Y72100000D01*
X34800000Y72100000D02*
X36700000Y74000000D01*
X36700000Y74000000D02*
X40100000Y74000000D01*
X40100000Y74000000D02*
X40300000Y74200000D01*
X19900000Y65600000D02*
X17900000Y65600000D01*
X17900000Y65600000D02*
X17500000Y65200000D01*
X32000000Y63600000D02*
X37800000Y63600000D01*
X37800000Y63600000D02*
X38200000Y64000000D01*
X38200000Y64000000D02*
X40200000Y64000000D01*
X40200000Y64000000D02*
X40300000Y64100000D01*
X33900000Y61700000D02*
X40300000Y61700000D01*
D11*
X41700000Y71700000D02*
X43900000Y69500000D01*
X40300000Y66600000D02*
X40200000Y66500000D01*
X40200000Y66500000D02*
X31400000Y66500000D01*
X31400000Y66500000D02*
X30100000Y65200000D01*
X30100000Y65200000D02*
X30100000Y65100000D01*
X30100000Y65100000D02*
X30000000Y65000000D01*
X30000000Y65000000D02*
X30000000Y64300000D01*
X30000000Y64300000D02*
X31600000Y62700000D01*
X31600000Y62700000D02*
X31600000Y61000000D01*
X31600000Y61000000D02*
X31700000Y60900000D01*
X31700000Y60900000D02*
X31700000Y60800000D01*
X31700000Y60800000D02*
X31800000Y60700000D01*
X17600000Y52700000D02*
X20300000Y52700000D01*
X35300000Y51800000D02*
X36800000Y51800000D01*
X34400000Y54100000D02*
X35900000Y54100000D01*
X21700000Y50900000D02*
X17000000Y50900000D01*
X35300000Y47900000D02*
X36800000Y47900000D01*
D12*
X33500000Y48600000D02*
X33600000Y48600000D01*
X33600000Y48600000D02*
X35000000Y47200000D01*
X35000000Y47200000D02*
X36600000Y47200000D01*
X36600000Y47200000D02*
X36800000Y47000000D01*
D11*
X30800000Y47100000D02*
X33100000Y49400000D01*
X33100000Y49400000D02*
X33200000Y49400000D01*
X33200000Y49400000D02*
X33300000Y49500000D01*
X33300000Y49500000D02*
X34200000Y49500000D01*
X35300000Y49100000D02*
X36800000Y49100000D01*
X15600000Y45200000D02*
X16900000Y45200000D01*
X16900000Y45200000D02*
X17500000Y45800000D01*
X17500000Y45800000D02*
X17600000Y45800000D01*
X17600000Y45800000D02*
X17700000Y45900000D01*
X17700000Y45900000D02*
X24700000Y45900000D01*
X24700000Y45900000D02*
X24900000Y46100000D01*
X24900000Y46100000D02*
X37700000Y46100000D01*
X37700000Y46100000D02*
X40200000Y48600000D01*
X42600000Y48600000D02*
X47000000Y48600000D01*
X42900000Y43200000D02*
X46300000Y43200000D01*
X46300000Y43200000D02*
X47000000Y43900000D01*
X33700000Y44400000D02*
X33800000Y44300000D01*
X33800000Y44300000D02*
X35500000Y44300000D01*
X35500000Y44300000D02*
X35600000Y44200000D01*
X35600000Y44200000D02*
X35700000Y44200000D01*
X35700000Y44200000D02*
X35800000Y44100000D01*
X35800000Y44100000D02*
X36900000Y44100000D01*
X36900000Y44100000D02*
X42200000Y49400000D01*
X42200000Y49400000D02*
X42300000Y49400000D01*
X42300000Y49400000D02*
X42400000Y49500000D01*
X42400000Y49500000D02*
X45100000Y49500000D01*
X45100000Y49500000D02*
X45200000Y49400000D01*
X45200000Y49400000D02*
X46700000Y49400000D01*
X46700000Y49400000D02*
X46800000Y49500000D01*
X46800000Y49500000D02*
X47000000Y49500000D01*
X33900000Y36100000D02*
X35400000Y34600000D01*
X31100000Y34500000D02*
X33500000Y36900000D01*
X33500000Y36900000D02*
X33600000Y36900000D01*
X33600000Y36900000D02*
X33700000Y37000000D01*
X33700000Y37000000D02*
X34200000Y37000000D01*
X26000000Y36600000D02*
X27500000Y38100000D01*
X42600000Y36600000D02*
X47000000Y36600000D01*
X45700000Y31900000D02*
X46000000Y31900000D01*
X46000000Y31900000D02*
X47000000Y32900000D01*
X33700000Y32600000D02*
X35200000Y32600000D01*
X35200000Y32600000D02*
X35600000Y32200000D01*
X35600000Y32200000D02*
X35700000Y32200000D01*
X35700000Y32200000D02*
X35800000Y32100000D01*
X35800000Y32100000D02*
X36300000Y32100000D01*
X36300000Y32100000D02*
X41100000Y36900000D01*
X41100000Y36900000D02*
X41700000Y36900000D01*
X41700000Y36900000D02*
X42200000Y37400000D01*
X42200000Y37400000D02*
X42300000Y37400000D01*
X42300000Y37400000D02*
X42400000Y37500000D01*
X42400000Y37500000D02*
X45100000Y37500000D01*
X45100000Y37500000D02*
X45200000Y37400000D01*
X45200000Y37400000D02*
X46700000Y37400000D01*
X46700000Y37400000D02*
X46800000Y37500000D01*
X46800000Y37500000D02*
X47000000Y37500000D01*
X33900000Y24100000D02*
X35400000Y22600000D01*
X31100000Y22500000D02*
X33500000Y24900000D01*
X33500000Y24900000D02*
X33600000Y24900000D01*
X33600000Y24900000D02*
X33700000Y25000000D01*
X33700000Y25000000D02*
X34200000Y25000000D01*
X24200000Y23800000D02*
X25700000Y25300000D01*
X42600000Y24600000D02*
X45900000Y24600000D01*
X33700000Y20600000D02*
X35200000Y20600000D01*
X35200000Y20600000D02*
X35600000Y20200000D01*
X35600000Y20200000D02*
X35700000Y20200000D01*
X35700000Y20200000D02*
X35800000Y20100000D01*
X35800000Y20100000D02*
X36300000Y20100000D01*
X36300000Y20100000D02*
X41100000Y24900000D01*
X41100000Y24900000D02*
X41700000Y24900000D01*
X41700000Y24900000D02*
X42200000Y25400000D01*
X42200000Y25400000D02*
X42300000Y25400000D01*
X42300000Y25400000D02*
X42400000Y25500000D01*
X42400000Y25500000D02*
X45100000Y25500000D01*
X45100000Y25500000D02*
X45200000Y25400000D01*
X45200000Y25400000D02*
X45600000Y25400000D01*
X45600000Y25400000D02*
X45700000Y25500000D01*
X45700000Y25500000D02*
X45900000Y25500000D01*
X89000000Y64000000D02*
X82300000Y57300000D01*
X82300000Y57300000D02*
X82300000Y57200000D01*
X82300000Y57200000D02*
X78700000Y53600000D01*
X89900000Y66000000D02*
X89800000Y65900000D01*
X89800000Y65900000D02*
X89800000Y63700000D01*
X89800000Y63700000D02*
X84900000Y58800000D01*
X84900000Y58800000D02*
X84900000Y57300000D01*
X84900000Y57300000D02*
X78700000Y51100000D01*
X104200000Y88300000D02*
X104100000Y88200000D01*
X104100000Y88200000D02*
X104100000Y88100000D01*
X104100000Y88100000D02*
X94400000Y78400000D01*
X94400000Y78400000D02*
X94400000Y64700000D01*
X94400000Y64700000D02*
X88700000Y59000000D01*
X88700000Y59000000D02*
X88700000Y58500000D01*
X88700000Y58500000D02*
X78700000Y48500000D01*
X104200000Y83200000D02*
X102200000Y83200000D01*
X85400000Y67600000D02*
X85300000Y67500000D01*
X85300000Y67500000D02*
X85200000Y67500000D01*
X85200000Y67500000D02*
X76700000Y59000000D01*
X76700000Y59000000D02*
X76700000Y51200000D01*
X76700000Y51200000D02*
X73200000Y47700000D01*
X73200000Y47700000D02*
X73200000Y21200000D01*
X77300000Y44600000D02*
X77200000Y44500000D01*
X77200000Y44500000D02*
X77200000Y44300000D01*
X77200000Y44300000D02*
X76700000Y43800000D01*
X76700000Y43800000D02*
X76700000Y33500000D01*
X76700000Y33500000D02*
X74800000Y31600000D01*
X74800000Y31600000D02*
X74800000Y19600000D01*
X79200000Y17700000D02*
X79300000Y17800000D01*
X79300000Y17800000D02*
X79300000Y41500000D01*
X79300000Y41500000D02*
X78700000Y42100000D01*
X77300000Y21700000D02*
X77200000Y21600000D01*
X77200000Y21600000D02*
X77200000Y21400000D01*
X77200000Y21400000D02*
X76700000Y20900000D01*
X76700000Y20900000D02*
X76700000Y20400000D01*
X76700000Y20400000D02*
X75100000Y18800000D01*
X75100000Y18800000D02*
X74500000Y18800000D01*
X74500000Y18800000D02*
X72400000Y20900000D01*
X72400000Y20900000D02*
X72400000Y21000000D01*
X72400000Y21000000D02*
X72200000Y21200000D01*
X66700000Y39900000D02*
X72200000Y39900000D01*
X66700000Y37500000D02*
X72200000Y37500000D01*
X66700000Y34600000D02*
X72200000Y34600000D01*
X66700000Y31700000D02*
X68100000Y31700000D01*
X66700000Y29500000D02*
X72200000Y29500000D01*
X66700000Y27200000D02*
X72200000Y27200000D01*
X66700000Y24700000D02*
X72200000Y24700000D01*
X66700000Y22300000D02*
X72200000Y22300000D01*
X81300000Y95900000D02*
X80000000Y94600000D01*
X89300000Y49700000D02*
X89200000Y49600000D01*
X89200000Y49600000D02*
X89200000Y49400000D01*
X89200000Y49400000D02*
X88700000Y48900000D01*
X88700000Y48900000D02*
X88700000Y17800000D01*
X81300000Y93400000D02*
X79300000Y91400000D01*
X90700000Y47100000D02*
X90800000Y47000000D01*
X90800000Y47000000D02*
X90800000Y46800000D01*
X90800000Y46800000D02*
X91300000Y46300000D01*
X91300000Y46300000D02*
X91300000Y17600000D01*
X91300000Y17600000D02*
X91100000Y17400000D01*
X84000000Y68800000D02*
X84000000Y67400000D01*
X84000000Y67400000D02*
X83600000Y67000000D01*
X82700000Y85700000D02*
X82800000Y85600000D01*
X82800000Y85600000D02*
X82800000Y85400000D01*
X82800000Y85400000D02*
X83300000Y84900000D01*
X83300000Y84900000D02*
X83300000Y76000000D01*
X83300000Y76000000D02*
X86200000Y73100000D01*
X86200000Y73100000D02*
X86200000Y62300000D01*
X86200000Y62300000D02*
X80300000Y56400000D01*
X78500000Y77200000D02*
X81300000Y74400000D01*
X81300000Y73000000D02*
X81200000Y72900000D01*
X81200000Y72900000D02*
X81200000Y72700000D01*
X81200000Y72700000D02*
X80700000Y72200000D01*
X80700000Y72200000D02*
X80700000Y67600000D01*
X80700000Y67600000D02*
X81400000Y66900000D01*
X87700000Y56300000D02*
X87700000Y17800000D01*
X66700000Y82200000D02*
X66800000Y82100000D01*
X66800000Y82100000D02*
X77200000Y82100000D01*
X77200000Y82100000D02*
X79600000Y79700000D01*
X79600000Y79700000D02*
X81100000Y79700000D01*
X81100000Y79700000D02*
X81300000Y79500000D01*
X81300000Y78100000D02*
X81200000Y78000000D01*
X81200000Y78000000D02*
X78200000Y78000000D01*
X78200000Y78000000D02*
X77700000Y77500000D01*
X77700000Y77500000D02*
X77700000Y69500000D01*
X77700000Y69500000D02*
X76200000Y68000000D01*
X76200000Y68000000D02*
X76200000Y59400000D01*
X76200000Y59400000D02*
X76100000Y59300000D01*
X76100000Y59300000D02*
X76100000Y52400000D01*
X76100000Y52400000D02*
X64600000Y40900000D01*
X65300000Y115700000D02*
X65200000Y115600000D01*
X65200000Y115600000D02*
X65200000Y115400000D01*
X65200000Y115400000D02*
X64700000Y114900000D01*
X64700000Y114900000D02*
X64700000Y81700000D01*
X64700000Y81700000D02*
X65300000Y81100000D01*
X71800000Y82800000D02*
X76400000Y82800000D01*
X76400000Y82800000D02*
X76500000Y82700000D01*
X76500000Y82700000D02*
X80700000Y82700000D01*
X80700000Y82700000D02*
X81300000Y82100000D01*
X63900000Y42400000D02*
X63800000Y42300000D01*
X63800000Y42300000D02*
X63800000Y25200000D01*
X63800000Y25200000D02*
X64700000Y24300000D01*
X64700000Y24300000D02*
X64700000Y15900000D01*
X64700000Y15900000D02*
X64900000Y15700000D01*
X84600000Y73600000D02*
X84600000Y73700000D01*
X84600000Y73700000D02*
X82700000Y75600000D01*
X82700000Y75600000D02*
X82800000Y75500000D01*
X82800000Y75500000D02*
X82800000Y75400000D01*
X82800000Y75400000D02*
X84600000Y73600000D01*
X86900000Y70200000D02*
X86900000Y70100000D01*
X86900000Y70100000D02*
X90700000Y66300000D01*
X90700000Y66300000D02*
X90700000Y62000000D01*
X90700000Y62000000D02*
X80200000Y51500000D01*
X80100000Y19300000D02*
X80100000Y17800000D01*
X66700000Y108100000D02*
X66800000Y108000000D01*
X66800000Y108000000D02*
X66800000Y107900000D01*
X66800000Y107900000D02*
X76500000Y98200000D01*
X76500000Y98200000D02*
X76500000Y89400000D01*
X76500000Y89400000D02*
X81300000Y84600000D01*
X81300000Y83400000D02*
X78600000Y83400000D01*
X75400000Y81400000D02*
X74600000Y81400000D01*
X74600000Y81400000D02*
X66700000Y73500000D01*
X66700000Y105500000D02*
X68000000Y105500000D01*
X66700000Y105600000D02*
X68000000Y105600000D01*
X67500000Y113700000D02*
X67400000Y113800000D01*
X67400000Y113800000D02*
X67400000Y124900000D01*
X67400000Y124900000D02*
X67000000Y125300000D01*
X67000000Y125300000D02*
X65000000Y125300000D01*
X65000000Y125300000D02*
X64700000Y125000000D01*
X64700000Y125000000D02*
X64700000Y116000000D01*
X64700000Y116000000D02*
X64600000Y115900000D01*
X64600000Y115900000D02*
X64600000Y115700000D01*
X64600000Y115700000D02*
X64100000Y115200000D01*
X64100000Y115200000D02*
X64100000Y72100000D01*
X64100000Y72100000D02*
X65300000Y70900000D01*
X66700000Y103000000D02*
X68000000Y103000000D01*
X66700000Y104400000D02*
X68000000Y104400000D01*
X71000000Y104800000D02*
X71000000Y105800000D01*
X71000000Y105800000D02*
X70700000Y106100000D01*
X70700000Y106100000D02*
X70700000Y115600000D01*
X70700000Y115600000D02*
X70600000Y115700000D01*
X63900000Y69800000D02*
X65300000Y68400000D01*
X66700000Y101800000D02*
X66800000Y101900000D01*
X66800000Y101900000D02*
X68000000Y101900000D01*
X68000000Y101900000D02*
X69800000Y103700000D01*
X72000000Y104700000D02*
X72100000Y104800000D01*
X72100000Y104800000D02*
X72100000Y114100000D01*
X72100000Y114100000D02*
X73300000Y115300000D01*
X73300000Y115300000D02*
X73300000Y120200000D01*
X73300000Y120200000D02*
X72700000Y120800000D01*
X73300000Y115300000D02*
X73300000Y120000000D01*
X73300000Y120000000D02*
X73000000Y120300000D01*
X73000000Y120300000D02*
X72900000Y120300000D01*
X72900000Y120300000D02*
X67300000Y125900000D01*
X67300000Y125900000D02*
X64700000Y125900000D01*
X64700000Y125900000D02*
X64100000Y125300000D01*
X64100000Y125300000D02*
X64100000Y116300000D01*
X64100000Y116300000D02*
X64000000Y116200000D01*
X64000000Y116200000D02*
X64000000Y116000000D01*
X64000000Y116000000D02*
X63500000Y115500000D01*
X63500000Y115500000D02*
X63500000Y112700000D01*
X63500000Y112700000D02*
X63100000Y112300000D01*
X63100000Y112300000D02*
X63100000Y68000000D01*
X63100000Y68000000D02*
X65300000Y65800000D01*
X78500000Y65500000D02*
X82100000Y65500000D01*
X88200000Y61000000D02*
X90000000Y62800000D01*
X67300000Y66400000D02*
X67300000Y59000000D01*
X67300000Y59000000D02*
X67000000Y58700000D01*
X67000000Y58700000D02*
X65000000Y58700000D01*
X65000000Y58700000D02*
X64000000Y59700000D01*
X130000000Y108000000D02*
X132900000Y108000000D01*
X132900000Y108000000D02*
X135300000Y105600000D01*
X102700000Y51400000D02*
X102600000Y51300000D01*
X102600000Y51300000D02*
X102500000Y51300000D01*
X102500000Y51300000D02*
X99300000Y48100000D01*
X127000000Y105000000D02*
X133400000Y105000000D01*
X133400000Y105000000D02*
X135300000Y103100000D01*
X136700000Y101700000D02*
X136800000Y101600000D01*
X136800000Y101600000D02*
X136800000Y97500000D01*
X136800000Y97500000D02*
X137300000Y97000000D01*
X137300000Y97000000D02*
X137300000Y84600000D01*
X137300000Y84600000D02*
X136700000Y84000000D01*
X103900000Y45400000D02*
X103800000Y45300000D01*
X103800000Y45300000D02*
X101800000Y45300000D01*
X105600000Y101000000D02*
X105700000Y100900000D01*
X105700000Y100900000D02*
X105700000Y100700000D01*
X105700000Y100700000D02*
X106200000Y100200000D01*
X106200000Y100200000D02*
X106200000Y99300000D01*
X106200000Y99300000D02*
X114700000Y90800000D01*
X114700000Y90800000D02*
X114700000Y77200000D01*
X114700000Y77200000D02*
X134600000Y57300000D01*
X134600000Y57300000D02*
X134600000Y54300000D01*
X134600000Y54300000D02*
X135300000Y53600000D01*
X105600000Y98400000D02*
X105700000Y98300000D01*
X105700000Y98300000D02*
X105700000Y98100000D01*
X105700000Y98100000D02*
X106200000Y97600000D01*
X106200000Y97600000D02*
X106200000Y95700000D01*
X106200000Y95700000D02*
X114000000Y87900000D01*
X114000000Y87900000D02*
X114000000Y74400000D01*
X114000000Y74400000D02*
X134000000Y54400000D01*
X134000000Y54400000D02*
X134000000Y52400000D01*
X134000000Y52400000D02*
X135300000Y51100000D01*
X105600000Y103500000D02*
X105700000Y103400000D01*
X105700000Y103400000D02*
X105700000Y103300000D01*
X105700000Y103300000D02*
X115400000Y93600000D01*
X115400000Y93600000D02*
X115400000Y92200000D01*
X115400000Y92200000D02*
X133600000Y74000000D01*
X14700000Y50200000D02*
X14700000Y44900000D01*
X14700000Y44900000D02*
X15200000Y44400000D01*
X15200000Y44400000D02*
X15300000Y44400000D01*
X15300000Y44400000D02*
X16400000Y43300000D01*
X16400000Y43300000D02*
X18100000Y43300000D01*
X18100000Y43300000D02*
X25600000Y35800000D01*
X25600000Y35800000D02*
X25700000Y35800000D01*
X25700000Y35800000D02*
X25800000Y35700000D01*
X25800000Y35700000D02*
X28700000Y35700000D01*
X28700000Y35700000D02*
X30700000Y33700000D01*
X30700000Y33700000D02*
X30800000Y33700000D01*
X30800000Y33700000D02*
X30900000Y33600000D01*
X30900000Y33600000D02*
X31500000Y33600000D01*
X31500000Y33600000D02*
X33300000Y31800000D01*
X33300000Y31800000D02*
X33400000Y31800000D01*
X33400000Y31800000D02*
X33500000Y31700000D01*
X33500000Y31700000D02*
X35100000Y31700000D01*
X35100000Y31700000D02*
X35200000Y31600000D01*
X35200000Y31600000D02*
X35300000Y31600000D01*
X35300000Y31600000D02*
X35400000Y31500000D01*
X35400000Y31500000D02*
X35500000Y31500000D01*
X35500000Y31500000D02*
X35600000Y31400000D01*
X35600000Y31400000D02*
X41600000Y31400000D01*
X41600000Y31400000D02*
X49800000Y23200000D01*
X49800000Y23200000D02*
X56200000Y23200000D01*
X56200000Y23200000D02*
X64500000Y14900000D01*
X64500000Y14900000D02*
X64600000Y14900000D01*
X64600000Y14900000D02*
X64700000Y14800000D01*
X64700000Y14800000D02*
X78300000Y14800000D01*
X78300000Y14800000D02*
X80900000Y17400000D01*
X80900000Y17400000D02*
X80900000Y17500000D01*
X80900000Y17500000D02*
X81000000Y17600000D01*
X81000000Y17600000D02*
X81000000Y19200000D01*
X20000000Y24800000D02*
X23100000Y21700000D01*
X23100000Y21700000D02*
X29700000Y21700000D01*
X29700000Y21700000D02*
X30300000Y21100000D01*
X30300000Y21100000D02*
X30400000Y21100000D01*
X30400000Y21100000D02*
X30500000Y21000000D01*
X30500000Y21000000D02*
X30600000Y21000000D01*
X30600000Y21000000D02*
X30700000Y20900000D01*
X30700000Y20900000D02*
X31200000Y20900000D01*
X31200000Y20900000D02*
X32900000Y19200000D01*
X32900000Y19200000D02*
X33000000Y19200000D01*
X33000000Y19200000D02*
X33100000Y19100000D01*
X33100000Y19100000D02*
X33200000Y19100000D01*
X33200000Y19100000D02*
X33300000Y19000000D01*
X33300000Y19000000D02*
X34900000Y19000000D01*
X34900000Y19000000D02*
X35000000Y18900000D01*
X35000000Y18900000D02*
X35100000Y18900000D01*
X35100000Y18900000D02*
X35200000Y18800000D01*
X35200000Y18800000D02*
X35300000Y18800000D01*
X35300000Y18800000D02*
X35400000Y18700000D01*
X35400000Y18700000D02*
X48500000Y18700000D01*
X48500000Y18700000D02*
X53700000Y13500000D01*
X53700000Y13500000D02*
X53800000Y13500000D01*
X53800000Y13500000D02*
X53900000Y13400000D01*
X53900000Y13400000D02*
X59500000Y13400000D01*
X59500000Y13400000D02*
X60800000Y12100000D01*
X60800000Y12100000D02*
X87000000Y12100000D01*
X87000000Y12100000D02*
X91900000Y17000000D01*
X91900000Y17000000D02*
X91900000Y17100000D01*
X91900000Y17100000D02*
X92000000Y17200000D01*
X92000000Y17200000D02*
X92000000Y28800000D01*
X92000000Y28800000D02*
X100200000Y37000000D01*
X100200000Y37000000D02*
X100200000Y37100000D01*
X100200000Y37100000D02*
X100300000Y37200000D01*
X100300000Y37200000D02*
X100300000Y37300000D01*
X100300000Y37300000D02*
X100400000Y37400000D01*
X100400000Y37400000D02*
X100400000Y40700000D01*
X100400000Y40700000D02*
X104700000Y45000000D01*
X104700000Y45000000D02*
X104700000Y45100000D01*
X104700000Y45100000D02*
X104800000Y45200000D01*
X104800000Y45200000D02*
X104800000Y49200000D01*
X104800000Y49200000D02*
X106600000Y51000000D01*
X106600000Y51000000D02*
X106600000Y51100000D01*
X106600000Y51100000D02*
X106700000Y51200000D01*
X106700000Y51200000D02*
X106700000Y51300000D01*
X106700000Y51300000D02*
X106800000Y51400000D01*
X106800000Y51400000D02*
X106800000Y58300000D01*
X106800000Y58300000D02*
X113300000Y64800000D01*
X113300000Y64800000D02*
X113200000Y64700000D01*
X113200000Y64700000D02*
X113200000Y64600000D01*
X113200000Y64600000D02*
X112700000Y64100000D01*
X112700000Y64100000D02*
X112700000Y64000000D01*
X112700000Y64000000D02*
X112600000Y63900000D01*
X112600000Y63900000D02*
X112600000Y59300000D01*
X112600000Y59300000D02*
X112900000Y59000000D01*
X112900000Y59000000D02*
X113000000Y59000000D01*
X113000000Y59000000D02*
X115800000Y56200000D01*
X97400000Y39700000D02*
X97500000Y39800000D01*
X97500000Y39800000D02*
X99700000Y39800000D01*
X101700000Y40900000D02*
X117000000Y56200000D01*
X113300000Y53600000D02*
X109800000Y53600000D01*
X106100000Y53700000D02*
X105700000Y53700000D01*
X105700000Y53700000D02*
X104800000Y54600000D01*
X98800000Y55400000D02*
X98800000Y52600000D01*
X93700000Y67600000D02*
X93700000Y93300000D01*
X93700000Y93300000D02*
X83300000Y103700000D01*
X83300000Y103700000D02*
X83300000Y113100000D01*
X83300000Y113100000D02*
X82700000Y113700000D01*
X103900000Y39600000D02*
X101800000Y39600000D01*
X98900000Y39000000D02*
X98800000Y38900000D01*
X98800000Y38900000D02*
X97100000Y38900000D01*
X97100000Y38900000D02*
X96600000Y39400000D01*
X96600000Y39400000D02*
X96600000Y40000000D01*
X96600000Y40000000D02*
X98200000Y41600000D01*
X97100000Y38900000D02*
X97200000Y38900000D01*
X97200000Y38900000D02*
X98000000Y38100000D01*
X98500000Y43000000D02*
X98500000Y49400000D01*
X98500000Y49400000D02*
X100200000Y51100000D01*
X100200000Y51100000D02*
X100200000Y51200000D01*
X100200000Y51200000D02*
X100300000Y51300000D01*
X100300000Y51300000D02*
X100300000Y83200000D01*
X100300000Y83200000D02*
X101000000Y83900000D01*
X84100000Y122200000D02*
X83000000Y123300000D01*
X83000000Y123300000D02*
X81000000Y123300000D01*
X81000000Y123300000D02*
X80700000Y123000000D01*
X80700000Y123000000D02*
X80700000Y113100000D01*
X80700000Y113100000D02*
X81300000Y112500000D01*
X114700000Y59700000D02*
X114800000Y59600000D01*
X114800000Y59600000D02*
X114800000Y59500000D01*
X114800000Y59500000D02*
X118400000Y55900000D01*
X120500000Y25500000D02*
X120600000Y25400000D01*
X120600000Y25400000D02*
X120600000Y21800000D01*
X120600000Y21800000D02*
X121300000Y21100000D01*
X105600000Y82100000D02*
X109400000Y82100000D01*
X82700000Y89700000D02*
X88300000Y95300000D01*
X92500000Y112000000D02*
X103800000Y123300000D01*
X103800000Y123300000D02*
X122800000Y123300000D01*
X122800000Y123300000D02*
X134700000Y111400000D01*
X82700000Y117600000D02*
X82800000Y117700000D01*
X82800000Y117700000D02*
X83700000Y117700000D01*
X83700000Y117700000D02*
X86700000Y120700000D01*
X105600000Y118800000D02*
X105700000Y118700000D01*
X105700000Y118700000D02*
X115200000Y118700000D01*
X115200000Y118700000D02*
X116300000Y117600000D01*
X105600000Y116200000D02*
X105700000Y116100000D01*
X105700000Y116100000D02*
X115300000Y116100000D01*
X115300000Y116100000D02*
X116300000Y115100000D01*
X5700000Y89400000D02*
X5800000Y89300000D01*
X5800000Y89300000D02*
X34100000Y89300000D01*
X34100000Y89300000D02*
X43900000Y79500000D01*
D13*
X135300000Y95300000D02*
X135200000Y95200000D01*
X135200000Y95200000D02*
X134800000Y95200000D01*
X134800000Y95200000D02*
X134400000Y94800000D01*
X134400000Y94800000D02*
X134400000Y94700000D01*
X134400000Y94700000D02*
X134300000Y94600000D01*
X134300000Y94600000D02*
X134300000Y74900000D01*
X134300000Y74900000D02*
X134600000Y74600000D01*
X134600000Y74600000D02*
X134600000Y74500000D01*
X134600000Y74500000D02*
X134700000Y74400000D01*
X134700000Y74400000D02*
X134700000Y70700000D01*
X134600000Y68300000D02*
X133700000Y68300000D01*
X133700000Y68300000D02*
X133400000Y68600000D01*
X133400000Y68600000D02*
X133400000Y68700000D01*
X133400000Y68700000D02*
X133300000Y68800000D01*
X133300000Y68800000D02*
X133300000Y72700000D01*
X133300000Y72700000D02*
X132600000Y73400000D01*
X132600000Y73400000D02*
X132600000Y73500000D01*
X132600000Y73500000D02*
X132500000Y73600000D01*
X132500000Y73600000D02*
X132500000Y73700000D01*
X132500000Y73700000D02*
X123300000Y82900000D01*
X143700000Y79600000D02*
X143600000Y79700000D01*
X143600000Y79700000D02*
X137400000Y79700000D01*
X137400000Y79700000D02*
X137300000Y79800000D01*
X137300000Y79800000D02*
X137200000Y79800000D01*
X137200000Y79800000D02*
X137100000Y79900000D01*
X137100000Y79900000D02*
X136900000Y79900000D01*
X136900000Y79900000D02*
X136700000Y80100000D01*
X143700000Y72400000D02*
X143600000Y72300000D01*
X143600000Y72300000D02*
X143600000Y71800000D01*
X143600000Y71800000D02*
X143000000Y71200000D01*
X135600000Y59600000D02*
X133800000Y59600000D01*
X127300000Y43300000D02*
X127200000Y43200000D01*
X127200000Y43200000D02*
X126900000Y43200000D01*
X126900000Y43200000D02*
X126500000Y42800000D01*
X126500000Y42800000D02*
X126500000Y42700000D01*
X126500000Y42700000D02*
X126400000Y42600000D01*
X126400000Y42600000D02*
X126400000Y33900000D01*
X126400000Y33900000D02*
X123300000Y30800000D01*
X123300000Y30800000D02*
X123200000Y30800000D01*
X123200000Y30800000D02*
X123100000Y30700000D01*
X123100000Y30700000D02*
X121900000Y30700000D01*
X121900000Y30700000D02*
X120500000Y29300000D01*
X120500000Y29300000D02*
X120500000Y29200000D01*
X120500000Y29200000D02*
X120400000Y29100000D01*
X120400000Y29100000D02*
X120400000Y27000000D01*
X120400000Y27000000D02*
X119500000Y26100000D01*
X119500000Y26100000D02*
X119500000Y26000000D01*
X119500000Y26000000D02*
X119400000Y25900000D01*
X119400000Y25900000D02*
X119400000Y24400000D01*
X119400000Y24400000D02*
X109400000Y14400000D01*
D12*
X143900000Y64200000D02*
X143900000Y64000000D01*
X143900000Y64000000D02*
X138600000Y58700000D01*
X138600000Y58700000D02*
X138600000Y48200000D01*
X138600000Y48200000D02*
X137000000Y46600000D01*
X137000000Y46600000D02*
X135000000Y46600000D01*
X135000000Y46600000D02*
X134700000Y46300000D01*
X134700000Y46300000D02*
X134700000Y45600000D01*
X134700000Y45600000D02*
X128700000Y39600000D01*
D14*
X65300000Y63300000D02*
X63300000Y65300000D01*
X87100000Y121600000D02*
X87600000Y121100000D01*
X87600000Y121100000D02*
X87600000Y121000000D01*
X87600000Y121000000D02*
X87700000Y120900000D01*
X87700000Y120900000D02*
X87700000Y120400000D01*
X87700000Y120400000D02*
X85700000Y118400000D01*
X85400000Y72800000D02*
X85100000Y72800000D01*
X85100000Y72800000D02*
X85000000Y72700000D01*
X85000000Y72700000D02*
X84900000Y72700000D01*
X84900000Y72700000D02*
X84800000Y72600000D01*
X84800000Y72600000D02*
X83400000Y72600000D01*
X83400000Y72600000D02*
X82700000Y71900000D01*
X82700000Y71900000D02*
X82800000Y72000000D01*
X82800000Y72000000D02*
X84600000Y72000000D01*
X84600000Y72000000D02*
X85400000Y72800000D01*
X85600000Y118300000D02*
X87600000Y120300000D01*
X87600000Y120300000D02*
X87600000Y120400000D01*
X87600000Y120400000D02*
X87700000Y120500000D01*
X87700000Y120500000D02*
X87700000Y121000000D01*
X87700000Y121000000D02*
X87000000Y121700000D01*
X87000000Y121700000D02*
X86800000Y121700000D01*
X86800000Y121700000D02*
X84800000Y123700000D01*
X84800000Y123700000D02*
X84700000Y123700000D01*
X84700000Y123700000D02*
X84600000Y123800000D01*
X84600000Y123800000D02*
X84500000Y123800000D01*
X84500000Y123800000D02*
X83700000Y124600000D01*
X83700000Y124600000D02*
X83600000Y124600000D01*
X83600000Y124600000D02*
X83500000Y124700000D01*
X83500000Y124700000D02*
X80400000Y124700000D01*
X80400000Y124700000D02*
X79400000Y123700000D01*
X79400000Y123700000D02*
X79400000Y123600000D01*
X79400000Y123600000D02*
X79300000Y123500000D01*
X79300000Y123500000D02*
X79300000Y107900000D01*
X79300000Y107900000D02*
X73700000Y102300000D01*
X68200000Y99400000D02*
X68100000Y99300000D01*
X68100000Y99300000D02*
X66700000Y99300000D01*
X144600000Y63600000D02*
X144800000Y63800000D01*
X144800000Y63800000D02*
X144800000Y63900000D01*
X144800000Y63900000D02*
X144900000Y64000000D01*
X144900000Y64000000D02*
X144900000Y64500000D01*
X144900000Y64500000D02*
X144300000Y65100000D01*
X144300000Y65100000D02*
X144200000Y65100000D01*
X144200000Y65100000D02*
X144100000Y65200000D01*
X144100000Y65200000D02*
X143600000Y65200000D01*
X143600000Y65200000D02*
X138700000Y60300000D01*
X138700000Y60300000D02*
X138300000Y60300000D01*
X138300000Y60300000D02*
X136700000Y58700000D01*
D13*
X136700000Y58700000D02*
X136800000Y58800000D01*
X136800000Y58800000D02*
X136800000Y60200000D01*
X136800000Y60200000D02*
X136300000Y60700000D01*
X136300000Y60700000D02*
X136200000Y60700000D01*
X136200000Y60700000D02*
X136100000Y60800000D01*
X136100000Y60800000D02*
X133800000Y60800000D01*
X124400000Y60400000D02*
X122700000Y58700000D01*
D14*
X121300000Y58700000D02*
X121200000Y58800000D01*
X121200000Y58800000D02*
X118600000Y58800000D01*
X118600000Y58800000D02*
X117400000Y60000000D01*
X110400000Y54500000D02*
X110300000Y54600000D01*
X110300000Y54600000D02*
X109500000Y54600000D01*
X109500000Y54600000D02*
X108900000Y54000000D01*
X108900000Y54000000D02*
X108900000Y53900000D01*
X108900000Y53900000D02*
X108800000Y53800000D01*
X108800000Y53800000D02*
X108800000Y52600000D01*
X108800000Y52600000D02*
X110500000Y50900000D01*
X111800000Y26200000D02*
X115800000Y26200000D01*
X115800000Y26200000D02*
X116500000Y26900000D01*
X116500000Y26900000D02*
X116600000Y26900000D01*
X116600000Y26900000D02*
X116700000Y27000000D01*
X116700000Y27000000D02*
X118500000Y27000000D01*
X118500000Y27000000D02*
X119300000Y27800000D01*
D13*
X122700000Y27300000D02*
X122800000Y27200000D01*
X122800000Y27200000D02*
X123100000Y27200000D01*
X123100000Y27200000D02*
X123500000Y26800000D01*
X123500000Y26800000D02*
X123500000Y26700000D01*
X123500000Y26700000D02*
X123600000Y26600000D01*
X123600000Y26600000D02*
X123600000Y19100000D01*
X123600000Y19100000D02*
X122600000Y18100000D01*
X93700000Y14400000D02*
X93700000Y17200000D01*
X122700000Y28700000D02*
X127500000Y28700000D01*
X109200000Y56300000D02*
X107800000Y57700000D01*
X98900000Y58900000D02*
X98800000Y59000000D01*
X98800000Y59000000D02*
X91000000Y59000000D01*
X91000000Y59000000D02*
X90700000Y58700000D01*
X84000000Y61400000D02*
X83900000Y61500000D01*
X83900000Y61500000D02*
X83700000Y61500000D01*
X83700000Y61500000D02*
X81000000Y58800000D01*
X81000000Y58800000D02*
X78800000Y58800000D01*
X78800000Y58800000D02*
X78700000Y58700000D01*
X90500000Y19400000D02*
X90400000Y19400000D01*
X90400000Y19400000D02*
X90400000Y18300000D01*
X90400000Y18300000D02*
X90100000Y18000000D01*
X90100000Y18000000D02*
X90100000Y17900000D01*
X90100000Y17900000D02*
X90000000Y17800000D01*
X90000000Y17800000D02*
X90000000Y17500000D01*
X90000000Y17500000D02*
X86200000Y13700000D01*
X86200000Y13700000D02*
X79600000Y13700000D01*
X79600000Y13700000D02*
X79300000Y13400000D01*
X72500000Y9600000D02*
X72400000Y9500000D01*
X72400000Y9500000D02*
X69000000Y9500000D01*
X69000000Y9500000D02*
X68500000Y9000000D01*
X68500000Y9000000D02*
X68400000Y9000000D01*
X68400000Y9000000D02*
X68300000Y8900000D01*
X68300000Y8900000D02*
X66200000Y8900000D01*
X66200000Y8900000D02*
X65600000Y9500000D01*
X65700000Y57800000D02*
X64300000Y57800000D01*
X64300000Y57800000D02*
X63000000Y59100000D01*
X63000000Y59100000D02*
X63000000Y59200000D01*
X63000000Y59200000D02*
X62900000Y59300000D01*
X62900000Y59300000D02*
X62900000Y64100000D01*
X62900000Y64100000D02*
X62300000Y64700000D01*
X62300000Y64700000D02*
X62300000Y64800000D01*
X62300000Y64800000D02*
X62200000Y64900000D01*
X62200000Y64900000D02*
X62200000Y124800000D01*
X62200000Y124800000D02*
X64100000Y126700000D01*
X64100000Y126700000D02*
X64200000Y126700000D01*
X64200000Y126700000D02*
X64300000Y126800000D01*
X64300000Y126800000D02*
X66400000Y126800000D01*
X66400000Y126800000D02*
X67300000Y127700000D01*
X67300000Y127700000D02*
X67400000Y127700000D01*
X67400000Y127700000D02*
X67500000Y127800000D01*
X67500000Y127800000D02*
X71000000Y127800000D01*
X71000000Y127800000D02*
X73500000Y125300000D01*
X73500000Y125300000D02*
X73500000Y125200000D01*
X73500000Y125200000D02*
X73600000Y125100000D01*
X73600000Y125100000D02*
X73600000Y123700000D01*
X73600000Y123700000D02*
X78100000Y119200000D01*
X79300000Y106500000D02*
X79400000Y106400000D01*
X79400000Y106400000D02*
X79400000Y102200000D01*
X69700000Y91700000D02*
X66700000Y88700000D01*
X65500000Y92400000D02*
X65600000Y92400000D01*
X65600000Y92400000D02*
X68100000Y94900000D01*
X75200000Y102000000D02*
X75300000Y102100000D01*
X75300000Y102100000D02*
X75300000Y102300000D01*
X75300000Y102300000D02*
X79300000Y106300000D01*
X69900000Y113900000D02*
X69800000Y114000000D01*
X69800000Y114000000D02*
X69800000Y114900000D01*
X69800000Y114900000D02*
X69600000Y115100000D01*
X69600000Y115100000D02*
X69600000Y115200000D01*
X69600000Y115200000D02*
X69500000Y115300000D01*
X69500000Y115300000D02*
X69500000Y115700000D01*
D12*
X69600000Y115700000D02*
X69700000Y115600000D01*
X69700000Y115600000D02*
X69700000Y114500000D01*
X69700000Y114500000D02*
X70000000Y114200000D01*
X74000000Y115200000D02*
X74000000Y117400000D01*
D13*
X69400000Y115900000D02*
X69500000Y115800000D01*
X69500000Y115800000D02*
X69500000Y114300000D01*
X69500000Y114300000D02*
X69700000Y114100000D01*
D14*
X82700000Y119200000D02*
X84000000Y119200000D01*
X84600000Y117500000D02*
X85100000Y117500000D01*
X85100000Y117500000D02*
X85200000Y117400000D01*
X85200000Y117400000D02*
X85300000Y117400000D01*
X85300000Y117400000D02*
X85400000Y117300000D01*
X85400000Y117300000D02*
X85900000Y117300000D01*
X85900000Y117300000D02*
X90000000Y121400000D01*
X108100000Y121800000D02*
X108200000Y121700000D01*
X108200000Y121700000D02*
X108200000Y119500000D01*
D13*
X113100000Y109600000D02*
X113100000Y107500000D01*
X113500000Y113800000D02*
X113500000Y113900000D01*
X113500000Y113900000D02*
X114800000Y115200000D01*
D14*
X129500000Y109600000D02*
X129600000Y109500000D01*
X129600000Y109500000D02*
X131100000Y109500000D01*
X131100000Y109500000D02*
X131500000Y109100000D01*
X131500000Y109100000D02*
X131600000Y109100000D01*
X131600000Y109100000D02*
X131700000Y109000000D01*
X131700000Y109000000D02*
X135000000Y109000000D01*
X135000000Y109000000D02*
X135300000Y109300000D01*
D15*
X47700000Y105300000D02*
X49900000Y103100000D01*
X47700000Y102800000D02*
X47800000Y102700000D01*
X47800000Y102700000D02*
X49000000Y102700000D01*
X49000000Y102700000D02*
X51600000Y100100000D01*
X38900000Y44700000D02*
X38600000Y44700000D01*
X38600000Y44700000D02*
X37300000Y43400000D01*
X37300000Y43400000D02*
X33600000Y43400000D01*
X33600000Y43400000D02*
X32800000Y42600000D01*
X18400000Y41900000D02*
X16600000Y41900000D01*
X16600000Y41900000D02*
X14000000Y44500000D01*
X14000000Y44500000D02*
X14000000Y49600000D01*
X14000000Y49600000D02*
X13800000Y49800000D01*
X13800000Y49800000D02*
X13800000Y50600000D01*
X13800000Y50600000D02*
X14300000Y51100000D01*
X14300000Y51100000D02*
X14700000Y51100000D01*
X14700000Y51100000D02*
X17200000Y53600000D01*
X17200000Y53600000D02*
X21100000Y53600000D01*
X21100000Y53600000D02*
X23200000Y55700000D01*
X23200000Y55700000D02*
X45900000Y55700000D01*
X45900000Y55700000D02*
X46800000Y56600000D01*
X46800000Y56600000D02*
X47600000Y56600000D01*
X47600000Y56600000D02*
X48100000Y56100000D01*
X48100000Y56100000D02*
X48100000Y50700000D01*
X48100000Y50700000D02*
X49500000Y49300000D01*
X51400000Y22000000D02*
X51300000Y21900000D01*
X51300000Y21900000D02*
X39800000Y21900000D01*
X37000000Y21900000D02*
X37000000Y23500000D01*
X37000000Y23500000D02*
X31100000Y29400000D01*
X31100000Y29400000D02*
X30900000Y29400000D01*
X30900000Y29400000D02*
X22200000Y38100000D01*
X33600000Y38900000D02*
X35100000Y37400000D01*
X35100000Y37400000D02*
X35100000Y36200000D01*
X35100000Y36200000D02*
X36300000Y35000000D01*
X36300000Y35000000D02*
X36300000Y34600000D01*
X36300000Y34600000D02*
X37000000Y33900000D01*
X51300000Y22500000D02*
X44800000Y22500000D01*
X44800000Y22500000D02*
X44200000Y21900000D01*
X44200000Y21900000D02*
X40000000Y21900000D01*
X40000000Y21900000D02*
X39700000Y21600000D01*
X17200000Y53600000D02*
X20400000Y53600000D01*
X20400000Y53600000D02*
X22300000Y55500000D01*
X21700000Y64500000D02*
X21700000Y66600000D01*
X21700000Y68800000D02*
X21700000Y70900000D01*
X21700000Y77400000D02*
X21700000Y79500000D01*
X21700000Y81700000D02*
X21700000Y83800000D01*
X22800000Y86100000D02*
X22800000Y88600000D01*
X22100000Y90000000D02*
X22100000Y92700000D01*
X21700000Y94600000D02*
X21700000Y96700000D01*
X21700000Y98900000D02*
X21700000Y101000000D01*
X21700000Y103200000D02*
X21700000Y105300000D01*
X21700000Y107500000D02*
X21700000Y109600000D01*
X21700000Y111800000D02*
X21700000Y113900000D01*
X21700000Y116100000D02*
X21700000Y118200000D01*
X21700000Y120400000D02*
X21700000Y122500000D01*
X22700000Y110700000D02*
X22800000Y110600000D01*
X22800000Y110600000D02*
X24500000Y110600000D01*
X24500000Y110600000D02*
X29900000Y105200000D01*
X29900000Y105200000D02*
X35400000Y105200000D01*
X35400000Y105200000D02*
X40000000Y100600000D01*
X40000000Y100600000D02*
X42000000Y100600000D01*
X42000000Y100600000D02*
X42500000Y101100000D01*
X42500000Y101100000D02*
X42500000Y107800000D01*
X42500000Y107800000D02*
X46300000Y111600000D01*
X51300000Y116400000D02*
X51400000Y116300000D01*
X51400000Y116300000D02*
X51400000Y114900000D01*
X51400000Y114900000D02*
X51600000Y114700000D01*
D11*
X66700000Y75900000D02*
X68000000Y75900000D01*
X68200000Y66200000D02*
X68200000Y47800000D01*
X68200000Y47800000D02*
X63100000Y42700000D01*
X63100000Y42700000D02*
X63100000Y40900000D01*
X24000000Y41100000D02*
X22900000Y41100000D01*
X22900000Y41100000D02*
X22000000Y42000000D01*
X17600000Y39100000D02*
X17500000Y39000000D01*
X17500000Y39000000D02*
X14800000Y39000000D01*
X14800000Y39000000D02*
X14600000Y38800000D01*
D10*
X40300000Y74200000D02*
X40200000Y74100000D01*
X40200000Y74100000D02*
X32900000Y74100000D01*
X32900000Y74100000D02*
X31200000Y72400000D01*
X31200000Y72400000D02*
X28700000Y72400000D01*
X28700000Y72400000D02*
X27500000Y71200000D01*
X27500000Y71200000D02*
X23300000Y71200000D01*
D15*
X16400000Y72100000D02*
X21300000Y77000000D01*
X20000000Y68600000D02*
X17700000Y70900000D01*
X21700000Y64500000D02*
X21700000Y66500000D01*
X21700000Y66500000D02*
X21600000Y66600000D01*
X19600000Y68600000D02*
X19500000Y68700000D01*
X19500000Y68700000D02*
X19500000Y69100000D01*
X19500000Y69100000D02*
X17700000Y70900000D01*
X38900000Y44700000D02*
X38800000Y44700000D01*
X38800000Y44700000D02*
X33100000Y39000000D01*
X21600000Y38700000D02*
X20500000Y38700000D01*
X20500000Y38700000D02*
X20200000Y39000000D01*
X20000000Y36700000D02*
X20000000Y34400000D01*
X20000000Y34400000D02*
X20300000Y34100000D01*
X18200000Y34000000D02*
X18100000Y34000000D01*
X18100000Y34000000D02*
X13700000Y38400000D01*
X13700000Y38400000D02*
X13700000Y42400000D01*
X13700000Y42400000D02*
X12500000Y43600000D01*
X12500000Y43600000D02*
X12400000Y43600000D01*
X12400000Y43600000D02*
X12300000Y43700000D01*
X12300000Y43700000D02*
X12200000Y43700000D01*
X12200000Y43700000D02*
X2900000Y53000000D01*
X2900000Y53000000D02*
X2900000Y53100000D01*
X2900000Y53100000D02*
X2800000Y53200000D01*
X2800000Y53200000D02*
X2800000Y53300000D01*
X2800000Y53300000D02*
X2700000Y53400000D01*
X2700000Y53400000D02*
X2700000Y58400000D01*
X2700000Y58400000D02*
X21300000Y77000000D01*
X49500000Y49300000D02*
X49500000Y54700000D01*
X49500000Y54700000D02*
X47600000Y56600000D01*
X46800000Y56600000D02*
X46200000Y56000000D01*
X46200000Y56000000D02*
X44400000Y56000000D01*
X44400000Y56000000D02*
X44300000Y55900000D01*
X44300000Y55900000D02*
X42300000Y55900000D01*
X42300000Y55900000D02*
X42100000Y55700000D01*
X42100000Y55700000D02*
X25700000Y55700000D01*
X16500000Y64900000D02*
X16500000Y69700000D01*
X16500000Y69700000D02*
X17700000Y70900000D01*
X50200000Y49200000D02*
X48100000Y51300000D01*
D16*
X39600000Y52600000D02*
X41100000Y51100000D01*
X46000000Y47000000D02*
X45900000Y46900000D01*
X45900000Y46900000D02*
X45400000Y46900000D01*
X45400000Y46900000D02*
X40400000Y41900000D01*
X40400000Y41900000D02*
X40200000Y41900000D01*
X40200000Y41900000D02*
X39700000Y41400000D01*
X39600000Y40600000D02*
X41100000Y39100000D01*
X42700000Y38200000D02*
X44200000Y38200000D01*
X44200000Y38200000D02*
X45100000Y39100000D01*
X45100000Y39100000D02*
X46500000Y39100000D01*
X46500000Y39100000D02*
X47800000Y37800000D01*
X47800000Y37800000D02*
X47800000Y36300000D01*
X47800000Y36300000D02*
X47000000Y35500000D01*
X47000000Y35500000D02*
X47000000Y35300000D01*
X47000000Y35300000D02*
X42900000Y31200000D01*
X35100000Y30800000D02*
X36500000Y29400000D01*
X39600000Y28600000D02*
X41100000Y27100000D01*
D15*
X36600000Y53200000D02*
X33200000Y53200000D01*
X33200000Y53200000D02*
X32800000Y53600000D01*
X24300000Y64300000D02*
X24300000Y66500000D01*
X23200000Y73000000D02*
X23200000Y76000000D01*
X23200000Y76000000D02*
X23600000Y76400000D01*
X24300000Y77200000D02*
X24300000Y79400000D01*
X24300000Y81500000D02*
X24300000Y83700000D01*
X24300000Y90100000D02*
X24300000Y92300000D01*
X24300000Y94400000D02*
X24300000Y96600000D01*
X24300000Y98700000D02*
X24300000Y100900000D01*
X24300000Y103000000D02*
X24300000Y105200000D01*
X24300000Y107300000D02*
X24300000Y109500000D01*
X24300000Y111600000D02*
X24300000Y113800000D01*
X24300000Y115900000D02*
X24300000Y118100000D01*
X24300000Y120200000D02*
X24300000Y122400000D01*
D16*
X46200000Y51900000D02*
X46200000Y54500000D01*
X46200000Y54500000D02*
X47300000Y55600000D01*
D15*
X26900000Y115600000D02*
X27200000Y115600000D01*
X27200000Y115600000D02*
X32300000Y120700000D01*
X32300000Y120700000D02*
X34200000Y120700000D01*
X34200000Y120700000D02*
X40000000Y126500000D01*
X40000000Y126500000D02*
X42000000Y126500000D01*
X42000000Y126500000D02*
X42500000Y126000000D01*
X42500000Y126000000D02*
X42500000Y119300000D01*
X42500000Y119300000D02*
X46300000Y115500000D01*
X47700000Y115500000D02*
X47800000Y115600000D01*
X47800000Y115600000D02*
X49100000Y115600000D01*
X49100000Y115600000D02*
X49400000Y115900000D01*
X49400000Y115900000D02*
X49500000Y115900000D01*
X49500000Y115900000D02*
X50900000Y117300000D01*
X50900000Y117300000D02*
X51600000Y117300000D01*
X47700000Y114100000D02*
X47800000Y114000000D01*
X47800000Y114000000D02*
X47900000Y114000000D01*
X47900000Y114000000D02*
X48400000Y113500000D01*
X48400000Y113500000D02*
X48400000Y106300000D01*
X48400000Y106300000D02*
X52500000Y102200000D01*
X52500000Y102200000D02*
X52500000Y99700000D01*
X52500000Y99700000D02*
X52000000Y99200000D01*
X52000000Y99200000D02*
X51200000Y99200000D01*
X51200000Y99200000D02*
X51100000Y99300000D01*
X51000000Y99400000D02*
X51200000Y99200000D01*
X52000000Y99200000D02*
X53200000Y100400000D01*
D11*
X62900000Y11400000D02*
X94700000Y11400000D01*
X41700000Y69100000D02*
X41800000Y69000000D01*
X41800000Y69000000D02*
X41800000Y68900000D01*
X41800000Y68900000D02*
X42300000Y68400000D01*
X42300000Y68400000D02*
X42300000Y68300000D01*
X42300000Y68300000D02*
X42400000Y68200000D01*
X42400000Y68200000D02*
X42400000Y67700000D01*
X42400000Y67700000D02*
X51100000Y59000000D01*
X51100000Y59000000D02*
X51100000Y42400000D01*
D15*
X37000000Y33900000D02*
X37000000Y35500000D01*
X37000000Y35500000D02*
X33700000Y38800000D01*
X21600000Y38700000D02*
X19800000Y38700000D01*
X19800000Y38700000D02*
X14000000Y44500000D01*
X13800000Y49800000D02*
X13800000Y57200000D01*
X13800000Y57200000D02*
X14800000Y58200000D01*
X14800000Y58200000D02*
X14800000Y69600000D01*
X14800000Y69600000D02*
X20200000Y75000000D01*
X37000000Y23500000D02*
X32500000Y28000000D01*
X32500000Y28000000D02*
X30500000Y28000000D01*
X30500000Y28000000D02*
X14000000Y44500000D01*
X13800000Y49800000D02*
X13800000Y58300000D01*
X13800000Y58300000D02*
X15500000Y60000000D01*
X15500000Y60000000D02*
X15500000Y70300000D01*
X15500000Y70300000D02*
X20200000Y75000000D01*
D13*
X63700000Y56700000D02*
X63800000Y56600000D01*
X63800000Y56600000D02*
X65500000Y56600000D01*
X69000000Y56600000D02*
X69100000Y56600000D01*
X69100000Y56600000D02*
X69100000Y58900000D01*
X101500000Y30000000D02*
X119200000Y30000000D01*
D11*
X101700000Y36100000D02*
X101800000Y36200000D01*
X101800000Y36200000D02*
X115300000Y36200000D01*
X115300000Y36200000D02*
X123300000Y44200000D01*
X123300000Y44200000D02*
X123300000Y44300000D01*
X123300000Y44300000D02*
X123400000Y44400000D01*
X123400000Y44400000D02*
X123400000Y50900000D01*
X123400000Y50900000D02*
X127300000Y54800000D01*
X103900000Y27200000D02*
X103800000Y27300000D01*
X103800000Y27300000D02*
X100200000Y27300000D01*
X100200000Y27300000D02*
X99600000Y27900000D01*
X98500000Y29000000D02*
X98400000Y29100000D01*
X98400000Y29100000D02*
X98400000Y33500000D01*
X98400000Y33500000D02*
X98200000Y33700000D01*
X97300000Y43400000D02*
X97200000Y43500000D01*
X97200000Y43500000D02*
X97200000Y56700000D01*
X93100000Y66800000D02*
X92400000Y67500000D01*
X92400000Y67500000D02*
X92400000Y73700000D01*
X92400000Y73700000D02*
X91400000Y74700000D01*
X91400000Y109700000D02*
X91400000Y121100000D01*
X91400000Y121100000D02*
X90300000Y122200000D01*
X90300000Y122200000D02*
X87600000Y122200000D01*
X87600000Y122200000D02*
X87300000Y122500000D01*
X87300000Y122500000D02*
X87100000Y122500000D01*
X87100000Y122500000D02*
X85100000Y124500000D01*
X85100000Y124500000D02*
X85000000Y124500000D01*
X85000000Y124500000D02*
X84900000Y124600000D01*
X84900000Y124600000D02*
X84800000Y124600000D01*
X84800000Y124600000D02*
X84000000Y125400000D01*
X84000000Y125400000D02*
X83900000Y125400000D01*
X83900000Y125400000D02*
X83800000Y125500000D01*
X83800000Y125500000D02*
X81900000Y125500000D01*
X81900000Y125500000D02*
X81800000Y125600000D01*
X75000000Y118400000D02*
X74900000Y118300000D01*
X74900000Y118300000D02*
X74900000Y104800000D01*
X80400000Y104700000D02*
X80400000Y107700000D01*
X80400000Y107700000D02*
X81300000Y108600000D01*
X122700000Y39300000D02*
X122800000Y39200000D01*
X122800000Y39200000D02*
X122800000Y39100000D01*
X122800000Y39100000D02*
X123300000Y38600000D01*
X123300000Y38600000D02*
X123300000Y38500000D01*
X123300000Y38500000D02*
X123400000Y38400000D01*
X123400000Y38400000D02*
X123400000Y35500000D01*
X123400000Y35500000D02*
X124600000Y34300000D01*
X14100000Y35700000D02*
X14200000Y35600000D01*
X14200000Y35600000D02*
X14200000Y35500000D01*
X14200000Y35500000D02*
X17500000Y32200000D01*
X17500000Y32200000D02*
X17600000Y32200000D01*
X17600000Y32200000D02*
X17700000Y32100000D01*
X17700000Y32100000D02*
X20300000Y32100000D01*
X20300000Y32100000D02*
X30700000Y21700000D01*
X30700000Y21700000D02*
X30800000Y21700000D01*
X30800000Y21700000D02*
X30900000Y21600000D01*
X30900000Y21600000D02*
X31500000Y21600000D01*
X31500000Y21600000D02*
X33300000Y19800000D01*
X33300000Y19800000D02*
X33400000Y19800000D01*
X33400000Y19800000D02*
X33500000Y19700000D01*
X33500000Y19700000D02*
X35100000Y19700000D01*
X35100000Y19700000D02*
X35200000Y19600000D01*
X35200000Y19600000D02*
X35300000Y19600000D01*
X35300000Y19600000D02*
X35400000Y19500000D01*
X35400000Y19500000D02*
X35500000Y19500000D01*
X35500000Y19500000D02*
X35600000Y19400000D01*
X35600000Y19400000D02*
X48800000Y19400000D01*
X48800000Y19400000D02*
X52400000Y15800000D01*
X52400000Y15800000D02*
X53000000Y15800000D01*
X53000000Y15800000D02*
X53600000Y15200000D01*
X53600000Y15200000D02*
X53700000Y15200000D01*
X53700000Y15200000D02*
X53800000Y15100000D01*
X53800000Y15100000D02*
X63300000Y15100000D01*
X63300000Y15100000D02*
X64100000Y14300000D01*
X64100000Y14300000D02*
X64200000Y14300000D01*
X64200000Y14300000D02*
X64300000Y14200000D01*
X64300000Y14200000D02*
X64400000Y14200000D01*
X64400000Y14200000D02*
X64500000Y14100000D01*
X64500000Y14100000D02*
X78600000Y14100000D01*
X78600000Y14100000D02*
X79100000Y14600000D01*
X79100000Y14600000D02*
X79200000Y14600000D01*
X79200000Y14600000D02*
X79300000Y14700000D01*
X79300000Y14700000D02*
X80800000Y14700000D01*
X100500000Y28900000D02*
X100500000Y30400000D01*
X100500000Y30400000D02*
X103800000Y33700000D01*
X108900000Y38800000D02*
X109000000Y38900000D01*
X109000000Y38900000D02*
X109000000Y43600000D01*
X109000000Y43600000D02*
X117000000Y51600000D01*
X117000000Y51600000D02*
X117000000Y51700000D01*
X117000000Y51700000D02*
X117100000Y51800000D01*
X117100000Y51800000D02*
X117100000Y53000000D01*
X117100000Y53000000D02*
X117700000Y53600000D01*
X117700000Y53600000D02*
X117700000Y53700000D01*
X117700000Y53700000D02*
X117800000Y53800000D01*
X117800000Y53800000D02*
X117800000Y54100000D01*
X117800000Y54100000D02*
X119200000Y55500000D01*
X119200000Y55500000D02*
X119200000Y55600000D01*
X119200000Y55600000D02*
X119300000Y55700000D01*
X119300000Y55700000D02*
X119300000Y56900000D01*
X119300000Y56900000D02*
X116600000Y59600000D01*
X116600000Y59600000D02*
X116600000Y59700000D01*
X116600000Y59700000D02*
X116500000Y59800000D01*
X116500000Y59800000D02*
X116500000Y65500000D01*
X116500000Y65500000D02*
X114700000Y67300000D01*
X114700000Y67300000D02*
X114800000Y67200000D01*
X114800000Y67200000D02*
X114800000Y67100000D01*
X114800000Y67100000D02*
X115300000Y66600000D01*
X115300000Y66600000D02*
X115300000Y66500000D01*
X115300000Y66500000D02*
X115400000Y66400000D01*
X115400000Y66400000D02*
X115400000Y60700000D01*
X115400000Y60700000D02*
X120400000Y55700000D01*
X120400000Y55700000D02*
X120400000Y54500000D01*
X120400000Y54500000D02*
X121300000Y53600000D01*
D14*
X66700000Y99300000D02*
X68000000Y99300000D01*
X73600000Y102200000D02*
X75800000Y104400000D01*
X75800000Y104400000D02*
X75800000Y104500000D01*
X75800000Y104500000D02*
X75900000Y104600000D01*
X75900000Y104600000D02*
X75900000Y115500000D01*
X75900000Y115500000D02*
X79100000Y118700000D01*
X79100000Y118700000D02*
X79100000Y118800000D01*
X79100000Y118800000D02*
X79200000Y118900000D01*
X79200000Y118900000D02*
X79200000Y122600000D01*
X79200000Y122600000D02*
X80600000Y124000000D01*
X80600000Y124000000D02*
X80700000Y124000000D01*
X80700000Y124000000D02*
X80800000Y124100000D01*
X80800000Y124100000D02*
X81800000Y124100000D01*
X127700000Y119500000D02*
X127800000Y119400000D01*
X127800000Y119400000D02*
X129200000Y119400000D01*
X129200000Y119400000D02*
X137400000Y111200000D01*
X137400000Y111200000D02*
X137400000Y111100000D01*
X137400000Y111100000D02*
X137500000Y111000000D01*
X137500000Y111000000D02*
X137500000Y101900000D01*
X137500000Y101900000D02*
X137600000Y101800000D01*
X137600000Y101800000D02*
X137600000Y97800000D01*
X137600000Y97800000D02*
X138000000Y97400000D01*
X138000000Y97400000D02*
X138000000Y97300000D01*
X138000000Y97300000D02*
X138100000Y97200000D01*
X138100000Y97200000D02*
X138100000Y86700000D01*
X138100000Y86700000D02*
X144700000Y80100000D01*
X144700000Y80100000D02*
X144700000Y80000000D01*
X144700000Y80000000D02*
X144800000Y79900000D01*
X144800000Y79900000D02*
X144800000Y74100000D01*
X144800000Y74100000D02*
X145000000Y73900000D01*
X78600000Y59800000D02*
X78700000Y59900000D01*
X78700000Y59900000D02*
X80600000Y59900000D01*
X80600000Y59900000D02*
X81100000Y60400000D01*
X86800000Y54700000D02*
X86900000Y54600000D01*
X86900000Y54600000D02*
X86900000Y30900000D01*
X101600000Y29900000D02*
X119100000Y29900000D01*
X89400000Y72800000D02*
X90900000Y72800000D01*
X90900000Y72800000D02*
X91300000Y72400000D01*
X95100000Y72400000D02*
X95300000Y72400000D01*
X95300000Y72400000D02*
X96900000Y70800000D01*
X106700000Y66500000D02*
X108300000Y66500000D01*
X108300000Y66500000D02*
X111300000Y69500000D01*
X111300000Y69500000D02*
X116800000Y69500000D01*
X116800000Y69500000D02*
X125400000Y60900000D01*
X125400000Y60900000D02*
X125400000Y60800000D01*
X125400000Y60800000D02*
X125500000Y60700000D01*
X125500000Y60700000D02*
X125500000Y58700000D01*
X127000000Y10400000D02*
X127000000Y10500000D01*
X127000000Y10500000D02*
X125400000Y12100000D01*
X113200000Y24700000D02*
X112000000Y25900000D01*
X110900000Y38100000D02*
X110800000Y38200000D01*
X110800000Y38200000D02*
X110800000Y39700000D01*
X110800000Y51100000D02*
X110800000Y51300000D01*
X110800000Y51300000D02*
X108900000Y53200000D01*
X108900000Y53200000D02*
X108900000Y53300000D01*
X108900000Y53300000D02*
X108800000Y53400000D01*
X108800000Y53400000D02*
X108800000Y53900000D01*
X108800000Y53900000D02*
X109400000Y54500000D01*
X109400000Y54500000D02*
X109500000Y54500000D01*
X109500000Y54500000D02*
X109600000Y54600000D01*
X109600000Y54600000D02*
X110200000Y54600000D01*
X101600000Y23300000D02*
X102100000Y23800000D01*
X102100000Y23800000D02*
X102900000Y23800000D01*
X102900000Y23800000D02*
X104400000Y25300000D01*
X104400000Y25300000D02*
X104500000Y25300000D01*
X104500000Y25300000D02*
X104600000Y25400000D01*
X104600000Y25400000D02*
X104700000Y25400000D01*
X104700000Y25400000D02*
X106600000Y27300000D01*
X108100000Y36900000D02*
X108200000Y37000000D01*
X108200000Y37000000D02*
X108200000Y38200000D01*
X108200000Y38200000D02*
X108000000Y38400000D01*
X108000000Y38400000D02*
X108000000Y38500000D01*
X108000000Y38500000D02*
X107900000Y38600000D01*
X107900000Y38600000D02*
X107900000Y40300000D01*
X108700000Y49100000D02*
X108800000Y49200000D01*
X108800000Y49200000D02*
X108800000Y53900000D01*
X65000000Y12800000D02*
X65000000Y12900000D01*
X65000000Y12900000D02*
X64200000Y12900000D01*
X64200000Y12900000D02*
X62900000Y14200000D01*
X63800000Y44500000D02*
X65400000Y46100000D01*
X108200000Y12400000D02*
X108200000Y27100000D01*
X108200000Y36900000D02*
X108200000Y38200000D01*
X79200000Y13600000D02*
X79300000Y13700000D01*
X79300000Y13700000D02*
X81100000Y13700000D01*
X81100000Y13700000D02*
X81700000Y14300000D01*
X81700000Y14300000D02*
X81700000Y14400000D01*
X81700000Y14400000D02*
X82000000Y14700000D01*
X82000000Y14700000D02*
X82000000Y50700000D01*
X82000000Y50700000D02*
X85100000Y53800000D01*
X80800000Y58100000D02*
X78700000Y58100000D01*
X104200000Y11500000D02*
X104400000Y11700000D01*
X104400000Y11700000D02*
X104400000Y14900000D01*
X104400000Y14900000D02*
X105100000Y15600000D01*
X105100000Y15600000D02*
X105100000Y15700000D01*
X105100000Y15700000D02*
X105200000Y15800000D01*
X105200000Y15800000D02*
X105200000Y21500000D01*
X105200000Y21500000D02*
X106700000Y23000000D01*
X106700000Y23000000D02*
X106700000Y23100000D01*
X106700000Y23100000D02*
X106800000Y23200000D01*
X106800000Y23200000D02*
X106800000Y23300000D01*
X106800000Y23300000D02*
X106900000Y23400000D01*
X106900000Y23400000D02*
X106900000Y27300000D01*
D13*
X139400000Y51100000D02*
X139500000Y51200000D01*
X139500000Y51200000D02*
X139500000Y53900000D01*
D14*
X112000000Y38100000D02*
X111900000Y38200000D01*
X111900000Y38200000D02*
X111900000Y39800000D01*
X110800000Y51200000D02*
X110800000Y51300000D01*
X119300000Y28900000D02*
X117100000Y28900000D01*
X113200000Y38700000D02*
X112000000Y39900000D01*
X110500000Y38100000D02*
X110500000Y39700000D01*
X110500000Y50800000D02*
X110500000Y51600000D01*
X110500000Y51600000D02*
X108900000Y53200000D01*
X110800000Y51200000D02*
X110700000Y51300000D01*
X110700000Y51300000D02*
X110700000Y51400000D01*
X110700000Y51400000D02*
X108900000Y53200000D01*
D11*
X127300000Y52200000D02*
X124600000Y49500000D01*
X121500000Y43500000D02*
X121400000Y43400000D01*
X121400000Y43400000D02*
X121400000Y43300000D01*
X121400000Y43300000D02*
X117300000Y39200000D01*
X117300000Y39200000D02*
X117200000Y39200000D01*
X117200000Y39200000D02*
X117100000Y39100000D01*
X117100000Y39100000D02*
X115900000Y39100000D01*
X115900000Y39100000D02*
X113700000Y36900000D01*
X112900000Y35500000D02*
X102300000Y35500000D01*
X102300000Y35500000D02*
X102100000Y35300000D01*
X102100000Y35300000D02*
X102000000Y35300000D01*
X102000000Y35300000D02*
X101800000Y35100000D01*
X14500000Y42800000D02*
X14400000Y42900000D01*
X14400000Y42900000D02*
X14300000Y42900000D01*
X14300000Y42900000D02*
X12900000Y44300000D01*
X12900000Y44300000D02*
X12800000Y44300000D01*
X12800000Y44300000D02*
X11600000Y45500000D01*
X9700000Y44000000D02*
X9600000Y43900000D01*
X9600000Y43900000D02*
X3900000Y43900000D01*
X3900000Y43900000D02*
X3000000Y43000000D01*
X3000000Y43000000D02*
X3000000Y42900000D01*
X3000000Y42900000D02*
X2900000Y42800000D01*
X2900000Y42800000D02*
X2900000Y42700000D01*
X2900000Y42700000D02*
X2800000Y42600000D01*
X2800000Y42600000D02*
X2800000Y42500000D01*
X2800000Y42500000D02*
X2700000Y42400000D01*
X2700000Y42400000D02*
X2700000Y41300000D01*
X2700000Y41300000D02*
X3500000Y40500000D01*
X3500000Y40500000D02*
X3600000Y40500000D01*
X3600000Y40500000D02*
X3700000Y40400000D01*
X3700000Y40400000D02*
X3800000Y40400000D01*
X3800000Y40400000D02*
X3900000Y40300000D01*
X3900000Y40300000D02*
X4000000Y40300000D01*
X4000000Y40300000D02*
X4100000Y40200000D01*
X4100000Y40200000D02*
X4600000Y40200000D01*
X4600000Y40200000D02*
X5600000Y39200000D01*
X5600000Y39200000D02*
X5700000Y39200000D01*
X5700000Y39200000D02*
X5800000Y39100000D01*
X5800000Y39100000D02*
X11900000Y39100000D01*
X11900000Y39100000D02*
X14900000Y36100000D01*
X14900000Y36100000D02*
X14900000Y36000000D01*
X14900000Y36000000D02*
X15900000Y35000000D01*
X17400000Y35900000D02*
X17400000Y36800000D01*
X17400000Y36800000D02*
X17900000Y37300000D01*
D15*
X23100000Y58200000D02*
X23000000Y58100000D01*
X23000000Y58100000D02*
X22900000Y58100000D01*
X22900000Y58100000D02*
X22700000Y57900000D01*
X22700000Y57900000D02*
X21900000Y57900000D01*
X21900000Y57900000D02*
X21800000Y58000000D01*
X21800000Y58000000D02*
X20800000Y58000000D01*
X20800000Y58000000D02*
X20700000Y58100000D01*
X38800000Y53400000D02*
X38700000Y53400000D01*
X38700000Y53400000D02*
X37300000Y54800000D01*
X32600000Y59500000D02*
X32500000Y59600000D01*
X32500000Y59600000D02*
X30500000Y59600000D01*
X30500000Y59600000D02*
X28100000Y62000000D01*
X39600000Y41400000D02*
X41000000Y41400000D01*
X41000000Y41400000D02*
X41500000Y41900000D01*
X41500000Y41900000D02*
X48500000Y41900000D01*
X48500000Y41900000D02*
X48900000Y41500000D01*
X48900000Y41500000D02*
X51500000Y41500000D01*
X51500000Y41500000D02*
X52000000Y42000000D01*
X52000000Y42000000D02*
X52000000Y52000000D01*
X47300000Y55600000D02*
X47000000Y55600000D01*
X47000000Y55600000D02*
X46300000Y54900000D01*
X46300000Y54900000D02*
X38100000Y54900000D01*
X36600000Y29400000D02*
X36500000Y29400000D01*
X36500000Y29400000D02*
X35100000Y30800000D01*
X42900000Y31200000D02*
X47900000Y36200000D01*
X47900000Y36200000D02*
X47900000Y37900000D01*
X47900000Y37900000D02*
X52000000Y42000000D01*
X24300000Y60000000D02*
X24300000Y62200000D01*
X47200000Y55800000D02*
X46300000Y54900000D01*
D16*
X41200000Y51000000D02*
X37400000Y54800000D01*
X32600000Y59600000D02*
X32500000Y59700000D01*
X32500000Y59700000D02*
X30600000Y59700000D01*
X30600000Y59700000D02*
X28200000Y62100000D01*
X42700000Y38500000D02*
X47800000Y43600000D01*
X47800000Y43600000D02*
X47800000Y49800000D01*
X47800000Y49800000D02*
X47300000Y50300000D01*
X47300000Y50300000D02*
X46500000Y50300000D01*
X46500000Y50300000D02*
X45700000Y51100000D01*
X45700000Y51100000D02*
X41800000Y51100000D01*
X41800000Y51100000D02*
X38100000Y54800000D01*
X38900000Y27000000D02*
X35100000Y30800000D01*
X42900000Y31200000D02*
X42900000Y31400000D01*
X42900000Y31400000D02*
X47800000Y36300000D01*
X47800000Y36300000D02*
X47800000Y49800000D01*
X47800000Y49800000D02*
X43900000Y53700000D01*
X43900000Y53700000D02*
X42300000Y53700000D01*
X42300000Y53700000D02*
X42200000Y53800000D01*
X42200000Y53800000D02*
X39100000Y53800000D01*
X39100000Y53800000D02*
X38100000Y54800000D01*
D15*
X22000000Y60100000D02*
X22000000Y63400000D01*
D10*
X19100000Y67600000D02*
X22000000Y67600000D01*
X22000000Y67600000D02*
X22700000Y66900000D01*
X22700000Y66900000D02*
X22700000Y65500000D01*
X22700000Y65500000D02*
X23300000Y64900000D01*
X23300000Y64900000D02*
X23300000Y59300000D01*
X23300000Y59300000D02*
X24100000Y58500000D01*
X24100000Y58500000D02*
X24100000Y57400000D01*
X17400000Y62000000D02*
X17500000Y61900000D01*
X17500000Y61900000D02*
X17500000Y59200000D01*
X20100000Y57200000D02*
X20780000Y56500000D01*
X40300000Y76800000D02*
X41000000Y77460000D01*
X40300000Y74200000D02*
X41000000Y74920000D01*
X40200000Y64000000D02*
X41000000Y64760000D01*
X40300000Y64100000D02*
X41000000Y64760000D01*
X40300000Y61700000D02*
X41000000Y62220000D01*
D11*
X41700000Y71700000D02*
X41000000Y72380000D01*
X40300000Y66600000D02*
X41000000Y67300000D01*
X40200000Y66500000D02*
X41000000Y67300000D01*
X78700000Y53600000D02*
X78000000Y52920000D01*
X78700000Y51100000D02*
X78000000Y50380000D01*
X104200000Y88300000D02*
X104860000Y88980000D01*
X104100000Y88200000D02*
X104860000Y88980000D01*
X78700000Y48500000D02*
X78000000Y47840000D01*
X104200000Y83200000D02*
X104860000Y83900000D01*
X77300000Y44600000D02*
X78000000Y45300000D01*
X77200000Y44500000D02*
X78000000Y45300000D01*
X78700000Y42100000D02*
X78000000Y42760000D01*
X77300000Y21700000D02*
X78000000Y22440000D01*
X66700000Y37500000D02*
X66000000Y37460000D01*
X66700000Y34600000D02*
X66000000Y34920000D01*
X66700000Y31700000D02*
X66000000Y32380000D01*
X66700000Y29500000D02*
X66000000Y29840000D01*
X66700000Y27200000D02*
X66000000Y27300000D01*
X66700000Y24700000D02*
X66000000Y24760000D01*
X66700000Y22300000D02*
X66000000Y22220000D01*
X81300000Y95900000D02*
X82000000Y96600000D01*
X89300000Y49700000D02*
X90000000Y50380000D01*
X89200000Y49600000D02*
X90000000Y50380000D01*
X81300000Y93400000D02*
X82000000Y94060000D01*
X90700000Y47100000D02*
X90000000Y47840000D01*
X82700000Y85700000D02*
X82000000Y86440000D01*
X81300000Y74400000D02*
X82000000Y73740000D01*
X81300000Y73000000D02*
X82000000Y73740000D01*
X66700000Y82200000D02*
X66000000Y82920000D01*
X81300000Y79500000D02*
X82000000Y78820000D01*
X81300000Y78100000D02*
X82000000Y78820000D01*
X65300000Y115700000D02*
X66000000Y116380000D01*
X65200000Y115600000D02*
X66000000Y116380000D01*
X65300000Y81100000D02*
X66000000Y80380000D01*
X81300000Y82100000D02*
X82000000Y81360000D01*
X82700000Y75600000D02*
X82000000Y76280000D01*
X66700000Y108100000D02*
X66000000Y108760000D01*
X66800000Y108000000D02*
X66000000Y108760000D01*
X81300000Y84600000D02*
X82000000Y83900000D01*
X81300000Y83400000D02*
X82000000Y83900000D01*
X66700000Y73500000D02*
X66000000Y72760000D01*
X66700000Y105500000D02*
X66000000Y106220000D01*
X66700000Y105600000D02*
X66000000Y106220000D01*
X65300000Y70900000D02*
X66000000Y70220000D01*
X66700000Y103000000D02*
X66000000Y103680000D01*
X66700000Y104400000D02*
X66000000Y103680000D01*
X65300000Y68400000D02*
X66000000Y67680000D01*
X66700000Y101800000D02*
X66000000Y101140000D01*
X66800000Y101900000D02*
X66000000Y101140000D01*
X72700000Y120800000D02*
X72000000Y121460000D01*
X65300000Y65800000D02*
X66000000Y65140000D01*
X135300000Y105600000D02*
X136000000Y104920000D01*
X135300000Y103100000D02*
X136000000Y102380000D01*
X136700000Y101700000D02*
X136000000Y102380000D01*
X136700000Y84000000D02*
X136000000Y83300000D01*
X105600000Y101000000D02*
X104860000Y101680000D01*
X135300000Y53600000D02*
X136000000Y52920000D01*
X105600000Y98400000D02*
X104860000Y99140000D01*
X135300000Y51100000D02*
X136000000Y50380000D01*
X105600000Y103500000D02*
X104860000Y104220000D01*
X113300000Y64800000D02*
X114000000Y65460000D01*
X113200000Y64700000D02*
X114000000Y65460000D01*
X82700000Y113700000D02*
X82000000Y114380000D01*
X81300000Y112500000D02*
X82000000Y111840000D01*
X114700000Y59700000D02*
X114000000Y60380000D01*
X121300000Y21100000D02*
X122000000Y20380000D01*
X105600000Y82100000D02*
X104860000Y81360000D01*
X82700000Y89700000D02*
X82000000Y88980000D01*
X82700000Y117600000D02*
X82000000Y116920000D01*
X105600000Y118800000D02*
X104860000Y119460000D01*
X116300000Y117600000D02*
X117000000Y116920000D01*
X105600000Y116200000D02*
X104860000Y116920000D01*
X116300000Y115100000D02*
X117000000Y114380000D01*
X5700000Y89400000D02*
X5000000Y90060000D01*
D13*
X136700000Y80100000D02*
X136000000Y80760000D01*
D12*
X128700000Y39600000D02*
X128000000Y38920000D01*
D14*
X65300000Y63300000D02*
X66000000Y62600000D01*
X82700000Y71900000D02*
X82000000Y71200000D01*
X66700000Y99300000D02*
X66000000Y98600000D01*
X82700000Y119200000D02*
X82000000Y119460000D01*
D15*
X47700000Y102800000D02*
X47000000Y103460000D01*
X46300000Y111600000D02*
X47000000Y112300000D01*
D11*
X66700000Y75900000D02*
X66000000Y75300000D01*
D15*
X46300000Y115500000D02*
X47000000Y114840000D01*
X47700000Y115500000D02*
X47000000Y114840000D01*
X47700000Y114100000D02*
X47000000Y114840000D01*
D11*
X41700000Y69100000D02*
X41000000Y69840000D01*
X127300000Y54800000D02*
X128000000Y55460000D01*
X81300000Y108600000D02*
X82000000Y109300000D01*
X121300000Y53600000D02*
X122000000Y52920000D01*
X127300000Y52200000D02*
X128000000Y52920000D01*
D10*
X6600000Y85900000D02*
X3500000Y89000000D01*
X3500000Y89000000D02*
X3500000Y91100000D01*
X3500000Y91100000D02*
X4300000Y91900000D01*
X4300000Y91900000D02*
X5000000Y92600000D01*
D17*
X66000000Y124000000D03*
D18*
X66000000Y121460000D03*
X66000000Y118920000D03*
X66000000Y116380000D03*
X66000000Y113840000D03*
X66000000Y111300000D03*
X66000000Y108760000D03*
X66000000Y106220000D03*
X66000000Y103680000D03*
X66000000Y101140000D03*
X66000000Y98600000D03*
X66000000Y96060000D03*
D17*
X41000000Y125000000D03*
D18*
X41000000Y122460000D03*
X41000000Y119920000D03*
X41000000Y117380000D03*
X41000000Y114840000D03*
X41000000Y112300000D03*
X41000000Y109760000D03*
X41000000Y107220000D03*
X41000000Y104680000D03*
X41000000Y102140000D03*
D17*
X66000000Y88000000D03*
D18*
X66000000Y85460000D03*
X66000000Y82920000D03*
X66000000Y80380000D03*
X66000000Y77840000D03*
X66000000Y75300000D03*
X66000000Y72760000D03*
X66000000Y70220000D03*
X66000000Y67680000D03*
X66000000Y65140000D03*
X66000000Y62600000D03*
X66000000Y60060000D03*
D17*
X41000000Y80000000D03*
D18*
X41000000Y77460000D03*
X41000000Y74920000D03*
X41000000Y72380000D03*
X41000000Y69840000D03*
X41000000Y67300000D03*
X41000000Y64760000D03*
X41000000Y62220000D03*
X41000000Y59680000D03*
X41000000Y57140000D03*
D17*
X72000000Y124000000D03*
D18*
X72000000Y121460000D03*
X72000000Y118920000D03*
X72000000Y116380000D03*
D17*
X82000000Y122000000D03*
D18*
X82000000Y119460000D03*
X82000000Y116920000D03*
X82000000Y114380000D03*
X82000000Y111840000D03*
X82000000Y109300000D03*
X82000000Y106760000D03*
X82000000Y104220000D03*
X82000000Y101680000D03*
X82000000Y99140000D03*
X82000000Y96600000D03*
X82000000Y94060000D03*
X82000000Y91520000D03*
X82000000Y88980000D03*
X82000000Y86440000D03*
X82000000Y83900000D03*
X82000000Y81360000D03*
X82000000Y78820000D03*
X82000000Y76280000D03*
X82000000Y73740000D03*
X82000000Y71200000D03*
X82000000Y68660000D03*
D17*
X104860000Y122000000D03*
D18*
X104860000Y119460000D03*
X104860000Y116920000D03*
X104860000Y114380000D03*
X104860000Y111840000D03*
X104860000Y109300000D03*
X104860000Y106760000D03*
X104860000Y104220000D03*
X104860000Y101680000D03*
X104860000Y99140000D03*
X104860000Y96600000D03*
X104860000Y94060000D03*
X104860000Y91520000D03*
X104860000Y88980000D03*
X104860000Y86440000D03*
X104860000Y83900000D03*
X104860000Y81360000D03*
X104860000Y78820000D03*
X104860000Y76280000D03*
X104860000Y73740000D03*
X104860000Y71200000D03*
X104860000Y68660000D03*
D17*
X90000000Y58000000D03*
D18*
X90000000Y55460000D03*
X90000000Y52920000D03*
X90000000Y50380000D03*
X90000000Y47840000D03*
X90000000Y45300000D03*
X90000000Y42760000D03*
X90000000Y40220000D03*
X90000000Y37680000D03*
X90000000Y35140000D03*
X90000000Y32600000D03*
X90000000Y30060000D03*
X90000000Y27520000D03*
X90000000Y24980000D03*
D17*
X114000000Y68000000D03*
D18*
X114000000Y65460000D03*
X114000000Y62920000D03*
X114000000Y60380000D03*
D17*
X136000000Y124000000D03*
D18*
X136000000Y121460000D03*
X136000000Y118920000D03*
X136000000Y116380000D03*
D17*
X136000000Y110000000D03*
D18*
X136000000Y107460000D03*
X136000000Y104920000D03*
X136000000Y102380000D03*
D17*
X136000000Y96000000D03*
D18*
X136000000Y93460000D03*
X136000000Y90920000D03*
X136000000Y88380000D03*
X136000000Y85840000D03*
X136000000Y83300000D03*
X136000000Y80760000D03*
X136000000Y78220000D03*
D19*
X135000000Y70000000D03*
D20*
X137000000Y70000000D03*
D17*
X5000000Y118000000D03*
D18*
X5000000Y115460000D03*
X5000000Y112920000D03*
X5000000Y110380000D03*
X5000000Y107840000D03*
X5000000Y105300000D03*
X5000000Y102760000D03*
X5000000Y100220000D03*
X5000000Y97680000D03*
X5000000Y95140000D03*
X5000000Y92600000D03*
X5000000Y90060000D03*
D21*
X8000000Y54000000D03*
X8000000Y42000000D03*
X8000000Y30000000D03*
D17*
X122000000Y40000000D03*
D18*
X122000000Y37460000D03*
X122000000Y34920000D03*
X122000000Y32380000D03*
D17*
X78000000Y58000000D03*
D18*
X78000000Y55460000D03*
X78000000Y52920000D03*
X78000000Y50380000D03*
X78000000Y47840000D03*
X78000000Y45300000D03*
X78000000Y42760000D03*
X78000000Y40220000D03*
X78000000Y37680000D03*
X78000000Y35140000D03*
X78000000Y32600000D03*
X78000000Y30060000D03*
X78000000Y27520000D03*
X78000000Y24980000D03*
X78000000Y22440000D03*
X78000000Y19900000D03*
D17*
X136000000Y58000000D03*
D18*
X136000000Y55460000D03*
X136000000Y52920000D03*
X136000000Y50380000D03*
X136000000Y47840000D03*
X136000000Y45300000D03*
X136000000Y42760000D03*
X136000000Y40220000D03*
D17*
X122000000Y58000000D03*
D18*
X122000000Y55460000D03*
X122000000Y52920000D03*
X122000000Y50380000D03*
X122000000Y47840000D03*
X122000000Y45300000D03*
D17*
X15700000Y56500000D03*
D18*
X18240000Y56500000D03*
X20780000Y56500000D03*
D17*
X47000000Y125000000D03*
D18*
X47000000Y122460000D03*
X47000000Y119920000D03*
X47000000Y117380000D03*
X47000000Y114840000D03*
X47000000Y112300000D03*
D19*
X142000000Y50000000D03*
D20*
X144000000Y50000000D03*
D17*
X128000000Y44000000D03*
D18*
X128000000Y41460000D03*
X128000000Y38920000D03*
X128000000Y36380000D03*
X128000000Y33840000D03*
X128000000Y31300000D03*
D17*
X117000000Y122000000D03*
D18*
X117000000Y119460000D03*
X117000000Y116920000D03*
X117000000Y114380000D03*
X117000000Y111840000D03*
X117000000Y109300000D03*
D17*
X128000000Y58000000D03*
D18*
X128000000Y55460000D03*
X128000000Y52920000D03*
X128000000Y50380000D03*
D17*
X122000000Y28000000D03*
D18*
X122000000Y25460000D03*
X122000000Y22920000D03*
X122000000Y20380000D03*
D17*
X47000000Y106000000D03*
D18*
X47000000Y103460000D03*
X47000000Y100920000D03*
X47000000Y98380000D03*
X47000000Y95840000D03*
X47000000Y93300000D03*
D17*
X66000000Y40000000D03*
D18*
X66000000Y37460000D03*
X66000000Y34920000D03*
X66000000Y32380000D03*
X66000000Y29840000D03*
X66000000Y27300000D03*
X66000000Y24760000D03*
X66000000Y22220000D03*
X66000000Y19680000D03*
X66000000Y17140000D03*
D22*
X98750000Y56250000D03*
X98750000Y51750000D03*
X105250000Y56250000D03*
X105250000Y51750000D03*
X98750000Y42250000D03*
X98750000Y37750000D03*
X105250000Y42250000D03*
X105250000Y37750000D03*
X98750000Y28250000D03*
X98750000Y23750000D03*
X105250000Y28250000D03*
X105250000Y23750000D03*
D23*
X30937500Y125000000D03*
X30937500Y86300000D03*
X55937500Y125000000D03*
X55937500Y121000000D03*
X55937500Y117000000D03*
X55937500Y113000000D03*
X30937500Y82000000D03*
X30937500Y77700000D03*
X30937500Y73400000D03*
X30937500Y69100000D03*
X30937500Y64800000D03*
X30937500Y60500000D03*
X30937500Y120700000D03*
X17937500Y45000000D03*
X41937500Y53000000D03*
X41937500Y45000000D03*
X30937500Y116400000D03*
X30937500Y112100000D03*
X17937500Y33000000D03*
X41937500Y41000000D03*
X41937500Y33000000D03*
X30937500Y107800000D03*
X116937500Y54000000D03*
X116937500Y40000000D03*
X116937500Y26000000D03*
X30937500Y103500000D03*
X17937500Y21000000D03*
X41937500Y29000000D03*
X41937500Y21000000D03*
X30937500Y99200000D03*
X146937500Y79000000D03*
X146937500Y75000000D03*
X146937500Y71000000D03*
X146937500Y67000000D03*
X146937500Y63000000D03*
X30937500Y94900000D03*
X67937500Y126700000D03*
X67937500Y92000000D03*
X95937500Y20000000D03*
X131937500Y110000000D03*
X67937500Y10000000D03*
X141937500Y34000000D03*
X129937500Y10000000D03*
X131937500Y122000000D03*
X73937500Y7000000D03*
X131937500Y118000000D03*
X30937500Y90600000D03*
X123937500Y13000000D03*
X106875673Y10146827D03*
X147087500Y87960000D03*
X146150000Y90040000D03*
X35975000Y45000000D03*
X35975000Y33000000D03*
X35975000Y21000000D03*
X73975000Y16000000D03*
X57975000Y60000000D03*
X146975000Y98000000D03*
X73975000Y13000000D03*
X55615086Y70937539D03*
X57975000Y72000000D03*
X57975000Y68000000D03*
X55150000Y91000000D03*
X102150000Y3500000D03*
X45450000Y50270000D03*
X45450000Y47730000D03*
X45450000Y38270000D03*
X45450000Y35730000D03*
X45450000Y26270000D03*
X45450000Y23730000D03*
X16100000Y59300000D03*
X19900000Y78500000D03*
X17600000Y78100000D03*
X30800000Y79200000D03*
X26900000Y73800000D03*
X24200000Y73800000D03*
X30800000Y76300000D03*
X30800000Y72000000D03*
X19900000Y65600000D03*
X17500000Y65200000D03*
X32000000Y63600000D03*
X33900000Y61700000D03*
X43900000Y69500000D03*
X31800000Y60700000D03*
X17600000Y52700000D03*
X20300000Y52700000D03*
X35300000Y51800000D03*
X36800000Y51800000D03*
X34400000Y54100000D03*
X35900000Y54100000D03*
X21700000Y50900000D03*
X17000000Y50900000D03*
X35300000Y47900000D03*
X36800000Y47900000D03*
X33500000Y48600000D03*
X36800000Y47000000D03*
X30800000Y47100000D03*
X34200000Y49500000D03*
X35300000Y49100000D03*
X36800000Y49100000D03*
X15600000Y45200000D03*
X40200000Y48600000D03*
X42600000Y48600000D03*
X47000000Y48600000D03*
X42900000Y43200000D03*
X47000000Y43900000D03*
X33700000Y44400000D03*
X47000000Y49500000D03*
X33900000Y36100000D03*
X35400000Y34600000D03*
X31100000Y34500000D03*
X34200000Y37000000D03*
X26000000Y36600000D03*
X27500000Y38100000D03*
X42600000Y36600000D03*
X47000000Y36600000D03*
X45700000Y31900000D03*
X47000000Y32900000D03*
X33700000Y32600000D03*
X47000000Y37500000D03*
X33900000Y24100000D03*
X35400000Y22600000D03*
X31100000Y22500000D03*
X34200000Y25000000D03*
X24200000Y23800000D03*
X25700000Y25300000D03*
X42600000Y24600000D03*
X45900000Y24600000D03*
X33700000Y20600000D03*
X45900000Y25500000D03*
X89000000Y64000000D03*
X89900000Y66000000D03*
X102200000Y83200000D03*
X85400000Y67600000D03*
X73200000Y21200000D03*
X74800000Y19600000D03*
X79200000Y17700000D03*
X72200000Y21200000D03*
X72200000Y39900000D03*
X72200000Y37500000D03*
X72200000Y34600000D03*
X68100000Y31700000D03*
X72200000Y29500000D03*
X72200000Y27200000D03*
X72200000Y24700000D03*
X72200000Y22300000D03*
X80000000Y94600000D03*
X88700000Y17800000D03*
X79300000Y91400000D03*
X91100000Y17400000D03*
X84000000Y68800000D03*
X83600000Y67000000D03*
X80300000Y56400000D03*
X78500000Y77200000D03*
X81400000Y66900000D03*
X87700000Y56300000D03*
X87700000Y17800000D03*
X64600000Y40900000D03*
X71800000Y82800000D03*
X63900000Y42400000D03*
X64900000Y15700000D03*
X84600000Y73600000D03*
X86900000Y70200000D03*
X80200000Y51500000D03*
X80100000Y19300000D03*
X80100000Y17800000D03*
X78600000Y83400000D03*
X75400000Y81400000D03*
X68000000Y105500000D03*
X68000000Y105600000D03*
X67500000Y113700000D03*
X68000000Y103000000D03*
X68000000Y104400000D03*
X71000000Y104800000D03*
X70600000Y115700000D03*
X63900000Y69800000D03*
X69800000Y103700000D03*
X72000000Y104700000D03*
X78500000Y65500000D03*
X82100000Y65500000D03*
X88200000Y61000000D03*
X90000000Y62800000D03*
X67300000Y66400000D03*
X64000000Y59700000D03*
X130000000Y108000000D03*
X102700000Y51400000D03*
X99300000Y48100000D03*
X127000000Y105000000D03*
X103900000Y45400000D03*
X101800000Y45300000D03*
X133600000Y74000000D03*
X14700000Y50200000D03*
X81000000Y19200000D03*
X20000000Y24800000D03*
X115800000Y56200000D03*
X97400000Y39700000D03*
X99700000Y39800000D03*
X101700000Y40900000D03*
X117000000Y56200000D03*
X113300000Y53600000D03*
X109800000Y53600000D03*
X106100000Y53700000D03*
X104800000Y54600000D03*
X93700000Y67600000D03*
X103900000Y39600000D03*
X101800000Y39600000D03*
X98900000Y39000000D03*
X101000000Y83900000D03*
X84100000Y122200000D03*
X118400000Y55900000D03*
X120500000Y25500000D03*
X109400000Y82100000D03*
X88300000Y95300000D03*
X92500000Y112000000D03*
X134700000Y111400000D03*
X86700000Y120700000D03*
X43900000Y79500000D03*
X134600000Y68300000D03*
X123300000Y82900000D03*
X143700000Y79600000D03*
X143700000Y72400000D03*
X143000000Y71200000D03*
X135600000Y59600000D03*
X133800000Y59600000D03*
X109400000Y14400000D03*
X143900000Y64200000D03*
X63300000Y65300000D03*
X87100000Y121600000D03*
X85700000Y118400000D03*
X85400000Y72800000D03*
X85600000Y118300000D03*
X73700000Y102300000D03*
X68200000Y99400000D03*
X144600000Y63600000D03*
X133800000Y60800000D03*
X124400000Y60400000D03*
X117400000Y60000000D03*
X110400000Y54500000D03*
X110500000Y50900000D03*
X111800000Y26200000D03*
X119300000Y27800000D03*
X122600000Y18100000D03*
X93700000Y14400000D03*
X93700000Y17200000D03*
X127500000Y28700000D03*
X109200000Y56300000D03*
X107800000Y57700000D03*
X98900000Y58900000D03*
X84000000Y61400000D03*
X90500000Y19400000D03*
X79300000Y13400000D03*
X72500000Y9600000D03*
X65600000Y9500000D03*
X65700000Y57800000D03*
X78100000Y119200000D03*
X79300000Y106500000D03*
X79400000Y102200000D03*
X69700000Y91700000D03*
X65500000Y92400000D03*
X68100000Y94900000D03*
X75200000Y102000000D03*
X79300000Y106300000D03*
X69900000Y113900000D03*
X69500000Y115700000D03*
X69600000Y115700000D03*
X70000000Y114200000D03*
X74000000Y115200000D03*
X74000000Y117400000D03*
X69400000Y115900000D03*
X69700000Y114100000D03*
X84000000Y119200000D03*
X84600000Y117500000D03*
X90000000Y121400000D03*
X108100000Y121800000D03*
X108200000Y119500000D03*
X113100000Y109600000D03*
X113100000Y107500000D03*
X113500000Y113800000D03*
X114800000Y115200000D03*
X129500000Y109600000D03*
X49900000Y103100000D03*
X51600000Y100100000D03*
X38900000Y44700000D03*
X32800000Y42600000D03*
X18400000Y41900000D03*
X49500000Y49300000D03*
X51400000Y22000000D03*
X39800000Y21900000D03*
X37000000Y21900000D03*
X22200000Y38100000D03*
X33600000Y38900000D03*
X37000000Y33900000D03*
X51300000Y22500000D03*
X39700000Y21600000D03*
X22300000Y58800000D03*
X21700000Y64500000D03*
X21700000Y66600000D03*
X21700000Y68800000D03*
X21700000Y70900000D03*
X21700000Y77400000D03*
X21700000Y79500000D03*
X21700000Y81700000D03*
X21700000Y83800000D03*
X22800000Y86100000D03*
X22800000Y88600000D03*
X22100000Y90000000D03*
X22100000Y92700000D03*
X21700000Y94600000D03*
X21700000Y96700000D03*
X21700000Y98900000D03*
X21700000Y101000000D03*
X21700000Y103200000D03*
X21700000Y105300000D03*
X21700000Y107500000D03*
X21700000Y109600000D03*
X21700000Y111800000D03*
X21700000Y113900000D03*
X21700000Y116100000D03*
X21700000Y118200000D03*
X21700000Y120400000D03*
X21700000Y122500000D03*
X22700000Y110700000D03*
X51300000Y116400000D03*
X51600000Y114700000D03*
X68000000Y75900000D03*
X68200000Y66200000D03*
X63100000Y40900000D03*
X24000000Y41100000D03*
X22000000Y42000000D03*
X17600000Y39100000D03*
X14600000Y38800000D03*
X6000000Y88000000D03*
X6000000Y76000000D03*
X6000000Y64000000D03*
X6000000Y52000000D03*
X6000000Y40000000D03*
X6000000Y16000000D03*
X18000000Y76000000D03*
X18000000Y16000000D03*
X30000000Y124000000D03*
X30000000Y112000000D03*
X30000000Y88000000D03*
X30000000Y16000000D03*
X42000000Y16000000D03*
X54000000Y88000000D03*
X54000000Y76000000D03*
X54000000Y40000000D03*
X54000000Y28000000D03*
X54000000Y16000000D03*
X80250000Y100000000D03*
X92250000Y124000000D03*
X92250000Y100000000D03*
X92250000Y88000000D03*
X92250000Y76000000D03*
X92250000Y64000000D03*
X104250000Y64000000D03*
X104250000Y16000000D03*
X116250000Y100000000D03*
X116250000Y88000000D03*
X116250000Y52000000D03*
X116250000Y16000000D03*
X128250000Y124000000D03*
X128250000Y100000000D03*
X128250000Y76000000D03*
X128250000Y16000000D03*
X140250000Y100000000D03*
X140250000Y88000000D03*
X140250000Y76000000D03*
X140250000Y64000000D03*
X140250000Y40000000D03*
X140250000Y28000000D03*
X140250000Y16000000D03*
X23300000Y71200000D03*
X16400000Y72100000D03*
X21300000Y77000000D03*
X20000000Y68600000D03*
X17700000Y70900000D03*
X21600000Y66600000D03*
X19600000Y68600000D03*
X33100000Y39000000D03*
X21600000Y38700000D03*
X20200000Y39000000D03*
X20000000Y36700000D03*
X20300000Y34100000D03*
X18200000Y34000000D03*
X50200000Y49200000D03*
X48100000Y51300000D03*
X39600000Y52600000D03*
X41100000Y51100000D03*
X46000000Y47000000D03*
X39700000Y41400000D03*
X39600000Y40600000D03*
X41100000Y39100000D03*
X42700000Y38200000D03*
X42900000Y31200000D03*
X35100000Y30800000D03*
X36500000Y29400000D03*
X39600000Y28600000D03*
X41100000Y27100000D03*
X36600000Y53200000D03*
X32800000Y53600000D03*
X24300000Y64300000D03*
X24300000Y66500000D03*
X23200000Y73000000D03*
X23600000Y76400000D03*
X24300000Y77200000D03*
X24300000Y79400000D03*
X24300000Y81500000D03*
X24300000Y83700000D03*
X24300000Y90100000D03*
X24300000Y92300000D03*
X24300000Y94400000D03*
X24300000Y96600000D03*
X24300000Y98700000D03*
X24300000Y100900000D03*
X24300000Y103000000D03*
X24300000Y105200000D03*
X24300000Y107300000D03*
X24300000Y109500000D03*
X24300000Y111600000D03*
X24300000Y113800000D03*
X24300000Y115900000D03*
X24300000Y118100000D03*
X24300000Y120200000D03*
X24300000Y122400000D03*
X46200000Y51900000D03*
X47300000Y55600000D03*
X26900000Y115600000D03*
X51600000Y117300000D03*
X51100000Y99300000D03*
X51000000Y99400000D03*
X53200000Y100400000D03*
X62900000Y11400000D03*
X94700000Y11400000D03*
X51100000Y42400000D03*
X33700000Y38800000D03*
X20200000Y75000000D03*
X63700000Y56700000D03*
X65500000Y56600000D03*
X69000000Y56600000D03*
X69100000Y58900000D03*
X101500000Y30000000D03*
X119200000Y30000000D03*
X101700000Y36100000D03*
X103900000Y27200000D03*
X98200000Y33700000D03*
X97300000Y43400000D03*
X97200000Y56700000D03*
X93100000Y66800000D03*
X91400000Y74700000D03*
X91400000Y109700000D03*
X81800000Y125600000D03*
X75000000Y118400000D03*
X74900000Y104800000D03*
X80400000Y104700000D03*
X124600000Y34300000D03*
X14100000Y35700000D03*
X80800000Y14700000D03*
X100500000Y28900000D03*
X103800000Y33700000D03*
X108900000Y38800000D03*
X68000000Y99300000D03*
X73600000Y102200000D03*
X81800000Y124100000D03*
X127700000Y119500000D03*
X145000000Y73900000D03*
X78600000Y59800000D03*
X81100000Y60400000D03*
X86800000Y54700000D03*
X86900000Y30900000D03*
X101600000Y29900000D03*
X119100000Y29900000D03*
X89400000Y72800000D03*
X91300000Y72400000D03*
X95100000Y72400000D03*
X96900000Y70800000D03*
X106700000Y66500000D03*
X125500000Y58700000D03*
X127000000Y10400000D03*
X125400000Y12100000D03*
X113200000Y24700000D03*
X112000000Y25900000D03*
X110900000Y38100000D03*
X110800000Y39700000D03*
X110800000Y51100000D03*
X110200000Y54600000D03*
X101600000Y23300000D03*
X106600000Y27300000D03*
X108100000Y36900000D03*
X107900000Y40300000D03*
X108700000Y49100000D03*
X65000000Y12800000D03*
X62900000Y14200000D03*
X63800000Y44500000D03*
X65400000Y46100000D03*
X108200000Y12400000D03*
X108200000Y27100000D03*
X108200000Y36900000D03*
X79200000Y13600000D03*
X85100000Y53800000D03*
X80800000Y58100000D03*
X104200000Y11500000D03*
X106900000Y27300000D03*
X139400000Y51100000D03*
X139500000Y53900000D03*
X112000000Y38100000D03*
X111900000Y39800000D03*
X110800000Y51200000D03*
X119300000Y28900000D03*
X117100000Y28900000D03*
X113200000Y38700000D03*
X112000000Y39900000D03*
X110500000Y38100000D03*
X110500000Y39700000D03*
X110500000Y50800000D03*
X124600000Y49500000D03*
X121500000Y43500000D03*
X113700000Y36900000D03*
X112900000Y35500000D03*
X101800000Y35100000D03*
X14500000Y42800000D03*
X11600000Y45500000D03*
X9700000Y44000000D03*
X15900000Y35000000D03*
X17400000Y35900000D03*
X17900000Y37300000D03*
X23100000Y58200000D03*
X20700000Y58100000D03*
X38800000Y53400000D03*
X37300000Y54800000D03*
X32600000Y59500000D03*
X28100000Y62000000D03*
X39600000Y41400000D03*
X52000000Y52000000D03*
X38100000Y54900000D03*
X36600000Y29400000D03*
X24300000Y60000000D03*
X24300000Y62200000D03*
X47200000Y55800000D03*
X41200000Y51000000D03*
X37400000Y54800000D03*
X32600000Y59600000D03*
X28200000Y62100000D03*
X42700000Y38500000D03*
X38100000Y54800000D03*
X38900000Y27000000D03*
X22000000Y60100000D03*
X22000000Y63400000D03*
X19100000Y67600000D03*
X24100000Y57400000D03*
X17400000Y62000000D03*
X17500000Y59200000D03*
X6600000Y85900000D03*
M02*
