%TF.GenerationSoftware,TI One Voice,package_v2.4/tools/gerber.py,1.0*%
%TF.CreationDate,2026-09-02T00:00:00+01:00*%
%TF.ProjectId,EEG-CAR-01,862e7331a2a69f3411479984413f8b7b,B*%
%TF.FileFunction,Paste,Top*%
%TF.FilePolarity,Positive*%
%TF.SameCoordinates,Original*%
%FSLAX46Y46*%
%MOMM*%
G04 Solder paste Top (stencil)*
G04 EEG-CAR-01 Rev B -- TI One Voice research programme*
G04 Licence CC BY-SA 4.0*
G01*
G75*
%LPD*%
%ADD10R,0.790000X0.950000*%
%ADD11R,0.950000X0.600000*%
%ADD12R,1.750000X1.030000*%
%ADD13R,0.950000X0.720000*%
%ADD14R,0.720000X0.950000*%
%ADD15R,1.850000X0.550000*%
%ADD16R,1.000000X0.600000*%
D10*
X28212500Y125000000D03*
X29787500Y125000000D03*
X28212500Y120700000D03*
X29787500Y120700000D03*
X28212500Y116400000D03*
X29787500Y116400000D03*
X28212500Y112100000D03*
X29787500Y112100000D03*
X28212500Y107800000D03*
X29787500Y107800000D03*
X28212500Y103500000D03*
X29787500Y103500000D03*
X28212500Y99200000D03*
X29787500Y99200000D03*
X28212500Y94900000D03*
X29787500Y94900000D03*
X28212500Y90600000D03*
X29787500Y90600000D03*
X28212500Y86300000D03*
X29787500Y86300000D03*
X28212500Y82000000D03*
X29787500Y82000000D03*
X28212500Y77700000D03*
X29787500Y77700000D03*
X28212500Y73400000D03*
X29787500Y73400000D03*
X28212500Y69100000D03*
X29787500Y69100000D03*
X28212500Y64800000D03*
X29787500Y64800000D03*
X28212500Y60500000D03*
X29787500Y60500000D03*
X15212500Y53000000D03*
X16787500Y53000000D03*
X15212500Y45000000D03*
X16787500Y45000000D03*
X21212500Y45000000D03*
X22787500Y45000000D03*
X39212500Y53000000D03*
X40787500Y53000000D03*
X39212500Y45000000D03*
X40787500Y45000000D03*
X15212500Y41000000D03*
X16787500Y41000000D03*
X15212500Y33000000D03*
X16787500Y33000000D03*
X21212500Y33000000D03*
X22787500Y33000000D03*
X39212500Y41000000D03*
X40787500Y41000000D03*
X39212500Y33000000D03*
X40787500Y33000000D03*
X114212500Y54000000D03*
X115787500Y54000000D03*
X114212500Y40000000D03*
X115787500Y40000000D03*
X114212500Y26000000D03*
X115787500Y26000000D03*
X15212500Y29000000D03*
X16787500Y29000000D03*
X15212500Y21000000D03*
X16787500Y21000000D03*
X21212500Y21000000D03*
X22787500Y21000000D03*
X39212500Y29000000D03*
X40787500Y29000000D03*
X39212500Y21000000D03*
X40787500Y21000000D03*
X144212500Y79000000D03*
X145787500Y79000000D03*
X144212500Y75000000D03*
X145787500Y75000000D03*
X144212500Y71000000D03*
X145787500Y71000000D03*
X144212500Y67000000D03*
X145787500Y67000000D03*
X144212500Y63000000D03*
X145787500Y63000000D03*
X65212500Y126700000D03*
X66787500Y126700000D03*
X65212500Y92000000D03*
X66787500Y92000000D03*
X93212500Y20000000D03*
X94787500Y20000000D03*
X129212500Y110000000D03*
X130787500Y110000000D03*
X65212500Y10000000D03*
X66787500Y10000000D03*
X139212500Y34000000D03*
X140787500Y34000000D03*
X127212500Y10000000D03*
X128787500Y10000000D03*
X129212500Y122000000D03*
X130787500Y122000000D03*
X71212500Y7000000D03*
X72787500Y7000000D03*
X129212500Y118000000D03*
X130787500Y118000000D03*
X121212500Y13000000D03*
X122787500Y13000000D03*
X53212500Y125000000D03*
X54787500Y125000000D03*
X53212500Y121000000D03*
X54787500Y121000000D03*
X53212500Y117000000D03*
X54787500Y117000000D03*
X53212500Y113000000D03*
X54787500Y113000000D03*
D11*
X22062500Y123960000D03*
X23937500Y123960000D03*
X23000000Y126040000D03*
X22062500Y119660000D03*
X23937500Y119660000D03*
X23000000Y121740000D03*
X22062500Y115360000D03*
X23937500Y115360000D03*
X23000000Y117440000D03*
X22062500Y111060000D03*
X23937500Y111060000D03*
X23000000Y113140000D03*
X22062500Y106760000D03*
X23937500Y106760000D03*
X23000000Y108840000D03*
X22062500Y102460000D03*
X23937500Y102460000D03*
X23000000Y104540000D03*
X22062500Y98160000D03*
X23937500Y98160000D03*
X23000000Y100240000D03*
X22062500Y93860000D03*
X23937500Y93860000D03*
X23000000Y95940000D03*
X22062500Y89560000D03*
X23937500Y89560000D03*
X23000000Y91640000D03*
X22062500Y85260000D03*
X23937500Y85260000D03*
X23000000Y87340000D03*
X22062500Y80960000D03*
X23937500Y80960000D03*
X23000000Y83040000D03*
X22062500Y76660000D03*
X23937500Y76660000D03*
X23000000Y78740000D03*
X22062500Y72360000D03*
X23937500Y72360000D03*
X23000000Y74440000D03*
X22062500Y68060000D03*
X23937500Y68060000D03*
X23000000Y70140000D03*
X22062500Y63760000D03*
X23937500Y63760000D03*
X23000000Y65840000D03*
X22062500Y59460000D03*
X23937500Y59460000D03*
X23000000Y61540000D03*
X33062500Y51960000D03*
X34937500Y51960000D03*
X34000000Y54040000D03*
X106062500Y10960000D03*
X107937500Y10960000D03*
X107000000Y13040000D03*
X144062500Y87960000D03*
X145937500Y87960000D03*
X145000000Y90040000D03*
X33062500Y39960000D03*
X34937500Y39960000D03*
X34000000Y42040000D03*
X33062500Y27960000D03*
X34937500Y27960000D03*
X34000000Y30040000D03*
D12*
X145000000Y85462500D03*
X145000000Y82537500D03*
D13*
X130000000Y114825000D03*
X130000000Y113175000D03*
D14*
X15175000Y125000000D03*
X16825000Y125000000D03*
X15175000Y120700000D03*
X16825000Y120700000D03*
X15175000Y116400000D03*
X16825000Y116400000D03*
X15175000Y112100000D03*
X16825000Y112100000D03*
X15175000Y107800000D03*
X16825000Y107800000D03*
X15175000Y103500000D03*
X16825000Y103500000D03*
X15175000Y99200000D03*
X16825000Y99200000D03*
X15175000Y94900000D03*
X16825000Y94900000D03*
X15175000Y90600000D03*
X16825000Y90600000D03*
X15175000Y86300000D03*
X16825000Y86300000D03*
X15175000Y82000000D03*
X16825000Y82000000D03*
X15175000Y77700000D03*
X16825000Y77700000D03*
X15175000Y73400000D03*
X16825000Y73400000D03*
X15175000Y69100000D03*
X16825000Y69100000D03*
X15175000Y64800000D03*
X16825000Y64800000D03*
X15175000Y60500000D03*
X16825000Y60500000D03*
X21175000Y53000000D03*
X22825000Y53000000D03*
X27175000Y53000000D03*
X28825000Y53000000D03*
X15175000Y49000000D03*
X16825000Y49000000D03*
X21175000Y49000000D03*
X22825000Y49000000D03*
X27175000Y49000000D03*
X28825000Y49000000D03*
X33175000Y49000000D03*
X34825000Y49000000D03*
X39175000Y49000000D03*
X40825000Y49000000D03*
X27175000Y45000000D03*
X28825000Y45000000D03*
X33175000Y45000000D03*
X34825000Y45000000D03*
X21175000Y41000000D03*
X22825000Y41000000D03*
X27175000Y41000000D03*
X28825000Y41000000D03*
X15175000Y37000000D03*
X16825000Y37000000D03*
X21175000Y37000000D03*
X22825000Y37000000D03*
X27175000Y37000000D03*
X28825000Y37000000D03*
X33175000Y37000000D03*
X34825000Y37000000D03*
X39175000Y37000000D03*
X40825000Y37000000D03*
X27175000Y33000000D03*
X28825000Y33000000D03*
X33175000Y33000000D03*
X34825000Y33000000D03*
X109175000Y54000000D03*
X110825000Y54000000D03*
X109175000Y40000000D03*
X110825000Y40000000D03*
X109175000Y26000000D03*
X110825000Y26000000D03*
X21175000Y29000000D03*
X22825000Y29000000D03*
X27175000Y29000000D03*
X28825000Y29000000D03*
X15175000Y25000000D03*
X16825000Y25000000D03*
X21175000Y25000000D03*
X22825000Y25000000D03*
X27175000Y25000000D03*
X28825000Y25000000D03*
X33175000Y25000000D03*
X34825000Y25000000D03*
X39175000Y25000000D03*
X40825000Y25000000D03*
X27175000Y21000000D03*
X28825000Y21000000D03*
X33175000Y21000000D03*
X34825000Y21000000D03*
X71175000Y40100000D03*
X72825000Y40100000D03*
X71175000Y37560000D03*
X72825000Y37560000D03*
X71175000Y35020000D03*
X72825000Y35020000D03*
X71175000Y32480000D03*
X72825000Y32480000D03*
X71175000Y29940000D03*
X72825000Y29940000D03*
X71175000Y27400000D03*
X72825000Y27400000D03*
X71175000Y24860000D03*
X72825000Y24860000D03*
X71175000Y22320000D03*
X72825000Y22320000D03*
X71175000Y19000000D03*
X72825000Y19000000D03*
X71175000Y16000000D03*
X72825000Y16000000D03*
X55175000Y64000000D03*
X56825000Y64000000D03*
X55175000Y60000000D03*
X56825000Y60000000D03*
X55175000Y56000000D03*
X56825000Y56000000D03*
X101175000Y12000000D03*
X102825000Y12000000D03*
X144175000Y94000000D03*
X145825000Y94000000D03*
X144175000Y98000000D03*
X145825000Y98000000D03*
X144175000Y59000000D03*
X145825000Y59000000D03*
X71175000Y13000000D03*
X72825000Y13000000D03*
X71175000Y10000000D03*
X72825000Y10000000D03*
X121175000Y16000000D03*
X122825000Y16000000D03*
X55175000Y72000000D03*
X56825000Y72000000D03*
X55175000Y68000000D03*
X56825000Y68000000D03*
D13*
X50500000Y101825000D03*
X50500000Y100175000D03*
X52500000Y99325000D03*
X52500000Y97675000D03*
D14*
X111175000Y110000000D03*
X112825000Y110000000D03*
X111175000Y106000000D03*
X112825000Y106000000D03*
D15*
X44300000Y52810000D03*
X44300000Y51540000D03*
X44300000Y50270000D03*
X44300000Y49000000D03*
X44300000Y47730000D03*
X44300000Y46460000D03*
X44300000Y45190000D03*
X49700000Y45190000D03*
X49700000Y46460000D03*
X49700000Y47730000D03*
X49700000Y49000000D03*
X49700000Y50270000D03*
X49700000Y51540000D03*
X49700000Y52810000D03*
X44300000Y40810000D03*
X44300000Y39540000D03*
X44300000Y38270000D03*
X44300000Y37000000D03*
X44300000Y35730000D03*
X44300000Y34460000D03*
X44300000Y33190000D03*
X49700000Y33190000D03*
X49700000Y34460000D03*
X49700000Y35730000D03*
X49700000Y37000000D03*
X49700000Y38270000D03*
X49700000Y39540000D03*
X49700000Y40810000D03*
X44300000Y28810000D03*
X44300000Y27540000D03*
X44300000Y26270000D03*
X44300000Y25000000D03*
X44300000Y23730000D03*
X44300000Y22460000D03*
X44300000Y21190000D03*
X49700000Y21190000D03*
X49700000Y22460000D03*
X49700000Y23730000D03*
X49700000Y25000000D03*
X49700000Y26270000D03*
X49700000Y27540000D03*
X49700000Y28810000D03*
D16*
X54900000Y44050000D03*
X54900000Y45000000D03*
X54900000Y45950000D03*
X57100000Y45950000D03*
X57100000Y44050000D03*
M02*
