%TF.GenerationSoftware,TI One Voice,package_v2.4/tools/gerber.py,1.0*%
%TF.CreationDate,2026-09-02T00:00:00+01:00*%
%TF.ProjectId,EEG-CAR-01,862e7331a2a69f3411479984413f8b7b,B*%
%TF.FileFunction,Copper,L1,Top,Signal*%
%TF.FilePolarity,Positive*%
%TF.SameCoordinates,Original*%
%FSLAX46Y46*%
%MOMM*%
G04 F.Cu copper*
G04 EEG-CAR-01 Rev B -- TI One Voice research programme*
G04 Licence CC BY-SA 4.0*
G01*
G75*
%LPD*%
%TA.AperFunction,Conductor*%
%ADD10C,0.300000*%
%TD*%
%TA.AperFunction,Conductor*%
%ADD11C,0.250000*%
%TD*%
%TA.AperFunction,Conductor*%
%ADD12C,0.200000*%
%TD*%
%TA.AperFunction,Conductor*%
%ADD13C,0.800000*%
%TD*%
%TA.AperFunction,Conductor*%
%ADD14C,0.560000*%
%TD*%
%TA.AperFunction,Conductor*%
%ADD15C,0.400000*%
%TD*%
%TA.AperFunction,Conductor*%
%ADD16C,0.280000*%
%TD*%
%TA.AperFunction,SMDPad,CuDef*%
%ADD17R,0.875000X0.950000*%
%TD*%
%TA.AperFunction,SMDPad,CuDef*%
%ADD18R,1.025000X0.600000*%
%TD*%
%TA.AperFunction,SMDPad,CuDef*%
%ADD19C,1.000000*%
%TD*%
%TA.AperFunction,SMDPad,CuDef*%
%ADD20R,1.750000X1.125000*%
%TD*%
%TA.AperFunction,ComponentPad*%
%ADD21R,1.600000X1.600000*%
%TD*%
%TA.AperFunction,ComponentPad*%
%ADD22C,1.600000*%
%TD*%
%TA.AperFunction,ComponentPad*%
%ADD23R,1.700000X1.700000*%
%TD*%
%TA.AperFunction,ComponentPad*%
%ADD24C,1.700000*%
%TD*%
%TA.AperFunction,ComponentPad*%
%ADD25C,2.600000*%
%TD*%
%TA.AperFunction,SMDPad,CuDef*%
%ADD26R,0.950000X0.800000*%
%TD*%
%TA.AperFunction,SMDPad,CuDef*%
%ADD27R,0.800000X0.950000*%
%TD*%
%TA.AperFunction,ComponentPad*%
%ADD28C,2.000000*%
%TD*%
%TA.AperFunction,SMDPad,CuDef*%
%ADD29C,1.500000*%
%TD*%
%TA.AperFunction,SMDPad,CuDef*%
%ADD30R,1.950000X0.600000*%
%TD*%
%TA.AperFunction,SMDPad,CuDef*%
%ADD31R,1.100000X0.600000*%
%TD*%
%TA.AperFunction,ViaPad*%
%ADD32C,0.600000*%
%TD*%
D10*
X29787500Y125000000D02*
X30937500Y125000000D01*
X29787500Y86300000D02*
X30937500Y86300000D01*
X54787500Y125000000D02*
X55937500Y125000000D01*
X54787500Y121000000D02*
X55937500Y121000000D01*
X54787500Y117000000D02*
X55937500Y117000000D01*
X54787500Y113000000D02*
X55937500Y113000000D01*
X29787500Y82000000D02*
X30937500Y82000000D01*
X29787500Y77700000D02*
X30937500Y77700000D01*
X29787500Y73400000D02*
X30937500Y73400000D01*
X29787500Y69100000D02*
X30937500Y69100000D01*
X29787500Y64800000D02*
X30937500Y64800000D01*
X29787500Y120700000D02*
X30937500Y120700000D01*
X16787500Y45000000D02*
X17937500Y45000000D01*
X40787500Y53000000D02*
X41937500Y53000000D01*
X40787500Y45000000D02*
X41937500Y45000000D01*
X29787500Y116400000D02*
X30937500Y116400000D01*
X29787500Y112100000D02*
X30937500Y112100000D01*
X16787500Y33000000D02*
X17937500Y33000000D01*
X40787500Y41000000D02*
X41937500Y41000000D01*
X40787500Y33000000D02*
X41937500Y33000000D01*
X29787500Y107800000D02*
X30937500Y107800000D01*
X115787500Y54000000D02*
X116937500Y54000000D01*
X115787500Y40000000D02*
X116937500Y40000000D01*
X115787500Y26000000D02*
X116937500Y26000000D01*
X29787500Y103500000D02*
X30937500Y103500000D01*
X16787500Y21000000D02*
X17937500Y21000000D01*
X40787500Y29000000D02*
X41937500Y29000000D01*
X40787500Y21000000D02*
X41937500Y21000000D01*
X29787500Y99200000D02*
X30937500Y99200000D01*
X145787500Y79000000D02*
X146937500Y79000000D01*
X145787500Y75000000D02*
X146937500Y75000000D01*
X145787500Y71000000D02*
X146937500Y71000000D01*
X145787500Y67000000D02*
X146937500Y67000000D01*
X145787500Y63000000D02*
X146937500Y63000000D01*
X29787500Y94900000D02*
X30937500Y94900000D01*
X66787500Y126700000D02*
X67937500Y126700000D01*
X66787500Y92000000D02*
X67937500Y92000000D01*
X94787500Y20000000D02*
X95937500Y20000000D01*
X130787500Y110000000D02*
X131937500Y110000000D01*
X66787500Y10000000D02*
X67937500Y10000000D01*
X140787500Y34000000D02*
X141937500Y34000000D01*
X128787500Y10000000D02*
X129937500Y10000000D01*
X130787500Y122000000D02*
X131937500Y122000000D01*
X72787500Y7000000D02*
X73937500Y7000000D01*
X130787500Y118000000D02*
X131937500Y118000000D01*
X29787500Y90600000D02*
X30937500Y90600000D01*
X122787500Y13000000D02*
X123937500Y13000000D01*
X106062500Y10960000D02*
X106875673Y10146827D01*
X145937500Y87960000D02*
X147087500Y87960000D01*
X145000000Y90040000D02*
X146150000Y90040000D01*
X34825000Y45000000D02*
X35975000Y45000000D01*
X34825000Y33000000D02*
X35975000Y33000000D01*
X34825000Y21000000D02*
X35975000Y21000000D01*
X72825000Y16000000D02*
X73975000Y16000000D01*
X56825000Y60000000D02*
X57975000Y60000000D01*
X145825000Y98000000D02*
X146975000Y98000000D01*
X72825000Y13000000D02*
X73975000Y13000000D01*
X55175000Y72000000D02*
X55615086Y70937539D01*
X56825000Y72000000D02*
X57975000Y72000000D01*
X56825000Y68000000D02*
X57975000Y68000000D01*
X54000000Y91000000D02*
X55150000Y91000000D01*
X101000000Y3500000D02*
X102150000Y3500000D01*
X44300000Y50270000D02*
X45450000Y50270000D01*
X44300000Y47730000D02*
X45450000Y47730000D01*
X44300000Y38270000D02*
X45450000Y38270000D01*
X44300000Y35730000D02*
X45450000Y35730000D01*
X44300000Y26270000D02*
X45450000Y26270000D01*
X44300000Y23730000D02*
X45450000Y23730000D01*
X105600000Y77000000D02*
X107000000Y78400000D01*
X107000000Y78400000D02*
X107000000Y79300000D01*
X107000000Y79300000D02*
X107800000Y80100000D01*
X107800000Y80100000D02*
X107800000Y84600000D01*
X107800000Y84600000D02*
X132800000Y109600000D01*
X132800000Y109600000D02*
X132800000Y115800000D01*
X132800000Y115800000D02*
X134800000Y117800000D01*
X134800000Y117800000D02*
X134900000Y117800000D01*
X134900000Y117800000D02*
X135300000Y118200000D01*
X105600000Y74400000D02*
X107000000Y75800000D01*
X107000000Y75800000D02*
X107000000Y76000000D01*
X107000000Y76000000D02*
X108300000Y77300000D01*
X108300000Y77300000D02*
X108300000Y79500000D01*
X108300000Y79500000D02*
X108600000Y79800000D01*
X108600000Y79800000D02*
X108600000Y84200000D01*
X108600000Y84200000D02*
X123400000Y99000000D01*
X123400000Y99000000D02*
X123400000Y99100000D01*
X123400000Y99100000D02*
X133600000Y109300000D01*
X133600000Y109300000D02*
X133600000Y111400000D01*
X133600000Y111400000D02*
X137400000Y115200000D01*
X137400000Y115200000D02*
X137400000Y120100000D01*
X137400000Y120100000D02*
X136700000Y120800000D01*
X5700000Y118700000D02*
X6000000Y119000000D01*
X6000000Y119000000D02*
X6200000Y119000000D01*
X6200000Y119000000D02*
X8600000Y121400000D01*
X8600000Y121400000D02*
X9700000Y121400000D01*
X9700000Y121400000D02*
X10700000Y122400000D01*
X10700000Y122400000D02*
X10800000Y122400000D01*
X10800000Y122400000D02*
X10900000Y122500000D01*
X10900000Y122500000D02*
X11000000Y122500000D01*
X11000000Y122500000D02*
X11100000Y122600000D01*
X11100000Y122600000D02*
X11300000Y122600000D01*
X11300000Y122600000D02*
X11400000Y122700000D01*
X11400000Y122700000D02*
X13000000Y122700000D01*
X13000000Y122700000D02*
X14900000Y124600000D01*
X5700000Y116200000D02*
X6800000Y116200000D01*
X6800000Y116200000D02*
X7400000Y116800000D01*
X7400000Y116800000D02*
X9200000Y116800000D01*
X9200000Y116800000D02*
X9400000Y117000000D01*
X9400000Y117000000D02*
X12700000Y117000000D01*
X12700000Y117000000D02*
X14400000Y118700000D01*
X14400000Y118700000D02*
X14400000Y118800000D01*
X14400000Y118800000D02*
X14500000Y118900000D01*
X14500000Y118900000D02*
X14500000Y119000000D01*
X14500000Y119000000D02*
X14600000Y119100000D01*
X14600000Y119100000D02*
X14600000Y119300000D01*
X14600000Y119300000D02*
X14700000Y119400000D01*
X14700000Y119400000D02*
X14700000Y120100000D01*
X14700000Y120100000D02*
X14900000Y120300000D01*
X5700000Y113600000D02*
X6600000Y113600000D01*
X6600000Y113600000D02*
X8800000Y115800000D01*
X8800000Y115800000D02*
X14700000Y115800000D01*
X14700000Y115800000D02*
X14900000Y116000000D01*
X5700000Y111100000D02*
X7100000Y111100000D01*
X7100000Y111100000D02*
X7500000Y111500000D01*
X7500000Y111500000D02*
X9400000Y111500000D01*
X9400000Y111500000D02*
X9500000Y111600000D01*
X9500000Y111600000D02*
X14800000Y111600000D01*
X14800000Y111600000D02*
X14900000Y111700000D01*
X5700000Y108100000D02*
X14900000Y108100000D01*
X5700000Y104600000D02*
X7100000Y104600000D01*
X7100000Y104600000D02*
X7500000Y104200000D01*
X7500000Y104200000D02*
X9400000Y104200000D01*
X9400000Y104200000D02*
X9500000Y104100000D01*
X9500000Y104100000D02*
X14700000Y104100000D01*
X14700000Y104100000D02*
X14900000Y103900000D01*
X5700000Y102100000D02*
X6600000Y102100000D01*
X6600000Y102100000D02*
X8800000Y99900000D01*
X8800000Y99900000D02*
X14600000Y99900000D01*
X14600000Y99900000D02*
X14900000Y99600000D01*
X5700000Y99500000D02*
X6600000Y99500000D01*
X6600000Y99500000D02*
X8800000Y97300000D01*
X8800000Y97300000D02*
X12900000Y97300000D01*
X12900000Y97300000D02*
X14900000Y95300000D01*
X5700000Y97000000D02*
X6000000Y96700000D01*
X6000000Y96700000D02*
X6200000Y96700000D01*
X6200000Y96700000D02*
X8600000Y94300000D01*
X8600000Y94300000D02*
X11600000Y94300000D01*
X11600000Y94300000D02*
X14900000Y91000000D01*
X5700000Y94400000D02*
X6000000Y94100000D01*
X6000000Y94100000D02*
X6200000Y94100000D01*
X6200000Y94100000D02*
X8600000Y91700000D01*
X8600000Y91700000D02*
X9900000Y91700000D01*
X9900000Y91700000D02*
X14900000Y86700000D01*
X8400000Y55100000D02*
X8400000Y70800000D01*
X8400000Y70800000D02*
X14900000Y77300000D01*
X8400000Y43100000D02*
X8400000Y44000000D01*
X8400000Y44000000D02*
X10600000Y46200000D01*
X10600000Y46200000D02*
X10600000Y50500000D01*
X10600000Y50500000D02*
X13200000Y53100000D01*
X13200000Y53100000D02*
X13200000Y53200000D01*
X13200000Y53200000D02*
X13300000Y53300000D01*
X13300000Y53300000D02*
X13300000Y53400000D01*
X13300000Y53400000D02*
X13400000Y53500000D01*
X13400000Y53500000D02*
X13400000Y71500000D01*
X13400000Y71500000D02*
X14900000Y73000000D01*
X8400000Y31100000D02*
X8400000Y32000000D01*
X8400000Y32000000D02*
X10600000Y34200000D01*
X10600000Y34200000D02*
X10600000Y38500000D01*
X10600000Y38500000D02*
X13200000Y41100000D01*
X13200000Y41100000D02*
X13200000Y41200000D01*
X13200000Y41200000D02*
X13300000Y41300000D01*
X13300000Y41300000D02*
X13300000Y41400000D01*
X13300000Y41400000D02*
X13400000Y41500000D01*
X13400000Y41500000D02*
X13400000Y45100000D01*
X13400000Y45100000D02*
X14500000Y46200000D01*
X14500000Y46200000D02*
X15900000Y46200000D01*
X15900000Y46200000D02*
X18000000Y48300000D01*
X18000000Y48300000D02*
X18000000Y51700000D01*
X18000000Y51700000D02*
X20500000Y54200000D01*
X20500000Y54200000D02*
X21000000Y54200000D01*
X21000000Y54200000D02*
X22300000Y55500000D01*
X22300000Y55500000D02*
X22300000Y57500000D01*
X22300000Y57500000D02*
X21800000Y58000000D01*
X21800000Y58000000D02*
X21700000Y58000000D01*
X20800000Y63300000D02*
X15700000Y68400000D01*
X15700000Y68400000D02*
X15700000Y68500000D01*
X15700000Y68500000D02*
X15500000Y68700000D01*
X16400000Y57200000D02*
X16400000Y58200000D01*
X15700000Y64100000D02*
X15700000Y64200000D01*
X15700000Y64200000D02*
X15500000Y64400000D01*
X16100000Y59300000D02*
X16100000Y59400000D01*
X16100000Y59400000D02*
X15700000Y59800000D01*
X15700000Y59800000D02*
X15700000Y59900000D01*
X15700000Y59900000D02*
X15500000Y60100000D01*
X27900000Y125400000D02*
X26200000Y125400000D01*
X26200000Y125400000D02*
X26000000Y125600000D01*
X26000000Y125600000D02*
X24100000Y125600000D01*
X24100000Y125600000D02*
X24000000Y125700000D01*
X24000000Y125700000D02*
X23500000Y125700000D01*
X23500000Y125700000D02*
X23400000Y125800000D01*
X22600000Y125800000D02*
X20900000Y125800000D01*
X20900000Y125800000D02*
X20700000Y125600000D01*
X20700000Y125600000D02*
X18800000Y125600000D01*
X18800000Y125600000D02*
X18700000Y125500000D01*
X18700000Y125500000D02*
X17200000Y125500000D01*
X17200000Y125500000D02*
X17100000Y125400000D01*
X28500000Y125400000D02*
X28500000Y125600000D01*
X28500000Y125600000D02*
X29100000Y126200000D01*
X29100000Y126200000D02*
X39800000Y126200000D01*
X39800000Y126200000D02*
X40300000Y125700000D01*
X27900000Y121100000D02*
X26200000Y121100000D01*
X26200000Y121100000D02*
X26000000Y121300000D01*
X26000000Y121300000D02*
X24100000Y121300000D01*
X24100000Y121300000D02*
X24000000Y121400000D01*
X24000000Y121400000D02*
X23500000Y121400000D01*
X23500000Y121400000D02*
X23400000Y121500000D01*
X22600000Y121500000D02*
X20900000Y121500000D01*
X20900000Y121500000D02*
X20700000Y121300000D01*
X20700000Y121300000D02*
X18800000Y121300000D01*
X18800000Y121300000D02*
X18700000Y121200000D01*
X18700000Y121200000D02*
X17200000Y121200000D01*
X17200000Y121200000D02*
X17100000Y121100000D01*
X28500000Y121100000D02*
X28500000Y121300000D01*
X28500000Y121300000D02*
X29100000Y121900000D01*
X29100000Y121900000D02*
X40300000Y121900000D01*
X27900000Y116800000D02*
X26200000Y116800000D01*
X26200000Y116800000D02*
X26000000Y117000000D01*
X26000000Y117000000D02*
X24100000Y117000000D01*
X24100000Y117000000D02*
X24000000Y117100000D01*
X24000000Y117100000D02*
X23500000Y117100000D01*
X23500000Y117100000D02*
X23400000Y117200000D01*
X22600000Y117200000D02*
X20900000Y117200000D01*
X20900000Y117200000D02*
X20700000Y117000000D01*
X20700000Y117000000D02*
X18800000Y117000000D01*
X18800000Y117000000D02*
X18700000Y116900000D01*
X18700000Y116900000D02*
X17200000Y116900000D01*
X17200000Y116900000D02*
X17100000Y116800000D01*
X28500000Y116800000D02*
X28500000Y117000000D01*
X28500000Y117000000D02*
X29100000Y117600000D01*
X29100000Y117600000D02*
X29300000Y117600000D01*
X29300000Y117600000D02*
X29800000Y118100000D01*
X29800000Y118100000D02*
X31300000Y118100000D01*
X31300000Y118100000D02*
X31700000Y118500000D01*
X31700000Y118500000D02*
X39600000Y118500000D01*
X39600000Y118500000D02*
X40300000Y119200000D01*
X27900000Y112500000D02*
X26200000Y112500000D01*
X26200000Y112500000D02*
X26000000Y112700000D01*
X26000000Y112700000D02*
X24100000Y112700000D01*
X24100000Y112700000D02*
X24000000Y112800000D01*
X24000000Y112800000D02*
X23500000Y112800000D01*
X23500000Y112800000D02*
X23400000Y112900000D01*
X22600000Y112900000D02*
X20900000Y112900000D01*
X20900000Y112900000D02*
X20700000Y112700000D01*
X20700000Y112700000D02*
X18800000Y112700000D01*
X18800000Y112700000D02*
X18700000Y112600000D01*
X18700000Y112600000D02*
X17200000Y112600000D01*
X17200000Y112600000D02*
X17100000Y112500000D01*
X28500000Y112500000D02*
X28500000Y112700000D01*
X28500000Y112700000D02*
X29100000Y113300000D01*
X29100000Y113300000D02*
X29300000Y113300000D01*
X29300000Y113300000D02*
X29800000Y113800000D01*
X29800000Y113800000D02*
X29900000Y113800000D01*
X29900000Y113800000D02*
X31300000Y115200000D01*
X31300000Y115200000D02*
X38800000Y115200000D01*
X38800000Y115200000D02*
X40300000Y116700000D01*
X27900000Y108200000D02*
X26200000Y108200000D01*
X26200000Y108200000D02*
X26000000Y108400000D01*
X26000000Y108400000D02*
X24100000Y108400000D01*
X24100000Y108400000D02*
X24000000Y108500000D01*
X24000000Y108500000D02*
X23500000Y108500000D01*
X23500000Y108500000D02*
X23400000Y108600000D01*
X22600000Y108600000D02*
X20900000Y108600000D01*
X20900000Y108600000D02*
X20700000Y108400000D01*
X20700000Y108400000D02*
X18800000Y108400000D01*
X18800000Y108400000D02*
X18700000Y108300000D01*
X18700000Y108300000D02*
X17200000Y108300000D01*
X17200000Y108300000D02*
X17100000Y108200000D01*
X28500000Y108200000D02*
X28500000Y108400000D01*
X28500000Y108400000D02*
X29100000Y109000000D01*
X29100000Y109000000D02*
X29300000Y109000000D01*
X29300000Y109000000D02*
X29800000Y109500000D01*
X29800000Y109500000D02*
X29900000Y109500000D01*
X29900000Y109500000D02*
X31300000Y110900000D01*
X31300000Y110900000D02*
X37000000Y110900000D01*
X37000000Y110900000D02*
X40000000Y113900000D01*
X40000000Y113900000D02*
X40100000Y113900000D01*
X40100000Y113900000D02*
X40300000Y114100000D01*
X27900000Y103900000D02*
X26200000Y103900000D01*
X26200000Y103900000D02*
X26000000Y104100000D01*
X26000000Y104100000D02*
X24100000Y104100000D01*
X24100000Y104100000D02*
X24000000Y104200000D01*
X24000000Y104200000D02*
X23500000Y104200000D01*
X23500000Y104200000D02*
X23400000Y104300000D01*
X22600000Y104300000D02*
X20900000Y104300000D01*
X20900000Y104300000D02*
X20700000Y104100000D01*
X20700000Y104100000D02*
X18800000Y104100000D01*
X18800000Y104100000D02*
X18700000Y104000000D01*
X18700000Y104000000D02*
X17200000Y104000000D01*
X17200000Y104000000D02*
X17100000Y103900000D01*
X28500000Y103900000D02*
X28500000Y104100000D01*
X28500000Y104100000D02*
X29100000Y104700000D01*
X29100000Y104700000D02*
X29300000Y104700000D01*
X29300000Y104700000D02*
X29800000Y105200000D01*
X29800000Y105200000D02*
X29900000Y105200000D01*
X29900000Y105200000D02*
X31300000Y106600000D01*
X31300000Y106600000D02*
X35300000Y106600000D01*
X35300000Y106600000D02*
X40300000Y111600000D01*
X27900000Y99600000D02*
X26200000Y99600000D01*
X26200000Y99600000D02*
X26000000Y99800000D01*
X26000000Y99800000D02*
X24100000Y99800000D01*
X24100000Y99800000D02*
X24000000Y99900000D01*
X24000000Y99900000D02*
X23500000Y99900000D01*
X23500000Y99900000D02*
X23400000Y100000000D01*
X22600000Y100000000D02*
X20900000Y100000000D01*
X20900000Y100000000D02*
X20700000Y99800000D01*
X20700000Y99800000D02*
X18800000Y99800000D01*
X18800000Y99800000D02*
X18700000Y99700000D01*
X18700000Y99700000D02*
X17200000Y99700000D01*
X17200000Y99700000D02*
X17100000Y99600000D01*
X28500000Y99600000D02*
X28500000Y99800000D01*
X28500000Y99800000D02*
X29100000Y100400000D01*
X29100000Y100400000D02*
X29300000Y100400000D01*
X29300000Y100400000D02*
X29800000Y100900000D01*
X29800000Y100900000D02*
X29900000Y100900000D01*
X29900000Y100900000D02*
X31300000Y102300000D01*
X31300000Y102300000D02*
X33500000Y102300000D01*
X33500000Y102300000D02*
X40300000Y109100000D01*
X27900000Y95300000D02*
X26200000Y95300000D01*
X26200000Y95300000D02*
X26000000Y95500000D01*
X26000000Y95500000D02*
X24100000Y95500000D01*
X24100000Y95500000D02*
X24000000Y95600000D01*
X24000000Y95600000D02*
X23500000Y95600000D01*
X23500000Y95600000D02*
X23400000Y95700000D01*
X22600000Y95700000D02*
X20900000Y95700000D01*
X20900000Y95700000D02*
X20700000Y95500000D01*
X20700000Y95500000D02*
X18800000Y95500000D01*
X18800000Y95500000D02*
X18700000Y95400000D01*
X18700000Y95400000D02*
X17200000Y95400000D01*
X17200000Y95400000D02*
X17100000Y95300000D01*
X28500000Y95300000D02*
X28500000Y95500000D01*
X28500000Y95500000D02*
X29100000Y96100000D01*
X29100000Y96100000D02*
X29300000Y96100000D01*
X29300000Y96100000D02*
X29800000Y96600000D01*
X29800000Y96600000D02*
X29900000Y96600000D01*
X29900000Y96600000D02*
X31300000Y98000000D01*
X31300000Y98000000D02*
X31800000Y98000000D01*
X31800000Y98000000D02*
X40300000Y106500000D01*
X28300000Y90200000D02*
X28300000Y86700000D01*
X27900000Y91000000D02*
X26200000Y91000000D01*
X26200000Y91000000D02*
X26000000Y91200000D01*
X26000000Y91200000D02*
X24100000Y91200000D01*
X24100000Y91200000D02*
X24000000Y91300000D01*
X24000000Y91300000D02*
X23500000Y91300000D01*
X23500000Y91300000D02*
X23400000Y91400000D01*
X22600000Y91400000D02*
X22300000Y91100000D01*
X22300000Y91100000D02*
X21800000Y91100000D01*
X21800000Y91100000D02*
X20800000Y90100000D01*
X20800000Y90100000D02*
X20800000Y89000000D01*
X20800000Y89000000D02*
X21300000Y88500000D01*
X21300000Y88500000D02*
X21600000Y88500000D01*
X21600000Y88500000D02*
X22600000Y87500000D01*
X22600000Y91400000D02*
X20900000Y91400000D01*
X20900000Y91400000D02*
X20700000Y91200000D01*
X20700000Y91200000D02*
X18800000Y91200000D01*
X18800000Y91200000D02*
X18700000Y91100000D01*
X18700000Y91100000D02*
X17200000Y91100000D01*
X17200000Y91100000D02*
X17100000Y91000000D01*
X17000000Y90200000D02*
X17000000Y86700000D01*
X28500000Y91000000D02*
X28500000Y91200000D01*
X28500000Y91200000D02*
X31900000Y94600000D01*
X31900000Y94600000D02*
X31900000Y95600000D01*
X31900000Y95600000D02*
X40300000Y104000000D01*
X28500000Y85900000D02*
X28500000Y85700000D01*
X28500000Y85700000D02*
X31900000Y82300000D01*
X31900000Y82300000D02*
X31900000Y68800000D01*
X31900000Y68800000D02*
X40300000Y60400000D01*
X47700000Y119200000D02*
X48500000Y118400000D01*
X48500000Y118400000D02*
X48500000Y102400000D01*
X48500000Y102400000D02*
X47700000Y101600000D01*
X27900000Y78100000D02*
X26200000Y78100000D01*
X26200000Y78100000D02*
X26000000Y78300000D01*
X26000000Y78300000D02*
X24100000Y78300000D01*
X24100000Y78300000D02*
X24000000Y78400000D01*
X24000000Y78400000D02*
X23500000Y78400000D01*
X23500000Y78400000D02*
X23400000Y78500000D01*
X22600000Y78500000D02*
X19900000Y78500000D01*
X17600000Y78100000D02*
X17100000Y78100000D01*
X28500000Y78100000D02*
X28500000Y78300000D01*
X28500000Y78300000D02*
X29100000Y78900000D01*
X29100000Y78900000D02*
X29600000Y78900000D01*
X29600000Y78900000D02*
X29900000Y79200000D01*
X29900000Y79200000D02*
X30800000Y79200000D01*
X27900000Y73800000D02*
X26900000Y73800000D01*
X24200000Y73800000D02*
X23800000Y73800000D01*
X23800000Y73800000D02*
X23400000Y74200000D01*
X22600000Y74200000D02*
X20900000Y74200000D01*
X20900000Y74200000D02*
X20700000Y74000000D01*
X20700000Y74000000D02*
X18800000Y74000000D01*
X18800000Y74000000D02*
X18700000Y73900000D01*
X18700000Y73900000D02*
X17200000Y73900000D01*
X17200000Y73900000D02*
X17100000Y73800000D01*
X28500000Y73800000D02*
X28500000Y74000000D01*
X28500000Y74000000D02*
X30800000Y76300000D01*
X22600000Y69900000D02*
X20900000Y69900000D01*
X20900000Y69900000D02*
X20700000Y69700000D01*
X20700000Y69700000D02*
X18800000Y69700000D01*
X18800000Y69700000D02*
X18700000Y69600000D01*
X18700000Y69600000D02*
X17200000Y69600000D01*
X17200000Y69600000D02*
X17100000Y69500000D01*
X28500000Y69500000D02*
X28500000Y69700000D01*
X28500000Y69700000D02*
X30800000Y72000000D01*
X27900000Y65200000D02*
X26200000Y65200000D01*
X26200000Y65200000D02*
X26000000Y65400000D01*
X26000000Y65400000D02*
X24100000Y65400000D01*
X24100000Y65400000D02*
X24000000Y65500000D01*
X24000000Y65500000D02*
X23500000Y65500000D01*
X23500000Y65500000D02*
X23400000Y65600000D01*
X22600000Y65600000D02*
X19900000Y65600000D01*
X17500000Y65200000D02*
X17100000Y65200000D01*
X28500000Y64400000D02*
X28500000Y64200000D01*
X28500000Y64200000D02*
X29100000Y63600000D01*
X29100000Y63600000D02*
X32000000Y63600000D01*
X27900000Y60900000D02*
X26200000Y60900000D01*
X26200000Y60900000D02*
X26000000Y61100000D01*
X26000000Y61100000D02*
X24100000Y61100000D01*
X24100000Y61100000D02*
X24000000Y61200000D01*
X24000000Y61200000D02*
X23500000Y61200000D01*
X23500000Y61200000D02*
X23400000Y61300000D01*
X28500000Y60900000D02*
X28500000Y61100000D01*
X28500000Y61100000D02*
X29100000Y61700000D01*
X29100000Y61700000D02*
X33900000Y61700000D01*
D11*
X43900000Y69500000D02*
X43900000Y57900000D01*
X43900000Y57900000D02*
X48800000Y53000000D01*
X49800000Y52600000D02*
X49800000Y51700000D01*
X50600000Y51300000D02*
X51700000Y51300000D01*
X51700000Y51300000D02*
X52300000Y50700000D01*
X52300000Y50700000D02*
X54100000Y50700000D01*
X54100000Y50700000D02*
X54300000Y50500000D01*
X54300000Y50500000D02*
X55000000Y50500000D01*
X55000000Y50500000D02*
X55400000Y50100000D01*
X55900000Y49400000D02*
X55900000Y48300000D01*
X55900000Y48300000D02*
X55300000Y47700000D01*
X55300000Y47700000D02*
X55300000Y46200000D01*
X56100000Y50600000D02*
X56100000Y52300000D01*
X56100000Y52300000D02*
X56300000Y52500000D01*
X56300000Y52500000D02*
X56300000Y54400000D01*
X56300000Y54400000D02*
X56400000Y54500000D01*
X56400000Y54500000D02*
X56400000Y55500000D01*
X56400000Y55500000D02*
X56500000Y55600000D01*
X31800000Y60700000D02*
X31800000Y58000000D01*
X31800000Y58000000D02*
X35100000Y54700000D01*
X35100000Y54700000D02*
X35100000Y54600000D01*
X35100000Y54600000D02*
X35200000Y54500000D01*
X35200000Y54500000D02*
X35200000Y53400000D01*
X35200000Y53400000D02*
X36000000Y52600000D01*
X36000000Y52600000D02*
X36000000Y52500000D01*
X36000000Y52500000D02*
X36100000Y52400000D01*
X36100000Y52400000D02*
X36100000Y46300000D01*
X36100000Y46300000D02*
X38400000Y44000000D01*
X38400000Y44000000D02*
X38500000Y44000000D01*
X38500000Y44000000D02*
X38600000Y43900000D01*
X38600000Y43900000D02*
X43400000Y43900000D01*
X43400000Y43900000D02*
X45800000Y41500000D01*
X45800000Y41500000D02*
X45800000Y41400000D01*
X45800000Y41400000D02*
X45900000Y41300000D01*
X45900000Y41300000D02*
X45900000Y39000000D01*
X45900000Y39000000D02*
X46200000Y38700000D01*
X46200000Y38700000D02*
X46200000Y38600000D01*
X46200000Y38600000D02*
X46300000Y38500000D01*
X46300000Y38500000D02*
X46300000Y32500000D01*
X46300000Y32500000D02*
X48800000Y30000000D01*
X48800000Y30000000D02*
X48800000Y29000000D01*
X49800000Y28600000D02*
X49800000Y27700000D01*
X50600000Y27300000D02*
X51700000Y27300000D01*
X51700000Y27300000D02*
X52300000Y26700000D01*
X52300000Y26700000D02*
X54100000Y26700000D01*
X54100000Y26700000D02*
X54300000Y26500000D01*
X54300000Y26500000D02*
X55000000Y26500000D01*
X55000000Y26500000D02*
X55400000Y26100000D01*
X17100000Y52700000D02*
X17600000Y52700000D01*
X20300000Y52700000D02*
X20900000Y52700000D01*
X20900000Y52600000D02*
X20900000Y49400000D01*
X34500000Y52200000D02*
X33900000Y52800000D01*
X33900000Y52800000D02*
X33800000Y52800000D01*
X33800000Y52800000D02*
X33700000Y52900000D01*
X33700000Y52900000D02*
X29100000Y52900000D01*
X28500000Y53400000D02*
X27900000Y54000000D01*
X27900000Y54000000D02*
X27800000Y54000000D01*
X27800000Y54000000D02*
X27700000Y54100000D01*
X27700000Y54100000D02*
X25200000Y54100000D01*
X25200000Y54100000D02*
X24900000Y53800000D01*
X24900000Y53800000D02*
X23500000Y53800000D01*
X23500000Y53800000D02*
X23100000Y53400000D01*
X36800000Y51800000D02*
X43300000Y51800000D01*
X43300000Y51800000D02*
X43400000Y51700000D01*
X35900000Y54100000D02*
X42300000Y54100000D01*
X42300000Y54100000D02*
X43400000Y53000000D01*
X32700000Y51900000D02*
X28200000Y51900000D01*
X28200000Y51900000D02*
X27500000Y52600000D01*
X26900000Y52600000D02*
X25800000Y52600000D01*
X25800000Y52600000D02*
X25200000Y52000000D01*
X25200000Y52000000D02*
X24700000Y52000000D01*
X24700000Y52000000D02*
X23600000Y50900000D01*
X23600000Y50900000D02*
X21700000Y50900000D01*
X17000000Y50900000D02*
X15500000Y49400000D01*
D12*
X16500000Y48600000D02*
X16200000Y48300000D01*
X16200000Y48300000D02*
X16000000Y48300000D01*
X16000000Y48300000D02*
X15800000Y48100000D01*
X15800000Y48100000D02*
X15700000Y48100000D01*
X15700000Y48100000D02*
X15000000Y47400000D01*
X15000000Y47400000D02*
X14600000Y47400000D01*
X14600000Y47400000D02*
X10100000Y42900000D01*
X10100000Y42900000D02*
X10100000Y42800000D01*
X10100000Y42800000D02*
X10000000Y42700000D01*
X10000000Y42700000D02*
X10000000Y42600000D01*
X10000000Y42600000D02*
X9900000Y42500000D01*
X9900000Y42500000D02*
X9900000Y38800000D01*
X9900000Y38800000D02*
X9800000Y38700000D01*
X9800000Y38700000D02*
X9800000Y34500000D01*
X9800000Y34500000D02*
X6400000Y31100000D01*
X6400000Y31100000D02*
X6400000Y31000000D01*
X6400000Y31000000D02*
X6200000Y30800000D01*
X6200000Y30800000D02*
X6200000Y30600000D01*
X6200000Y30600000D02*
X6100000Y30500000D01*
X6100000Y30500000D02*
X6100000Y29200000D01*
X6100000Y29200000D02*
X6900000Y28400000D01*
X6900000Y28400000D02*
X7000000Y28400000D01*
X7000000Y28400000D02*
X7200000Y28200000D01*
X7200000Y28200000D02*
X7400000Y28200000D01*
X7400000Y28200000D02*
X7500000Y28100000D01*
X7500000Y28100000D02*
X8800000Y28100000D01*
X8800000Y28100000D02*
X9600000Y28900000D01*
X9600000Y28900000D02*
X9600000Y29000000D01*
X9600000Y29000000D02*
X9800000Y29200000D01*
X9800000Y29200000D02*
X9800000Y29400000D01*
X9800000Y29400000D02*
X9900000Y29500000D01*
X9900000Y29500000D02*
X9900000Y30700000D01*
X9900000Y30700000D02*
X10600000Y31400000D01*
X10600000Y31400000D02*
X10700000Y31400000D01*
X10700000Y31400000D02*
X10800000Y31500000D01*
X10800000Y31500000D02*
X10900000Y31500000D01*
X10900000Y31500000D02*
X11000000Y31600000D01*
X11000000Y31600000D02*
X11300000Y31600000D01*
X11300000Y31600000D02*
X16000000Y36300000D01*
X16000000Y36300000D02*
X16000000Y38600000D01*
X16000000Y38600000D02*
X17700000Y40300000D01*
X17700000Y40300000D02*
X17700000Y43800000D01*
X17700000Y43800000D02*
X22500000Y48600000D01*
D11*
X23100000Y49400000D02*
X26900000Y49400000D01*
X27500000Y48600000D02*
X28100000Y48000000D01*
X28100000Y48000000D02*
X28200000Y48000000D01*
X28200000Y48000000D02*
X28300000Y47900000D01*
X28300000Y47900000D02*
X35300000Y47900000D01*
X36800000Y47900000D02*
X42000000Y47900000D01*
X42000000Y47900000D02*
X43000000Y46900000D01*
X43000000Y46900000D02*
X43100000Y46900000D01*
X43100000Y46900000D02*
X43200000Y46800000D01*
X43200000Y46800000D02*
X43300000Y46800000D01*
X43300000Y46800000D02*
X43400000Y46700000D01*
X29100000Y48900000D02*
X32900000Y48900000D01*
D12*
X36800000Y47000000D02*
X41800000Y47000000D01*
X41800000Y47000000D02*
X43400000Y45400000D01*
D11*
X21500000Y45400000D02*
X21800000Y45700000D01*
X21800000Y45700000D02*
X21800000Y45800000D01*
X21800000Y45800000D02*
X22000000Y46000000D01*
X22000000Y46000000D02*
X22100000Y46000000D01*
X22100000Y46000000D02*
X22200000Y46100000D01*
X22200000Y46100000D02*
X22300000Y46100000D01*
X22300000Y46100000D02*
X22900000Y46700000D01*
X22900000Y46700000D02*
X24800000Y46700000D01*
X24800000Y46700000D02*
X24900000Y46800000D01*
X24900000Y46800000D02*
X30500000Y46800000D01*
X30500000Y46800000D02*
X30800000Y47100000D01*
X34200000Y49500000D02*
X34400000Y49500000D01*
X34400000Y49500000D02*
X34500000Y49400000D01*
X35100000Y49100000D02*
X35300000Y49100000D01*
X36800000Y49100000D02*
X38900000Y49100000D01*
X15500000Y45200000D02*
X15600000Y45200000D01*
X40200000Y48600000D02*
X40500000Y48600000D01*
X41100000Y48600000D02*
X42600000Y48600000D01*
X47000000Y48600000D02*
X48000000Y48600000D01*
X48000000Y48600000D02*
X48400000Y48200000D01*
X48400000Y48200000D02*
X48500000Y48200000D01*
X48500000Y48200000D02*
X48800000Y47900000D01*
X23100000Y45400000D02*
X26900000Y45400000D01*
X27500000Y44600000D02*
X28100000Y44000000D01*
X28100000Y44000000D02*
X28200000Y44000000D01*
X28200000Y44000000D02*
X28900000Y43300000D01*
X28900000Y43300000D02*
X38300000Y43300000D01*
X38300000Y43300000D02*
X38400000Y43200000D01*
X38400000Y43200000D02*
X42900000Y43200000D01*
X47000000Y43900000D02*
X47600000Y43900000D01*
X47600000Y43900000D02*
X48000000Y44300000D01*
X48000000Y44300000D02*
X48100000Y44300000D01*
X48100000Y44300000D02*
X48800000Y45000000D01*
X50000000Y45400000D02*
X50000000Y46300000D01*
X29100000Y45400000D02*
X32900000Y45400000D01*
X33500000Y44600000D02*
X33700000Y44400000D01*
X47000000Y49500000D02*
X48100000Y49500000D01*
X48100000Y49500000D02*
X48400000Y49800000D01*
X48400000Y49800000D02*
X48500000Y49800000D01*
X48500000Y49800000D02*
X48800000Y50100000D01*
X20900000Y40600000D02*
X20900000Y37400000D01*
X34500000Y40200000D02*
X33900000Y40800000D01*
X33900000Y40800000D02*
X33800000Y40800000D01*
X33800000Y40800000D02*
X33700000Y40900000D01*
X33700000Y40900000D02*
X29100000Y40900000D01*
X28500000Y41400000D02*
X27900000Y42000000D01*
X27900000Y42000000D02*
X27800000Y42000000D01*
X27800000Y42000000D02*
X27700000Y42100000D01*
X27700000Y42100000D02*
X25200000Y42100000D01*
X25200000Y42100000D02*
X24900000Y41800000D01*
X24900000Y41800000D02*
X23500000Y41800000D01*
X23500000Y41800000D02*
X23100000Y41400000D01*
X35300000Y39800000D02*
X43300000Y39800000D01*
X43300000Y39800000D02*
X43400000Y39700000D01*
X34400000Y42100000D02*
X42300000Y42100000D01*
X42300000Y42100000D02*
X43400000Y41000000D01*
X32700000Y39900000D02*
X28200000Y39900000D01*
X28200000Y39900000D02*
X27500000Y40600000D01*
X17100000Y36600000D02*
X18200000Y36600000D01*
X18200000Y36600000D02*
X18800000Y36000000D01*
X18800000Y36000000D02*
X20500000Y36000000D01*
X20500000Y36000000D02*
X20600000Y35900000D01*
X20600000Y35900000D02*
X21800000Y35900000D01*
X21800000Y35900000D02*
X22500000Y36600000D01*
X23100000Y37400000D02*
X26900000Y37400000D01*
X27500000Y36600000D02*
X28100000Y36000000D01*
X28100000Y36000000D02*
X28200000Y36000000D01*
X28200000Y36000000D02*
X28900000Y35300000D01*
X28900000Y35300000D02*
X42600000Y35300000D01*
X42600000Y35300000D02*
X43000000Y34900000D01*
X43000000Y34900000D02*
X43100000Y34900000D01*
X43100000Y34900000D02*
X43200000Y34800000D01*
X43200000Y34800000D02*
X43300000Y34800000D01*
X43300000Y34800000D02*
X43400000Y34700000D01*
X29100000Y37400000D02*
X32900000Y37400000D01*
X33500000Y36600000D02*
X33800000Y36300000D01*
X33800000Y36300000D02*
X33800000Y36200000D01*
X33800000Y36200000D02*
X33900000Y36100000D01*
X35400000Y34600000D02*
X42000000Y34600000D01*
X42000000Y34600000D02*
X43000000Y33600000D01*
X43000000Y33600000D02*
X43100000Y33600000D01*
X43100000Y33600000D02*
X43200000Y33500000D01*
X43200000Y33500000D02*
X43300000Y33500000D01*
X43300000Y33500000D02*
X43400000Y33400000D01*
X21500000Y33400000D02*
X21800000Y33700000D01*
X21800000Y33700000D02*
X21800000Y33800000D01*
X21800000Y33800000D02*
X22000000Y34000000D01*
X22000000Y34000000D02*
X22100000Y34000000D01*
X22100000Y34000000D02*
X22200000Y34100000D01*
X22200000Y34100000D02*
X22800000Y34100000D01*
X22800000Y34100000D02*
X23000000Y34300000D01*
X23000000Y34300000D02*
X30900000Y34300000D01*
X30900000Y34300000D02*
X31100000Y34500000D01*
X34200000Y37000000D02*
X34500000Y37000000D01*
X35100000Y36900000D02*
X38900000Y36900000D01*
X15500000Y33400000D02*
X15800000Y33700000D01*
X15800000Y33700000D02*
X15800000Y33800000D01*
X15800000Y33800000D02*
X16000000Y34000000D01*
X16000000Y34000000D02*
X16100000Y34000000D01*
X16100000Y34000000D02*
X16200000Y34100000D01*
X16200000Y34100000D02*
X16300000Y34100000D01*
X16300000Y34100000D02*
X16900000Y34700000D01*
X16900000Y34700000D02*
X18800000Y34700000D01*
X18800000Y34700000D02*
X18900000Y34800000D01*
X18900000Y34800000D02*
X22500000Y34800000D01*
X22500000Y34800000D02*
X22600000Y34900000D01*
X22600000Y34900000D02*
X22700000Y34900000D01*
X22700000Y34900000D02*
X22800000Y35000000D01*
X22800000Y35000000D02*
X24400000Y35000000D01*
X24400000Y35000000D02*
X26000000Y36600000D01*
X27500000Y38100000D02*
X39800000Y38100000D01*
X39800000Y38100000D02*
X40500000Y37400000D01*
X41100000Y36600000D02*
X42600000Y36600000D01*
X47000000Y36600000D02*
X48000000Y36600000D01*
X48000000Y36600000D02*
X48400000Y36200000D01*
X48400000Y36200000D02*
X48500000Y36200000D01*
X48500000Y36200000D02*
X48800000Y35900000D01*
X23100000Y33400000D02*
X26900000Y33400000D01*
X27500000Y32600000D02*
X28100000Y32000000D01*
X28100000Y32000000D02*
X28200000Y32000000D01*
X28200000Y32000000D02*
X28300000Y31900000D01*
X28300000Y31900000D02*
X45700000Y31900000D01*
X47000000Y32900000D02*
X48600000Y32900000D01*
X48600000Y32900000D02*
X48700000Y33000000D01*
X48700000Y33000000D02*
X48800000Y33000000D01*
X50000000Y33400000D02*
X50000000Y34300000D01*
X29100000Y32800000D02*
X32900000Y32800000D01*
X33500000Y32600000D02*
X33700000Y32600000D01*
X47000000Y37500000D02*
X48100000Y37500000D01*
X48100000Y37500000D02*
X48400000Y37800000D01*
X48400000Y37800000D02*
X48500000Y37800000D01*
X48500000Y37800000D02*
X48800000Y38100000D01*
X17100000Y29400000D02*
X20900000Y29400000D01*
X20900000Y28600000D02*
X20900000Y25400000D01*
X34500000Y28200000D02*
X33900000Y28800000D01*
X33900000Y28800000D02*
X33800000Y28800000D01*
X33800000Y28800000D02*
X33700000Y28900000D01*
X33700000Y28900000D02*
X29100000Y28900000D01*
X28500000Y28600000D02*
X27900000Y28000000D01*
X27900000Y28000000D02*
X27800000Y28000000D01*
X27800000Y28000000D02*
X27700000Y27900000D01*
X27700000Y27900000D02*
X25200000Y27900000D01*
X25200000Y27900000D02*
X24900000Y28200000D01*
X24900000Y28200000D02*
X23500000Y28200000D01*
X23500000Y28200000D02*
X23100000Y28600000D01*
X35300000Y27800000D02*
X43300000Y27800000D01*
X43300000Y27800000D02*
X43400000Y27700000D01*
X34400000Y30100000D02*
X42300000Y30100000D01*
X42300000Y30100000D02*
X43400000Y29000000D01*
D12*
X32700000Y27800000D02*
X31000000Y27800000D01*
X31000000Y27800000D02*
X30800000Y27600000D01*
X30800000Y27600000D02*
X28900000Y27600000D01*
X28900000Y27600000D02*
X28800000Y27500000D01*
X28800000Y27500000D02*
X28100000Y27500000D01*
X28100000Y27500000D02*
X28000000Y27400000D01*
X28000000Y27400000D02*
X22900000Y27400000D01*
X22900000Y27400000D02*
X22000000Y28300000D01*
X22000000Y28300000D02*
X22000000Y29700000D01*
X22000000Y29700000D02*
X22200000Y29900000D01*
X22200000Y29900000D02*
X26400000Y29900000D01*
X26400000Y29900000D02*
X26900000Y29400000D01*
D11*
X26900000Y29400000D02*
X25800000Y29400000D01*
X25800000Y29400000D02*
X25200000Y30000000D01*
X25200000Y30000000D02*
X23500000Y30000000D01*
X23500000Y30000000D02*
X23400000Y30100000D01*
X23400000Y30100000D02*
X14500000Y30100000D01*
X14500000Y30100000D02*
X14200000Y29800000D01*
X14200000Y29800000D02*
X14200000Y29700000D01*
X14200000Y29700000D02*
X14100000Y29600000D01*
X14100000Y29600000D02*
X14100000Y26200000D01*
X14100000Y26200000D02*
X14900000Y25400000D01*
X17100000Y24600000D02*
X18200000Y24600000D01*
X18200000Y24600000D02*
X18800000Y24000000D01*
X18800000Y24000000D02*
X20500000Y24000000D01*
X20500000Y24000000D02*
X20600000Y23900000D01*
X20600000Y23900000D02*
X21800000Y23900000D01*
X21800000Y23900000D02*
X22500000Y24600000D01*
X23100000Y24600000D02*
X26900000Y24600000D01*
X27500000Y24600000D02*
X28100000Y24000000D01*
X28100000Y24000000D02*
X28200000Y24000000D01*
X28200000Y24000000D02*
X28900000Y23300000D01*
X28900000Y23300000D02*
X42600000Y23300000D01*
X42600000Y23300000D02*
X43000000Y22900000D01*
X43000000Y22900000D02*
X43100000Y22900000D01*
X43100000Y22900000D02*
X43200000Y22800000D01*
X43200000Y22800000D02*
X43300000Y22800000D01*
X43300000Y22800000D02*
X43400000Y22700000D01*
X29100000Y24700000D02*
X32900000Y24700000D01*
X33500000Y24600000D02*
X33800000Y24300000D01*
X33800000Y24300000D02*
X33800000Y24200000D01*
X33800000Y24200000D02*
X33900000Y24100000D01*
X35400000Y22600000D02*
X42000000Y22600000D01*
X42000000Y22600000D02*
X43000000Y21600000D01*
X43000000Y21600000D02*
X43100000Y21600000D01*
X43100000Y21600000D02*
X43200000Y21500000D01*
X43200000Y21500000D02*
X43300000Y21500000D01*
X43300000Y21500000D02*
X43400000Y21400000D01*
X21500000Y21400000D02*
X21800000Y21700000D01*
X21800000Y21700000D02*
X21800000Y21800000D01*
X21800000Y21800000D02*
X22000000Y22000000D01*
X22000000Y22000000D02*
X22100000Y22000000D01*
X22100000Y22000000D02*
X22200000Y22100000D01*
X22200000Y22100000D02*
X22800000Y22100000D01*
X22800000Y22100000D02*
X23000000Y22300000D01*
X23000000Y22300000D02*
X30900000Y22300000D01*
X30900000Y22300000D02*
X31100000Y22500000D01*
X34200000Y25000000D02*
X34500000Y25000000D01*
X35100000Y25400000D02*
X38900000Y25400000D01*
X15500000Y21400000D02*
X15800000Y21700000D01*
X15800000Y21700000D02*
X15800000Y21800000D01*
X15800000Y21800000D02*
X16000000Y22000000D01*
X16000000Y22000000D02*
X16100000Y22000000D01*
X16100000Y22000000D02*
X16200000Y22100000D01*
X16200000Y22100000D02*
X16300000Y22100000D01*
X16300000Y22100000D02*
X16900000Y22700000D01*
X16900000Y22700000D02*
X18800000Y22700000D01*
X18800000Y22700000D02*
X18900000Y22800000D01*
X18900000Y22800000D02*
X22500000Y22800000D01*
X22500000Y22800000D02*
X22600000Y22900000D01*
X22600000Y22900000D02*
X22700000Y22900000D01*
X22700000Y22900000D02*
X22800000Y23000000D01*
X22800000Y23000000D02*
X23400000Y23000000D01*
X23400000Y23000000D02*
X24200000Y23800000D01*
X25700000Y25300000D02*
X26400000Y26000000D01*
X26400000Y26000000D02*
X26500000Y26000000D01*
X26500000Y26000000D02*
X26600000Y26100000D01*
X26600000Y26100000D02*
X39800000Y26100000D01*
X39800000Y26100000D02*
X40500000Y25400000D01*
X41100000Y24600000D02*
X42600000Y24600000D01*
X45900000Y24600000D02*
X48000000Y24600000D01*
X48000000Y24600000D02*
X48400000Y24200000D01*
X48400000Y24200000D02*
X48500000Y24200000D01*
X48500000Y24200000D02*
X48800000Y23900000D01*
X23100000Y21400000D02*
X26900000Y21400000D01*
X27500000Y20600000D02*
X28100000Y20000000D01*
X28100000Y20000000D02*
X28200000Y20000000D01*
X28200000Y20000000D02*
X28300000Y19900000D01*
X28300000Y19900000D02*
X47700000Y19900000D01*
X47700000Y19900000D02*
X48800000Y21000000D01*
X50000000Y21400000D02*
X50000000Y22300000D01*
X29100000Y20800000D02*
X32900000Y20800000D01*
X33500000Y20600000D02*
X33700000Y20600000D01*
X45900000Y25500000D02*
X48100000Y25500000D01*
X48100000Y25500000D02*
X48400000Y25800000D01*
X48400000Y25800000D02*
X48500000Y25800000D01*
X48500000Y25800000D02*
X48800000Y26100000D01*
X56500000Y63600000D02*
X56500000Y62500000D01*
X56500000Y62500000D02*
X55900000Y61900000D01*
X55900000Y61900000D02*
X55900000Y60800000D01*
X55900000Y60800000D02*
X55500000Y60400000D01*
X55500000Y59600000D02*
X55800000Y59300000D01*
X55800000Y59300000D02*
X55800000Y58800000D01*
X55800000Y58800000D02*
X57800000Y56800000D01*
X57800000Y56800000D02*
X57800000Y56700000D01*
X57800000Y56700000D02*
X57900000Y56600000D01*
X57900000Y56600000D02*
X57900000Y46600000D01*
X57900000Y46600000D02*
X57500000Y46200000D01*
X106600000Y12800000D02*
X105200000Y12800000D01*
X105200000Y12800000D02*
X104800000Y12400000D01*
X104800000Y12400000D02*
X103100000Y12400000D01*
X102500000Y12400000D02*
X102500000Y46000000D01*
X102500000Y46000000D02*
X97400000Y51100000D01*
X97400000Y51100000D02*
X97400000Y51200000D01*
X97400000Y51200000D02*
X97300000Y51300000D01*
X97300000Y51300000D02*
X97300000Y54400000D01*
X97300000Y54400000D02*
X83300000Y68400000D01*
X83300000Y68400000D02*
X83300000Y90200000D01*
X83300000Y90200000D02*
X82700000Y90800000D01*
X104200000Y106100000D02*
X103900000Y105800000D01*
X103900000Y105800000D02*
X103900000Y105700000D01*
X103900000Y105700000D02*
X103500000Y105300000D01*
X103500000Y105300000D02*
X103500000Y78700000D01*
X103500000Y78700000D02*
X100500000Y75700000D01*
X100500000Y75700000D02*
X100500000Y75500000D01*
X100500000Y75500000D02*
X89000000Y64000000D01*
X104200000Y108600000D02*
X103900000Y108300000D01*
X103900000Y108300000D02*
X103900000Y108200000D01*
X103900000Y108200000D02*
X102900000Y107200000D01*
X102900000Y107200000D02*
X102900000Y79200000D01*
X102900000Y79200000D02*
X101500000Y77800000D01*
X101500000Y77800000D02*
X101500000Y77600000D01*
X101500000Y77600000D02*
X89900000Y66000000D01*
X102200000Y83200000D02*
X101000000Y83200000D01*
X101000000Y83200000D02*
X85400000Y67600000D01*
X73200000Y21200000D02*
X73200000Y21100000D01*
X73200000Y21100000D02*
X71500000Y19400000D01*
X66700000Y19000000D02*
X67800000Y19000000D01*
X67800000Y19000000D02*
X68400000Y18400000D01*
X68400000Y18400000D02*
X70100000Y18400000D01*
X70100000Y18400000D02*
X70500000Y18000000D01*
X70500000Y18000000D02*
X71900000Y18000000D01*
X71900000Y18000000D02*
X72500000Y18600000D01*
X66700000Y16400000D02*
X70900000Y16400000D01*
X74800000Y19600000D02*
X74800000Y15700000D01*
X74800000Y15700000D02*
X74300000Y15200000D01*
X74300000Y15200000D02*
X73700000Y15200000D01*
X73700000Y15200000D02*
X73500000Y15000000D01*
X73500000Y15000000D02*
X73100000Y15000000D01*
X73100000Y15000000D02*
X71500000Y13400000D01*
X70900000Y7400000D02*
X70900000Y9600000D01*
X71500000Y10400000D02*
X71800000Y10700000D01*
X71800000Y10700000D02*
X71900000Y10700000D01*
X71900000Y10700000D02*
X72900000Y11700000D01*
X72900000Y11700000D02*
X73800000Y11700000D01*
X73800000Y11700000D02*
X74800000Y12700000D01*
X74800000Y12700000D02*
X74800000Y13300000D01*
X74800000Y13300000D02*
X79200000Y17700000D01*
X77300000Y40900000D02*
X75600000Y40900000D01*
X75600000Y40900000D02*
X75400000Y41100000D01*
X75400000Y41100000D02*
X72100000Y41100000D01*
X72100000Y41100000D02*
X71500000Y40500000D01*
X77300000Y38400000D02*
X75600000Y38400000D01*
X75600000Y38400000D02*
X75400000Y38600000D01*
X75400000Y38600000D02*
X72100000Y38600000D01*
X72100000Y38600000D02*
X71500000Y38000000D01*
X77300000Y35800000D02*
X75600000Y35800000D01*
X75600000Y35800000D02*
X75400000Y36000000D01*
X75400000Y36000000D02*
X72100000Y36000000D01*
X72100000Y36000000D02*
X71500000Y35400000D01*
X77300000Y33300000D02*
X75600000Y33300000D01*
X75600000Y33300000D02*
X75400000Y33500000D01*
X75400000Y33500000D02*
X72100000Y33500000D01*
X72100000Y33500000D02*
X71500000Y32900000D01*
X77300000Y30800000D02*
X75600000Y30800000D01*
X75600000Y30800000D02*
X75400000Y31000000D01*
X75400000Y31000000D02*
X72200000Y31000000D01*
X72200000Y31000000D02*
X71500000Y30300000D01*
X77300000Y28200000D02*
X75600000Y28200000D01*
X75600000Y28200000D02*
X75400000Y28400000D01*
X75400000Y28400000D02*
X72100000Y28400000D01*
X72100000Y28400000D02*
X71500000Y27800000D01*
X77300000Y25700000D02*
X75600000Y25700000D01*
X75600000Y25700000D02*
X75400000Y25900000D01*
X75400000Y25900000D02*
X72100000Y25900000D01*
X72100000Y25900000D02*
X71500000Y25300000D01*
X72200000Y21200000D02*
X71500000Y21900000D01*
X72200000Y39900000D02*
X72500000Y39900000D01*
X72200000Y37500000D02*
X72500000Y37500000D01*
X72200000Y34600000D02*
X72500000Y34600000D01*
X68100000Y31700000D02*
X70300000Y31700000D01*
X70300000Y31700000D02*
X70500000Y31500000D01*
X70500000Y31500000D02*
X71800000Y31500000D01*
X71800000Y31500000D02*
X71900000Y31600000D01*
X71900000Y31600000D02*
X72000000Y31600000D01*
X72000000Y31600000D02*
X72500000Y32100000D01*
X72200000Y29500000D02*
X72500000Y29500000D01*
X72200000Y27200000D02*
X72500000Y27200000D01*
X72200000Y24700000D02*
X72500000Y24700000D01*
X72200000Y22300000D02*
X72500000Y22300000D01*
X81300000Y98400000D02*
X81000000Y98100000D01*
X81000000Y98100000D02*
X81000000Y97900000D01*
X81000000Y97900000D02*
X80700000Y97600000D01*
X80700000Y97600000D02*
X80700000Y62200000D01*
X80700000Y62200000D02*
X89300000Y53600000D01*
X80000000Y94600000D02*
X80000000Y60400000D01*
X80000000Y60400000D02*
X89300000Y51100000D01*
X88700000Y17800000D02*
X88700000Y6700000D01*
X88700000Y6700000D02*
X86100000Y4100000D01*
X79300000Y91400000D02*
X79300000Y58500000D01*
X79300000Y58500000D02*
X89300000Y48500000D01*
X91100000Y17400000D02*
X91100000Y4100000D01*
X82700000Y106100000D02*
X83000000Y105800000D01*
X83000000Y105800000D02*
X83000000Y105600000D01*
X83000000Y105600000D02*
X83300000Y105300000D01*
X83300000Y105300000D02*
X83300000Y104700000D01*
X83300000Y104700000D02*
X83500000Y104500000D01*
X83500000Y104500000D02*
X83500000Y90900000D01*
X83500000Y90900000D02*
X83900000Y90500000D01*
X83900000Y90500000D02*
X83900000Y68900000D01*
X83900000Y68900000D02*
X84000000Y68800000D01*
X83600000Y67000000D02*
X83600000Y66700000D01*
X83600000Y66700000D02*
X91300000Y59000000D01*
X91300000Y59000000D02*
X91300000Y46600000D01*
X91300000Y46600000D02*
X90700000Y46000000D01*
X80300000Y56400000D02*
X80300000Y52500000D01*
X80300000Y52500000D02*
X89300000Y43500000D01*
X66700000Y110600000D02*
X67000000Y110300000D01*
X67000000Y110300000D02*
X67000000Y110100000D01*
X67000000Y110100000D02*
X67300000Y109800000D01*
X67300000Y109800000D02*
X67300000Y93700000D01*
X67300000Y93700000D02*
X68700000Y92300000D01*
X68700000Y92300000D02*
X68700000Y87100000D01*
X68700000Y87100000D02*
X74100000Y81700000D01*
X74100000Y81700000D02*
X74100000Y81600000D01*
X74100000Y81600000D02*
X78500000Y77200000D01*
X81400000Y66900000D02*
X81400000Y62600000D01*
X81400000Y62600000D02*
X87700000Y56300000D01*
X87700000Y17800000D02*
X87700000Y10700000D01*
X87700000Y10700000D02*
X81100000Y4100000D01*
X65300000Y118200000D02*
X65000000Y117900000D01*
X65000000Y117900000D02*
X65000000Y117700000D01*
X65000000Y117700000D02*
X64700000Y117400000D01*
X64700000Y117400000D02*
X64700000Y93200000D01*
X64700000Y93200000D02*
X64200000Y92700000D01*
X64200000Y92700000D02*
X64200000Y84700000D01*
X64200000Y84700000D02*
X65300000Y83600000D01*
X64600000Y40900000D02*
X64600000Y35100000D01*
X64600000Y35100000D02*
X64200000Y34700000D01*
X64200000Y34700000D02*
X64200000Y5800000D01*
X64200000Y5800000D02*
X65900000Y4100000D01*
X66700000Y81100000D02*
X67800000Y81100000D01*
X67800000Y81100000D02*
X68400000Y81700000D01*
X68400000Y81700000D02*
X68900000Y81700000D01*
X68900000Y81700000D02*
X70000000Y82800000D01*
X70000000Y82800000D02*
X71800000Y82800000D01*
X65300000Y79700000D02*
X65000000Y79400000D01*
X65000000Y79400000D02*
X65000000Y79200000D01*
X65000000Y79200000D02*
X64700000Y78900000D01*
X64700000Y78900000D02*
X64700000Y43200000D01*
X64700000Y43200000D02*
X63900000Y42400000D01*
X64900000Y15700000D02*
X64900000Y14100000D01*
X64900000Y14100000D02*
X68700000Y10300000D01*
X68700000Y10300000D02*
X68700000Y6300000D01*
X68700000Y6300000D02*
X70900000Y4100000D01*
X66700000Y114500000D02*
X68100000Y114500000D01*
X68100000Y114500000D02*
X68500000Y114900000D01*
X68500000Y114900000D02*
X70400000Y114900000D01*
X70400000Y114900000D02*
X70500000Y115000000D01*
X70500000Y115000000D02*
X73000000Y115000000D01*
X73000000Y115000000D02*
X73300000Y115300000D01*
X73300000Y115300000D02*
X73300000Y115600000D01*
X73300000Y115600000D02*
X81000000Y123300000D01*
X81000000Y123300000D02*
X83000000Y123300000D01*
X83000000Y123300000D02*
X83300000Y123000000D01*
X83300000Y123000000D02*
X83300000Y106400000D01*
X83300000Y106400000D02*
X83600000Y106100000D01*
X83600000Y106100000D02*
X83600000Y105900000D01*
X83600000Y105900000D02*
X83900000Y105600000D01*
X83900000Y105600000D02*
X83900000Y105000000D01*
X83900000Y105000000D02*
X84100000Y104800000D01*
X84100000Y104800000D02*
X84100000Y91200000D01*
X84100000Y91200000D02*
X84500000Y90800000D01*
X84500000Y90800000D02*
X84500000Y80100000D01*
X84500000Y80100000D02*
X84600000Y80000000D01*
X84600000Y80000000D02*
X84600000Y73600000D01*
X84600000Y73600000D02*
X84600000Y72500000D01*
X84600000Y72500000D02*
X86900000Y70200000D01*
X80200000Y51500000D02*
X80200000Y38100000D01*
X80200000Y38100000D02*
X80100000Y38000000D01*
X80100000Y38000000D02*
X80100000Y19300000D01*
X80100000Y17800000D02*
X80100000Y8100000D01*
X80100000Y8100000D02*
X76100000Y4100000D01*
X78600000Y83400000D02*
X77400000Y83400000D01*
X77400000Y83400000D02*
X75400000Y81400000D01*
X68000000Y105500000D02*
X80700000Y105500000D01*
X80700000Y105500000D02*
X81300000Y104900000D01*
X68000000Y105600000D02*
X68000000Y113200000D01*
X68000000Y113200000D02*
X67500000Y113700000D01*
X68000000Y103000000D02*
X80700000Y103000000D01*
X80700000Y103000000D02*
X81300000Y102400000D01*
X68000000Y104400000D02*
X70600000Y104400000D01*
X70600000Y104400000D02*
X71000000Y104800000D01*
X70600000Y115700000D02*
X70600000Y121700000D01*
X70600000Y121700000D02*
X67000000Y125300000D01*
X67000000Y125300000D02*
X65000000Y125300000D01*
X65000000Y125300000D02*
X64700000Y125000000D01*
X64700000Y125000000D02*
X64700000Y118500000D01*
X64700000Y118500000D02*
X64400000Y118200000D01*
X64400000Y118200000D02*
X64400000Y118000000D01*
X64400000Y118000000D02*
X64100000Y117700000D01*
X64100000Y117700000D02*
X64100000Y107400000D01*
X64100000Y107400000D02*
X63600000Y106900000D01*
X63600000Y106900000D02*
X63600000Y70100000D01*
X63600000Y70100000D02*
X63900000Y69800000D01*
X69800000Y103700000D02*
X71000000Y103700000D01*
X71000000Y103700000D02*
X72000000Y104700000D01*
X66700000Y65500000D02*
X78500000Y65500000D01*
X82100000Y65500000D02*
X83700000Y65500000D01*
X83700000Y65500000D02*
X88200000Y61000000D01*
X90000000Y62800000D02*
X102600000Y50200000D01*
X102600000Y50200000D02*
X102600000Y46800000D01*
X102600000Y46800000D02*
X103100000Y46300000D01*
X103100000Y46300000D02*
X103100000Y21900000D01*
X103100000Y21900000D02*
X120900000Y4100000D01*
X66700000Y77100000D02*
X67000000Y76800000D01*
X67000000Y76800000D02*
X67000000Y76600000D01*
X67000000Y76600000D02*
X67300000Y76300000D01*
X67300000Y76300000D02*
X67300000Y66400000D01*
X64000000Y59700000D02*
X64000000Y68600000D01*
X64000000Y68600000D02*
X63100000Y69500000D01*
X63100000Y69500000D02*
X63100000Y69700000D01*
X63100000Y69700000D02*
X63000000Y69800000D01*
X63000000Y69800000D02*
X63000000Y126200000D01*
X63000000Y126200000D02*
X64500000Y127700000D01*
X64500000Y127700000D02*
X68300000Y127700000D01*
X68300000Y127700000D02*
X71300000Y124700000D01*
X105600000Y113700000D02*
X105900000Y113400000D01*
X105900000Y113400000D02*
X106100000Y113400000D01*
X106100000Y113400000D02*
X108500000Y111000000D01*
X108500000Y111000000D02*
X110300000Y111000000D01*
X110300000Y111000000D02*
X110900000Y110400000D01*
X111500000Y109600000D02*
X111800000Y109300000D01*
X111800000Y109300000D02*
X111900000Y109300000D01*
X111900000Y109300000D02*
X112900000Y108300000D01*
X112900000Y108300000D02*
X115700000Y108300000D01*
X115700000Y108300000D02*
X116000000Y108000000D01*
X116000000Y108000000D02*
X130000000Y108000000D01*
X136700000Y104200000D02*
X137000000Y103900000D01*
X137000000Y103900000D02*
X137000000Y103700000D01*
X137000000Y103700000D02*
X137300000Y103400000D01*
X137300000Y103400000D02*
X137300000Y87100000D01*
X137300000Y87100000D02*
X136700000Y86500000D01*
X135300000Y85100000D02*
X135000000Y84800000D01*
X135000000Y84800000D02*
X135000000Y84700000D01*
X135000000Y84700000D02*
X134000000Y83700000D01*
X134000000Y83700000D02*
X134000000Y82900000D01*
X134000000Y82900000D02*
X133100000Y82000000D01*
X133100000Y82000000D02*
X133100000Y77100000D01*
X133100000Y77100000D02*
X115000000Y59000000D01*
X115000000Y59000000D02*
X110300000Y59000000D01*
X110300000Y59000000D02*
X102700000Y51400000D01*
X99300000Y48100000D02*
X97900000Y48100000D01*
X97900000Y48100000D02*
X90700000Y40900000D01*
X105600000Y111100000D02*
X105900000Y110800000D01*
X105900000Y110800000D02*
X106100000Y110800000D01*
X106100000Y110800000D02*
X108500000Y108400000D01*
X108500000Y108400000D02*
X108900000Y108400000D01*
X108900000Y108400000D02*
X110900000Y106400000D01*
X111500000Y105600000D02*
X111800000Y105300000D01*
X111800000Y105300000D02*
X111900000Y105300000D01*
X111900000Y105300000D02*
X112200000Y105000000D01*
X112200000Y105000000D02*
X127000000Y105000000D01*
X135300000Y82600000D02*
X135000000Y82300000D01*
X135000000Y82300000D02*
X135000000Y82200000D01*
X135000000Y82200000D02*
X134000000Y81200000D01*
X134000000Y81200000D02*
X134000000Y75500000D01*
X134000000Y75500000D02*
X103900000Y45400000D01*
X101800000Y45300000D02*
X100700000Y44200000D01*
X100700000Y44200000D02*
X96500000Y44200000D01*
X96500000Y44200000D02*
X90700000Y38400000D01*
X133600000Y74000000D02*
X133600000Y63600000D01*
X133600000Y63600000D02*
X134600000Y62600000D01*
X134600000Y62600000D02*
X134600000Y49200000D01*
X134600000Y49200000D02*
X135300000Y48500000D01*
X14900000Y52600000D02*
X14900000Y50900000D01*
X14900000Y50900000D02*
X14700000Y50700000D01*
X14700000Y50700000D02*
X14700000Y50200000D01*
X81000000Y19200000D02*
X81000000Y26100000D01*
X81000000Y26100000D02*
X89300000Y34400000D01*
X15500000Y28600000D02*
X15800000Y28300000D01*
X15800000Y28300000D02*
X15800000Y28200000D01*
X15800000Y28200000D02*
X16000000Y28000000D01*
X16000000Y28000000D02*
X16100000Y28000000D01*
X16100000Y28000000D02*
X18300000Y25800000D01*
X18300000Y25800000D02*
X19000000Y25800000D01*
X19000000Y25800000D02*
X20000000Y24800000D01*
X115800000Y56200000D02*
X115900000Y56200000D01*
X115900000Y56200000D02*
X117700000Y54400000D01*
X117700000Y54400000D02*
X117700000Y54300000D01*
X117700000Y54300000D02*
X117800000Y54200000D01*
X117800000Y54200000D02*
X117800000Y27100000D01*
X117800000Y27100000D02*
X121300000Y23600000D01*
X90700000Y33300000D02*
X91000000Y33600000D01*
X91000000Y33600000D02*
X91200000Y33600000D01*
X91200000Y33600000D02*
X93600000Y36000000D01*
X93600000Y36000000D02*
X93700000Y36000000D01*
X93700000Y36000000D02*
X97400000Y39700000D01*
X99700000Y39800000D02*
X100600000Y39800000D01*
X100600000Y39800000D02*
X101700000Y40900000D01*
X117000000Y56200000D02*
X117600000Y56200000D01*
X117600000Y56200000D02*
X120800000Y59400000D01*
X120800000Y59400000D02*
X126600000Y59400000D01*
X126600000Y59400000D02*
X127300000Y58700000D01*
X113900000Y53600000D02*
X113300000Y53600000D01*
X109800000Y53600000D02*
X109500000Y53600000D01*
X108900000Y53700000D02*
X106100000Y53700000D01*
X104800000Y54600000D02*
X100900000Y54600000D01*
X100900000Y54600000D02*
X99600000Y55900000D01*
X98500000Y57000000D02*
X98500000Y57900000D01*
X98500000Y57900000D02*
X96300000Y60100000D01*
X96300000Y60100000D02*
X96300000Y65000000D01*
X96300000Y65000000D02*
X93700000Y67600000D01*
X113900000Y39600000D02*
X112800000Y39600000D01*
X112800000Y39600000D02*
X112200000Y39000000D01*
X112200000Y39000000D02*
X110100000Y39000000D01*
X110100000Y39000000D02*
X109500000Y39600000D01*
X108900000Y39600000D02*
X103900000Y39600000D01*
X101800000Y39600000D02*
X101300000Y39600000D01*
X101300000Y39600000D02*
X100900000Y39200000D01*
X100900000Y39200000D02*
X100200000Y39200000D01*
X100200000Y39200000D02*
X100000000Y39000000D01*
X100000000Y39000000D02*
X98900000Y39000000D01*
X101000000Y83900000D02*
X93300000Y91600000D01*
X93300000Y91600000D02*
X93300000Y113000000D01*
X93300000Y113000000D02*
X84100000Y122200000D01*
X104200000Y78100000D02*
X103900000Y77800000D01*
X103900000Y77800000D02*
X103900000Y77700000D01*
X103900000Y77700000D02*
X103500000Y77300000D01*
X103500000Y77300000D02*
X103500000Y67600000D01*
X103500000Y67600000D02*
X103800000Y67300000D01*
X103800000Y67300000D02*
X107100000Y67300000D01*
X107100000Y67300000D02*
X113300000Y61100000D01*
X118400000Y55900000D02*
X118400000Y27600000D01*
X118400000Y27600000D02*
X120500000Y25500000D01*
X109400000Y82100000D02*
X129700000Y82100000D01*
X129700000Y82100000D02*
X135300000Y87700000D01*
X88300000Y95300000D02*
X88300000Y107800000D01*
X88300000Y107800000D02*
X92500000Y112000000D01*
X134700000Y111400000D02*
X137000000Y111400000D01*
X137000000Y111400000D02*
X137300000Y111100000D01*
X137300000Y111100000D02*
X137300000Y105000000D01*
X137300000Y105000000D02*
X143900000Y98400000D01*
X144500000Y97600000D02*
X144500000Y96500000D01*
X144500000Y96500000D02*
X145100000Y95900000D01*
X145100000Y95900000D02*
X145100000Y94800000D01*
X145100000Y94800000D02*
X145500000Y94400000D01*
X128700000Y34500000D02*
X129000000Y34800000D01*
X129000000Y34800000D02*
X129200000Y34800000D01*
X129200000Y34800000D02*
X131600000Y37200000D01*
X131600000Y37200000D02*
X135300000Y37200000D01*
X135300000Y37200000D02*
X137300000Y39200000D01*
X137300000Y39200000D02*
X137300000Y50400000D01*
X137300000Y50400000D02*
X145500000Y58600000D01*
X86700000Y120700000D02*
X101200000Y120700000D01*
X101200000Y120700000D02*
X103800000Y123300000D01*
X103800000Y123300000D02*
X105900000Y123300000D01*
X105900000Y123300000D02*
X106200000Y123000000D01*
X106200000Y123000000D02*
X106200000Y122600000D01*
X106200000Y122600000D02*
X116300000Y112500000D01*
X43900000Y79500000D02*
X51300000Y72100000D01*
X51300000Y72100000D02*
X51300000Y72000000D01*
X51300000Y72000000D02*
X54900000Y68400000D01*
D13*
X145800000Y85100000D02*
X145800000Y84900000D01*
X145800000Y84900000D02*
X145900000Y84800000D01*
X145900000Y84800000D02*
X145900000Y84400000D01*
X145900000Y84400000D02*
X146600000Y83700000D01*
X146600000Y83700000D02*
X146600000Y83600000D01*
X146600000Y83600000D02*
X146700000Y83500000D01*
X146700000Y83500000D02*
X146700000Y83300000D01*
X146700000Y83300000D02*
X148000000Y82000000D01*
X148000000Y82000000D02*
X148000000Y57200000D01*
X148000000Y57200000D02*
X145800000Y55000000D01*
X145800000Y55000000D02*
X145800000Y54800000D01*
X145800000Y54800000D02*
X142400000Y51400000D01*
X142400000Y51400000D02*
X142400000Y51300000D01*
X142400000Y51300000D02*
X142300000Y51200000D01*
X142300000Y51200000D02*
X142300000Y50700000D01*
X143700000Y87800000D02*
X143700000Y86900000D01*
X143700000Y86900000D02*
X143400000Y86600000D01*
X143400000Y86600000D02*
X143400000Y86500000D01*
X143400000Y86500000D02*
X143300000Y86400000D01*
X143300000Y86400000D02*
X143300000Y84500000D01*
X143300000Y84500000D02*
X143700000Y84100000D01*
X143700000Y84100000D02*
X143700000Y83400000D01*
X143700000Y83400000D02*
X144200000Y82900000D01*
X143700000Y88200000D02*
X143700000Y89300000D01*
X143700000Y89300000D02*
X143600000Y89400000D01*
X143600000Y89400000D02*
X143600000Y93300000D01*
X143600000Y93300000D02*
X143900000Y93600000D01*
X143400000Y86500000D02*
X143000000Y86100000D01*
X143000000Y86100000D02*
X143000000Y84900000D01*
X143000000Y84900000D02*
X142400000Y84300000D01*
X142400000Y84300000D02*
X142400000Y72400000D01*
X142400000Y72400000D02*
X138400000Y68400000D01*
X138400000Y68400000D02*
X138300000Y68400000D01*
X138300000Y68400000D02*
X138200000Y68300000D01*
X138200000Y68300000D02*
X134600000Y68300000D01*
X123300000Y82900000D02*
X123200000Y83000000D01*
X123200000Y83000000D02*
X123300000Y83000000D01*
X123300000Y83000000D02*
X127500000Y87200000D01*
X127500000Y87200000D02*
X131900000Y87200000D01*
X131900000Y87200000D02*
X134600000Y89900000D01*
X134600000Y89900000D02*
X134700000Y89900000D01*
X134700000Y89900000D02*
X134800000Y90000000D01*
X134800000Y90000000D02*
X135100000Y90000000D01*
X135100000Y90000000D02*
X135300000Y90200000D01*
X143900000Y78600000D02*
X143900000Y75400000D01*
X143900000Y79400000D02*
X143700000Y79600000D01*
X143900000Y74600000D02*
X143900000Y72900000D01*
X143900000Y72900000D02*
X143700000Y72700000D01*
X143700000Y72700000D02*
X143700000Y72400000D01*
X143000000Y71200000D02*
X142900000Y71100000D01*
X142900000Y71100000D02*
X142900000Y60400000D01*
X142900000Y60400000D02*
X143900000Y59400000D01*
X143900000Y59400000D02*
X137400000Y59400000D01*
X137400000Y59400000D02*
X137300000Y59500000D01*
X137300000Y59500000D02*
X137200000Y59500000D01*
X137200000Y59500000D02*
X137100000Y59600000D01*
X137100000Y59600000D02*
X135600000Y59600000D01*
X133800000Y59600000D02*
X133700000Y59600000D01*
X133700000Y59600000D02*
X133700000Y49800000D01*
X133700000Y49800000D02*
X132400000Y48500000D01*
X132400000Y48500000D02*
X132400000Y48400000D01*
X132400000Y48400000D02*
X128700000Y44700000D01*
X109400000Y14400000D02*
X109300000Y14300000D01*
X109300000Y14300000D02*
X109300000Y7300000D01*
X109300000Y7300000D02*
X106100000Y4100000D01*
X144100000Y70600000D02*
X144100000Y67400000D01*
D12*
X143900000Y66600000D02*
X143900000Y64200000D01*
D13*
X127300000Y38200000D02*
X127100000Y38200000D01*
X127100000Y38200000D02*
X127000000Y38100000D01*
X127000000Y38100000D02*
X126900000Y38100000D01*
X126900000Y38100000D02*
X126500000Y37700000D01*
X126500000Y37700000D02*
X126500000Y37600000D01*
X126500000Y37600000D02*
X126400000Y37500000D01*
X126400000Y37500000D02*
X126400000Y11400000D01*
X126400000Y11400000D02*
X126000000Y11000000D01*
X126000000Y11000000D02*
X126000000Y10900000D01*
X126000000Y10900000D02*
X125900000Y10800000D01*
X125900000Y10800000D02*
X125900000Y6100000D01*
X125900000Y6100000D02*
X122000000Y2200000D01*
X122000000Y2200000D02*
X121900000Y2200000D01*
X121900000Y2200000D02*
X121800000Y2100000D01*
X121800000Y2100000D02*
X121700000Y2100000D01*
X121700000Y2100000D02*
X121600000Y2000000D01*
X121600000Y2000000D02*
X121400000Y2000000D01*
X121400000Y2000000D02*
X121300000Y1900000D01*
X121300000Y1900000D02*
X113100000Y1900000D01*
X113100000Y1900000D02*
X111600000Y3400000D01*
D14*
X63300000Y65300000D02*
X63200000Y65400000D01*
X63200000Y65400000D02*
X63200000Y68300000D01*
X63200000Y68300000D02*
X62400000Y69100000D01*
X62400000Y69100000D02*
X62400000Y69200000D01*
X62400000Y69200000D02*
X62300000Y69300000D01*
X62300000Y69300000D02*
X62300000Y69500000D01*
X62300000Y69500000D02*
X62200000Y69600000D01*
X62200000Y69600000D02*
X62200000Y126500000D01*
X62200000Y126500000D02*
X64100000Y128400000D01*
X64100000Y128400000D02*
X64200000Y128400000D01*
X64200000Y128400000D02*
X64300000Y128500000D01*
X64300000Y128500000D02*
X80200000Y128500000D01*
X80200000Y128500000D02*
X87100000Y121600000D01*
X85700000Y118400000D02*
X85700000Y73100000D01*
X85700000Y73100000D02*
X85400000Y72800000D01*
X85400000Y72800000D02*
X85400000Y73100000D01*
X85400000Y73100000D02*
X85500000Y73200000D01*
X85500000Y73200000D02*
X85500000Y73300000D01*
X85500000Y73300000D02*
X85600000Y73400000D01*
X85600000Y73400000D02*
X85600000Y118300000D01*
X73700000Y102300000D02*
X73600000Y102200000D01*
X73600000Y102200000D02*
X71000000Y102200000D01*
X71000000Y102200000D02*
X68200000Y99400000D01*
D13*
X128900000Y121600000D02*
X128900000Y118400000D01*
X128900000Y117600000D02*
X128900000Y115900000D01*
X128900000Y115900000D02*
X128700000Y115700000D01*
X128700000Y115700000D02*
X128700000Y114000000D01*
X128700000Y114000000D02*
X129000000Y113700000D01*
X129000000Y113700000D02*
X129100000Y113700000D01*
X129100000Y113700000D02*
X129200000Y113600000D01*
X129200000Y113600000D02*
X129500000Y113600000D01*
X129500000Y113600000D02*
X129600000Y113500000D01*
X129500000Y122400000D02*
X129500000Y122900000D01*
X129500000Y122900000D02*
X129800000Y123200000D01*
X129800000Y123200000D02*
X129900000Y123200000D01*
X129900000Y123200000D02*
X130000000Y123300000D01*
X130000000Y123300000D02*
X135300000Y123300000D01*
D14*
X144500000Y63400000D02*
X144500000Y63500000D01*
X144500000Y63500000D02*
X144600000Y63600000D01*
D13*
X133800000Y60800000D02*
X124800000Y60800000D01*
X124800000Y60800000D02*
X124400000Y60400000D01*
D14*
X117400000Y60000000D02*
X117100000Y60000000D01*
X117100000Y60000000D02*
X115400000Y58300000D01*
X115400000Y58300000D02*
X115300000Y58300000D01*
X115300000Y58300000D02*
X115200000Y58200000D01*
X115200000Y58200000D02*
X114900000Y58200000D01*
X114900000Y58200000D02*
X111100000Y54400000D01*
X110500000Y54400000D02*
X110400000Y54500000D01*
X110500000Y50900000D02*
X110500000Y40400000D01*
X111100000Y26200000D02*
X111800000Y26200000D01*
X119300000Y27800000D02*
X121300000Y27800000D01*
D13*
X122600000Y18100000D02*
X122500000Y18000000D01*
X122500000Y18000000D02*
X122500000Y17800000D01*
X122500000Y17800000D02*
X121700000Y17000000D01*
X121700000Y17000000D02*
X121700000Y16900000D01*
X121700000Y16900000D02*
X121600000Y16800000D01*
X121600000Y16800000D02*
X121600000Y16500000D01*
X121600000Y16500000D02*
X121500000Y16400000D01*
X120900000Y15600000D02*
X120900000Y13400000D01*
X108000000Y10800000D02*
X108000000Y9600000D01*
X108000000Y9600000D02*
X107500000Y9100000D01*
X107500000Y9100000D02*
X107400000Y9100000D01*
X107400000Y9100000D02*
X107300000Y9000000D01*
X107300000Y9000000D02*
X106700000Y9000000D01*
X106700000Y9000000D02*
X105800000Y8100000D01*
X105800000Y8100000D02*
X101100000Y8100000D01*
X101100000Y8100000D02*
X96600000Y3600000D01*
X95900000Y4100000D02*
X95900000Y5000000D01*
X95900000Y5000000D02*
X93700000Y7200000D01*
X93700000Y7200000D02*
X93700000Y14400000D01*
X93700000Y17200000D02*
X93700000Y18900000D01*
X93700000Y18900000D02*
X93600000Y19000000D01*
X93600000Y19000000D02*
X93600000Y19100000D01*
X93600000Y19100000D02*
X93500000Y19200000D01*
X93500000Y19200000D02*
X93500000Y19600000D01*
X127500000Y28700000D02*
X134000000Y28700000D01*
X134000000Y28700000D02*
X138900000Y33600000D01*
X110500000Y54400000D02*
X110500000Y54600000D01*
X110500000Y54600000D02*
X110400000Y54700000D01*
X110400000Y54700000D02*
X110400000Y55100000D01*
X110400000Y55100000D02*
X109200000Y56300000D01*
X107800000Y57700000D02*
X107700000Y57800000D01*
X107700000Y57800000D02*
X106100000Y57800000D01*
X106100000Y57800000D02*
X106000000Y57900000D01*
X106000000Y57900000D02*
X105900000Y57900000D01*
X105900000Y57900000D02*
X105800000Y58000000D01*
X105800000Y58000000D02*
X99800000Y58000000D01*
X99800000Y58000000D02*
X98900000Y58900000D01*
X89300000Y58700000D02*
X88400000Y58700000D01*
X88400000Y58700000D02*
X86200000Y60900000D01*
X86200000Y60900000D02*
X84500000Y60900000D01*
X84500000Y60900000D02*
X84000000Y61400000D01*
X92900000Y19600000D02*
X91200000Y19600000D01*
X91200000Y19600000D02*
X91000000Y19400000D01*
X91000000Y19400000D02*
X90500000Y19400000D01*
X79300000Y13400000D02*
X79200000Y13300000D01*
X79200000Y13300000D02*
X76900000Y13300000D01*
X76900000Y13300000D02*
X76500000Y12900000D01*
X76500000Y12900000D02*
X76400000Y12900000D01*
X76400000Y12900000D02*
X74400000Y10900000D01*
X74400000Y10900000D02*
X74300000Y10900000D01*
X74300000Y10900000D02*
X74200000Y10800000D01*
X74200000Y10800000D02*
X73500000Y10800000D01*
X73500000Y10800000D02*
X73100000Y10400000D01*
X65600000Y9500000D02*
X65500000Y9600000D01*
X77300000Y57800000D02*
X65700000Y57800000D01*
X78100000Y119200000D02*
X78200000Y119100000D01*
X78200000Y119100000D02*
X78200000Y117100000D01*
X78200000Y117100000D02*
X78300000Y117000000D01*
X78300000Y117000000D02*
X78300000Y107500000D01*
X78300000Y107500000D02*
X79300000Y106500000D01*
X79400000Y102200000D02*
X79400000Y101400000D01*
X79400000Y101400000D02*
X69700000Y91700000D01*
X65400000Y88700000D02*
X65400000Y91600000D01*
X68100000Y94900000D02*
X75200000Y102000000D01*
X79300000Y106300000D02*
X79400000Y106400000D01*
X79400000Y106400000D02*
X77400000Y106400000D01*
X77400000Y106400000D02*
X69900000Y113900000D01*
X69500000Y115700000D02*
X69500000Y120800000D01*
X69500000Y120800000D02*
X67300000Y123000000D01*
X67300000Y123000000D02*
X67200000Y123000000D01*
X67200000Y123000000D02*
X67100000Y123100000D01*
X67100000Y123100000D02*
X66900000Y123100000D01*
X66900000Y123100000D02*
X66700000Y123300000D01*
D12*
X66700000Y123300000D02*
X67000000Y123000000D01*
X67000000Y123000000D02*
X67000000Y122700000D01*
X67000000Y122700000D02*
X67200000Y122500000D01*
X67200000Y122500000D02*
X67200000Y122400000D01*
X67200000Y122400000D02*
X67800000Y121800000D01*
X67800000Y121800000D02*
X67800000Y121300000D01*
X67800000Y121300000D02*
X68900000Y120200000D01*
X68900000Y120200000D02*
X68900000Y116400000D01*
X68900000Y116400000D02*
X69600000Y115700000D01*
X70000000Y114200000D02*
X73000000Y114200000D01*
X73000000Y114200000D02*
X74000000Y115200000D01*
X74000000Y117400000D02*
X74000000Y121700000D01*
X74000000Y121700000D02*
X73000000Y122700000D01*
X73000000Y122700000D02*
X70400000Y122700000D01*
X70400000Y122700000D02*
X67300000Y125800000D01*
X67300000Y125800000D02*
X66000000Y125800000D01*
X66000000Y125800000D02*
X65500000Y126300000D01*
D13*
X66700000Y123300000D02*
X66900000Y123300000D01*
X66900000Y123300000D02*
X67000000Y123200000D01*
X67000000Y123200000D02*
X67100000Y123200000D01*
X67100000Y123200000D02*
X68200000Y122100000D01*
X68200000Y122100000D02*
X68200000Y121500000D01*
X68200000Y121500000D02*
X69200000Y120500000D01*
X69200000Y120500000D02*
X69200000Y116100000D01*
X69200000Y116100000D02*
X69400000Y115900000D01*
X69700000Y114100000D02*
X69800000Y114000000D01*
X69800000Y114000000D02*
X74000000Y114000000D01*
X74000000Y114000000D02*
X81300000Y121300000D01*
X81400000Y121300000D02*
X81400000Y120200000D01*
D14*
X84000000Y119200000D02*
X84100000Y119200000D01*
X84100000Y119200000D02*
X84100000Y118000000D01*
X84100000Y118000000D02*
X84600000Y117500000D01*
X90000000Y121400000D02*
X90100000Y121500000D01*
X90100000Y121500000D02*
X100900000Y121500000D01*
X100900000Y121500000D02*
X103400000Y124000000D01*
X103400000Y124000000D02*
X103500000Y124000000D01*
X103500000Y124000000D02*
X103600000Y124100000D01*
X103600000Y124100000D02*
X106200000Y124100000D01*
X106200000Y124100000D02*
X106900000Y123400000D01*
X106900000Y123400000D02*
X106900000Y123300000D01*
X106900000Y123300000D02*
X107000000Y123200000D01*
X107000000Y123200000D02*
X107000000Y122900000D01*
X107000000Y122900000D02*
X108100000Y121800000D01*
X108200000Y119500000D02*
X111700000Y116000000D01*
X111700000Y116000000D02*
X111700000Y111300000D01*
X111700000Y111300000D02*
X112200000Y110800000D01*
X112200000Y110800000D02*
X112200000Y110700000D01*
X112200000Y110700000D02*
X112500000Y110400000D01*
D13*
X113100000Y107500000D02*
X113100000Y106400000D01*
X113100000Y110400000D02*
X113100000Y111800000D01*
X113100000Y111800000D02*
X113500000Y112200000D01*
X113500000Y112200000D02*
X113500000Y113800000D01*
X114800000Y115200000D02*
X114900000Y115300000D01*
X114900000Y115300000D02*
X114900000Y120200000D01*
X114900000Y120200000D02*
X115700000Y121000000D01*
X115700000Y121000000D02*
X115800000Y121000000D01*
X115800000Y121000000D02*
X115900000Y121100000D01*
X115900000Y121100000D02*
X116100000Y121100000D01*
X116100000Y121100000D02*
X116300000Y121300000D01*
X117700000Y121300000D02*
X118600000Y121300000D01*
X118600000Y121300000D02*
X120800000Y119100000D01*
X120800000Y119100000D02*
X121800000Y119100000D01*
X121800000Y119100000D02*
X128300000Y112600000D01*
X128300000Y112600000D02*
X128400000Y112600000D01*
X128400000Y112600000D02*
X129000000Y112000000D01*
X129000000Y112000000D02*
X129100000Y112000000D01*
X129100000Y112000000D02*
X129200000Y111900000D01*
X129200000Y111900000D02*
X130900000Y111900000D01*
X130900000Y111900000D02*
X131200000Y112200000D01*
X131200000Y112200000D02*
X131200000Y112300000D01*
X131200000Y112300000D02*
X131300000Y112400000D01*
X131300000Y112400000D02*
X131300000Y114000000D01*
X131300000Y114000000D02*
X131000000Y114300000D01*
X131000000Y114300000D02*
X130900000Y114300000D01*
X130900000Y114300000D02*
X130800000Y114400000D01*
X130800000Y114400000D02*
X130500000Y114400000D01*
X130500000Y114400000D02*
X130400000Y114500000D01*
X130400000Y114500000D02*
X130600000Y114500000D01*
X130600000Y114500000D02*
X130700000Y114400000D01*
X130700000Y114400000D02*
X130900000Y114400000D01*
X130900000Y114400000D02*
X131200000Y114100000D01*
X131200000Y114100000D02*
X131200000Y114000000D01*
X131200000Y114000000D02*
X131300000Y113900000D01*
X131300000Y113900000D02*
X131300000Y112300000D01*
X131300000Y112300000D02*
X131000000Y112000000D01*
X131000000Y112000000D02*
X130900000Y112000000D01*
X130900000Y112000000D02*
X130800000Y111900000D01*
X130800000Y111900000D02*
X130500000Y111900000D01*
X130500000Y111900000D02*
X129600000Y111000000D01*
X129600000Y111000000D02*
X129600000Y110900000D01*
X129600000Y110900000D02*
X129500000Y110800000D01*
X129500000Y110800000D02*
X129500000Y110400000D01*
D15*
X49900000Y103100000D02*
X49900000Y102300000D01*
X49900000Y102300000D02*
X50100000Y102100000D01*
X50100000Y101500000D02*
X49800000Y101200000D01*
X49800000Y101200000D02*
X49700000Y101200000D01*
X49700000Y101200000D02*
X48700000Y100200000D01*
X48700000Y100200000D02*
X48700000Y97500000D01*
X48700000Y97500000D02*
X47700000Y96500000D01*
X51600000Y100100000D02*
X52100000Y99600000D01*
X52100000Y99000000D02*
X51800000Y98700000D01*
X51800000Y98700000D02*
X51700000Y98700000D01*
X51700000Y98700000D02*
X50700000Y97700000D01*
X50700000Y97700000D02*
X50700000Y97600000D01*
X50700000Y97600000D02*
X49300000Y96200000D01*
X49300000Y96200000D02*
X49300000Y95600000D01*
X49300000Y95600000D02*
X47700000Y94000000D01*
X32800000Y42600000D02*
X28400000Y42600000D01*
X28400000Y42600000D02*
X28300000Y42700000D01*
X28300000Y42700000D02*
X28200000Y42700000D01*
X28200000Y42700000D02*
X28100000Y42800000D01*
X28100000Y42800000D02*
X19400000Y42800000D01*
X19400000Y42800000D02*
X18900000Y42300000D01*
X18900000Y42300000D02*
X18800000Y42300000D01*
X18800000Y42300000D02*
X18400000Y41900000D01*
X49500000Y49300000D02*
X49500000Y49200000D01*
X50600000Y36800000D02*
X50800000Y36800000D01*
X50800000Y36800000D02*
X50900000Y36700000D01*
X50900000Y36700000D02*
X51000000Y36700000D01*
X51000000Y36700000D02*
X51300000Y36400000D01*
X51300000Y36400000D02*
X51300000Y36300000D01*
X51300000Y36300000D02*
X52000000Y35600000D01*
X52000000Y35600000D02*
X52000000Y35100000D01*
X52000000Y35100000D02*
X53100000Y34000000D01*
X53100000Y34000000D02*
X53100000Y30900000D01*
X53100000Y30900000D02*
X57200000Y26800000D01*
X57200000Y26800000D02*
X57200000Y26700000D01*
X57200000Y26700000D02*
X57300000Y26600000D01*
X57300000Y26600000D02*
X57300000Y26400000D01*
X57300000Y26400000D02*
X57400000Y26300000D01*
X57400000Y26300000D02*
X57400000Y25400000D01*
X57400000Y25400000D02*
X56800000Y24800000D01*
X56800000Y24800000D02*
X56700000Y24800000D01*
X56700000Y24800000D02*
X56600000Y24700000D01*
X56600000Y24700000D02*
X56400000Y24700000D01*
X56400000Y24700000D02*
X56300000Y24600000D01*
X56300000Y24600000D02*
X54000000Y24600000D01*
X54000000Y24600000D02*
X51400000Y22000000D01*
X39800000Y21900000D02*
X37000000Y21900000D01*
X22200000Y38100000D02*
X26200000Y38100000D01*
X26200000Y38100000D02*
X27100000Y39000000D01*
X27100000Y39000000D02*
X33500000Y39000000D01*
X33500000Y39000000D02*
X33600000Y38900000D01*
X37000000Y33900000D02*
X38400000Y33900000D01*
X38400000Y33900000D02*
X38900000Y33400000D01*
X56300000Y24600000D02*
X51100000Y24600000D01*
X51100000Y24600000D02*
X51000000Y24700000D01*
X51000000Y24700000D02*
X50700000Y24700000D01*
X50700000Y24700000D02*
X50600000Y24800000D01*
X50600000Y24800000D02*
X50800000Y24800000D01*
X50800000Y24800000D02*
X50900000Y24700000D01*
X50900000Y24700000D02*
X51000000Y24700000D01*
X51000000Y24700000D02*
X51300000Y24400000D01*
X51300000Y24400000D02*
X51300000Y22500000D01*
X39700000Y21600000D02*
X39500000Y21400000D01*
X21700000Y64000000D02*
X21700000Y64500000D01*
X21700000Y66600000D02*
X21700000Y67900000D01*
X21700000Y68300000D02*
X21700000Y68800000D01*
X21700000Y70900000D02*
X21700000Y72200000D01*
X21700000Y76900000D02*
X21700000Y77400000D01*
X21700000Y79500000D02*
X21700000Y80800000D01*
X21700000Y81200000D02*
X21700000Y81700000D01*
X21700000Y83800000D02*
X21700000Y85100000D01*
X22500000Y85500000D02*
X22800000Y85800000D01*
X22800000Y85800000D02*
X22800000Y86100000D01*
X22800000Y88600000D02*
X22800000Y89100000D01*
X22800000Y89100000D02*
X22500000Y89400000D01*
X22100000Y89800000D02*
X22100000Y90000000D01*
X22100000Y92700000D02*
X22100000Y93700000D01*
X21700000Y94100000D02*
X21700000Y94600000D01*
X21700000Y96700000D02*
X21700000Y98000000D01*
X21700000Y98400000D02*
X21700000Y98900000D01*
X21700000Y101000000D02*
X21700000Y102300000D01*
X21700000Y102700000D02*
X21700000Y103200000D01*
X21700000Y105300000D02*
X21700000Y106600000D01*
X21700000Y107000000D02*
X21700000Y107500000D01*
X21700000Y109600000D02*
X21700000Y110900000D01*
X21700000Y111300000D02*
X21700000Y111800000D01*
X21700000Y113900000D02*
X21700000Y115200000D01*
X21700000Y115600000D02*
X21700000Y116100000D01*
X21700000Y118200000D02*
X21700000Y119500000D01*
X21700000Y119900000D02*
X21700000Y120400000D01*
X21700000Y122500000D02*
X21700000Y123800000D01*
X22500000Y110900000D02*
X22700000Y110700000D01*
X46300000Y113000000D02*
X45600000Y113700000D01*
X45600000Y113700000D02*
X45600000Y116600000D01*
X45600000Y116600000D02*
X45500000Y116700000D01*
X45500000Y116700000D02*
X45500000Y121000000D01*
X45500000Y121000000D02*
X46000000Y121500000D01*
X46000000Y121500000D02*
X48000000Y121500000D01*
X48000000Y121500000D02*
X48500000Y121000000D01*
X48500000Y121000000D02*
X48500000Y119500000D01*
X48500000Y119500000D02*
X49400000Y118600000D01*
X49400000Y118600000D02*
X49400000Y118300000D01*
X49400000Y118300000D02*
X51300000Y116400000D01*
X51600000Y114700000D02*
X52900000Y113400000D01*
X53500000Y113400000D02*
X53500000Y113600000D01*
X53500000Y113600000D02*
X54000000Y114100000D01*
X54000000Y114100000D02*
X54100000Y114100000D01*
X54100000Y114100000D02*
X54800000Y114800000D01*
X54800000Y114800000D02*
X55000000Y114800000D01*
X55000000Y114800000D02*
X56800000Y116600000D01*
X56800000Y116600000D02*
X56800000Y117400000D01*
X56800000Y117400000D02*
X56300000Y117900000D01*
X56300000Y117900000D02*
X56000000Y117900000D01*
X56000000Y117900000D02*
X53700000Y120200000D01*
X53700000Y120200000D02*
X53700000Y120400000D01*
X53700000Y120400000D02*
X53500000Y120600000D01*
D12*
X53500000Y121400000D02*
X53800000Y121700000D01*
X53800000Y121700000D02*
X53800000Y121900000D01*
X53800000Y121900000D02*
X56600000Y124700000D01*
X56600000Y124700000D02*
X56600000Y125300000D01*
X56600000Y125300000D02*
X56200000Y125700000D01*
X56200000Y125700000D02*
X55700000Y125700000D01*
X55700000Y125700000D02*
X55500000Y125900000D01*
X55500000Y125900000D02*
X48300000Y125900000D01*
X48300000Y125900000D02*
X48000000Y126200000D01*
X48000000Y126200000D02*
X46000000Y126200000D01*
X46000000Y126200000D02*
X45800000Y126000000D01*
X45800000Y126000000D02*
X45800000Y123700000D01*
X45800000Y123700000D02*
X46300000Y123200000D01*
D15*
X53500000Y112600000D02*
X53500000Y111700000D01*
X53500000Y111700000D02*
X55700000Y109500000D01*
X55700000Y109500000D02*
X55700000Y104300000D01*
X55700000Y104300000D02*
X57200000Y102800000D01*
X57200000Y102800000D02*
X57200000Y102700000D01*
X57200000Y102700000D02*
X57300000Y102600000D01*
X57300000Y102600000D02*
X57300000Y102400000D01*
X57300000Y102400000D02*
X57400000Y102300000D01*
X57400000Y102300000D02*
X57400000Y99900000D01*
X57400000Y99900000D02*
X56100000Y98600000D01*
X55400000Y98000000D02*
X52900000Y98000000D01*
D11*
X68000000Y75900000D02*
X68000000Y66800000D01*
X68000000Y66800000D02*
X68100000Y66700000D01*
X68100000Y66700000D02*
X68100000Y66300000D01*
X68100000Y66300000D02*
X68200000Y66200000D01*
X63100000Y40900000D02*
X63100000Y34900000D01*
X63100000Y34900000D02*
X63600000Y34400000D01*
X63600000Y34400000D02*
X63600000Y4100000D01*
X63600000Y4100000D02*
X65300000Y2400000D01*
X65300000Y2400000D02*
X65400000Y2400000D01*
X65400000Y2400000D02*
X65500000Y2300000D01*
X65500000Y2300000D02*
X65700000Y2300000D01*
X65700000Y2300000D02*
X65800000Y2200000D01*
X65800000Y2200000D02*
X107900000Y2200000D01*
X107900000Y2200000D02*
X110300000Y4600000D01*
X110300000Y4600000D02*
X110400000Y4600000D01*
X110400000Y4600000D02*
X110500000Y4700000D01*
X110500000Y4700000D02*
X110700000Y4700000D01*
X110700000Y4700000D02*
X110800000Y4800000D01*
X110800000Y4800000D02*
X114200000Y4800000D01*
X114200000Y4800000D02*
X115400000Y3600000D01*
X26900000Y41100000D02*
X24000000Y41100000D01*
X22000000Y42000000D02*
X20500000Y42000000D01*
X20500000Y42000000D02*
X17600000Y39100000D01*
X14600000Y38800000D02*
X14600000Y38600000D01*
X14600000Y38600000D02*
X14500000Y38500000D01*
X14500000Y38500000D02*
X14500000Y37800000D01*
X14500000Y37800000D02*
X14900000Y37400000D01*
D10*
X23300000Y71200000D02*
X22000000Y69900000D01*
X22000000Y69900000D02*
X17500000Y69900000D01*
X17500000Y69900000D02*
X17100000Y69500000D01*
D15*
X21700000Y72200000D02*
X16500000Y72200000D01*
X16500000Y72200000D02*
X16400000Y72100000D01*
X21300000Y77000000D02*
X21600000Y77000000D01*
X21600000Y77000000D02*
X21700000Y76900000D01*
X21700000Y68300000D02*
X20300000Y68300000D01*
X20300000Y68300000D02*
X20000000Y68600000D01*
X17700000Y70900000D02*
X17600000Y70900000D01*
X17600000Y70900000D02*
X16400000Y72100000D01*
X21600000Y66600000D02*
X19600000Y68600000D01*
X33100000Y39000000D02*
X21900000Y39000000D01*
X21900000Y39000000D02*
X21600000Y38700000D01*
X20200000Y39000000D02*
X20200000Y37900000D01*
X20200000Y37900000D02*
X20100000Y37800000D01*
X20100000Y37800000D02*
X20100000Y36800000D01*
X20100000Y36800000D02*
X20000000Y36700000D01*
X20300000Y34100000D02*
X19300000Y34100000D01*
X19300000Y34100000D02*
X19200000Y34000000D01*
X19200000Y34000000D02*
X18200000Y34000000D01*
X54500000Y45000000D02*
X54000000Y45000000D01*
X54000000Y45000000D02*
X51500000Y47500000D01*
X51500000Y47500000D02*
X51500000Y48200000D01*
X51500000Y48200000D02*
X51000000Y48700000D01*
X51000000Y48700000D02*
X50700000Y48700000D01*
X50700000Y48700000D02*
X50200000Y49200000D01*
X48100000Y51300000D02*
X45600000Y53800000D01*
X45600000Y53800000D02*
X43700000Y53800000D01*
X43700000Y53800000D02*
X42700000Y54800000D01*
X42700000Y54800000D02*
X40800000Y54800000D01*
X40800000Y54800000D02*
X39600000Y56000000D01*
X39600000Y56000000D02*
X39600000Y57400000D01*
X39600000Y57400000D02*
X31300000Y65700000D01*
X31300000Y65700000D02*
X30800000Y65700000D01*
X30800000Y65700000D02*
X30600000Y65900000D01*
X30600000Y65900000D02*
X29500000Y65900000D01*
X29500000Y65900000D02*
X27000000Y68400000D01*
X27000000Y68400000D02*
X27000000Y72300000D01*
X27000000Y72300000D02*
X23800000Y75500000D01*
X23800000Y75500000D02*
X23300000Y75500000D01*
X23300000Y75500000D02*
X22800000Y76000000D01*
X22800000Y76000000D02*
X22800000Y76200000D01*
X22800000Y76200000D02*
X22500000Y76500000D01*
D16*
X39500000Y52600000D02*
X39600000Y52600000D01*
X41100000Y51100000D02*
X41400000Y51100000D01*
X41400000Y51100000D02*
X43100000Y49400000D01*
X43100000Y49400000D02*
X43200000Y49400000D01*
X43200000Y49400000D02*
X43400000Y49200000D01*
X45200000Y48800000D02*
X45400000Y48800000D01*
X45400000Y48800000D02*
X46200000Y48000000D01*
X46200000Y48000000D02*
X46200000Y47200000D01*
X46200000Y47200000D02*
X46000000Y47000000D01*
X39700000Y41400000D02*
X39500000Y41400000D01*
X39500000Y40600000D02*
X39600000Y40600000D01*
X41100000Y39100000D02*
X41400000Y39100000D01*
X41400000Y39100000D02*
X43100000Y37400000D01*
X43100000Y37400000D02*
X43200000Y37400000D01*
X43200000Y37400000D02*
X43400000Y37200000D01*
X43400000Y37200000D02*
X43300000Y37200000D01*
X43300000Y37200000D02*
X42800000Y37700000D01*
X42800000Y37700000D02*
X42800000Y38100000D01*
X42800000Y38100000D02*
X42700000Y38200000D01*
X42900000Y31200000D02*
X35500000Y31200000D01*
X35500000Y31200000D02*
X35100000Y30800000D01*
X36500000Y29400000D02*
X38900000Y29400000D01*
X39500000Y28600000D02*
X39600000Y28600000D01*
X41100000Y27100000D02*
X41400000Y27100000D01*
X41400000Y27100000D02*
X43100000Y25400000D01*
X43100000Y25400000D02*
X43200000Y25400000D01*
X43200000Y25400000D02*
X43400000Y25200000D01*
X46200000Y48000000D02*
X46200000Y43600000D01*
X46200000Y43600000D02*
X46700000Y43100000D01*
X46700000Y43100000D02*
X56000000Y43100000D01*
X56000000Y43100000D02*
X56700000Y43800000D01*
D15*
X38900000Y53200000D02*
X36600000Y53200000D01*
X32800000Y53600000D02*
X30100000Y53600000D01*
X30100000Y53600000D02*
X29600000Y54100000D01*
X29600000Y54100000D02*
X29500000Y54100000D01*
X22200000Y62600000D02*
X22700000Y62600000D01*
X22700000Y62600000D02*
X23200000Y63100000D01*
X23200000Y63100000D02*
X23200000Y63300000D01*
X23200000Y63300000D02*
X23500000Y63600000D01*
X24300000Y64000000D02*
X24300000Y64300000D01*
X24300000Y66500000D02*
X24300000Y67900000D01*
X24300000Y68300000D02*
X24300000Y72200000D01*
X23500000Y72600000D02*
X23200000Y72900000D01*
X23200000Y72900000D02*
X23200000Y73000000D01*
X23600000Y76400000D02*
X23600000Y76500000D01*
X24300000Y76900000D02*
X24300000Y77200000D01*
X24300000Y79400000D02*
X24300000Y80800000D01*
X24300000Y81200000D02*
X24300000Y81500000D01*
X24300000Y83700000D02*
X24300000Y85100000D01*
X24300000Y85500000D02*
X24300000Y89400000D01*
X24300000Y89800000D02*
X24300000Y90100000D01*
X24300000Y92300000D02*
X24300000Y93700000D01*
X24300000Y94100000D02*
X24300000Y94400000D01*
X24300000Y96600000D02*
X24300000Y98000000D01*
X24300000Y98400000D02*
X24300000Y98700000D01*
X24300000Y100900000D02*
X24300000Y102300000D01*
X24300000Y102700000D02*
X24300000Y103000000D01*
X24300000Y105200000D02*
X24300000Y106600000D01*
X24300000Y107000000D02*
X24300000Y107300000D01*
X24300000Y109500000D02*
X24300000Y110900000D01*
X24300000Y111300000D02*
X24300000Y111600000D01*
X24300000Y113800000D02*
X24300000Y115200000D01*
X24300000Y115600000D02*
X24300000Y115900000D01*
X24300000Y118100000D02*
X24300000Y119500000D01*
X24300000Y119900000D02*
X24300000Y120200000D01*
X24300000Y122400000D02*
X24300000Y123800000D01*
D16*
X45200000Y49200000D02*
X45400000Y49200000D01*
X45400000Y49200000D02*
X46200000Y50000000D01*
X46200000Y50000000D02*
X46200000Y51900000D01*
X47300000Y55600000D02*
X47300000Y56000000D01*
X47300000Y56000000D02*
X54900000Y63600000D01*
D15*
X24300000Y115600000D02*
X26900000Y115600000D01*
X51600000Y117300000D02*
X52900000Y117300000D01*
X52900000Y117400000D02*
X52900000Y118500000D01*
X52900000Y118500000D02*
X52300000Y119100000D01*
X52300000Y119100000D02*
X52300000Y120000000D01*
X52300000Y120000000D02*
X52100000Y120200000D01*
X52100000Y120200000D02*
X52100000Y123800000D01*
X52100000Y123800000D02*
X52900000Y124600000D01*
X52900000Y124700000D02*
X47700000Y124700000D01*
X51100000Y99300000D02*
X50700000Y99700000D01*
X50700000Y99700000D02*
X50700000Y99900000D01*
X50700000Y99700000D02*
X51000000Y99400000D01*
X53200000Y100400000D02*
X53900000Y100400000D01*
X53900000Y100400000D02*
X55400000Y101900000D01*
D12*
X54900000Y56400000D02*
X54900000Y57500000D01*
X54900000Y57500000D02*
X54300000Y58100000D01*
X54300000Y58100000D02*
X54300000Y61600000D01*
X54300000Y61600000D02*
X56000000Y63300000D01*
X56000000Y63300000D02*
X56000000Y64700000D01*
X56000000Y64700000D02*
X56200000Y64900000D01*
X56200000Y64900000D02*
X57500000Y64900000D01*
X57500000Y64900000D02*
X57700000Y64700000D01*
X57700000Y64700000D02*
X57700000Y61300000D01*
X57700000Y61300000D02*
X58700000Y60300000D01*
X58700000Y60300000D02*
X58700000Y46000000D01*
X58700000Y46000000D02*
X57900000Y45200000D01*
X57900000Y45200000D02*
X56600000Y45200000D01*
X56600000Y45200000D02*
X55700000Y44300000D01*
X55700000Y44300000D02*
X55400000Y44300000D01*
X55400000Y44300000D02*
X55300000Y44200000D01*
D11*
X55300000Y44200000D02*
X55700000Y44200000D01*
X55700000Y44200000D02*
X56000000Y44500000D01*
X56000000Y44500000D02*
X56000000Y44600000D01*
X56000000Y44600000D02*
X56300000Y44900000D01*
X56300000Y44900000D02*
X57900000Y44900000D01*
X57900000Y44900000D02*
X58200000Y44600000D01*
X58200000Y44600000D02*
X58200000Y16200000D01*
X58200000Y16200000D02*
X58300000Y16100000D01*
X58300000Y16100000D02*
X58300000Y16000000D01*
X58300000Y16000000D02*
X62900000Y11400000D01*
X94700000Y11400000D02*
X100700000Y11400000D01*
X100700000Y11400000D02*
X100900000Y11600000D01*
X51100000Y42400000D02*
X51100000Y41500000D01*
X51100000Y41500000D02*
X50600000Y41000000D01*
X49800000Y40600000D02*
X49800000Y39700000D01*
X50600000Y39300000D02*
X51700000Y39300000D01*
X51700000Y39300000D02*
X52300000Y38700000D01*
X52300000Y38700000D02*
X54100000Y38700000D01*
X54100000Y38700000D02*
X54300000Y38500000D01*
X54300000Y38500000D02*
X55000000Y38500000D01*
X55000000Y38500000D02*
X55400000Y38100000D01*
D15*
X38900000Y33400000D02*
X37500000Y33400000D01*
X37500000Y33400000D02*
X37000000Y33900000D01*
X33700000Y38800000D02*
X28100000Y38800000D01*
X28100000Y38800000D02*
X27900000Y39000000D01*
X27900000Y39000000D02*
X21900000Y39000000D01*
X20200000Y75000000D02*
X21700000Y76500000D01*
X38900000Y21400000D02*
X37500000Y21400000D01*
X37500000Y21400000D02*
X37000000Y21900000D01*
D12*
X50600000Y36800000D02*
X51100000Y36300000D01*
X51100000Y36300000D02*
X51100000Y36100000D01*
X51100000Y36100000D02*
X53300000Y33900000D01*
X53300000Y33900000D02*
X53300000Y30400000D01*
X53300000Y30400000D02*
X57000000Y26700000D01*
X57000000Y26700000D02*
X57000000Y26600000D01*
X57000000Y26600000D02*
X57100000Y26500000D01*
X57100000Y26500000D02*
X57100000Y26300000D01*
X57100000Y26300000D02*
X57200000Y26200000D01*
X57200000Y26200000D02*
X57200000Y25500000D01*
X57200000Y25500000D02*
X56700000Y25000000D01*
X56700000Y25000000D02*
X56600000Y25000000D01*
X56600000Y25000000D02*
X56500000Y24900000D01*
X56500000Y24900000D02*
X56300000Y24900000D01*
X56300000Y24900000D02*
X56200000Y24800000D01*
X56200000Y24800000D02*
X55300000Y24800000D01*
X55300000Y24800000D02*
X50900000Y20400000D01*
X50900000Y20400000D02*
X49000000Y20400000D01*
X49000000Y20400000D02*
X48000000Y19400000D01*
X48000000Y19400000D02*
X15200000Y19400000D01*
X15200000Y19400000D02*
X11400000Y23200000D01*
X11400000Y23200000D02*
X9000000Y23200000D01*
X9000000Y23200000D02*
X3100000Y29100000D01*
X3100000Y29100000D02*
X3100000Y29200000D01*
X3100000Y29200000D02*
X3000000Y29300000D01*
X3000000Y29300000D02*
X3000000Y29400000D01*
X3000000Y29400000D02*
X2900000Y29500000D01*
X2900000Y29500000D02*
X2900000Y46200000D01*
X2900000Y46200000D02*
X9600000Y52900000D01*
X9600000Y52900000D02*
X9600000Y53000000D01*
X9600000Y53000000D02*
X9800000Y53200000D01*
X9800000Y53200000D02*
X9800000Y53400000D01*
X9800000Y53400000D02*
X9900000Y53500000D01*
X9900000Y53500000D02*
X9900000Y69900000D01*
X9900000Y69900000D02*
X14500000Y74500000D01*
X14500000Y74500000D02*
X16800000Y74500000D01*
X16800000Y74500000D02*
X17000000Y74700000D01*
X17000000Y74700000D02*
X18500000Y74700000D01*
X18500000Y74700000D02*
X18600000Y74800000D01*
X18600000Y74800000D02*
X20000000Y74800000D01*
X20000000Y74800000D02*
X21700000Y76500000D01*
X50600000Y24800000D02*
X51100000Y24300000D01*
X51100000Y24300000D02*
X51100000Y20600000D01*
X51100000Y20600000D02*
X50900000Y20400000D01*
X48000000Y19400000D02*
X12800000Y19400000D01*
X12800000Y19400000D02*
X3100000Y29100000D01*
X2900000Y29500000D02*
X2900000Y32700000D01*
X2900000Y32700000D02*
X5300000Y35100000D01*
X5300000Y35100000D02*
X5300000Y40500000D01*
X5300000Y40500000D02*
X5900000Y41100000D01*
X5900000Y41100000D02*
X5900000Y41200000D01*
X5900000Y41200000D02*
X6000000Y41300000D01*
X6000000Y41300000D02*
X6000000Y41400000D01*
X6000000Y41400000D02*
X6100000Y41500000D01*
X6100000Y41500000D02*
X6100000Y49400000D01*
X6100000Y49400000D02*
X9600000Y52900000D01*
D13*
X57100000Y71600000D02*
X57100000Y70700000D01*
X57100000Y70700000D02*
X59300000Y68500000D01*
X59300000Y68500000D02*
X59300000Y61100000D01*
X59300000Y61100000D02*
X63700000Y56700000D01*
X65500000Y56600000D02*
X69000000Y56600000D01*
X69100000Y58900000D02*
X69100000Y59000000D01*
X69100000Y59000000D02*
X67100000Y59000000D01*
X67100000Y59000000D02*
X66700000Y59400000D01*
X57100000Y67600000D02*
X57100000Y66700000D01*
X57100000Y66700000D02*
X59300000Y64500000D01*
X59300000Y64500000D02*
X59300000Y61100000D01*
X90700000Y25700000D02*
X91600000Y25700000D01*
X91600000Y25700000D02*
X93800000Y27900000D01*
X93800000Y27900000D02*
X95900000Y27900000D01*
X95900000Y27900000D02*
X97800000Y29800000D01*
X97800000Y29800000D02*
X97900000Y29800000D01*
X97900000Y29800000D02*
X98000000Y29900000D01*
X98000000Y29900000D02*
X98100000Y29900000D01*
X98100000Y29900000D02*
X98200000Y30000000D01*
X98200000Y30000000D02*
X101500000Y30000000D01*
X119200000Y30000000D02*
X122500000Y30000000D01*
X122500000Y30000000D02*
X123500000Y31000000D01*
X123500000Y31000000D02*
X123500000Y31100000D01*
X123500000Y31100000D02*
X123600000Y31200000D01*
X123600000Y31200000D02*
X123600000Y34800000D01*
X123600000Y34800000D02*
X126700000Y37900000D01*
X126700000Y37900000D02*
X126800000Y37900000D01*
X126800000Y37900000D02*
X126900000Y38000000D01*
X126900000Y38000000D02*
X127100000Y38000000D01*
X127100000Y38000000D02*
X127300000Y38200000D01*
D11*
X90700000Y30800000D02*
X91600000Y30800000D01*
X91600000Y30800000D02*
X93800000Y33000000D01*
X93800000Y33000000D02*
X98600000Y33000000D01*
X98600000Y33000000D02*
X101700000Y36100000D01*
X113900000Y25600000D02*
X112800000Y25600000D01*
X112800000Y25600000D02*
X112200000Y25000000D01*
X112200000Y25000000D02*
X110100000Y25000000D01*
X110100000Y25000000D02*
X109500000Y25600000D01*
X108900000Y26400000D02*
X107200000Y26400000D01*
X107200000Y26400000D02*
X107000000Y26600000D01*
X107000000Y26600000D02*
X105100000Y26600000D01*
X105100000Y26600000D02*
X105000000Y26700000D01*
X105000000Y26700000D02*
X104400000Y26700000D01*
X104400000Y26700000D02*
X103900000Y27200000D01*
X99100000Y27400000D02*
X99100000Y24600000D01*
X98200000Y33700000D02*
X98200000Y36300000D01*
X98200000Y36300000D02*
X97400000Y37100000D01*
X97400000Y37100000D02*
X97400000Y37200000D01*
X97400000Y37200000D02*
X97300000Y37300000D01*
X97300000Y37300000D02*
X97300000Y38500000D01*
X97300000Y38500000D02*
X98200000Y39400000D01*
X98200000Y39400000D02*
X98200000Y40700000D01*
X98200000Y40700000D02*
X97400000Y41500000D01*
X97400000Y41500000D02*
X97400000Y41600000D01*
X97400000Y41600000D02*
X97300000Y41700000D01*
X97300000Y41700000D02*
X97300000Y43400000D01*
X97200000Y56700000D02*
X97200000Y58300000D01*
X97200000Y58300000D02*
X95700000Y59800000D01*
X95700000Y59800000D02*
X95700000Y64200000D01*
X95700000Y64200000D02*
X93100000Y66800000D01*
X91400000Y74700000D02*
X91400000Y109700000D01*
X81800000Y125600000D02*
X81800000Y125200000D01*
X81800000Y125200000D02*
X75000000Y118400000D01*
X74900000Y104800000D02*
X80300000Y104800000D01*
X80300000Y104800000D02*
X80400000Y104700000D01*
X121300000Y40700000D02*
X121300000Y41800000D01*
X121300000Y41800000D02*
X120700000Y42400000D01*
X120700000Y42400000D02*
X120700000Y44300000D01*
X120700000Y44300000D02*
X120600000Y44400000D01*
X120600000Y44400000D02*
X120600000Y49000000D01*
X120600000Y49000000D02*
X121300000Y49700000D01*
X124600000Y34300000D02*
X124600000Y17900000D01*
X124600000Y17900000D02*
X123100000Y16400000D01*
X14900000Y40600000D02*
X14600000Y40300000D01*
X14600000Y40300000D02*
X14600000Y40000000D01*
X14600000Y40000000D02*
X13800000Y39200000D01*
X13800000Y39200000D02*
X13800000Y39100000D01*
X13800000Y39100000D02*
X13700000Y39000000D01*
X13700000Y39000000D02*
X13700000Y37200000D01*
X13700000Y37200000D02*
X13800000Y37100000D01*
X13800000Y37100000D02*
X13800000Y36000000D01*
X13800000Y36000000D02*
X14100000Y35700000D01*
X80800000Y14700000D02*
X83400000Y14700000D01*
X83400000Y14700000D02*
X87300000Y18600000D01*
X87300000Y18600000D02*
X87400000Y18600000D01*
X87400000Y18600000D02*
X87500000Y18700000D01*
X87500000Y18700000D02*
X88400000Y18700000D01*
X88400000Y18700000D02*
X90000000Y20300000D01*
X90000000Y20300000D02*
X90100000Y20300000D01*
X90100000Y20300000D02*
X90200000Y20400000D01*
X90200000Y20400000D02*
X90600000Y20400000D01*
X90600000Y20400000D02*
X90700000Y20500000D01*
X90700000Y20500000D02*
X90800000Y20500000D01*
X90800000Y20500000D02*
X90900000Y20600000D01*
X90900000Y20600000D02*
X92000000Y20600000D01*
X92000000Y20600000D02*
X92400000Y21000000D01*
X92400000Y21000000D02*
X92500000Y21000000D01*
X92500000Y21000000D02*
X92600000Y21100000D01*
X92600000Y21100000D02*
X98300000Y21100000D01*
X98300000Y21100000D02*
X100200000Y23000000D01*
X100200000Y23000000D02*
X100200000Y23100000D01*
X100200000Y23100000D02*
X100300000Y23200000D01*
X100300000Y23200000D02*
X100300000Y23300000D01*
X100300000Y23300000D02*
X100400000Y23400000D01*
X100400000Y23400000D02*
X100400000Y25400000D01*
X100400000Y25400000D02*
X100500000Y25500000D01*
X100500000Y25500000D02*
X100500000Y28900000D01*
X103800000Y33700000D02*
X108900000Y38800000D01*
D14*
X68000000Y99300000D02*
X70700000Y99300000D01*
X70700000Y99300000D02*
X73600000Y102200000D01*
X81800000Y124100000D02*
X91000000Y124100000D01*
X91000000Y124100000D02*
X91800000Y124900000D01*
X91800000Y124900000D02*
X91900000Y124900000D01*
X91900000Y124900000D02*
X92000000Y125000000D01*
X92000000Y125000000D02*
X92600000Y125000000D01*
X92600000Y125000000D02*
X92700000Y125100000D01*
X92700000Y125100000D02*
X122100000Y125100000D01*
X122100000Y125100000D02*
X127700000Y119500000D01*
X145000000Y73900000D02*
X145000000Y72100000D01*
X145000000Y72100000D02*
X144700000Y71800000D01*
X144700000Y71800000D02*
X144700000Y71700000D01*
X144700000Y71700000D02*
X144600000Y71600000D01*
X144600000Y71600000D02*
X144600000Y71500000D01*
X144600000Y71500000D02*
X144500000Y71400000D01*
X66700000Y61900000D02*
X67800000Y61900000D01*
X67800000Y61900000D02*
X68400000Y61300000D01*
X68400000Y61300000D02*
X69500000Y61300000D01*
X69500000Y61300000D02*
X70200000Y60600000D01*
X70200000Y60600000D02*
X77700000Y60600000D01*
X77700000Y60600000D02*
X78500000Y59800000D01*
X78500000Y59800000D02*
X78600000Y59800000D01*
X81100000Y60400000D02*
X86800000Y54700000D01*
X86900000Y30900000D02*
X86900000Y28100000D01*
X86900000Y28100000D02*
X88900000Y26100000D01*
X88900000Y26100000D02*
X89000000Y26100000D01*
X89000000Y26100000D02*
X89100000Y26000000D01*
X89100000Y26000000D02*
X94300000Y26000000D01*
X94300000Y26000000D02*
X98000000Y29700000D01*
X98000000Y29700000D02*
X98100000Y29700000D01*
X98100000Y29700000D02*
X98200000Y29800000D01*
X98200000Y29800000D02*
X98300000Y29800000D01*
X98300000Y29800000D02*
X98400000Y29900000D01*
X98400000Y29900000D02*
X101600000Y29900000D01*
X119100000Y29900000D02*
X122100000Y29900000D01*
X122100000Y29900000D02*
X123400000Y31200000D01*
X123400000Y31200000D02*
X123400000Y31300000D01*
X123400000Y31300000D02*
X123500000Y31400000D01*
X123500000Y31400000D02*
X123500000Y34500000D01*
X123500000Y34500000D02*
X124200000Y35200000D01*
X124200000Y35200000D02*
X124300000Y35200000D01*
X124300000Y35200000D02*
X127300000Y38200000D01*
X85400000Y72800000D02*
X89400000Y72800000D01*
X91300000Y72400000D02*
X95100000Y72400000D01*
X96900000Y70800000D02*
X99200000Y70800000D01*
X99200000Y70800000D02*
X103400000Y66600000D01*
X103400000Y66600000D02*
X103500000Y66600000D01*
X103500000Y66600000D02*
X103600000Y66500000D01*
X103600000Y66500000D02*
X106700000Y66500000D01*
X125500000Y58700000D02*
X125500000Y41400000D01*
X125500000Y41400000D02*
X127300000Y39600000D01*
X125400000Y12100000D02*
X125300000Y12200000D01*
X125300000Y12200000D02*
X125300000Y12900000D01*
X125300000Y12900000D02*
X124300000Y13900000D01*
X124300000Y13900000D02*
X124200000Y13900000D01*
X124200000Y13900000D02*
X124100000Y14000000D01*
X124100000Y14000000D02*
X123700000Y14000000D01*
X123700000Y14000000D02*
X123600000Y14100000D01*
X123600000Y14100000D02*
X123500000Y14100000D01*
X123500000Y14100000D02*
X123400000Y14200000D01*
X123400000Y14200000D02*
X122800000Y14200000D01*
X122800000Y14200000D02*
X121800000Y15200000D01*
X121800000Y15200000D02*
X121800000Y15300000D01*
X121800000Y15300000D02*
X121700000Y15400000D01*
X121700000Y15400000D02*
X121700000Y16200000D01*
X121700000Y16200000D02*
X113200000Y24700000D01*
X112000000Y25900000D02*
X112000000Y37000000D01*
X112000000Y37000000D02*
X110900000Y38100000D01*
X110800000Y39700000D02*
X110800000Y51100000D01*
X110200000Y54600000D02*
X110300000Y54600000D01*
X110300000Y54600000D02*
X110500000Y54400000D01*
X93500000Y19600000D02*
X93500000Y19400000D01*
X93500000Y19400000D02*
X94000000Y18900000D01*
X94000000Y18900000D02*
X94100000Y18900000D01*
X94100000Y18900000D02*
X94200000Y18800000D01*
X94200000Y18800000D02*
X96500000Y18800000D01*
X96500000Y18800000D02*
X96900000Y19200000D01*
X96900000Y19200000D02*
X97500000Y19200000D01*
X97500000Y19200000D02*
X101600000Y23300000D01*
X106600000Y27300000D02*
X106700000Y27400000D01*
X106700000Y27400000D02*
X106700000Y27500000D01*
X106700000Y27500000D02*
X106800000Y27600000D01*
X106800000Y27600000D02*
X106800000Y27700000D01*
X106800000Y27700000D02*
X106900000Y27800000D01*
X106900000Y27800000D02*
X106900000Y35600000D01*
X106900000Y35600000D02*
X107100000Y35800000D01*
X107100000Y35800000D02*
X107100000Y35900000D01*
X107100000Y35900000D02*
X108100000Y36900000D01*
X107900000Y40300000D02*
X107900000Y48300000D01*
X107900000Y48300000D02*
X108700000Y49100000D01*
X65000000Y10400000D02*
X65000000Y12800000D01*
X62900000Y14200000D02*
X62800000Y14300000D01*
X62800000Y14300000D02*
X62800000Y34100000D01*
X62800000Y34100000D02*
X62400000Y34500000D01*
X62400000Y34500000D02*
X62400000Y34600000D01*
X62400000Y34600000D02*
X62300000Y34700000D01*
X62300000Y34700000D02*
X62300000Y40400000D01*
X62300000Y40400000D02*
X62200000Y40500000D01*
X62200000Y40500000D02*
X62200000Y40600000D01*
X62200000Y40600000D02*
X62100000Y40700000D01*
X62100000Y40700000D02*
X62100000Y42800000D01*
X62100000Y42800000D02*
X63800000Y44500000D01*
X65400000Y46100000D02*
X69000000Y49700000D01*
X69000000Y49700000D02*
X69700000Y49700000D01*
X69700000Y49700000D02*
X77300000Y57300000D01*
X108200000Y11200000D02*
X108200000Y12400000D01*
X108200000Y27100000D02*
X108200000Y36900000D01*
X73100000Y10400000D02*
X74000000Y10400000D01*
X74000000Y10400000D02*
X76200000Y12600000D01*
X76200000Y12600000D02*
X78200000Y12600000D01*
X78200000Y12600000D02*
X79200000Y13600000D01*
X85100000Y53800000D02*
X80800000Y58100000D01*
X96500000Y3800000D02*
X104200000Y11500000D01*
X106900000Y27300000D02*
X106900000Y35600000D01*
D13*
X139100000Y34400000D02*
X139100000Y50800000D01*
X139100000Y50800000D02*
X139400000Y51100000D01*
X139500000Y53900000D02*
X139500000Y54800000D01*
X139500000Y54800000D02*
X137300000Y57000000D01*
X137300000Y57000000D02*
X137200000Y57000000D01*
X137200000Y57000000D02*
X137100000Y57100000D01*
X137100000Y57100000D02*
X136900000Y57100000D01*
X136900000Y57100000D02*
X136700000Y57300000D01*
D14*
X120900000Y13400000D02*
X120600000Y13700000D01*
X120600000Y13700000D02*
X120600000Y13900000D01*
X120600000Y13900000D02*
X118200000Y16300000D01*
X118200000Y16300000D02*
X118200000Y19700000D01*
X118200000Y19700000D02*
X113200000Y24700000D01*
X112000000Y25900000D02*
X112000000Y38100000D01*
X111900000Y39800000D02*
X111900000Y50100000D01*
X111900000Y50100000D02*
X110800000Y51200000D01*
X121300000Y28700000D02*
X119600000Y28700000D01*
X119600000Y28700000D02*
X119400000Y28900000D01*
X119400000Y28900000D02*
X119300000Y28900000D01*
X117100000Y28900000D02*
X117000000Y28900000D01*
X117000000Y28900000D02*
X117000000Y34900000D01*
X117000000Y34900000D02*
X113200000Y38700000D01*
X112000000Y39900000D02*
X112000000Y50000000D01*
X112000000Y50000000D02*
X110800000Y51200000D01*
X110500000Y26400000D02*
X110500000Y38100000D01*
X110500000Y39700000D02*
X110500000Y50800000D01*
X120900000Y16400000D02*
X120600000Y16700000D01*
X120600000Y16700000D02*
X120600000Y16900000D01*
X120600000Y16900000D02*
X118200000Y19300000D01*
X118200000Y19300000D02*
X118200000Y19700000D01*
D11*
X124600000Y49500000D02*
X124600000Y45500000D01*
X124600000Y45500000D02*
X123100000Y44000000D01*
X123100000Y44000000D02*
X123000000Y44000000D01*
X123000000Y44000000D02*
X122900000Y43900000D01*
X122900000Y43900000D02*
X121900000Y43900000D01*
X121900000Y43900000D02*
X121500000Y43500000D01*
X113700000Y36900000D02*
X113700000Y36300000D01*
X113700000Y36300000D02*
X112900000Y35500000D01*
X101800000Y35100000D02*
X101400000Y34700000D01*
X101400000Y34700000D02*
X101300000Y34700000D01*
X101300000Y34700000D02*
X99000000Y32400000D01*
X99000000Y32400000D02*
X98900000Y32400000D01*
X98900000Y32400000D02*
X98800000Y32300000D01*
X98800000Y32300000D02*
X94800000Y32300000D01*
X94800000Y32300000D02*
X90700000Y28200000D01*
X16500000Y41400000D02*
X16200000Y41700000D01*
X16200000Y41700000D02*
X16200000Y41800000D01*
X16200000Y41800000D02*
X16000000Y42000000D01*
X16000000Y42000000D02*
X15900000Y42000000D01*
X15900000Y42000000D02*
X15800000Y42100000D01*
X15800000Y42100000D02*
X15700000Y42100000D01*
X15700000Y42100000D02*
X15100000Y42700000D01*
X15100000Y42700000D02*
X14600000Y42700000D01*
X14600000Y42700000D02*
X14500000Y42800000D01*
X11600000Y45500000D02*
X11200000Y45500000D01*
X11200000Y45500000D02*
X9700000Y44000000D01*
X15900000Y35000000D02*
X16200000Y35000000D01*
X16200000Y35000000D02*
X16500000Y35300000D01*
X16500000Y35300000D02*
X16600000Y35300000D01*
X16600000Y35300000D02*
X16700000Y35400000D01*
X16700000Y35400000D02*
X16900000Y35400000D01*
X16900000Y35400000D02*
X17400000Y35900000D01*
X17900000Y37300000D02*
X17900000Y37900000D01*
X17900000Y37900000D02*
X19800000Y39800000D01*
X19800000Y39800000D02*
X19900000Y39800000D01*
X19900000Y39800000D02*
X20000000Y39900000D01*
X20000000Y39900000D02*
X20200000Y39900000D01*
X20200000Y39900000D02*
X20900000Y40600000D01*
D10*
X17100000Y60900000D02*
X18800000Y60900000D01*
X18800000Y60900000D02*
X19000000Y61100000D01*
X19000000Y61100000D02*
X20900000Y61100000D01*
X20900000Y61100000D02*
X21000000Y61200000D01*
X21000000Y61200000D02*
X22500000Y61200000D01*
X22500000Y61200000D02*
X22600000Y61300000D01*
D15*
X29500000Y60100000D02*
X29500000Y59900000D01*
X29500000Y59900000D02*
X28900000Y59300000D01*
X28900000Y59300000D02*
X28700000Y59300000D01*
X28700000Y59300000D02*
X28200000Y58800000D01*
X28200000Y58800000D02*
X26700000Y58800000D01*
X26700000Y58800000D02*
X26300000Y58400000D01*
X26300000Y58400000D02*
X23300000Y58400000D01*
X23300000Y58400000D02*
X23100000Y58200000D01*
X20700000Y58100000D02*
X19800000Y58100000D01*
X19800000Y58100000D02*
X18900000Y57200000D01*
X38900000Y53400000D02*
X38800000Y53400000D01*
X37300000Y54800000D02*
X32600000Y59500000D01*
X28100000Y62000000D02*
X25900000Y62000000D01*
X25900000Y62000000D02*
X24300000Y63600000D01*
X39500000Y41400000D02*
X39600000Y41400000D01*
X52000000Y52000000D02*
X52000000Y52800000D01*
X52000000Y52800000D02*
X51000000Y53800000D01*
X51000000Y53800000D02*
X49100000Y53800000D01*
X49100000Y53800000D02*
X47300000Y55600000D01*
X38100000Y54900000D02*
X37700000Y55300000D01*
X37700000Y55300000D02*
X36800000Y55300000D01*
X36800000Y55300000D02*
X32600000Y59500000D01*
X38900000Y29400000D02*
X36600000Y29400000D01*
X35100000Y30800000D02*
X42500000Y30800000D01*
X42500000Y30800000D02*
X42900000Y31200000D01*
X52000000Y52800000D02*
X50000000Y54800000D01*
X50000000Y54800000D02*
X48100000Y54800000D01*
X48100000Y54800000D02*
X47300000Y55600000D01*
X38100000Y54900000D02*
X37200000Y54900000D01*
X37200000Y54900000D02*
X32600000Y59500000D01*
X24300000Y59700000D02*
X24300000Y60000000D01*
X24300000Y62200000D02*
X24300000Y63600000D01*
X54900000Y63600000D02*
X54600000Y63300000D01*
X54600000Y63300000D02*
X54600000Y63200000D01*
X54600000Y63200000D02*
X47200000Y55800000D01*
D16*
X43400000Y49200000D02*
X43200000Y49200000D01*
X43200000Y49200000D02*
X43100000Y49300000D01*
X43100000Y49300000D02*
X43000000Y49300000D01*
X43000000Y49300000D02*
X42900000Y49400000D01*
X42900000Y49400000D02*
X42800000Y49400000D01*
X42800000Y49400000D02*
X41200000Y51000000D01*
X37400000Y54800000D02*
X32600000Y59600000D01*
X28200000Y62100000D02*
X25800000Y62100000D01*
X25800000Y62100000D02*
X24300000Y63600000D01*
X42800000Y37700000D02*
X42800000Y38400000D01*
X42800000Y38400000D02*
X42700000Y38500000D01*
X38100000Y54800000D02*
X37400000Y54800000D01*
X28200000Y62100000D02*
X28000000Y62300000D01*
X28000000Y62300000D02*
X25600000Y62300000D01*
X25600000Y62300000D02*
X24300000Y63600000D01*
X43400000Y25200000D02*
X43200000Y25200000D01*
X43200000Y25200000D02*
X43100000Y25300000D01*
X43100000Y25300000D02*
X43000000Y25300000D01*
X43000000Y25300000D02*
X42900000Y25400000D01*
X42900000Y25400000D02*
X42400000Y25400000D01*
X42400000Y25400000D02*
X41800000Y26000000D01*
X41800000Y26000000D02*
X41000000Y26000000D01*
X41000000Y26000000D02*
X40100000Y26900000D01*
X40100000Y26900000D02*
X39000000Y26900000D01*
X39000000Y26900000D02*
X38900000Y27000000D01*
X35100000Y30800000D02*
X42500000Y30800000D01*
X42500000Y30800000D02*
X42900000Y31200000D01*
X56700000Y43800000D02*
X56400000Y43500000D01*
X56400000Y43500000D02*
X56000000Y43500000D01*
X56000000Y43500000D02*
X55700000Y43200000D01*
X55700000Y43200000D02*
X47400000Y43200000D01*
X47400000Y43200000D02*
X47300000Y43100000D01*
X47300000Y43100000D02*
X46700000Y43100000D01*
X46200000Y48000000D02*
X45700000Y48500000D01*
X45700000Y48500000D02*
X45600000Y48500000D01*
X45600000Y48500000D02*
X45500000Y48600000D01*
X45500000Y48600000D02*
X43700000Y48600000D01*
X43700000Y48600000D02*
X42900000Y49400000D01*
X28200000Y62100000D02*
X26500000Y62100000D01*
X26500000Y62100000D02*
X25000000Y63600000D01*
X25000000Y63600000D02*
X24300000Y63600000D01*
D15*
X22000000Y59700000D02*
X22000000Y60100000D01*
X22000000Y63400000D02*
X22000000Y63600000D01*
D10*
X15500000Y68700000D02*
X15500000Y68600000D01*
X15500000Y68600000D02*
X16200000Y67900000D01*
X16200000Y67900000D02*
X16900000Y67900000D01*
X16900000Y67900000D02*
X17000000Y67800000D01*
X17000000Y67800000D02*
X18800000Y67800000D01*
X18800000Y67800000D02*
X19000000Y67600000D01*
X19000000Y67600000D02*
X19100000Y67600000D01*
X24100000Y57400000D02*
X24100000Y57300000D01*
X24100000Y57300000D02*
X21800000Y55000000D01*
X21800000Y55000000D02*
X21300000Y55000000D01*
X21300000Y55000000D02*
X19300000Y53000000D01*
X19300000Y53000000D02*
X19300000Y49600000D01*
X19300000Y49600000D02*
X17500000Y47800000D01*
X17500000Y47800000D02*
X16800000Y47800000D01*
X16800000Y47800000D02*
X16500000Y47500000D01*
X16500000Y47500000D02*
X16300000Y47500000D01*
X16300000Y47500000D02*
X16100000Y47300000D01*
X16100000Y47300000D02*
X16000000Y47300000D01*
X16000000Y47300000D02*
X15300000Y46600000D01*
X15300000Y46600000D02*
X14900000Y46600000D01*
X14900000Y46600000D02*
X14000000Y45700000D01*
X14000000Y45700000D02*
X14000000Y43600000D01*
X14000000Y43600000D02*
X13500000Y43100000D01*
X13500000Y43100000D02*
X13500000Y40000000D01*
X13500000Y40000000D02*
X13000000Y39500000D01*
X13000000Y39500000D02*
X13000000Y39400000D01*
X13000000Y39400000D02*
X12900000Y39300000D01*
X12900000Y39300000D02*
X12900000Y35600000D01*
X12900000Y35600000D02*
X8400000Y31100000D01*
X15500000Y64400000D02*
X15500000Y64200000D01*
X15500000Y64200000D02*
X15600000Y64100000D01*
X15600000Y64100000D02*
X15600000Y63800000D01*
X15600000Y63800000D02*
X17400000Y62000000D01*
X17500000Y59200000D02*
X17500000Y58300000D01*
X17500000Y58300000D02*
X16400000Y57200000D01*
X105600000Y77000000D02*
X104860000Y76280000D01*
X135300000Y118200000D02*
X136000000Y118920000D01*
X105600000Y74400000D02*
X104860000Y73740000D01*
X136700000Y120800000D02*
X136000000Y121460000D01*
X5700000Y116200000D02*
X5000000Y115460000D01*
X5700000Y113600000D02*
X5000000Y112920000D01*
X5700000Y111100000D02*
X5000000Y110380000D01*
X5700000Y108100000D02*
X5000000Y107840000D01*
X5700000Y104600000D02*
X5000000Y105300000D01*
X5700000Y102100000D02*
X5000000Y102760000D01*
X5700000Y99500000D02*
X5000000Y100220000D01*
X5700000Y97000000D02*
X5000000Y97680000D01*
X5700000Y94400000D02*
X5000000Y95140000D01*
X40300000Y121900000D02*
X41000000Y122460000D01*
X40300000Y119200000D02*
X41000000Y119920000D01*
X40300000Y116700000D02*
X41000000Y117380000D01*
X40300000Y114100000D02*
X41000000Y114840000D01*
X40300000Y111600000D02*
X41000000Y112300000D01*
X40300000Y109100000D02*
X41000000Y109760000D01*
X40300000Y106500000D02*
X41000000Y107220000D01*
X40300000Y104000000D02*
X41000000Y104680000D01*
X40300000Y60400000D02*
X41000000Y59680000D01*
X47700000Y119200000D02*
X47000000Y119920000D01*
X47700000Y101600000D02*
X47000000Y100920000D01*
D11*
X82700000Y90800000D02*
X82000000Y91520000D01*
X104200000Y106100000D02*
X104860000Y106760000D01*
X104200000Y108600000D02*
X104860000Y109300000D01*
X66700000Y19000000D02*
X66000000Y19680000D01*
X66700000Y16400000D02*
X66000000Y17140000D01*
X77300000Y40900000D02*
X78000000Y40220000D01*
X77300000Y38400000D02*
X78000000Y37680000D01*
X77300000Y35800000D02*
X78000000Y35140000D01*
X77300000Y33300000D02*
X78000000Y32600000D01*
X77300000Y30800000D02*
X78000000Y30060000D01*
X77300000Y28200000D02*
X78000000Y27520000D01*
X77300000Y25700000D02*
X78000000Y24980000D01*
X81300000Y98400000D02*
X82000000Y99140000D01*
X89300000Y53600000D02*
X90000000Y52920000D01*
X89300000Y51100000D02*
X90000000Y50380000D01*
X89300000Y48500000D02*
X90000000Y47840000D01*
X82700000Y106100000D02*
X82000000Y106760000D01*
X90700000Y46000000D02*
X90000000Y45300000D01*
X89300000Y43500000D02*
X90000000Y42760000D01*
X66700000Y110600000D02*
X66000000Y111300000D01*
X65300000Y118200000D02*
X66000000Y118920000D01*
X65300000Y83600000D02*
X66000000Y82920000D01*
X66700000Y81100000D02*
X66000000Y80380000D01*
X65300000Y79700000D02*
X66000000Y80380000D01*
X66700000Y114500000D02*
X66000000Y113840000D01*
X81300000Y104900000D02*
X82000000Y104220000D01*
X81300000Y102400000D02*
X82000000Y101680000D01*
X66700000Y65500000D02*
X66000000Y65140000D01*
X66700000Y77100000D02*
X66000000Y77840000D01*
X105600000Y113700000D02*
X104860000Y114380000D01*
X136700000Y104200000D02*
X136000000Y104920000D01*
X136700000Y86500000D02*
X136000000Y85840000D01*
X135300000Y85100000D02*
X136000000Y85840000D01*
X90700000Y40900000D02*
X90000000Y40220000D01*
X105600000Y111100000D02*
X104860000Y111840000D01*
X135300000Y82600000D02*
X136000000Y83300000D01*
X90700000Y38400000D02*
X90000000Y37680000D01*
X135300000Y48500000D02*
X136000000Y47840000D01*
X89300000Y34400000D02*
X90000000Y35140000D01*
X121300000Y23600000D02*
X122000000Y22920000D01*
X90700000Y33300000D02*
X90000000Y32600000D01*
X104200000Y78100000D02*
X104860000Y78820000D01*
X113300000Y61100000D02*
X114000000Y60380000D01*
X135300000Y87700000D02*
X136000000Y88380000D01*
X128700000Y34500000D02*
X128000000Y33840000D01*
X116300000Y112500000D02*
X117000000Y111840000D01*
D13*
X135300000Y90200000D02*
X136000000Y90920000D01*
X127300000Y38200000D02*
X128000000Y38920000D01*
X81400000Y120200000D02*
X82000000Y119460000D01*
D15*
X47700000Y96500000D02*
X47000000Y95840000D01*
X47700000Y94000000D02*
X47000000Y93300000D01*
X46300000Y113000000D02*
X47000000Y112300000D01*
D12*
X46300000Y123200000D02*
X47000000Y122460000D01*
D13*
X66700000Y59400000D02*
X66000000Y60060000D01*
X90700000Y25700000D02*
X90000000Y24980000D01*
D11*
X90700000Y30800000D02*
X90000000Y30060000D01*
X121300000Y49700000D02*
X122000000Y50380000D01*
D14*
X66700000Y61900000D02*
X66000000Y62600000D01*
X127300000Y39600000D02*
X128000000Y38920000D01*
D11*
X90700000Y28200000D02*
X90000000Y27520000D01*
D15*
X18900000Y57200000D02*
X18240000Y56500000D01*
D10*
X23400000Y82800000D02*
X23600000Y82800000D01*
X23600000Y82800000D02*
X23700000Y82700000D01*
X23700000Y82700000D02*
X25000000Y82700000D01*
X25000000Y82700000D02*
X25200000Y82500000D01*
X25200000Y82500000D02*
X27800000Y82500000D01*
X27800000Y82500000D02*
X27900000Y82400000D01*
X41700000Y102800000D02*
X42500000Y103600000D01*
X42500000Y103600000D02*
X42500000Y126000000D01*
X42500000Y126000000D02*
X42000000Y126500000D01*
X42000000Y126500000D02*
X40600000Y126500000D01*
X40600000Y126500000D02*
X40000000Y127100000D01*
X40000000Y127100000D02*
X13000000Y127100000D01*
X13000000Y127100000D02*
X5600000Y119700000D01*
X5600000Y119700000D02*
X4100000Y119700000D01*
X4100000Y119700000D02*
X3500000Y119100000D01*
X3500000Y119100000D02*
X3500000Y89000000D01*
X3500000Y89000000D02*
X4000000Y88500000D01*
X4000000Y88500000D02*
X4200000Y88500000D01*
X4200000Y88500000D02*
X5700000Y87000000D01*
X5700000Y87000000D02*
X12600000Y87000000D01*
X12600000Y87000000D02*
X14500000Y85100000D01*
X14500000Y85100000D02*
X19100000Y85100000D01*
X19100000Y85100000D02*
X21400000Y82800000D01*
X21400000Y82800000D02*
X23900000Y82800000D01*
X23900000Y82800000D02*
X24000000Y82700000D01*
X24000000Y82700000D02*
X27600000Y82700000D01*
X27600000Y82700000D02*
X27900000Y82400000D01*
X17100000Y82400000D02*
X18800000Y82400000D01*
X18800000Y82400000D02*
X19000000Y82600000D01*
X19000000Y82600000D02*
X20900000Y82600000D01*
X20900000Y82600000D02*
X21000000Y82700000D01*
X21000000Y82700000D02*
X22500000Y82700000D01*
X22500000Y82700000D02*
X22600000Y82800000D01*
X14900000Y82400000D02*
X14000000Y82400000D01*
X14000000Y82400000D02*
X11800000Y84600000D01*
X11800000Y84600000D02*
X7900000Y84600000D01*
X7900000Y84600000D02*
X6600000Y85900000D01*
X41700000Y102800000D02*
X41000000Y102140000D01*
D17*
X28212500Y125000000D03*
X29787500Y125000000D03*
X28212500Y120700000D03*
X29787500Y120700000D03*
X28212500Y116400000D03*
X29787500Y116400000D03*
X28212500Y112100000D03*
X29787500Y112100000D03*
X28212500Y107800000D03*
X29787500Y107800000D03*
X28212500Y103500000D03*
X29787500Y103500000D03*
X28212500Y99200000D03*
X29787500Y99200000D03*
X28212500Y94900000D03*
X29787500Y94900000D03*
X28212500Y90600000D03*
X29787500Y90600000D03*
X28212500Y86300000D03*
X29787500Y86300000D03*
X28212500Y82000000D03*
X29787500Y82000000D03*
X28212500Y77700000D03*
X29787500Y77700000D03*
X28212500Y73400000D03*
X29787500Y73400000D03*
X28212500Y69100000D03*
X29787500Y69100000D03*
X28212500Y64800000D03*
X29787500Y64800000D03*
X28212500Y60500000D03*
X29787500Y60500000D03*
X15212500Y53000000D03*
X16787500Y53000000D03*
X15212500Y45000000D03*
X16787500Y45000000D03*
X21212500Y45000000D03*
X22787500Y45000000D03*
X39212500Y53000000D03*
X40787500Y53000000D03*
X39212500Y45000000D03*
X40787500Y45000000D03*
X15212500Y41000000D03*
X16787500Y41000000D03*
X15212500Y33000000D03*
X16787500Y33000000D03*
X21212500Y33000000D03*
X22787500Y33000000D03*
X39212500Y41000000D03*
X40787500Y41000000D03*
X39212500Y33000000D03*
X40787500Y33000000D03*
X114212500Y54000000D03*
X115787500Y54000000D03*
X114212500Y40000000D03*
X115787500Y40000000D03*
X114212500Y26000000D03*
X115787500Y26000000D03*
X15212500Y29000000D03*
X16787500Y29000000D03*
X15212500Y21000000D03*
X16787500Y21000000D03*
X21212500Y21000000D03*
X22787500Y21000000D03*
X39212500Y29000000D03*
X40787500Y29000000D03*
X39212500Y21000000D03*
X40787500Y21000000D03*
X144212500Y79000000D03*
X145787500Y79000000D03*
X144212500Y75000000D03*
X145787500Y75000000D03*
X144212500Y71000000D03*
X145787500Y71000000D03*
X144212500Y67000000D03*
X145787500Y67000000D03*
X144212500Y63000000D03*
X145787500Y63000000D03*
X65212500Y126700000D03*
X66787500Y126700000D03*
X65212500Y92000000D03*
X66787500Y92000000D03*
X93212500Y20000000D03*
X94787500Y20000000D03*
X129212500Y110000000D03*
X130787500Y110000000D03*
X65212500Y10000000D03*
X66787500Y10000000D03*
X139212500Y34000000D03*
X140787500Y34000000D03*
X127212500Y10000000D03*
X128787500Y10000000D03*
X129212500Y122000000D03*
X130787500Y122000000D03*
X71212500Y7000000D03*
X72787500Y7000000D03*
X129212500Y118000000D03*
X130787500Y118000000D03*
X121212500Y13000000D03*
X122787500Y13000000D03*
X53212500Y125000000D03*
X54787500Y125000000D03*
X53212500Y121000000D03*
X54787500Y121000000D03*
X53212500Y117000000D03*
X54787500Y117000000D03*
X53212500Y113000000D03*
X54787500Y113000000D03*
D18*
X22062500Y123960000D03*
X23937500Y123960000D03*
X23000000Y126040000D03*
X22062500Y119660000D03*
X23937500Y119660000D03*
X23000000Y121740000D03*
X22062500Y115360000D03*
X23937500Y115360000D03*
X23000000Y117440000D03*
X22062500Y111060000D03*
X23937500Y111060000D03*
X23000000Y113140000D03*
X22062500Y106760000D03*
X23937500Y106760000D03*
X23000000Y108840000D03*
X22062500Y102460000D03*
X23937500Y102460000D03*
X23000000Y104540000D03*
X22062500Y98160000D03*
X23937500Y98160000D03*
X23000000Y100240000D03*
X22062500Y93860000D03*
X23937500Y93860000D03*
X23000000Y95940000D03*
X22062500Y89560000D03*
X23937500Y89560000D03*
X23000000Y91640000D03*
X22062500Y85260000D03*
X23937500Y85260000D03*
X23000000Y87340000D03*
X22062500Y80960000D03*
X23937500Y80960000D03*
X23000000Y83040000D03*
X22062500Y76660000D03*
X23937500Y76660000D03*
X23000000Y78740000D03*
X22062500Y72360000D03*
X23937500Y72360000D03*
X23000000Y74440000D03*
X22062500Y68060000D03*
X23937500Y68060000D03*
X23000000Y70140000D03*
X22062500Y63760000D03*
X23937500Y63760000D03*
X23000000Y65840000D03*
X22062500Y59460000D03*
X23937500Y59460000D03*
X23000000Y61540000D03*
X33062500Y51960000D03*
X34937500Y51960000D03*
X34000000Y54040000D03*
X106062500Y10960000D03*
X107937500Y10960000D03*
X107000000Y13040000D03*
X144062500Y87960000D03*
X145937500Y87960000D03*
X145000000Y90040000D03*
X33062500Y39960000D03*
X34937500Y39960000D03*
X34000000Y42040000D03*
X33062500Y27960000D03*
X34937500Y27960000D03*
X34000000Y30040000D03*
D19*
X12000000Y120000000D03*
D20*
X145000000Y85462500D03*
X145000000Y82537500D03*
D19*
X144000000Y30000000D03*
X12000000Y10000000D03*
D21*
X66000000Y124000000D03*
D22*
X66000000Y121460000D03*
X66000000Y118920000D03*
X66000000Y116380000D03*
X66000000Y113840000D03*
X66000000Y111300000D03*
X66000000Y108760000D03*
X66000000Y106220000D03*
X66000000Y103680000D03*
X66000000Y101140000D03*
X66000000Y98600000D03*
X66000000Y96060000D03*
D21*
X41000000Y125000000D03*
D22*
X41000000Y122460000D03*
X41000000Y119920000D03*
X41000000Y117380000D03*
X41000000Y114840000D03*
X41000000Y112300000D03*
X41000000Y109760000D03*
X41000000Y107220000D03*
X41000000Y104680000D03*
X41000000Y102140000D03*
D21*
X66000000Y88000000D03*
D22*
X66000000Y85460000D03*
X66000000Y82920000D03*
X66000000Y80380000D03*
X66000000Y77840000D03*
X66000000Y75300000D03*
X66000000Y72760000D03*
X66000000Y70220000D03*
X66000000Y67680000D03*
X66000000Y65140000D03*
X66000000Y62600000D03*
X66000000Y60060000D03*
D21*
X41000000Y80000000D03*
D22*
X41000000Y77460000D03*
X41000000Y74920000D03*
X41000000Y72380000D03*
X41000000Y69840000D03*
X41000000Y67300000D03*
X41000000Y64760000D03*
X41000000Y62220000D03*
X41000000Y59680000D03*
X41000000Y57140000D03*
D21*
X72000000Y124000000D03*
D22*
X72000000Y121460000D03*
X72000000Y118920000D03*
X72000000Y116380000D03*
D21*
X82000000Y122000000D03*
D22*
X82000000Y119460000D03*
X82000000Y116920000D03*
X82000000Y114380000D03*
X82000000Y111840000D03*
X82000000Y109300000D03*
X82000000Y106760000D03*
X82000000Y104220000D03*
X82000000Y101680000D03*
X82000000Y99140000D03*
X82000000Y96600000D03*
X82000000Y94060000D03*
X82000000Y91520000D03*
X82000000Y88980000D03*
X82000000Y86440000D03*
X82000000Y83900000D03*
X82000000Y81360000D03*
X82000000Y78820000D03*
X82000000Y76280000D03*
X82000000Y73740000D03*
X82000000Y71200000D03*
X82000000Y68660000D03*
D21*
X104860000Y122000000D03*
D22*
X104860000Y119460000D03*
X104860000Y116920000D03*
X104860000Y114380000D03*
X104860000Y111840000D03*
X104860000Y109300000D03*
X104860000Y106760000D03*
X104860000Y104220000D03*
X104860000Y101680000D03*
X104860000Y99140000D03*
X104860000Y96600000D03*
X104860000Y94060000D03*
X104860000Y91520000D03*
X104860000Y88980000D03*
X104860000Y86440000D03*
X104860000Y83900000D03*
X104860000Y81360000D03*
X104860000Y78820000D03*
X104860000Y76280000D03*
X104860000Y73740000D03*
X104860000Y71200000D03*
X104860000Y68660000D03*
D21*
X90000000Y58000000D03*
D22*
X90000000Y55460000D03*
X90000000Y52920000D03*
X90000000Y50380000D03*
X90000000Y47840000D03*
X90000000Y45300000D03*
X90000000Y42760000D03*
X90000000Y40220000D03*
X90000000Y37680000D03*
X90000000Y35140000D03*
X90000000Y32600000D03*
X90000000Y30060000D03*
X90000000Y27520000D03*
X90000000Y24980000D03*
D21*
X114000000Y68000000D03*
D22*
X114000000Y65460000D03*
X114000000Y62920000D03*
X114000000Y60380000D03*
D21*
X136000000Y124000000D03*
D22*
X136000000Y121460000D03*
X136000000Y118920000D03*
X136000000Y116380000D03*
D21*
X136000000Y110000000D03*
D22*
X136000000Y107460000D03*
X136000000Y104920000D03*
X136000000Y102380000D03*
D21*
X136000000Y96000000D03*
D22*
X136000000Y93460000D03*
X136000000Y90920000D03*
X136000000Y88380000D03*
X136000000Y85840000D03*
X136000000Y83300000D03*
X136000000Y80760000D03*
X136000000Y78220000D03*
D23*
X135000000Y70000000D03*
D24*
X137000000Y70000000D03*
D21*
X5000000Y118000000D03*
D22*
X5000000Y115460000D03*
X5000000Y112920000D03*
X5000000Y110380000D03*
X5000000Y107840000D03*
X5000000Y105300000D03*
X5000000Y102760000D03*
X5000000Y100220000D03*
X5000000Y97680000D03*
X5000000Y95140000D03*
X5000000Y92600000D03*
X5000000Y90060000D03*
D25*
X8000000Y54000000D03*
X8000000Y42000000D03*
X8000000Y30000000D03*
D21*
X122000000Y40000000D03*
D22*
X122000000Y37460000D03*
X122000000Y34920000D03*
X122000000Y32380000D03*
D21*
X78000000Y58000000D03*
D22*
X78000000Y55460000D03*
X78000000Y52920000D03*
X78000000Y50380000D03*
X78000000Y47840000D03*
X78000000Y45300000D03*
X78000000Y42760000D03*
X78000000Y40220000D03*
X78000000Y37680000D03*
X78000000Y35140000D03*
X78000000Y32600000D03*
X78000000Y30060000D03*
X78000000Y27520000D03*
X78000000Y24980000D03*
X78000000Y22440000D03*
X78000000Y19900000D03*
D21*
X136000000Y58000000D03*
D22*
X136000000Y55460000D03*
X136000000Y52920000D03*
X136000000Y50380000D03*
X136000000Y47840000D03*
X136000000Y45300000D03*
X136000000Y42760000D03*
X136000000Y40220000D03*
D21*
X122000000Y58000000D03*
D22*
X122000000Y55460000D03*
X122000000Y52920000D03*
X122000000Y50380000D03*
X122000000Y47840000D03*
X122000000Y45300000D03*
D21*
X15700000Y56500000D03*
D22*
X18240000Y56500000D03*
X20780000Y56500000D03*
D21*
X47000000Y125000000D03*
D22*
X47000000Y122460000D03*
X47000000Y119920000D03*
X47000000Y117380000D03*
X47000000Y114840000D03*
X47000000Y112300000D03*
D23*
X142000000Y50000000D03*
D24*
X144000000Y50000000D03*
D21*
X128000000Y44000000D03*
D22*
X128000000Y41460000D03*
X128000000Y38920000D03*
X128000000Y36380000D03*
X128000000Y33840000D03*
X128000000Y31300000D03*
D21*
X117000000Y122000000D03*
D22*
X117000000Y119460000D03*
X117000000Y116920000D03*
X117000000Y114380000D03*
X117000000Y111840000D03*
X117000000Y109300000D03*
D21*
X128000000Y58000000D03*
D22*
X128000000Y55460000D03*
X128000000Y52920000D03*
X128000000Y50380000D03*
D21*
X122000000Y28000000D03*
D22*
X122000000Y25460000D03*
X122000000Y22920000D03*
X122000000Y20380000D03*
D21*
X47000000Y106000000D03*
D22*
X47000000Y103460000D03*
X47000000Y100920000D03*
X47000000Y98380000D03*
X47000000Y95840000D03*
X47000000Y93300000D03*
D21*
X66000000Y40000000D03*
D22*
X66000000Y37460000D03*
X66000000Y34920000D03*
X66000000Y32380000D03*
X66000000Y29840000D03*
X66000000Y27300000D03*
X66000000Y24760000D03*
X66000000Y22220000D03*
X66000000Y19680000D03*
X66000000Y17140000D03*
D26*
X130000000Y114825000D03*
X130000000Y113175000D03*
D27*
X15175000Y125000000D03*
X16825000Y125000000D03*
X15175000Y120700000D03*
X16825000Y120700000D03*
X15175000Y116400000D03*
X16825000Y116400000D03*
X15175000Y112100000D03*
X16825000Y112100000D03*
X15175000Y107800000D03*
X16825000Y107800000D03*
X15175000Y103500000D03*
X16825000Y103500000D03*
X15175000Y99200000D03*
X16825000Y99200000D03*
X15175000Y94900000D03*
X16825000Y94900000D03*
X15175000Y90600000D03*
X16825000Y90600000D03*
X15175000Y86300000D03*
X16825000Y86300000D03*
X15175000Y82000000D03*
X16825000Y82000000D03*
X15175000Y77700000D03*
X16825000Y77700000D03*
X15175000Y73400000D03*
X16825000Y73400000D03*
X15175000Y69100000D03*
X16825000Y69100000D03*
X15175000Y64800000D03*
X16825000Y64800000D03*
X15175000Y60500000D03*
X16825000Y60500000D03*
X21175000Y53000000D03*
X22825000Y53000000D03*
X27175000Y53000000D03*
X28825000Y53000000D03*
X15175000Y49000000D03*
X16825000Y49000000D03*
X21175000Y49000000D03*
X22825000Y49000000D03*
X27175000Y49000000D03*
X28825000Y49000000D03*
X33175000Y49000000D03*
X34825000Y49000000D03*
X39175000Y49000000D03*
X40825000Y49000000D03*
X27175000Y45000000D03*
X28825000Y45000000D03*
X33175000Y45000000D03*
X34825000Y45000000D03*
X21175000Y41000000D03*
X22825000Y41000000D03*
X27175000Y41000000D03*
X28825000Y41000000D03*
X15175000Y37000000D03*
X16825000Y37000000D03*
X21175000Y37000000D03*
X22825000Y37000000D03*
X27175000Y37000000D03*
X28825000Y37000000D03*
X33175000Y37000000D03*
X34825000Y37000000D03*
X39175000Y37000000D03*
X40825000Y37000000D03*
X27175000Y33000000D03*
X28825000Y33000000D03*
X33175000Y33000000D03*
X34825000Y33000000D03*
X109175000Y54000000D03*
X110825000Y54000000D03*
X109175000Y40000000D03*
X110825000Y40000000D03*
X109175000Y26000000D03*
X110825000Y26000000D03*
X21175000Y29000000D03*
X22825000Y29000000D03*
X27175000Y29000000D03*
X28825000Y29000000D03*
X15175000Y25000000D03*
X16825000Y25000000D03*
X21175000Y25000000D03*
X22825000Y25000000D03*
X27175000Y25000000D03*
X28825000Y25000000D03*
X33175000Y25000000D03*
X34825000Y25000000D03*
X39175000Y25000000D03*
X40825000Y25000000D03*
X27175000Y21000000D03*
X28825000Y21000000D03*
X33175000Y21000000D03*
X34825000Y21000000D03*
X71175000Y40100000D03*
X72825000Y40100000D03*
X71175000Y37560000D03*
X72825000Y37560000D03*
X71175000Y35020000D03*
X72825000Y35020000D03*
X71175000Y32480000D03*
X72825000Y32480000D03*
X71175000Y29940000D03*
X72825000Y29940000D03*
X71175000Y27400000D03*
X72825000Y27400000D03*
X71175000Y24860000D03*
X72825000Y24860000D03*
X71175000Y22320000D03*
X72825000Y22320000D03*
X71175000Y19000000D03*
X72825000Y19000000D03*
X71175000Y16000000D03*
X72825000Y16000000D03*
X55175000Y64000000D03*
X56825000Y64000000D03*
X55175000Y60000000D03*
X56825000Y60000000D03*
X55175000Y56000000D03*
X56825000Y56000000D03*
X101175000Y12000000D03*
X102825000Y12000000D03*
X144175000Y94000000D03*
X145825000Y94000000D03*
X144175000Y98000000D03*
X145825000Y98000000D03*
X144175000Y59000000D03*
X145825000Y59000000D03*
X71175000Y13000000D03*
X72825000Y13000000D03*
X71175000Y10000000D03*
X72825000Y10000000D03*
X121175000Y16000000D03*
X122825000Y16000000D03*
X55175000Y72000000D03*
X56825000Y72000000D03*
X55175000Y68000000D03*
X56825000Y68000000D03*
D26*
X50500000Y101825000D03*
X50500000Y100175000D03*
X52500000Y99325000D03*
X52500000Y97675000D03*
D27*
X111175000Y110000000D03*
X112825000Y110000000D03*
X111175000Y106000000D03*
X112825000Y106000000D03*
D28*
X98750000Y56250000D03*
X98750000Y51750000D03*
X105250000Y56250000D03*
X105250000Y51750000D03*
X98750000Y42250000D03*
X98750000Y37750000D03*
X105250000Y42250000D03*
X105250000Y37750000D03*
X98750000Y28250000D03*
X98750000Y23750000D03*
X105250000Y28250000D03*
X105250000Y23750000D03*
D29*
X66000000Y3500000D03*
X71000000Y3500000D03*
X76000000Y3500000D03*
X81000000Y3500000D03*
X86000000Y3500000D03*
X91000000Y3500000D03*
X56000000Y50000000D03*
X56000000Y38000000D03*
X56000000Y26000000D03*
X56000000Y102000000D03*
X56000000Y98000000D03*
X96000000Y3500000D03*
X54000000Y91000000D03*
X101000000Y3500000D03*
X106000000Y3500000D03*
X111000000Y3500000D03*
X116000000Y3500000D03*
X121000000Y3500000D03*
D30*
X44300000Y52810000D03*
X44300000Y51540000D03*
X44300000Y50270000D03*
X44300000Y49000000D03*
X44300000Y47730000D03*
X44300000Y46460000D03*
X44300000Y45190000D03*
X49700000Y45190000D03*
X49700000Y46460000D03*
X49700000Y47730000D03*
X49700000Y49000000D03*
X49700000Y50270000D03*
X49700000Y51540000D03*
X49700000Y52810000D03*
X44300000Y40810000D03*
X44300000Y39540000D03*
X44300000Y38270000D03*
X44300000Y37000000D03*
X44300000Y35730000D03*
X44300000Y34460000D03*
X44300000Y33190000D03*
X49700000Y33190000D03*
X49700000Y34460000D03*
X49700000Y35730000D03*
X49700000Y37000000D03*
X49700000Y38270000D03*
X49700000Y39540000D03*
X49700000Y40810000D03*
X44300000Y28810000D03*
X44300000Y27540000D03*
X44300000Y26270000D03*
X44300000Y25000000D03*
X44300000Y23730000D03*
X44300000Y22460000D03*
X44300000Y21190000D03*
X49700000Y21190000D03*
X49700000Y22460000D03*
X49700000Y23730000D03*
X49700000Y25000000D03*
X49700000Y26270000D03*
X49700000Y27540000D03*
X49700000Y28810000D03*
D31*
X54900000Y44050000D03*
X54900000Y45000000D03*
X54900000Y45950000D03*
X57100000Y45950000D03*
X57100000Y44050000D03*
D32*
X30937500Y125000000D03*
X30937500Y86300000D03*
X55937500Y125000000D03*
X55937500Y121000000D03*
X55937500Y117000000D03*
X55937500Y113000000D03*
X30937500Y82000000D03*
X30937500Y77700000D03*
X30937500Y73400000D03*
X30937500Y69100000D03*
X30937500Y64800000D03*
X30937500Y60500000D03*
X30937500Y120700000D03*
X17937500Y45000000D03*
X41937500Y53000000D03*
X41937500Y45000000D03*
X30937500Y116400000D03*
X30937500Y112100000D03*
X17937500Y33000000D03*
X41937500Y41000000D03*
X41937500Y33000000D03*
X30937500Y107800000D03*
X116937500Y54000000D03*
X116937500Y40000000D03*
X116937500Y26000000D03*
X30937500Y103500000D03*
X17937500Y21000000D03*
X41937500Y29000000D03*
X41937500Y21000000D03*
X30937500Y99200000D03*
X146937500Y79000000D03*
X146937500Y75000000D03*
X146937500Y71000000D03*
X146937500Y67000000D03*
X146937500Y63000000D03*
X30937500Y94900000D03*
X67937500Y126700000D03*
X67937500Y92000000D03*
X95937500Y20000000D03*
X131937500Y110000000D03*
X67937500Y10000000D03*
X141937500Y34000000D03*
X129937500Y10000000D03*
X131937500Y122000000D03*
X73937500Y7000000D03*
X131937500Y118000000D03*
X30937500Y90600000D03*
X123937500Y13000000D03*
X106875673Y10146827D03*
X147087500Y87960000D03*
X146150000Y90040000D03*
X35975000Y45000000D03*
X35975000Y33000000D03*
X35975000Y21000000D03*
X73975000Y16000000D03*
X57975000Y60000000D03*
X146975000Y98000000D03*
X73975000Y13000000D03*
X55615086Y70937539D03*
X57975000Y72000000D03*
X57975000Y68000000D03*
X55150000Y91000000D03*
X102150000Y3500000D03*
X45450000Y50270000D03*
X45450000Y47730000D03*
X45450000Y38270000D03*
X45450000Y35730000D03*
X45450000Y26270000D03*
X45450000Y23730000D03*
X16100000Y59300000D03*
X19900000Y78500000D03*
X17600000Y78100000D03*
X30800000Y79200000D03*
X26900000Y73800000D03*
X24200000Y73800000D03*
X30800000Y76300000D03*
X30800000Y72000000D03*
X19900000Y65600000D03*
X17500000Y65200000D03*
X32000000Y63600000D03*
X33900000Y61700000D03*
X43900000Y69500000D03*
X31800000Y60700000D03*
X17600000Y52700000D03*
X20300000Y52700000D03*
X35300000Y51800000D03*
X36800000Y51800000D03*
X34400000Y54100000D03*
X35900000Y54100000D03*
X21700000Y50900000D03*
X17000000Y50900000D03*
X35300000Y47900000D03*
X36800000Y47900000D03*
X33500000Y48600000D03*
X36800000Y47000000D03*
X30800000Y47100000D03*
X34200000Y49500000D03*
X35300000Y49100000D03*
X36800000Y49100000D03*
X15600000Y45200000D03*
X40200000Y48600000D03*
X42600000Y48600000D03*
X47000000Y48600000D03*
X42900000Y43200000D03*
X47000000Y43900000D03*
X33700000Y44400000D03*
X47000000Y49500000D03*
X33900000Y36100000D03*
X35400000Y34600000D03*
X31100000Y34500000D03*
X34200000Y37000000D03*
X26000000Y36600000D03*
X27500000Y38100000D03*
X42600000Y36600000D03*
X47000000Y36600000D03*
X45700000Y31900000D03*
X47000000Y32900000D03*
X33700000Y32600000D03*
X47000000Y37500000D03*
X33900000Y24100000D03*
X35400000Y22600000D03*
X31100000Y22500000D03*
X34200000Y25000000D03*
X24200000Y23800000D03*
X25700000Y25300000D03*
X42600000Y24600000D03*
X45900000Y24600000D03*
X33700000Y20600000D03*
X45900000Y25500000D03*
X89000000Y64000000D03*
X89900000Y66000000D03*
X102200000Y83200000D03*
X85400000Y67600000D03*
X73200000Y21200000D03*
X74800000Y19600000D03*
X79200000Y17700000D03*
X72200000Y21200000D03*
X72200000Y39900000D03*
X72200000Y37500000D03*
X72200000Y34600000D03*
X68100000Y31700000D03*
X72200000Y29500000D03*
X72200000Y27200000D03*
X72200000Y24700000D03*
X72200000Y22300000D03*
X80000000Y94600000D03*
X88700000Y17800000D03*
X79300000Y91400000D03*
X91100000Y17400000D03*
X84000000Y68800000D03*
X83600000Y67000000D03*
X80300000Y56400000D03*
X78500000Y77200000D03*
X81400000Y66900000D03*
X87700000Y56300000D03*
X87700000Y17800000D03*
X64600000Y40900000D03*
X71800000Y82800000D03*
X63900000Y42400000D03*
X64900000Y15700000D03*
X84600000Y73600000D03*
X86900000Y70200000D03*
X80200000Y51500000D03*
X80100000Y19300000D03*
X80100000Y17800000D03*
X78600000Y83400000D03*
X75400000Y81400000D03*
X68000000Y105500000D03*
X68000000Y105600000D03*
X67500000Y113700000D03*
X68000000Y103000000D03*
X68000000Y104400000D03*
X71000000Y104800000D03*
X70600000Y115700000D03*
X63900000Y69800000D03*
X69800000Y103700000D03*
X72000000Y104700000D03*
X78500000Y65500000D03*
X82100000Y65500000D03*
X88200000Y61000000D03*
X90000000Y62800000D03*
X67300000Y66400000D03*
X64000000Y59700000D03*
X130000000Y108000000D03*
X102700000Y51400000D03*
X99300000Y48100000D03*
X127000000Y105000000D03*
X103900000Y45400000D03*
X101800000Y45300000D03*
X133600000Y74000000D03*
X14700000Y50200000D03*
X81000000Y19200000D03*
X20000000Y24800000D03*
X115800000Y56200000D03*
X97400000Y39700000D03*
X99700000Y39800000D03*
X101700000Y40900000D03*
X117000000Y56200000D03*
X113300000Y53600000D03*
X109800000Y53600000D03*
X106100000Y53700000D03*
X104800000Y54600000D03*
X93700000Y67600000D03*
X103900000Y39600000D03*
X101800000Y39600000D03*
X98900000Y39000000D03*
X101000000Y83900000D03*
X84100000Y122200000D03*
X118400000Y55900000D03*
X120500000Y25500000D03*
X109400000Y82100000D03*
X88300000Y95300000D03*
X92500000Y112000000D03*
X134700000Y111400000D03*
X86700000Y120700000D03*
X43900000Y79500000D03*
X134600000Y68300000D03*
X123300000Y82900000D03*
X143700000Y79600000D03*
X143700000Y72400000D03*
X143000000Y71200000D03*
X135600000Y59600000D03*
X133800000Y59600000D03*
X109400000Y14400000D03*
X143900000Y64200000D03*
X63300000Y65300000D03*
X87100000Y121600000D03*
X85700000Y118400000D03*
X85400000Y72800000D03*
X85600000Y118300000D03*
X73700000Y102300000D03*
X68200000Y99400000D03*
X144600000Y63600000D03*
X133800000Y60800000D03*
X124400000Y60400000D03*
X117400000Y60000000D03*
X110400000Y54500000D03*
X110500000Y50900000D03*
X111800000Y26200000D03*
X119300000Y27800000D03*
X122600000Y18100000D03*
X93700000Y14400000D03*
X93700000Y17200000D03*
X127500000Y28700000D03*
X109200000Y56300000D03*
X107800000Y57700000D03*
X98900000Y58900000D03*
X84000000Y61400000D03*
X90500000Y19400000D03*
X79300000Y13400000D03*
X72500000Y9600000D03*
X65600000Y9500000D03*
X65700000Y57800000D03*
X78100000Y119200000D03*
X79300000Y106500000D03*
X79400000Y102200000D03*
X69700000Y91700000D03*
X65500000Y92400000D03*
X68100000Y94900000D03*
X75200000Y102000000D03*
X79300000Y106300000D03*
X69900000Y113900000D03*
X69500000Y115700000D03*
X69600000Y115700000D03*
X70000000Y114200000D03*
X74000000Y115200000D03*
X74000000Y117400000D03*
X69400000Y115900000D03*
X69700000Y114100000D03*
X84000000Y119200000D03*
X84600000Y117500000D03*
X90000000Y121400000D03*
X108100000Y121800000D03*
X108200000Y119500000D03*
X113100000Y109600000D03*
X113100000Y107500000D03*
X113500000Y113800000D03*
X114800000Y115200000D03*
X129500000Y109600000D03*
X49900000Y103100000D03*
X51600000Y100100000D03*
X38900000Y44700000D03*
X32800000Y42600000D03*
X18400000Y41900000D03*
X49500000Y49300000D03*
X51400000Y22000000D03*
X39800000Y21900000D03*
X37000000Y21900000D03*
X22200000Y38100000D03*
X33600000Y38900000D03*
X37000000Y33900000D03*
X51300000Y22500000D03*
X39700000Y21600000D03*
X22300000Y58800000D03*
X21700000Y64500000D03*
X21700000Y66600000D03*
X21700000Y68800000D03*
X21700000Y70900000D03*
X21700000Y77400000D03*
X21700000Y79500000D03*
X21700000Y81700000D03*
X21700000Y83800000D03*
X22800000Y86100000D03*
X22800000Y88600000D03*
X22100000Y90000000D03*
X22100000Y92700000D03*
X21700000Y94600000D03*
X21700000Y96700000D03*
X21700000Y98900000D03*
X21700000Y101000000D03*
X21700000Y103200000D03*
X21700000Y105300000D03*
X21700000Y107500000D03*
X21700000Y109600000D03*
X21700000Y111800000D03*
X21700000Y113900000D03*
X21700000Y116100000D03*
X21700000Y118200000D03*
X21700000Y120400000D03*
X21700000Y122500000D03*
X22700000Y110700000D03*
X51300000Y116400000D03*
X51600000Y114700000D03*
X68000000Y75900000D03*
X68200000Y66200000D03*
X63100000Y40900000D03*
X24000000Y41100000D03*
X22000000Y42000000D03*
X17600000Y39100000D03*
X14600000Y38800000D03*
X6000000Y88000000D03*
X6000000Y76000000D03*
X6000000Y64000000D03*
X6000000Y52000000D03*
X6000000Y40000000D03*
X6000000Y16000000D03*
X18000000Y76000000D03*
X18000000Y16000000D03*
X30000000Y124000000D03*
X30000000Y112000000D03*
X30000000Y88000000D03*
X30000000Y16000000D03*
X42000000Y16000000D03*
X54000000Y88000000D03*
X54000000Y76000000D03*
X54000000Y40000000D03*
X54000000Y28000000D03*
X54000000Y16000000D03*
X80250000Y100000000D03*
X92250000Y124000000D03*
X92250000Y100000000D03*
X92250000Y88000000D03*
X92250000Y76000000D03*
X92250000Y64000000D03*
X104250000Y64000000D03*
X104250000Y16000000D03*
X116250000Y100000000D03*
X116250000Y88000000D03*
X116250000Y52000000D03*
X116250000Y16000000D03*
X128250000Y124000000D03*
X128250000Y100000000D03*
X128250000Y76000000D03*
X128250000Y16000000D03*
X140250000Y100000000D03*
X140250000Y88000000D03*
X140250000Y76000000D03*
X140250000Y64000000D03*
X140250000Y40000000D03*
X140250000Y28000000D03*
X140250000Y16000000D03*
X23300000Y71200000D03*
X16400000Y72100000D03*
X21300000Y77000000D03*
X20000000Y68600000D03*
X17700000Y70900000D03*
X21600000Y66600000D03*
X19600000Y68600000D03*
X33100000Y39000000D03*
X21600000Y38700000D03*
X20200000Y39000000D03*
X20000000Y36700000D03*
X20300000Y34100000D03*
X18200000Y34000000D03*
X50200000Y49200000D03*
X48100000Y51300000D03*
X39600000Y52600000D03*
X41100000Y51100000D03*
X46000000Y47000000D03*
X39700000Y41400000D03*
X39600000Y40600000D03*
X41100000Y39100000D03*
X42700000Y38200000D03*
X42900000Y31200000D03*
X35100000Y30800000D03*
X36500000Y29400000D03*
X39600000Y28600000D03*
X41100000Y27100000D03*
X36600000Y53200000D03*
X32800000Y53600000D03*
X24300000Y64300000D03*
X24300000Y66500000D03*
X23200000Y73000000D03*
X23600000Y76400000D03*
X24300000Y77200000D03*
X24300000Y79400000D03*
X24300000Y81500000D03*
X24300000Y83700000D03*
X24300000Y90100000D03*
X24300000Y92300000D03*
X24300000Y94400000D03*
X24300000Y96600000D03*
X24300000Y98700000D03*
X24300000Y100900000D03*
X24300000Y103000000D03*
X24300000Y105200000D03*
X24300000Y107300000D03*
X24300000Y109500000D03*
X24300000Y111600000D03*
X24300000Y113800000D03*
X24300000Y115900000D03*
X24300000Y118100000D03*
X24300000Y120200000D03*
X24300000Y122400000D03*
X46200000Y51900000D03*
X47300000Y55600000D03*
X26900000Y115600000D03*
X51600000Y117300000D03*
X51100000Y99300000D03*
X51000000Y99400000D03*
X53200000Y100400000D03*
X62900000Y11400000D03*
X94700000Y11400000D03*
X51100000Y42400000D03*
X33700000Y38800000D03*
X20200000Y75000000D03*
X63700000Y56700000D03*
X65500000Y56600000D03*
X69000000Y56600000D03*
X69100000Y58900000D03*
X101500000Y30000000D03*
X119200000Y30000000D03*
X101700000Y36100000D03*
X103900000Y27200000D03*
X98200000Y33700000D03*
X97300000Y43400000D03*
X97200000Y56700000D03*
X93100000Y66800000D03*
X91400000Y74700000D03*
X91400000Y109700000D03*
X81800000Y125600000D03*
X75000000Y118400000D03*
X74900000Y104800000D03*
X80400000Y104700000D03*
X124600000Y34300000D03*
X14100000Y35700000D03*
X80800000Y14700000D03*
X100500000Y28900000D03*
X103800000Y33700000D03*
X108900000Y38800000D03*
X68000000Y99300000D03*
X73600000Y102200000D03*
X81800000Y124100000D03*
X127700000Y119500000D03*
X145000000Y73900000D03*
X78600000Y59800000D03*
X81100000Y60400000D03*
X86800000Y54700000D03*
X86900000Y30900000D03*
X101600000Y29900000D03*
X119100000Y29900000D03*
X89400000Y72800000D03*
X91300000Y72400000D03*
X95100000Y72400000D03*
X96900000Y70800000D03*
X106700000Y66500000D03*
X125500000Y58700000D03*
X127000000Y10400000D03*
X125400000Y12100000D03*
X113200000Y24700000D03*
X112000000Y25900000D03*
X110900000Y38100000D03*
X110800000Y39700000D03*
X110800000Y51100000D03*
X110200000Y54600000D03*
X101600000Y23300000D03*
X106600000Y27300000D03*
X108100000Y36900000D03*
X107900000Y40300000D03*
X108700000Y49100000D03*
X65000000Y12800000D03*
X62900000Y14200000D03*
X63800000Y44500000D03*
X65400000Y46100000D03*
X108200000Y12400000D03*
X108200000Y27100000D03*
X108200000Y36900000D03*
X79200000Y13600000D03*
X85100000Y53800000D03*
X80800000Y58100000D03*
X104200000Y11500000D03*
X106900000Y27300000D03*
X139400000Y51100000D03*
X139500000Y53900000D03*
X112000000Y38100000D03*
X111900000Y39800000D03*
X110800000Y51200000D03*
X119300000Y28900000D03*
X117100000Y28900000D03*
X113200000Y38700000D03*
X112000000Y39900000D03*
X110500000Y38100000D03*
X110500000Y39700000D03*
X110500000Y50800000D03*
X124600000Y49500000D03*
X121500000Y43500000D03*
X113700000Y36900000D03*
X112900000Y35500000D03*
X101800000Y35100000D03*
X14500000Y42800000D03*
X11600000Y45500000D03*
X9700000Y44000000D03*
X15900000Y35000000D03*
X17400000Y35900000D03*
X17900000Y37300000D03*
X23100000Y58200000D03*
X20700000Y58100000D03*
X38800000Y53400000D03*
X37300000Y54800000D03*
X32600000Y59500000D03*
X28100000Y62000000D03*
X39600000Y41400000D03*
X52000000Y52000000D03*
X38100000Y54900000D03*
X36600000Y29400000D03*
X24300000Y60000000D03*
X24300000Y62200000D03*
X47200000Y55800000D03*
X41200000Y51000000D03*
X37400000Y54800000D03*
X32600000Y59600000D03*
X28200000Y62100000D03*
X42700000Y38500000D03*
X38100000Y54800000D03*
X38900000Y27000000D03*
X22000000Y60100000D03*
X22000000Y63400000D03*
X19100000Y67600000D03*
X24100000Y57400000D03*
X17400000Y62000000D03*
X17500000Y59200000D03*
X6600000Y85900000D03*
M02*
