%TF.GenerationSoftware,TI One Voice,package_v2.4/tools/gerber.py,1.0*%
%TF.CreationDate,2026-09-02T00:00:00+01:00*%
%TF.ProjectId,EEG-CAR-01,862e7331a2a69f3411479984413f8b7b,B*%
%TF.FileFunction,Soldermask,Bot*%
%TF.FilePolarity,Negative*%
%TF.SameCoordinates,Original*%
%FSLAX46Y46*%
%MOMM*%
G04 Solder mask Bot (vias tented, not opened)*
G04 EEG-CAR-01 Rev B -- TI One Voice research programme*
G04 Licence CC BY-SA 4.0*
G01*
G75*
%LPD*%
%ADD10R,1.702000X1.702000*%
%ADD11C,1.702000*%
%ADD12R,1.802000X1.802000*%
%ADD13C,1.802000*%
%ADD14C,2.702000*%
%ADD15C,2.102000*%
D10*
X66000000Y124000000D03*
D11*
X66000000Y121460000D03*
X66000000Y118920000D03*
X66000000Y116380000D03*
X66000000Y113840000D03*
X66000000Y111300000D03*
X66000000Y108760000D03*
X66000000Y106220000D03*
X66000000Y103680000D03*
X66000000Y101140000D03*
X66000000Y98600000D03*
X66000000Y96060000D03*
D10*
X41000000Y125000000D03*
D11*
X41000000Y122460000D03*
X41000000Y119920000D03*
X41000000Y117380000D03*
X41000000Y114840000D03*
X41000000Y112300000D03*
X41000000Y109760000D03*
X41000000Y107220000D03*
X41000000Y104680000D03*
X41000000Y102140000D03*
D10*
X66000000Y88000000D03*
D11*
X66000000Y85460000D03*
X66000000Y82920000D03*
X66000000Y80380000D03*
X66000000Y77840000D03*
X66000000Y75300000D03*
X66000000Y72760000D03*
X66000000Y70220000D03*
X66000000Y67680000D03*
X66000000Y65140000D03*
X66000000Y62600000D03*
X66000000Y60060000D03*
D10*
X41000000Y80000000D03*
D11*
X41000000Y77460000D03*
X41000000Y74920000D03*
X41000000Y72380000D03*
X41000000Y69840000D03*
X41000000Y67300000D03*
X41000000Y64760000D03*
X41000000Y62220000D03*
X41000000Y59680000D03*
X41000000Y57140000D03*
D10*
X72000000Y124000000D03*
D11*
X72000000Y121460000D03*
X72000000Y118920000D03*
X72000000Y116380000D03*
D10*
X82000000Y122000000D03*
D11*
X82000000Y119460000D03*
X82000000Y116920000D03*
X82000000Y114380000D03*
X82000000Y111840000D03*
X82000000Y109300000D03*
X82000000Y106760000D03*
X82000000Y104220000D03*
X82000000Y101680000D03*
X82000000Y99140000D03*
X82000000Y96600000D03*
X82000000Y94060000D03*
X82000000Y91520000D03*
X82000000Y88980000D03*
X82000000Y86440000D03*
X82000000Y83900000D03*
X82000000Y81360000D03*
X82000000Y78820000D03*
X82000000Y76280000D03*
X82000000Y73740000D03*
X82000000Y71200000D03*
X82000000Y68660000D03*
D10*
X104860000Y122000000D03*
D11*
X104860000Y119460000D03*
X104860000Y116920000D03*
X104860000Y114380000D03*
X104860000Y111840000D03*
X104860000Y109300000D03*
X104860000Y106760000D03*
X104860000Y104220000D03*
X104860000Y101680000D03*
X104860000Y99140000D03*
X104860000Y96600000D03*
X104860000Y94060000D03*
X104860000Y91520000D03*
X104860000Y88980000D03*
X104860000Y86440000D03*
X104860000Y83900000D03*
X104860000Y81360000D03*
X104860000Y78820000D03*
X104860000Y76280000D03*
X104860000Y73740000D03*
X104860000Y71200000D03*
X104860000Y68660000D03*
D10*
X90000000Y58000000D03*
D11*
X90000000Y55460000D03*
X90000000Y52920000D03*
X90000000Y50380000D03*
X90000000Y47840000D03*
X90000000Y45300000D03*
X90000000Y42760000D03*
X90000000Y40220000D03*
X90000000Y37680000D03*
X90000000Y35140000D03*
X90000000Y32600000D03*
X90000000Y30060000D03*
X90000000Y27520000D03*
X90000000Y24980000D03*
D10*
X114000000Y68000000D03*
D11*
X114000000Y65460000D03*
X114000000Y62920000D03*
X114000000Y60380000D03*
D10*
X136000000Y124000000D03*
D11*
X136000000Y121460000D03*
X136000000Y118920000D03*
X136000000Y116380000D03*
D10*
X136000000Y110000000D03*
D11*
X136000000Y107460000D03*
X136000000Y104920000D03*
X136000000Y102380000D03*
D10*
X136000000Y96000000D03*
D11*
X136000000Y93460000D03*
X136000000Y90920000D03*
X136000000Y88380000D03*
X136000000Y85840000D03*
X136000000Y83300000D03*
X136000000Y80760000D03*
X136000000Y78220000D03*
D12*
X135000000Y70000000D03*
D13*
X137000000Y70000000D03*
D10*
X5000000Y118000000D03*
D11*
X5000000Y115460000D03*
X5000000Y112920000D03*
X5000000Y110380000D03*
X5000000Y107840000D03*
X5000000Y105300000D03*
X5000000Y102760000D03*
X5000000Y100220000D03*
X5000000Y97680000D03*
X5000000Y95140000D03*
X5000000Y92600000D03*
X5000000Y90060000D03*
D14*
X8000000Y54000000D03*
X8000000Y42000000D03*
X8000000Y30000000D03*
D10*
X122000000Y40000000D03*
D11*
X122000000Y37460000D03*
X122000000Y34920000D03*
X122000000Y32380000D03*
D10*
X78000000Y58000000D03*
D11*
X78000000Y55460000D03*
X78000000Y52920000D03*
X78000000Y50380000D03*
X78000000Y47840000D03*
X78000000Y45300000D03*
X78000000Y42760000D03*
X78000000Y40220000D03*
X78000000Y37680000D03*
X78000000Y35140000D03*
X78000000Y32600000D03*
X78000000Y30060000D03*
X78000000Y27520000D03*
X78000000Y24980000D03*
X78000000Y22440000D03*
X78000000Y19900000D03*
D10*
X136000000Y58000000D03*
D11*
X136000000Y55460000D03*
X136000000Y52920000D03*
X136000000Y50380000D03*
X136000000Y47840000D03*
X136000000Y45300000D03*
X136000000Y42760000D03*
X136000000Y40220000D03*
D10*
X122000000Y58000000D03*
D11*
X122000000Y55460000D03*
X122000000Y52920000D03*
X122000000Y50380000D03*
X122000000Y47840000D03*
X122000000Y45300000D03*
D10*
X15700000Y56500000D03*
D11*
X18240000Y56500000D03*
X20780000Y56500000D03*
D10*
X47000000Y125000000D03*
D11*
X47000000Y122460000D03*
X47000000Y119920000D03*
X47000000Y117380000D03*
X47000000Y114840000D03*
X47000000Y112300000D03*
D12*
X142000000Y50000000D03*
D13*
X144000000Y50000000D03*
D10*
X128000000Y44000000D03*
D11*
X128000000Y41460000D03*
X128000000Y38920000D03*
X128000000Y36380000D03*
X128000000Y33840000D03*
X128000000Y31300000D03*
D10*
X117000000Y122000000D03*
D11*
X117000000Y119460000D03*
X117000000Y116920000D03*
X117000000Y114380000D03*
X117000000Y111840000D03*
X117000000Y109300000D03*
D10*
X128000000Y58000000D03*
D11*
X128000000Y55460000D03*
X128000000Y52920000D03*
X128000000Y50380000D03*
D10*
X122000000Y28000000D03*
D11*
X122000000Y25460000D03*
X122000000Y22920000D03*
X122000000Y20380000D03*
D10*
X47000000Y106000000D03*
D11*
X47000000Y103460000D03*
X47000000Y100920000D03*
X47000000Y98380000D03*
X47000000Y95840000D03*
X47000000Y93300000D03*
D10*
X66000000Y40000000D03*
D11*
X66000000Y37460000D03*
X66000000Y34920000D03*
X66000000Y32380000D03*
X66000000Y29840000D03*
X66000000Y27300000D03*
X66000000Y24760000D03*
X66000000Y22220000D03*
X66000000Y19680000D03*
X66000000Y17140000D03*
D15*
X98750000Y56250000D03*
X98750000Y51750000D03*
X105250000Y56250000D03*
X105250000Y51750000D03*
X98750000Y42250000D03*
X98750000Y37750000D03*
X105250000Y42250000D03*
X105250000Y37750000D03*
X98750000Y28250000D03*
X98750000Y23750000D03*
X105250000Y28250000D03*
X105250000Y23750000D03*
M02*
