M48
; EEG-CAR-01 Rev B -- plated holes
; TI One Voice research programme, CC BY-SA 4.0
; generated 2026-09-02 from package_v2.4/tools/design.py
; sizes below are FINISHED hole diameters; add plating allowance for the tool
FMAT,2
METRIC,TZ
; #@! TF.FileFunction,Plated,1,2,PTH
T01C0.300
T02C0.900
T03C1.000
T04C1.200
T05C1.700
%
G90
G05
T01
X6.000Y88.000
X6.000Y76.000
X6.000Y64.000
X6.000Y52.000
X6.000Y40.000
X6.000Y16.000
X6.600Y85.900
X9.700Y44.000
X11.600Y45.500
X14.100Y35.700
X14.500Y42.800
X14.600Y38.800
X14.700Y50.200
X15.600Y45.200
X15.900Y35.000
X16.100Y59.300
X16.400Y72.100
X17.000Y50.900
X17.400Y62.000
X17.400Y35.900
X17.500Y65.200
X17.500Y59.200
X17.600Y78.100
X17.600Y52.700
X17.600Y39.100
X17.700Y70.900
X17.900Y37.300
X17.938Y45.000
X17.938Y33.000
X17.938Y21.000
X18.000Y76.000
X18.000Y16.000
X18.200Y34.000
X18.400Y41.900
X19.100Y67.600
X19.600Y68.600
X19.900Y78.500
X19.900Y65.600
X20.000Y68.600
X20.000Y36.700
X20.000Y24.800
X20.200Y75.000
X20.200Y39.000
X20.300Y52.700
X20.300Y34.100
X20.700Y58.100
X21.300Y77.000
X21.600Y66.600
X21.600Y38.700
X21.700Y122.500
X21.700Y120.400
X21.700Y118.200
X21.700Y116.100
X21.700Y113.900
X21.700Y111.800
X21.700Y109.600
X21.700Y107.500
X21.700Y105.300
X21.700Y103.200
X21.700Y101.000
X21.700Y98.900
X21.700Y96.700
X21.700Y94.600
X21.700Y83.800
X21.700Y81.700
X21.700Y79.500
X21.700Y77.400
X21.700Y70.900
X21.700Y68.800
X21.700Y66.600
X21.700Y64.500
X21.700Y50.900
X22.000Y63.400
X22.000Y60.100
X22.000Y42.000
X22.100Y92.700
X22.100Y90.000
X22.200Y38.100
X22.300Y58.800
X22.700Y110.700
X22.800Y88.600
X22.800Y86.100
X23.100Y58.200
X23.200Y73.000
X23.300Y71.200
X23.600Y76.400
X24.000Y41.100
X24.100Y57.400
X24.200Y73.800
X24.200Y23.800
X24.300Y122.400
X24.300Y120.200
X24.300Y118.100
X24.300Y115.900
X24.300Y113.800
X24.300Y111.600
X24.300Y109.500
X24.300Y107.300
X24.300Y105.200
X24.300Y103.000
X24.300Y100.900
X24.300Y98.700
X24.300Y96.600
X24.300Y94.400
X24.300Y92.300
X24.300Y90.100
X24.300Y83.700
X24.300Y81.500
X24.300Y79.400
X24.300Y77.200
X24.300Y66.500
X24.300Y64.300
X24.300Y62.200
X24.300Y60.000
X25.700Y25.300
X26.000Y36.600
X26.900Y115.600
X26.900Y73.800
X27.500Y38.100
X28.100Y62.000
X28.200Y62.100
X30.000Y124.000
X30.000Y112.000
X30.000Y88.000
X30.000Y16.000
X30.800Y79.200
X30.800Y76.300
X30.800Y72.000
X30.800Y47.100
X30.938Y125.000
X30.938Y120.700
X30.938Y116.400
X30.938Y112.100
X30.938Y107.800
X30.938Y103.500
X30.938Y99.200
X30.938Y94.900
X30.938Y90.600
X30.938Y86.300
X30.938Y82.000
X30.938Y77.700
X30.938Y73.400
X30.938Y69.100
X30.938Y64.800
X30.938Y60.500
X31.100Y34.500
X31.100Y22.500
X31.800Y60.700
X32.000Y63.600
X32.600Y59.600
X32.600Y59.500
X32.800Y53.600
X32.800Y42.600
X33.100Y39.000
X33.500Y48.600
X33.600Y38.900
X33.700Y44.400
X33.700Y38.800
X33.700Y32.600
X33.700Y20.600
X33.900Y61.700
X33.900Y36.100
X33.900Y24.100
X34.200Y49.500
X34.200Y37.000
X34.200Y25.000
X34.400Y54.100
X35.100Y30.800
X35.300Y51.800
X35.300Y49.100
X35.300Y47.900
X35.400Y34.600
X35.400Y22.600
X35.900Y54.100
X35.975Y45.000
X35.975Y33.000
X35.975Y21.000
X36.500Y29.400
X36.600Y53.200
X36.600Y29.400
X36.800Y51.800
X36.800Y49.100
X36.800Y47.900
X36.800Y47.000
X37.000Y33.900
X37.000Y21.900
X37.300Y54.800
X37.400Y54.800
X38.100Y54.900
X38.100Y54.800
X38.800Y53.400
X38.900Y44.700
X38.900Y27.000
X39.600Y52.600
X39.600Y41.400
X39.600Y40.600
X39.600Y28.600
X39.700Y41.400
X39.700Y21.600
X39.800Y21.900
X40.200Y48.600
X41.100Y51.100
X41.100Y39.100
X41.100Y27.100
X41.200Y51.000
X41.938Y53.000
X41.938Y45.000
X41.938Y41.000
X41.938Y33.000
X41.938Y29.000
X41.938Y21.000
X42.000Y16.000
X42.600Y48.600
X42.600Y36.600
X42.600Y24.600
X42.700Y38.500
X42.700Y38.200
X42.900Y43.200
X42.900Y31.200
X43.900Y79.500
X43.900Y69.500
X45.450Y50.270
X45.450Y47.730
X45.450Y38.270
X45.450Y35.730
X45.450Y26.270
X45.450Y23.730
X45.700Y31.900
X45.900Y25.500
X45.900Y24.600
X46.000Y47.000
X46.200Y51.900
X47.000Y49.500
X47.000Y48.600
X47.000Y43.900
X47.000Y37.500
X47.000Y36.600
X47.000Y32.900
X47.200Y55.800
X47.300Y55.600
X48.100Y51.300
X49.500Y49.300
X49.900Y103.100
X50.200Y49.200
X51.000Y99.400
X51.100Y99.300
X51.100Y42.400
X51.300Y116.400
X51.300Y22.500
X51.400Y22.000
X51.600Y117.300
X51.600Y114.700
X51.600Y100.100
X52.000Y52.000
X53.200Y100.400
X54.000Y88.000
X54.000Y76.000
X54.000Y40.000
X54.000Y28.000
X54.000Y16.000
X55.150Y91.000
X55.615Y70.938
X55.938Y125.000
X55.938Y121.000
X55.938Y117.000
X55.938Y113.000
X57.975Y72.000
X57.975Y68.000
X57.975Y60.000
X62.900Y14.200
X62.900Y11.400
X63.100Y40.900
X63.300Y65.300
X63.700Y56.700
X63.800Y44.500
X63.900Y69.800
X63.900Y42.400
X64.000Y59.700
X64.600Y40.900
X64.900Y15.700
X65.000Y12.800
X65.400Y46.100
X65.500Y92.400
X65.500Y56.600
X65.600Y9.500
X65.700Y57.800
X67.300Y66.400
X67.500Y113.700
X67.938Y126.700
X67.938Y92.000
X67.938Y10.000
X68.000Y105.600
X68.000Y105.500
X68.000Y104.400
X68.000Y103.000
X68.000Y99.300
X68.000Y75.900
X68.100Y94.900
X68.100Y31.700
X68.200Y99.400
X68.200Y66.200
X69.000Y56.600
X69.100Y58.900
X69.400Y115.900
X69.500Y115.700
X69.600Y115.700
X69.700Y114.100
X69.700Y91.700
X69.800Y103.700
X69.900Y113.900
X70.000Y114.200
X70.600Y115.700
X71.000Y104.800
X71.800Y82.800
X72.000Y104.700
X72.200Y39.900
X72.200Y37.500
X72.200Y34.600
X72.200Y29.500
X72.200Y27.200
X72.200Y24.700
X72.200Y22.300
X72.200Y21.200
X72.500Y9.600
X73.200Y21.200
X73.600Y102.200
X73.700Y102.300
X73.938Y7.000
X73.975Y16.000
X73.975Y13.000
X74.000Y117.400
X74.000Y115.200
X74.800Y19.600
X74.900Y104.800
X75.000Y118.400
X75.200Y102.000
X75.400Y81.400
X78.100Y119.200
X78.500Y77.200
X78.500Y65.500
X78.600Y83.400
X78.600Y59.800
X79.200Y17.700
X79.200Y13.600
X79.300Y106.500
X79.300Y106.300
X79.300Y91.400
X79.300Y13.400
X79.400Y102.200
X80.000Y94.600
X80.100Y19.300
X80.100Y17.800
X80.200Y51.500
X80.250Y100.000
X80.300Y56.400
X80.400Y104.700
X80.800Y58.100
X80.800Y14.700
X81.000Y19.200
X81.100Y60.400
X81.400Y66.900
X81.800Y125.600
X81.800Y124.100
X82.100Y65.500
X83.600Y67.000
X84.000Y119.200
X84.000Y68.800
X84.000Y61.400
X84.100Y122.200
X84.600Y117.500
X84.600Y73.600
X85.100Y53.800
X85.400Y72.800
X85.400Y67.600
X85.600Y118.300
X85.700Y118.400
X86.700Y120.700
X86.800Y54.700
X86.900Y70.200
X86.900Y30.900
X87.100Y121.600
X87.700Y56.300
X87.700Y17.800
X88.200Y61.000
X88.300Y95.300
X88.700Y17.800
X89.000Y64.000
X89.400Y72.800
X89.900Y66.000
X90.000Y121.400
X90.000Y62.800
X90.500Y19.400
X91.100Y17.400
X91.300Y72.400
X91.400Y109.700
X91.400Y74.700
X92.250Y124.000
X92.250Y100.000
X92.250Y88.000
X92.250Y76.000
X92.250Y64.000
X92.500Y112.000
X93.100Y66.800
X93.700Y67.600
X93.700Y17.200
X93.700Y14.400
X94.700Y11.400
X95.100Y72.400
X95.938Y20.000
X96.900Y70.800
X97.200Y56.700
X97.300Y43.400
X97.400Y39.700
X98.200Y33.700
X98.900Y58.900
X98.900Y39.000
X99.300Y48.100
X99.700Y39.800
X100.500Y28.900
X101.000Y83.900
X101.500Y30.000
X101.600Y29.900
X101.600Y23.300
X101.700Y40.900
X101.700Y36.100
X101.800Y45.300
X101.800Y39.600
X101.800Y35.100
X102.150Y3.500
X102.200Y83.200
X102.700Y51.400
X103.800Y33.700
X103.900Y45.400
X103.900Y39.600
X103.900Y27.200
X104.200Y11.500
X104.250Y64.000
X104.250Y16.000
X104.800Y54.600
X106.100Y53.700
X106.600Y27.300
X106.700Y66.500
X106.876Y10.147
X106.900Y27.300
X107.800Y57.700
X107.900Y40.300
X108.100Y121.800
X108.100Y36.900
X108.200Y119.500
X108.200Y36.900
X108.200Y27.100
X108.200Y12.400
X108.700Y49.100
X108.900Y38.800
X109.200Y56.300
X109.400Y82.100
X109.400Y14.400
X109.800Y53.600
X110.200Y54.600
X110.400Y54.500
X110.500Y50.900
X110.500Y50.800
X110.500Y39.700
X110.500Y38.100
X110.800Y51.200
X110.800Y51.100
X110.800Y39.700
X110.900Y38.100
X111.800Y26.200
X111.900Y39.800
X112.000Y39.900
X112.000Y38.100
X112.000Y25.900
X112.900Y35.500
X113.100Y109.600
X113.100Y107.500
X113.200Y38.700
X113.200Y24.700
X113.300Y53.600
X113.500Y113.800
X113.700Y36.900
X114.800Y115.200
X115.800Y56.200
X116.250Y100.000
X116.250Y88.000
X116.250Y52.000
X116.250Y16.000
X116.938Y54.000
X116.938Y40.000
X116.938Y26.000
X117.000Y56.200
X117.100Y28.900
X117.400Y60.000
X118.400Y55.900
X119.100Y29.900
X119.200Y30.000
X119.300Y28.900
X119.300Y27.800
X120.500Y25.500
X121.500Y43.500
X122.600Y18.100
X123.300Y82.900
X123.938Y13.000
X124.400Y60.400
X124.600Y49.500
X124.600Y34.300
X125.400Y12.100
X125.500Y58.700
X127.000Y105.000
X127.000Y10.400
X127.500Y28.700
X127.700Y119.500
X128.250Y124.000
X128.250Y100.000
X128.250Y76.000
X128.250Y16.000
X129.500Y109.600
X129.938Y10.000
X130.000Y108.000
X131.938Y122.000
X131.938Y118.000
X131.938Y110.000
X133.600Y74.000
X133.800Y60.800
X133.800Y59.600
X134.600Y68.300
X134.700Y111.400
X135.600Y59.600
X139.400Y51.100
X139.500Y53.900
X140.250Y100.000
X140.250Y88.000
X140.250Y76.000
X140.250Y64.000
X140.250Y40.000
X140.250Y28.000
X140.250Y16.000
X141.938Y34.000
X143.000Y71.200
X143.700Y79.600
X143.700Y72.400
X143.900Y64.200
X144.600Y63.600
X145.000Y73.900
X146.150Y90.040
X146.938Y79.000
X146.938Y75.000
X146.938Y71.000
X146.938Y67.000
X146.938Y63.000
X146.975Y98.000
X147.088Y87.960
T02
X135.000Y70.000
X137.000Y70.000
X142.000Y50.000
X144.000Y50.000
T03
X5.000Y118.000
X5.000Y115.460
X5.000Y112.920
X5.000Y110.380
X5.000Y107.840
X5.000Y105.300
X5.000Y102.760
X5.000Y100.220
X5.000Y97.680
X5.000Y95.140
X5.000Y92.600
X5.000Y90.060
X15.700Y56.500
X18.240Y56.500
X20.780Y56.500
X41.000Y125.000
X41.000Y122.460
X41.000Y119.920
X41.000Y117.380
X41.000Y114.840
X41.000Y112.300
X41.000Y109.760
X41.000Y107.220
X41.000Y104.680
X41.000Y102.140
X41.000Y80.000
X41.000Y77.460
X41.000Y74.920
X41.000Y72.380
X41.000Y69.840
X41.000Y67.300
X41.000Y64.760
X41.000Y62.220
X41.000Y59.680
X41.000Y57.140
X47.000Y125.000
X47.000Y122.460
X47.000Y119.920
X47.000Y117.380
X47.000Y114.840
X47.000Y112.300
X47.000Y106.000
X47.000Y103.460
X47.000Y100.920
X47.000Y98.380
X47.000Y95.840
X47.000Y93.300
X66.000Y124.000
X66.000Y121.460
X66.000Y118.920
X66.000Y116.380
X66.000Y113.840
X66.000Y111.300
X66.000Y108.760
X66.000Y106.220
X66.000Y103.680
X66.000Y101.140
X66.000Y98.600
X66.000Y96.060
X66.000Y88.000
X66.000Y85.460
X66.000Y82.920
X66.000Y80.380
X66.000Y77.840
X66.000Y75.300
X66.000Y72.760
X66.000Y70.220
X66.000Y67.680
X66.000Y65.140
X66.000Y62.600
X66.000Y60.060
X66.000Y40.000
X66.000Y37.460
X66.000Y34.920
X66.000Y32.380
X66.000Y29.840
X66.000Y27.300
X66.000Y24.760
X66.000Y22.220
X66.000Y19.680
X66.000Y17.140
X72.000Y124.000
X72.000Y121.460
X72.000Y118.920
X72.000Y116.380
X78.000Y58.000
X78.000Y55.460
X78.000Y52.920
X78.000Y50.380
X78.000Y47.840
X78.000Y45.300
X78.000Y42.760
X78.000Y40.220
X78.000Y37.680
X78.000Y35.140
X78.000Y32.600
X78.000Y30.060
X78.000Y27.520
X78.000Y24.980
X78.000Y22.440
X78.000Y19.900
X82.000Y122.000
X82.000Y119.460
X82.000Y116.920
X82.000Y114.380
X82.000Y111.840
X82.000Y109.300
X82.000Y106.760
X82.000Y104.220
X82.000Y101.680
X82.000Y99.140
X82.000Y96.600
X82.000Y94.060
X82.000Y91.520
X82.000Y88.980
X82.000Y86.440
X82.000Y83.900
X82.000Y81.360
X82.000Y78.820
X82.000Y76.280
X82.000Y73.740
X82.000Y71.200
X82.000Y68.660
X90.000Y58.000
X90.000Y55.460
X90.000Y52.920
X90.000Y50.380
X90.000Y47.840
X90.000Y45.300
X90.000Y42.760
X90.000Y40.220
X90.000Y37.680
X90.000Y35.140
X90.000Y32.600
X90.000Y30.060
X90.000Y27.520
X90.000Y24.980
X104.860Y122.000
X104.860Y119.460
X104.860Y116.920
X104.860Y114.380
X104.860Y111.840
X104.860Y109.300
X104.860Y106.760
X104.860Y104.220
X104.860Y101.680
X104.860Y99.140
X104.860Y96.600
X104.860Y94.060
X104.860Y91.520
X104.860Y88.980
X104.860Y86.440
X104.860Y83.900
X104.860Y81.360
X104.860Y78.820
X104.860Y76.280
X104.860Y73.740
X104.860Y71.200
X104.860Y68.660
X114.000Y68.000
X114.000Y65.460
X114.000Y62.920
X114.000Y60.380
X117.000Y122.000
X117.000Y119.460
X117.000Y116.920
X117.000Y114.380
X117.000Y111.840
X117.000Y109.300
X122.000Y58.000
X122.000Y55.460
X122.000Y52.920
X122.000Y50.380
X122.000Y47.840
X122.000Y45.300
X122.000Y40.000
X122.000Y37.460
X122.000Y34.920
X122.000Y32.380
X122.000Y28.000
X122.000Y25.460
X122.000Y22.920
X122.000Y20.380
X128.000Y58.000
X128.000Y55.460
X128.000Y52.920
X128.000Y50.380
X128.000Y44.000
X128.000Y41.460
X128.000Y38.920
X128.000Y36.380
X128.000Y33.840
X128.000Y31.300
X136.000Y124.000
X136.000Y121.460
X136.000Y118.920
X136.000Y116.380
X136.000Y110.000
X136.000Y107.460
X136.000Y104.920
X136.000Y102.380
X136.000Y96.000
X136.000Y93.460
X136.000Y90.920
X136.000Y88.380
X136.000Y85.840
X136.000Y83.300
X136.000Y80.760
X136.000Y78.220
X136.000Y58.000
X136.000Y55.460
X136.000Y52.920
X136.000Y50.380
X136.000Y47.840
X136.000Y45.300
X136.000Y42.760
X136.000Y40.220
T04
X98.750Y56.250
X98.750Y51.750
X98.750Y42.250
X98.750Y37.750
X98.750Y28.250
X98.750Y23.750
X105.250Y56.250
X105.250Y51.750
X105.250Y42.250
X105.250Y37.750
X105.250Y28.250
X105.250Y23.750
T05
X8.000Y54.000
X8.000Y42.000
X8.000Y30.000
M30
