ISO-10303-21;
HEADER;
FILE_DESCRIPTION(('MP-01 plate with the DevKit opening, and the four M3 x 18 standoffs'),'2;1');
FILE_NAME('MP-01_module_plate_and_standoffs','2026-09-08T00:00:00',('TI One Voice research programme'),(''),'EEG-CAR-01 step_write.py','','CC BY-SA 4.0');
FILE_SCHEMA(('AUTOMOTIVE_DESIGN { 1 0 10303 214 1 1 1 1 }'));
ENDSEC;
DATA;
#1 = CARTESIAN_POINT('',(0.,0.,0.));
#2 = DIRECTION('',(0.,0.,1.));
#3 = DIRECTION('',(1.,0.,0.));
#4 = AXIS2_PLACEMENT_3D('',#1,#2,#3);
#5 = ( NAMED_UNIT(*) SI_UNIT(.MILLI.,.METRE.) LENGTH_UNIT() );
#6 = ( NAMED_UNIT(*) PLANE_ANGLE_UNIT() SI_UNIT($,.RADIAN.) );
#7 = ( NAMED_UNIT(*) SI_UNIT($,.STERADIAN.) SOLID_ANGLE_UNIT() );
#8 = UNCERTAINTY_MEASURE_WITH_UNIT(LENGTH_MEASURE(1.E-06),#5,'distance_accuracy_value','confusion accuracy');
#9 = ( GEOMETRIC_REPRESENTATION_CONTEXT(3) GLOBAL_UNCERTAINTY_ASSIGNED_CONTEXT((#8)) GLOBAL_UNIT_ASSIGNED_CONTEXT((#5,#6,#7)) REPRESENTATION_CONTEXT('','3D') );
#10 = APPLICATION_CONTEXT('automotive design');
#11 = APPLICATION_PROTOCOL_DEFINITION('international standard','automotive_design',2000,#10);
#12 = PRODUCT_CONTEXT('',#10,'mechanical');
#13 = PRODUCT_DEFINITION_CONTEXT('part definition',#10,'design');
#14 = CARTESIAN_POINT('',(2.000000,4.000000,18.000000));
#15 = CARTESIAN_POINT('',(148.000000,4.000000,18.000000));
#16 = CARTESIAN_POINT('',(148.000000,2.000000,18.000000));
#17 = CARTESIAN_POINT('',(2.000000,2.000000,18.000000));
#18 = POLY_LOOP('',(#14,#15,#16,#17));
#19 = FACE_OUTER_BOUND('',#18,.T.);
#20 = DIRECTION('',(0.000000,0.000000,-1.000000));
#21 = DIRECTION('',(-0.000000,1.000000,0.000000));
#22 = AXIS2_PLACEMENT_3D('',#14,#20,#21);
#23 = PLANE('',#22);
#24 = FACE_SURFACE('',(#19),#23,.T.);
#25 = CARTESIAN_POINT('',(2.000000,2.000000,21.000000));
#26 = CARTESIAN_POINT('',(148.000000,2.000000,21.000000));
#27 = CARTESIAN_POINT('',(148.000000,4.000000,21.000000));
#28 = CARTESIAN_POINT('',(2.000000,4.000000,21.000000));
#29 = POLY_LOOP('',(#25,#26,#27,#28));
#30 = FACE_OUTER_BOUND('',#29,.T.);
#31 = DIRECTION('',(0.000000,0.000000,1.000000));
#32 = DIRECTION('',(0.000000,-1.000000,0.000000));
#33 = AXIS2_PLACEMENT_3D('',#25,#31,#32);
#34 = PLANE('',#33);
#35 = FACE_SURFACE('',(#30),#34,.T.);
#36 = POLY_LOOP('',(#17,#16,#26,#25));
#37 = FACE_OUTER_BOUND('',#36,.T.);
#38 = DIRECTION('',(0.000000,-1.000000,0.000000));
#39 = DIRECTION('',(0.000000,0.000000,-1.000000));
#40 = AXIS2_PLACEMENT_3D('',#17,#38,#39);
#41 = PLANE('',#40);
#42 = FACE_SURFACE('',(#37),#41,.T.);
#43 = POLY_LOOP('',(#16,#15,#27,#26));
#44 = FACE_OUTER_BOUND('',#43,.T.);
#45 = DIRECTION('',(1.000000,-0.000000,0.000000));
#46 = DIRECTION('',(0.000000,0.000000,-1.000000));
#47 = AXIS2_PLACEMENT_3D('',#16,#45,#46);
#48 = PLANE('',#47);
#49 = FACE_SURFACE('',(#44),#48,.T.);
#50 = POLY_LOOP('',(#15,#14,#28,#27));
#51 = FACE_OUTER_BOUND('',#50,.T.);
#52 = DIRECTION('',(0.000000,1.000000,0.000000));
#53 = DIRECTION('',(0.000000,0.000000,1.000000));
#54 = AXIS2_PLACEMENT_3D('',#15,#52,#53);
#55 = PLANE('',#54);
#56 = FACE_SURFACE('',(#51),#55,.T.);
#57 = POLY_LOOP('',(#14,#17,#25,#28));
#58 = FACE_OUTER_BOUND('',#57,.T.);
#59 = DIRECTION('',(-1.000000,-0.000000,0.000000));
#60 = DIRECTION('',(0.000000,-0.000000,1.000000));
#61 = AXIS2_PLACEMENT_3D('',#14,#59,#60);
#62 = PLANE('',#61);
#63 = FACE_SURFACE('',(#58),#62,.T.);
#64 = CARTESIAN_POINT('',(2.000000,128.000000,18.000000));
#65 = CARTESIAN_POINT('',(148.000000,128.000000,18.000000));
#66 = CARTESIAN_POINT('',(148.000000,65.000000,18.000000));
#67 = CARTESIAN_POINT('',(2.000000,65.000000,18.000000));
#68 = POLY_LOOP('',(#64,#65,#66,#67));
#69 = FACE_OUTER_BOUND('',#68,.T.);
#70 = DIRECTION('',(0.000000,0.000000,-1.000000));
#71 = DIRECTION('',(-0.000000,1.000000,0.000000));
#72 = AXIS2_PLACEMENT_3D('',#64,#70,#71);
#73 = PLANE('',#72);
#74 = FACE_SURFACE('',(#69),#73,.T.);
#75 = CARTESIAN_POINT('',(2.000000,65.000000,21.000000));
#76 = CARTESIAN_POINT('',(148.000000,65.000000,21.000000));
#77 = CARTESIAN_POINT('',(148.000000,128.000000,21.000000));
#78 = CARTESIAN_POINT('',(2.000000,128.000000,21.000000));
#79 = POLY_LOOP('',(#75,#76,#77,#78));
#80 = FACE_OUTER_BOUND('',#79,.T.);
#81 = DIRECTION('',(0.000000,0.000000,1.000000));
#82 = DIRECTION('',(0.000000,-1.000000,0.000000));
#83 = AXIS2_PLACEMENT_3D('',#75,#81,#82);
#84 = PLANE('',#83);
#85 = FACE_SURFACE('',(#80),#84,.T.);
#86 = POLY_LOOP('',(#67,#66,#76,#75));
#87 = FACE_OUTER_BOUND('',#86,.T.);
#88 = DIRECTION('',(0.000000,-1.000000,0.000000));
#89 = DIRECTION('',(0.000000,0.000000,-1.000000));
#90 = AXIS2_PLACEMENT_3D('',#67,#88,#89);
#91 = PLANE('',#90);
#92 = FACE_SURFACE('',(#87),#91,.T.);
#93 = POLY_LOOP('',(#66,#65,#77,#76));
#94 = FACE_OUTER_BOUND('',#93,.T.);
#95 = DIRECTION('',(1.000000,-0.000000,0.000000));
#96 = DIRECTION('',(0.000000,0.000000,-1.000000));
#97 = AXIS2_PLACEMENT_3D('',#66,#95,#96);
#98 = PLANE('',#97);
#99 = FACE_SURFACE('',(#94),#98,.T.);
#100 = POLY_LOOP('',(#65,#64,#78,#77));
#101 = FACE_OUTER_BOUND('',#100,.T.);
#102 = DIRECTION('',(0.000000,1.000000,0.000000));
#103 = DIRECTION('',(0.000000,0.000000,1.000000));
#104 = AXIS2_PLACEMENT_3D('',#65,#102,#103);
#105 = PLANE('',#104);
#106 = FACE_SURFACE('',(#101),#105,.T.);
#107 = POLY_LOOP('',(#64,#67,#75,#78));
#108 = FACE_OUTER_BOUND('',#107,.T.);
#109 = DIRECTION('',(-1.000000,-0.000000,0.000000));
#110 = DIRECTION('',(0.000000,-0.000000,1.000000));
#111 = AXIS2_PLACEMENT_3D('',#64,#109,#110);
#112 = PLANE('',#111);
#113 = FACE_SURFACE('',(#108),#112,.T.);
#114 = CARTESIAN_POINT('',(78.000000,65.000000,18.000000));
#115 = CARTESIAN_POINT('',(78.000000,4.000000,18.000000));
#116 = POLY_LOOP('',(#67,#114,#115,#14));
#117 = FACE_OUTER_BOUND('',#116,.T.);
#118 = DIRECTION('',(0.000000,0.000000,-1.000000));
#119 = DIRECTION('',(-0.000000,1.000000,0.000000));
#120 = AXIS2_PLACEMENT_3D('',#67,#118,#119);
#121 = PLANE('',#120);
#122 = FACE_SURFACE('',(#117),#121,.T.);
#123 = CARTESIAN_POINT('',(78.000000,4.000000,21.000000));
#124 = CARTESIAN_POINT('',(78.000000,65.000000,21.000000));
#125 = POLY_LOOP('',(#28,#123,#124,#75));
#126 = FACE_OUTER_BOUND('',#125,.T.);
#127 = DIRECTION('',(0.000000,0.000000,1.000000));
#128 = DIRECTION('',(0.000000,-1.000000,0.000000));
#129 = AXIS2_PLACEMENT_3D('',#28,#127,#128);
#130 = PLANE('',#129);
#131 = FACE_SURFACE('',(#126),#130,.T.);
#132 = POLY_LOOP('',(#14,#115,#123,#28));
#133 = FACE_OUTER_BOUND('',#132,.T.);
#134 = DIRECTION('',(0.000000,-1.000000,0.000000));
#135 = DIRECTION('',(0.000000,0.000000,-1.000000));
#136 = AXIS2_PLACEMENT_3D('',#14,#134,#135);
#137 = PLANE('',#136);
#138 = FACE_SURFACE('',(#133),#137,.T.);
#139 = POLY_LOOP('',(#115,#114,#124,#123));
#140 = FACE_OUTER_BOUND('',#139,.T.);
#141 = DIRECTION('',(1.000000,-0.000000,0.000000));
#142 = DIRECTION('',(0.000000,0.000000,-1.000000));
#143 = AXIS2_PLACEMENT_3D('',#115,#141,#142);
#144 = PLANE('',#143);
#145 = FACE_SURFACE('',(#140),#144,.T.);
#146 = POLY_LOOP('',(#114,#67,#75,#124));
#147 = FACE_OUTER_BOUND('',#146,.T.);
#148 = DIRECTION('',(0.000000,1.000000,0.000000));
#149 = DIRECTION('',(0.000000,0.000000,1.000000));
#150 = AXIS2_PLACEMENT_3D('',#114,#148,#149);
#151 = PLANE('',#150);
#152 = FACE_SURFACE('',(#147),#151,.T.);
#153 = POLY_LOOP('',(#67,#14,#28,#75));
#154 = FACE_OUTER_BOUND('',#153,.T.);
#155 = DIRECTION('',(-1.000000,-0.000000,0.000000));
#156 = DIRECTION('',(0.000000,-0.000000,1.000000));
#157 = AXIS2_PLACEMENT_3D('',#67,#155,#156);
#158 = PLANE('',#157);
#159 = FACE_SURFACE('',(#154),#158,.T.);
#160 = CARTESIAN_POINT('',(109.000000,65.000000,18.000000));
#161 = CARTESIAN_POINT('',(109.000000,4.000000,18.000000));
#162 = POLY_LOOP('',(#160,#66,#15,#161));
#163 = FACE_OUTER_BOUND('',#162,.T.);
#164 = DIRECTION('',(0.000000,0.000000,-1.000000));
#165 = DIRECTION('',(-0.000000,1.000000,0.000000));
#166 = AXIS2_PLACEMENT_3D('',#160,#164,#165);
#167 = PLANE('',#166);
#168 = FACE_SURFACE('',(#163),#167,.T.);
#169 = CARTESIAN_POINT('',(109.000000,4.000000,21.000000));
#170 = CARTESIAN_POINT('',(109.000000,65.000000,21.000000));
#171 = POLY_LOOP('',(#169,#27,#76,#170));
#172 = FACE_OUTER_BOUND('',#171,.T.);
#173 = DIRECTION('',(0.000000,0.000000,1.000000));
#174 = DIRECTION('',(0.000000,-1.000000,0.000000));
#175 = AXIS2_PLACEMENT_3D('',#169,#173,#174);
#176 = PLANE('',#175);
#177 = FACE_SURFACE('',(#172),#176,.T.);
#178 = POLY_LOOP('',(#161,#15,#27,#169));
#179 = FACE_OUTER_BOUND('',#178,.T.);
#180 = DIRECTION('',(0.000000,-1.000000,0.000000));
#181 = DIRECTION('',(0.000000,0.000000,-1.000000));
#182 = AXIS2_PLACEMENT_3D('',#161,#180,#181);
#183 = PLANE('',#182);
#184 = FACE_SURFACE('',(#179),#183,.T.);
#185 = POLY_LOOP('',(#15,#66,#76,#27));
#186 = FACE_OUTER_BOUND('',#185,.T.);
#187 = DIRECTION('',(1.000000,-0.000000,0.000000));
#188 = DIRECTION('',(0.000000,0.000000,-1.000000));
#189 = AXIS2_PLACEMENT_3D('',#15,#187,#188);
#190 = PLANE('',#189);
#191 = FACE_SURFACE('',(#186),#190,.T.);
#192 = POLY_LOOP('',(#66,#160,#170,#76));
#193 = FACE_OUTER_BOUND('',#192,.T.);
#194 = DIRECTION('',(0.000000,1.000000,0.000000));
#195 = DIRECTION('',(0.000000,0.000000,1.000000));
#196 = AXIS2_PLACEMENT_3D('',#66,#194,#195);
#197 = PLANE('',#196);
#198 = FACE_SURFACE('',(#193),#197,.T.);
#199 = POLY_LOOP('',(#160,#161,#169,#170));
#200 = FACE_OUTER_BOUND('',#199,.T.);
#201 = DIRECTION('',(-1.000000,-0.000000,0.000000));
#202 = DIRECTION('',(0.000000,-0.000000,1.000000));
#203 = AXIS2_PLACEMENT_3D('',#160,#201,#202);
#204 = PLANE('',#203);
#205 = FACE_SURFACE('',(#200),#204,.T.);
#206 = CLOSED_SHELL('',(#24,#35,#42,#49,#56,#63,#74,#85,#92,#99,#106,#113,#122,#131,#138,#145,#152,#159,#168,#177,#184,#191,#198,#205));
#207 = FACETED_BREP('MP-01_module_plate',#206);
#208 = CARTESIAN_POINT('',(7.750000,3.412287,0.000000));
#209 = CARTESIAN_POINT('',(5.000000,1.824574,0.000000));
#210 = CARTESIAN_POINT('',(2.250000,3.412287,0.000000));
#211 = CARTESIAN_POINT('',(2.250000,6.587713,0.000000));
#212 = CARTESIAN_POINT('',(5.000000,8.175426,0.000000));
#213 = CARTESIAN_POINT('',(7.750000,6.587713,0.000000));
#214 = POLY_LOOP('',(#208,#209,#210,#211,#212,#213));
#215 = FACE_OUTER_BOUND('',#214,.T.);
#216 = DIRECTION('',(0.000000,0.000000,-1.000000));
#217 = DIRECTION('',(-0.000000,1.000000,0.000000));
#218 = AXIS2_PLACEMENT_3D('',#208,#216,#217);
#219 = PLANE('',#218);
#220 = FACE_SURFACE('',(#215),#219,.T.);
#221 = CARTESIAN_POINT('',(7.750000,6.587713,18.000000));
#222 = CARTESIAN_POINT('',(5.000000,8.175426,18.000000));
#223 = CARTESIAN_POINT('',(2.250000,6.587713,18.000000));
#224 = CARTESIAN_POINT('',(2.250000,3.412287,18.000000));
#225 = CARTESIAN_POINT('',(5.000000,1.824574,18.000000));
#226 = CARTESIAN_POINT('',(7.750000,3.412287,18.000000));
#227 = POLY_LOOP('',(#221,#222,#223,#224,#225,#226));
#228 = FACE_OUTER_BOUND('',#227,.T.);
#229 = DIRECTION('',(0.000000,0.000000,1.000000));
#230 = DIRECTION('',(0.000000,-1.000000,0.000000));
#231 = AXIS2_PLACEMENT_3D('',#221,#229,#230);
#232 = PLANE('',#231);
#233 = FACE_SURFACE('',(#228),#232,.T.);
#234 = POLY_LOOP('',(#213,#212,#222,#221));
#235 = FACE_OUTER_BOUND('',#234,.T.);
#236 = DIRECTION('',(0.500000,0.866025,0.000000));
#237 = DIRECTION('',(0.000000,0.000000,1.000000));
#238 = AXIS2_PLACEMENT_3D('',#213,#236,#237);
#239 = PLANE('',#238);
#240 = FACE_SURFACE('',(#235),#239,.T.);
#241 = POLY_LOOP('',(#212,#211,#223,#222));
#242 = FACE_OUTER_BOUND('',#241,.T.);
#243 = DIRECTION('',(-0.500000,0.866025,0.000000));
#244 = DIRECTION('',(0.000000,-0.000000,1.000000));
#245 = AXIS2_PLACEMENT_3D('',#212,#243,#244);
#246 = PLANE('',#245);
#247 = FACE_SURFACE('',(#242),#246,.T.);
#248 = POLY_LOOP('',(#211,#210,#224,#223));
#249 = FACE_OUTER_BOUND('',#248,.T.);
#250 = DIRECTION('',(-1.000000,0.000000,0.000000));
#251 = DIRECTION('',(0.000000,-0.000000,1.000000));
#252 = AXIS2_PLACEMENT_3D('',#211,#250,#251);
#253 = PLANE('',#252);
#254 = FACE_SURFACE('',(#249),#253,.T.);
#255 = POLY_LOOP('',(#210,#209,#225,#224));
#256 = FACE_OUTER_BOUND('',#255,.T.);
#257 = DIRECTION('',(-0.500000,-0.866025,0.000000));
#258 = DIRECTION('',(0.000000,-0.000000,-1.000000));
#259 = AXIS2_PLACEMENT_3D('',#210,#257,#258);
#260 = PLANE('',#259);
#261 = FACE_SURFACE('',(#256),#260,.T.);
#262 = POLY_LOOP('',(#209,#208,#226,#225));
#263 = FACE_OUTER_BOUND('',#262,.T.);
#264 = DIRECTION('',(0.500000,-0.866025,0.000000));
#265 = DIRECTION('',(0.000000,0.000000,-1.000000));
#266 = AXIS2_PLACEMENT_3D('',#209,#264,#265);
#267 = PLANE('',#266);
#268 = FACE_SURFACE('',(#263),#267,.T.);
#269 = POLY_LOOP('',(#208,#213,#221,#226));
#270 = FACE_OUTER_BOUND('',#269,.T.);
#271 = DIRECTION('',(1.000000,-0.000000,0.000000));
#272 = DIRECTION('',(0.000000,0.000000,-1.000000));
#273 = AXIS2_PLACEMENT_3D('',#208,#271,#272);
#274 = PLANE('',#273);
#275 = FACE_SURFACE('',(#270),#274,.T.);
#276 = CARTESIAN_POINT('',(147.750000,3.412287,0.000000));
#277 = CARTESIAN_POINT('',(145.000000,1.824574,0.000000));
#278 = CARTESIAN_POINT('',(142.250000,3.412287,0.000000));
#279 = CARTESIAN_POINT('',(142.250000,6.587713,0.000000));
#280 = CARTESIAN_POINT('',(145.000000,8.175426,0.000000));
#281 = CARTESIAN_POINT('',(147.750000,6.587713,0.000000));
#282 = POLY_LOOP('',(#276,#277,#278,#279,#280,#281));
#283 = FACE_OUTER_BOUND('',#282,.T.);
#284 = DIRECTION('',(0.000000,0.000000,-1.000000));
#285 = DIRECTION('',(-0.000000,1.000000,0.000000));
#286 = AXIS2_PLACEMENT_3D('',#276,#284,#285);
#287 = PLANE('',#286);
#288 = FACE_SURFACE('',(#283),#287,.T.);
#289 = CARTESIAN_POINT('',(147.750000,6.587713,18.000000));
#290 = CARTESIAN_POINT('',(145.000000,8.175426,18.000000));
#291 = CARTESIAN_POINT('',(142.250000,6.587713,18.000000));
#292 = CARTESIAN_POINT('',(142.250000,3.412287,18.000000));
#293 = CARTESIAN_POINT('',(145.000000,1.824574,18.000000));
#294 = CARTESIAN_POINT('',(147.750000,3.412287,18.000000));
#295 = POLY_LOOP('',(#289,#290,#291,#292,#293,#294));
#296 = FACE_OUTER_BOUND('',#295,.T.);
#297 = DIRECTION('',(0.000000,0.000000,1.000000));
#298 = DIRECTION('',(0.000000,-1.000000,0.000000));
#299 = AXIS2_PLACEMENT_3D('',#289,#297,#298);
#300 = PLANE('',#299);
#301 = FACE_SURFACE('',(#296),#300,.T.);
#302 = POLY_LOOP('',(#281,#280,#290,#289));
#303 = FACE_OUTER_BOUND('',#302,.T.);
#304 = DIRECTION('',(0.500000,0.866025,0.000000));
#305 = DIRECTION('',(0.000000,0.000000,1.000000));
#306 = AXIS2_PLACEMENT_3D('',#281,#304,#305);
#307 = PLANE('',#306);
#308 = FACE_SURFACE('',(#303),#307,.T.);
#309 = POLY_LOOP('',(#280,#279,#291,#290));
#310 = FACE_OUTER_BOUND('',#309,.T.);
#311 = DIRECTION('',(-0.500000,0.866025,0.000000));
#312 = DIRECTION('',(0.000000,-0.000000,1.000000));
#313 = AXIS2_PLACEMENT_3D('',#280,#311,#312);
#314 = PLANE('',#313);
#315 = FACE_SURFACE('',(#310),#314,.T.);
#316 = POLY_LOOP('',(#279,#278,#292,#291));
#317 = FACE_OUTER_BOUND('',#316,.T.);
#318 = DIRECTION('',(-1.000000,-0.000000,0.000000));
#319 = DIRECTION('',(0.000000,-0.000000,1.000000));
#320 = AXIS2_PLACEMENT_3D('',#279,#318,#319);
#321 = PLANE('',#320);
#322 = FACE_SURFACE('',(#317),#321,.T.);
#323 = POLY_LOOP('',(#278,#277,#293,#292));
#324 = FACE_OUTER_BOUND('',#323,.T.);
#325 = DIRECTION('',(-0.500000,-0.866025,0.000000));
#326 = DIRECTION('',(0.000000,-0.000000,-1.000000));
#327 = AXIS2_PLACEMENT_3D('',#278,#325,#326);
#328 = PLANE('',#327);
#329 = FACE_SURFACE('',(#324),#328,.T.);
#330 = POLY_LOOP('',(#277,#276,#294,#293));
#331 = FACE_OUTER_BOUND('',#330,.T.);
#332 = DIRECTION('',(0.500000,-0.866025,0.000000));
#333 = DIRECTION('',(0.000000,0.000000,-1.000000));
#334 = AXIS2_PLACEMENT_3D('',#277,#332,#333);
#335 = PLANE('',#334);
#336 = FACE_SURFACE('',(#331),#335,.T.);
#337 = POLY_LOOP('',(#276,#281,#289,#294));
#338 = FACE_OUTER_BOUND('',#337,.T.);
#339 = DIRECTION('',(1.000000,-0.000000,0.000000));
#340 = DIRECTION('',(0.000000,0.000000,-1.000000));
#341 = AXIS2_PLACEMENT_3D('',#276,#339,#340);
#342 = PLANE('',#341);
#343 = FACE_SURFACE('',(#338),#342,.T.);
#344 = CARTESIAN_POINT('',(7.750000,123.412287,0.000000));
#345 = CARTESIAN_POINT('',(5.000000,121.824574,0.000000));
#346 = CARTESIAN_POINT('',(2.250000,123.412287,0.000000));
#347 = CARTESIAN_POINT('',(2.250000,126.587713,0.000000));
#348 = CARTESIAN_POINT('',(5.000000,128.175426,0.000000));
#349 = CARTESIAN_POINT('',(7.750000,126.587713,0.000000));
#350 = POLY_LOOP('',(#344,#345,#346,#347,#348,#349));
#351 = FACE_OUTER_BOUND('',#350,.T.);
#352 = DIRECTION('',(0.000000,0.000000,-1.000000));
#353 = DIRECTION('',(-0.000000,1.000000,0.000000));
#354 = AXIS2_PLACEMENT_3D('',#344,#352,#353);
#355 = PLANE('',#354);
#356 = FACE_SURFACE('',(#351),#355,.T.);
#357 = CARTESIAN_POINT('',(7.750000,126.587713,18.000000));
#358 = CARTESIAN_POINT('',(5.000000,128.175426,18.000000));
#359 = CARTESIAN_POINT('',(2.250000,126.587713,18.000000));
#360 = CARTESIAN_POINT('',(2.250000,123.412287,18.000000));
#361 = CARTESIAN_POINT('',(5.000000,121.824574,18.000000));
#362 = CARTESIAN_POINT('',(7.750000,123.412287,18.000000));
#363 = POLY_LOOP('',(#357,#358,#359,#360,#361,#362));
#364 = FACE_OUTER_BOUND('',#363,.T.);
#365 = DIRECTION('',(0.000000,0.000000,1.000000));
#366 = DIRECTION('',(0.000000,-1.000000,0.000000));
#367 = AXIS2_PLACEMENT_3D('',#357,#365,#366);
#368 = PLANE('',#367);
#369 = FACE_SURFACE('',(#364),#368,.T.);
#370 = POLY_LOOP('',(#349,#348,#358,#357));
#371 = FACE_OUTER_BOUND('',#370,.T.);
#372 = DIRECTION('',(0.500000,0.866025,0.000000));
#373 = DIRECTION('',(0.000000,0.000000,1.000000));
#374 = AXIS2_PLACEMENT_3D('',#349,#372,#373);
#375 = PLANE('',#374);
#376 = FACE_SURFACE('',(#371),#375,.T.);
#377 = POLY_LOOP('',(#348,#347,#359,#358));
#378 = FACE_OUTER_BOUND('',#377,.T.);
#379 = DIRECTION('',(-0.500000,0.866025,0.000000));
#380 = DIRECTION('',(0.000000,-0.000000,1.000000));
#381 = AXIS2_PLACEMENT_3D('',#348,#379,#380);
#382 = PLANE('',#381);
#383 = FACE_SURFACE('',(#378),#382,.T.);
#384 = POLY_LOOP('',(#347,#346,#360,#359));
#385 = FACE_OUTER_BOUND('',#384,.T.);
#386 = DIRECTION('',(-1.000000,0.000000,0.000000));
#387 = DIRECTION('',(0.000000,-0.000000,1.000000));
#388 = AXIS2_PLACEMENT_3D('',#347,#386,#387);
#389 = PLANE('',#388);
#390 = FACE_SURFACE('',(#385),#389,.T.);
#391 = POLY_LOOP('',(#346,#345,#361,#360));
#392 = FACE_OUTER_BOUND('',#391,.T.);
#393 = DIRECTION('',(-0.500000,-0.866025,0.000000));
#394 = DIRECTION('',(0.000000,-0.000000,-1.000000));
#395 = AXIS2_PLACEMENT_3D('',#346,#393,#394);
#396 = PLANE('',#395);
#397 = FACE_SURFACE('',(#392),#396,.T.);
#398 = POLY_LOOP('',(#345,#344,#362,#361));
#399 = FACE_OUTER_BOUND('',#398,.T.);
#400 = DIRECTION('',(0.500000,-0.866025,0.000000));
#401 = DIRECTION('',(0.000000,0.000000,-1.000000));
#402 = AXIS2_PLACEMENT_3D('',#345,#400,#401);
#403 = PLANE('',#402);
#404 = FACE_SURFACE('',(#399),#403,.T.);
#405 = POLY_LOOP('',(#344,#349,#357,#362));
#406 = FACE_OUTER_BOUND('',#405,.T.);
#407 = DIRECTION('',(1.000000,-0.000000,0.000000));
#408 = DIRECTION('',(0.000000,0.000000,-1.000000));
#409 = AXIS2_PLACEMENT_3D('',#344,#407,#408);
#410 = PLANE('',#409);
#411 = FACE_SURFACE('',(#406),#410,.T.);
#412 = CARTESIAN_POINT('',(147.750000,123.412287,0.000000));
#413 = CARTESIAN_POINT('',(145.000000,121.824574,0.000000));
#414 = CARTESIAN_POINT('',(142.250000,123.412287,0.000000));
#415 = CARTESIAN_POINT('',(142.250000,126.587713,0.000000));
#416 = CARTESIAN_POINT('',(145.000000,128.175426,0.000000));
#417 = CARTESIAN_POINT('',(147.750000,126.587713,0.000000));
#418 = POLY_LOOP('',(#412,#413,#414,#415,#416,#417));
#419 = FACE_OUTER_BOUND('',#418,.T.);
#420 = DIRECTION('',(0.000000,0.000000,-1.000000));
#421 = DIRECTION('',(-0.000000,1.000000,0.000000));
#422 = AXIS2_PLACEMENT_3D('',#412,#420,#421);
#423 = PLANE('',#422);
#424 = FACE_SURFACE('',(#419),#423,.T.);
#425 = CARTESIAN_POINT('',(147.750000,126.587713,18.000000));
#426 = CARTESIAN_POINT('',(145.000000,128.175426,18.000000));
#427 = CARTESIAN_POINT('',(142.250000,126.587713,18.000000));
#428 = CARTESIAN_POINT('',(142.250000,123.412287,18.000000));
#429 = CARTESIAN_POINT('',(145.000000,121.824574,18.000000));
#430 = CARTESIAN_POINT('',(147.750000,123.412287,18.000000));
#431 = POLY_LOOP('',(#425,#426,#427,#428,#429,#430));
#432 = FACE_OUTER_BOUND('',#431,.T.);
#433 = DIRECTION('',(0.000000,0.000000,1.000000));
#434 = DIRECTION('',(0.000000,-1.000000,0.000000));
#435 = AXIS2_PLACEMENT_3D('',#425,#433,#434);
#436 = PLANE('',#435);
#437 = FACE_SURFACE('',(#432),#436,.T.);
#438 = POLY_LOOP('',(#417,#416,#426,#425));
#439 = FACE_OUTER_BOUND('',#438,.T.);
#440 = DIRECTION('',(0.500000,0.866025,0.000000));
#441 = DIRECTION('',(0.000000,0.000000,1.000000));
#442 = AXIS2_PLACEMENT_3D('',#417,#440,#441);
#443 = PLANE('',#442);
#444 = FACE_SURFACE('',(#439),#443,.T.);
#445 = POLY_LOOP('',(#416,#415,#427,#426));
#446 = FACE_OUTER_BOUND('',#445,.T.);
#447 = DIRECTION('',(-0.500000,0.866025,0.000000));
#448 = DIRECTION('',(0.000000,-0.000000,1.000000));
#449 = AXIS2_PLACEMENT_3D('',#416,#447,#448);
#450 = PLANE('',#449);
#451 = FACE_SURFACE('',(#446),#450,.T.);
#452 = POLY_LOOP('',(#415,#414,#428,#427));
#453 = FACE_OUTER_BOUND('',#452,.T.);
#454 = DIRECTION('',(-1.000000,-0.000000,0.000000));
#455 = DIRECTION('',(0.000000,-0.000000,1.000000));
#456 = AXIS2_PLACEMENT_3D('',#415,#454,#455);
#457 = PLANE('',#456);
#458 = FACE_SURFACE('',(#453),#457,.T.);
#459 = POLY_LOOP('',(#414,#413,#429,#428));
#460 = FACE_OUTER_BOUND('',#459,.T.);
#461 = DIRECTION('',(-0.500000,-0.866025,0.000000));
#462 = DIRECTION('',(0.000000,-0.000000,-1.000000));
#463 = AXIS2_PLACEMENT_3D('',#414,#461,#462);
#464 = PLANE('',#463);
#465 = FACE_SURFACE('',(#460),#464,.T.);
#466 = POLY_LOOP('',(#413,#412,#430,#429));
#467 = FACE_OUTER_BOUND('',#466,.T.);
#468 = DIRECTION('',(0.500000,-0.866025,0.000000));
#469 = DIRECTION('',(0.000000,0.000000,-1.000000));
#470 = AXIS2_PLACEMENT_3D('',#413,#468,#469);
#471 = PLANE('',#470);
#472 = FACE_SURFACE('',(#467),#471,.T.);
#473 = POLY_LOOP('',(#412,#417,#425,#430));
#474 = FACE_OUTER_BOUND('',#473,.T.);
#475 = DIRECTION('',(1.000000,-0.000000,0.000000));
#476 = DIRECTION('',(0.000000,0.000000,-1.000000));
#477 = AXIS2_PLACEMENT_3D('',#412,#475,#476);
#478 = PLANE('',#477);
#479 = FACE_SURFACE('',(#474),#478,.T.);
#480 = CLOSED_SHELL('',(#220,#233,#240,#247,#254,#261,#268,#275,#288,#301,#308,#315,#322,#329,#336,#343,#356,#369,#376,#383,#390,#397,#404,#411,#424,#437,#444,#451,#458,#465,#472,#479));
#481 = FACETED_BREP('standoffs_M3x18',#480);
#482 = PRODUCT('MP-01_module_plate','MP-01_module_plate','',(#12));
#483 = PRODUCT_DEFINITION_FORMATION('','',#482);
#484 = PRODUCT_DEFINITION('design','',#483,#13);
#485 = PRODUCT_DEFINITION_SHAPE('','',#484);
#486 = ADVANCED_BREP_SHAPE_REPRESENTATION('MP-01_module_plate',(#4,#207),#9);
#487 = SHAPE_DEFINITION_REPRESENTATION(#485,#486);
#488 = PRODUCT('standoffs_M3x18','standoffs_M3x18','',(#12));
#489 = PRODUCT_DEFINITION_FORMATION('','',#488);
#490 = PRODUCT_DEFINITION('design','',#489,#13);
#491 = PRODUCT_DEFINITION_SHAPE('','',#490);
#492 = ADVANCED_BREP_SHAPE_REPRESENTATION('standoffs_M3x18',(#4,#481),#9);
#493 = SHAPE_DEFINITION_REPRESENTATION(#491,#492);
ENDSEC;
END-ISO-10303-21;
